<svg class="main-svg" xmlns="http://www.w3.org/2000/svg" xmlns:xlink="http://www.w3.org/1999/xlink" width="700" height="450" style="" viewBox="0 0 700 450"><rect x="0" y="0" width="700" height="450" style="fill: rgb(255, 255, 255); fill-opacity: 1;"/><defs id="defs-a8805a"><g class="clips"><clipPath id="clipa8805axyplot" class="plotclip"><rect width="540" height="270"/></clipPath><clipPath class="axesclip" id="clipa8805ax"><rect x="80" y="0" width="540" height="450"/></clipPath><clipPath class="axesclip" id="clipa8805ay"><rect x="0" y="100" width="700" height="270"/></clipPath><clipPath class="axesclip" id="clipa8805axy"><rect x="80" y="100" width="540" height="270"/></clipPath></g><g class="gradients"/><g class="patterns"/></defs><g class="bglayer"/><g class="layer-below"><g class="imagelayer"/><g class="shapelayer"/></g><g class="cartesianlayer"><g class="subplot xy"><g class="layer-subplot"><g class="shapelayer"/><g class="imagelayer"/></g><g class="minor-gridlayer"><g class="x"/><g class="y"/></g><g class="gridlayer"><g class="x"><path class="xgrid crisp" transform="translate(151.48000000000002,0)" d="M0,100v270" style="stroke: rgb(238, 238, 238); stroke-opacity: 1; stroke-width: 1px;"/><path class="xgrid crisp" transform="translate(222.95,0)" d="M0,100v270" style="stroke: rgb(238, 238, 238); stroke-opacity: 1; stroke-width: 1px;"/><path class="xgrid crisp" transform="translate(294.43,0)" d="M0,100v270" style="stroke: rgb(238, 238, 238); stroke-opacity: 1; stroke-width: 1px;"/><path class="xgrid crisp" transform="translate(365.9,0)" d="M0,100v270" style="stroke: rgb(238, 238, 238); stroke-opacity: 1; stroke-width: 1px;"/><path class="xgrid crisp" transform="translate(437.38,0)" d="M0,100v270" style="stroke: rgb(238, 238, 238); stroke-opacity: 1; stroke-width: 1px;"/><path class="xgrid crisp" transform="translate(508.86,0)" d="M0,100v270" style="stroke: rgb(238, 238, 238); stroke-opacity: 1; stroke-width: 1px;"/><path class="xgrid crisp" transform="translate(580.3299999999999,0)" d="M0,100v270" style="stroke: rgb(238, 238, 238); stroke-opacity: 1; stroke-width: 1px;"/></g><g class="y"><path class="ygrid crisp" transform="translate(0,285.32)" d="M80,0h540" style="stroke: rgb(238, 238, 238); stroke-opacity: 1; stroke-width: 1px;"/><path class="ygrid crisp" transform="translate(0,227.70999999999998)" d="M80,0h540" style="stroke: rgb(238, 238, 238); stroke-opacity: 1; stroke-width: 1px;"/><path class="ygrid crisp" transform="translate(0,170.11)" d="M80,0h540" style="stroke: rgb(238, 238, 238); stroke-opacity: 1; stroke-width: 1px;"/><path class="ygrid crisp" transform="translate(0,112.5)" d="M80,0h540" style="stroke: rgb(238, 238, 238); stroke-opacity: 1; stroke-width: 1px;"/></g></g><g class="zerolinelayer"><path class="yzl zl crisp" transform="translate(0,342.91999999999996)" d="M80,0h540" style="stroke: rgb(68, 68, 68); stroke-opacity: 1; stroke-width: 1px;"/></g><path class="xlines-below"/><path class="ylines-below"/><g class="overlines-below"/><g class="xaxislayer-below"/><g class="yaxislayer-below"/><g class="overaxes-below"/><g class="plot" transform="translate(80,100)" clip-path="url(#clipa8805axyplot)"><g class="scatterlayer mlayer"><g class="trace scatter trace7414c6" style="stroke-miterlimit: 2; opacity: 1;"><g class="fills"/><g class="errorbars"/><g class="lines"><path class="js-line" style="vector-effect: none; fill: none; stroke: rgb(156, 39, 176); stroke-opacity: 1; stroke-width: 2px; opacity: 1;" d="M0,-5400L0.7098339174158159,-5399.999999999999L1.43,-673.55L3.22,10.39L3.57,49.89L3.93,-977.3L5,66.6L5.36,116.24L5.72,76.27L6.43,135.78L6.79,72.97L7.15,131.87L7.86,152.65L8.22,150.29L9.29,-778.91L10.36,161.2L10.72,161.57L11.79,150.97L12.15,165.2L12.87,146.37L13.22,93.85L14.3,180.64L16.8,159.88L17.51,189.16L17.87,139.57L18.58,186.54L18.94,184.31L19.3,140.42L20.37,190.02L21.44,174.08L21.8,162.85L22.16,191.8L22.51,188.1L23.23,169.39L23.94,193.25L24.3,123.24L25.37,181.27L26.09,123.57L26.8,195.99L27.52,150.81L28.59,196.68L29.31,193.9L30.73,200.72L31.09,189.48L31.81,37.25L32.16,197.35L35.38,201.79L35.74,198.36L36.81,185.66L37.17,202.15L37.88,177.93L38.24,179.34L38.6,183.56L38.95,201.44L39.31,199.15L39.67,179.39L40.03,204.44L40.74,182.63L41.46,202.31L42.89,199.62L43.24,203.6L44.67,190.99L45.03,104.71L45.74,203.21L46.1,182.04L46.46,205.35L46.82,167.52L47.17,175.24L47.89,200.35L48.6,204.97L48.96,190.21L49.68,201.84L51.11,202.99L51.46,158.78L51.82,188.96L52.18,202.14L52.53,204.72L53.61,180.85L55.75,201.66L56.11,199.54L56.82,203.38L57.9,181.08L58.25,195.72L58.61,178.16L59.32,204.1L60.04,197.35L60.75,203.83L61.11,201.3L61.47,165.55L62.54,202.45L62.9,195.59L63.26,190.2L63.61,200.95L64.33,207.63L64.69,185.87L65.04,204.16L65.4,190.04L65.76,193.91L66.12,130.39L66.47,191.44L67.54,202.19L68.26,174.6L68.62,195.01L69.69,200.25L70.76,200.42L72.19,205.32L72.55,186.75L72.91,187.85L73.26,194.83L73.98,186.8L74.69,202.68L75.41,176.73L76.12,202.58L76.84,192L77.19,113.1L78.27,199.89L78.62,174.53L78.98,201.14L79.34,181.73L80.05,203.6L80.41,198.27L80.77,175.22L82.55,205.18L82.91,203.17L83.63,197.31L83.98,187.88L84.34,204.82L84.7,164.6L85.06,205.99L85.41,204.74L86.13,204.56L86.49,105.91L87.2,172.4L88.27,201.93L88.99,141.28L90.77,203.56L91.13,196.58L91.85,207.91L92.2,198.63L92.56,193.4L92.92,142.37L93.63,204.31L93.99,202.81L95.78,200.94L96.49,190.25L96.85,190.37L97.92,197.44L98.28,201.64L98.64,153.19L100.07,203.62L100.42,201.81L100.78,204.36L101.14,178.84L101.85,201.23L102.57,203.28L102.93,178.16L103.64,198.69L104,201.32L105.43,200.52L105.78,201.26L106.14,199.72L107.21,205.29L108.64,202.72L109.36,183.2L109.72,199.7L111.14,171.45L111.5,202.12L111.86,204.08L112.22,185.56L112.57,204.54L112.93,183.31L114.36,205.8L114.72,189.31L115.08,155.01L115.79,199.74L116.86,196.96L117.58,199.75L117.94,192.33L118.29,198.57L118.65,206.74L119.01,189.01L120.44,201.72L120.79,204.57L121.51,188.39L122.58,204.4L122.94,192.85L123.3,203.63L123.65,192.9L124.37,205.68L125.08,199.71L125.8,154.54L126.15,205.54L126.51,200.36L126.87,200.61L127.58,196.51L127.94,198.87L128.66,191.96L129.01,200.49L129.37,196.18L129.73,196.76L130.09,204.91L130.44,192.59L130.8,197.92L131.16,197.34L131.52,202.04L131.87,184.2L133.66,191.24L134.02,204.71L134.73,187.72L135.09,204.32L136.52,183.11L137.23,201.96L137.59,205.9L137.95,202.75L139.02,201.18L139.38,199.21L139.74,185.2L140.09,186.97L140.45,206.54L140.81,189.32L141.16,136.1L142.24,199.08L142.59,201.62L143.31,185.17L143.67,203.34L144.38,179.13L145.1,198.8L145.45,193.56L145.81,201.81L146.17,187.71L147.24,175.57L147.6,196.17L147.95,185.31L148.31,190.9L149.38,201.08L149.74,197.65L150.46,177.32L150.81,193.67L151.89,185.89L152.24,206.98L152.6,204.6L153.32,185.14L153.67,205.23L154.03,184.13L155.1,203.58L155.82,203.51L156.17,196.28L156.89,200.63L157.25,143.66L157.6,208.03L158.32,206.01L158.68,199.64L159.03,199.63L159.39,206.42L160.82,203.2L161.18,169.32L161.89,206.52L162.25,203.67L162.96,200.1L163.68,200.66L164.39,191.19L164.75,202.9L165.11,198.83L165.82,184.69L166.18,155.63L166.54,199.98L167.97,181.7L168.33,192.97L169.04,193.03L169.4,200.64L169.76,161.97L170.83,207.81L171.9,172.62L172.26,198.92L172.61,198.02L172.97,204.86L174.4,153.64L174.76,193.91L175.12,205.36L175.47,205.24L176.55,202.94L176.9,205.66L177.62,181.73L177.97,202.9L178.33,201.75L179.05,191.87L179.4,206.08L179.76,3.92L181.55,204.05L181.91,203.87L182.26,179.47L182.62,202.53L182.98,204.39L183.34,203.23L183.69,195.73L184.41,188.12L184.77,196.63L185.48,206.28L185.84,179.83L186.19,204.72L186.91,200.21L187.98,204.76L189.41,199.28L190.48,197.33L190.84,186.02L191.2,202.09L191.91,201.22L192.27,200.8L192.98,202.26L193.34,191.02L193.7,203.93L194.06,192.22L194.41,169.94L195.13,204.8L195.49,204.47L196.56,202.02L197.27,183.67L197.63,193.99L197.99,201.91L198.35,185.16L198.7,207.16L199.42,198.56L200.85,159.34L201.2,189.3L201.56,202.05L202.28,188.69L202.63,199.08L202.99,191.31L203.35,195.3L204.78,196.49L205.85,179.75L207.28,193.17L208.71,131.87L209.07,195.47L209.42,181.32L210.14,183.43L210.5,183.78L210.85,170.51L211.21,167.87L211.57,200.91L212.28,196.82L212.64,185.5L213.71,206.89L214.07,192.13L214.78,197.67L215.14,186.72L216.21,203.55L216.93,207.56L217.29,164.65L217.64,199.13L218,203.3L219.07,202.98L219.43,151.44L220.5,196.59L220.86,181.36L221.58,204.33L222.29,203.53L222.65,189.4L223.36,200.99L223.72,170.43L224.08,203.51L224.79,200.73L225.86,180.38L226.58,205.59L226.94,203.68L227.65,197.05L229.08,145.85L229.44,202.57L230.15,205.92L230.51,203.87L231.94,193.23L232.65,161.43L233.73,201.73L234.08,187.63L235.51,201.77L235.87,173.94L236.23,204.81L238.37,163.62L240.52,208.82L241.23,194.56L241.59,206.25L241.95,145.23L242.3,202.11L242.66,195.89L243.02,165.44L243.73,204.32L244.09,196.38L244.45,163.59L244.8,191.75L245.52,182.92L245.88,206.74L246.23,202.89L246.59,196.6L247.31,205.17L247.66,189.57L248.02,187.08L248.38,193.51L248.74,190.15L249.09,199.31L250.88,205.78L251.24,197.72L251.95,171.51L253.38,186.05L254.45,202.64L254.81,175.37L256.24,200.43L256.96,193.15L257.31,201.76L257.67,200.26L258.39,182.18L258.74,203.13L259.1,168.59L259.46,208.29L259.81,181.37L260.17,183.93L261.24,204.81L261.6,190.79L262.67,206.59L263.75,181.82L264.1,203.78L264.46,202.82L265.18,175.65L265.53,205.14L265.89,201.1L266.25,182.89L266.6,201.35L268.39,180.93L268.75,193.4L269.82,203.69L270.18,205.84L270.89,200.87L271.25,161.87L272.68,183.12L273.4,185.43L274.11,204.37L274.47,185.63L274.82,194.71L275.18,199.75L275.54,204.81L275.9,195.59L276.25,200.25L276.97,185.23L277.33,204.49L277.68,147.22L278.4,205.32L278.76,190.08L279.11,181.06L279.47,204.58L279.83,200.76L280.9,194.18L281.61,194.25L281.97,198L283.4,204.4L283.76,197.73L284.12,204.59L284.47,185.97L284.83,202.41L285.55,173.96L285.9,206.09L287.33,193.4L287.69,201.72L288.05,176.04L288.41,191.19L289.48,200.23L289.83,200.99L290.55,187.01L290.91,195.54L291.98,168.47L292.34,207.63L292.69,187.55L293.05,188.07L293.41,202.49L293.77,180.61L294.12,179.44L294.48,202.33L295.55,183.47L295.91,186.26L296.62,182.69L297.34,187.26L297.7,203.72L298.41,181.38L298.77,194.63L299.13,192.2L299.84,199.18L300.2,203.19L300.91,201.54L301.27,201.01L301.99,182.77L303.77,207.16L304.13,205.75L305.2,175.25L306.63,198.68L307.35,171.16L308.06,200.61L309.13,205.2L309.49,199.81L310.21,205.18L310.92,158.53L311.28,198.56L313.06,165.72L313.42,193.96L314.49,201.3L314.85,182.2L315.21,204.29L315.57,160.61L315.92,206.29L316.64,206.08L317,207.06L318.07,153.04L318.78,200.87L319.85,180.52L320.57,183.32L320.93,165.96L322,202.22L323.43,163.2L323.79,185.23L324.14,131.45L324.5,194.71L325.22,199.98L325.57,198.73L326.29,186.69L327.36,206.24L327.72,205.89L328.07,203.87L328.43,194.4L328.79,182.37L329.15,200.43L329.86,175.58L331.29,159.88L331.65,202.06L332.01,158L332.36,189.08L332.72,205.75L333.08,189.69L333.43,161.22L334.15,147.46L335.58,197.33L335.94,194.18L336.29,179.26L336.65,201.11L337.72,175.22L338.08,193.08L338.44,189.06L339.15,187L340.23,202.68L340.94,204.55L341.3,203.59L341.65,204.89L342.73,201.2L343.08,206.4L343.44,185.46L343.8,200.36L344.16,202.77L344.51,163.94L344.87,181.45L345.59,206.24L345.94,185.12L347.02,171.47L348.8,204.43L349.52,190.91L349.87,204.14L350.23,201.91L350.59,174.22L350.95,193.76L351.3,190.11L352.38,146.79L352.73,196.28L353.45,194.7L353.81,204.07L354.52,200.97L355.23,193.45L355.59,200.38L355.95,195.52L356.66,205.59L357.38,175.96L357.74,206.43L358.09,202.36L358.45,172.17L358.81,205.05L359.17,203.12L359.52,94.78L359.88,204.53L361.31,209.19L362.03,193.71L362.38,150.02L363.1,203.78L363.45,123.37L365.24,199.58L366.67,205.02L367.39,202.41L367.74,204.5L368.46,206.38L369.89,194.8L370.24,199.04L370.6,161.37L370.96,202.92L371.32,199.35L372.75,197.76L373.46,144.56L373.82,151.76L374.89,183.66L376.68,207.13L377.39,205.46L378.11,203.83L378.46,187.1L378.82,202.31L379.54,193.5L380.61,181.67L380.97,123.96L382.04,203.82L382.4,200.51L382.75,199.13L383.11,205.1L383.47,164.85L383.83,190.25L384.9,172.43L385.25,201.53L385.97,191.97L386.33,191.26L386.68,194.9L387.04,183.27L387.76,187.28L388.11,207.05L388.47,193.46L388.83,198.37L390.26,206.89L390.62,201.01L392.4,196.95L393.12,201.97L393.83,204.95L394.19,204.75L394.55,204.42L395.62,189.97L395.98,197.92L396.33,203.81L396.69,200.2L397.05,180.36L398.12,209.05L398.84,157.28L399.91,203.3L400.26,197.36L400.62,194.97L400.98,204.92L402.41,207.67L403.12,157.27L403.84,204L404.2,185.57L404.55,182.01L404.91,156.74L405.27,172.18L405.63,173.57L406.34,189.35L407.05,201.57L408.13,160.69L408.48,203.15L409.2,205.2L409.56,200.07L410.27,204.6L410.63,172.28L410.99,200.77L411.34,184.03L411.7,196.44L412.06,144.83L412.77,200.87L414.2,185.28L414.56,198.29L415.63,202.24L415.99,148.53L417.06,200.03L417.42,191.55L418.85,185.51L419.21,193.57L419.56,200.81L420.28,192.24L420.64,169.42L420.99,196.75L422.42,205.97L423.14,201.27L424.57,201.24L424.92,204.86L425.28,206.67L426.35,200.32L427.07,184.97L427.43,190.55L427.78,184.18L428.14,166.55L429.21,169.54L429.57,189.13L430.64,205.86L431,197.88L431.36,202.49L432.07,136.96L432.43,186.57L433.5,205.13L434.22,144.42L434.93,199.88L435.29,191.02L436.36,190.76L436.72,141.97L437.07,200.6L437.79,203.74L438.86,187.47L440.29,204.62L440.65,198.26L441.01,185.21L442.44,202.21L443.15,138.46L443.51,204.99L443.86,197.43L444.22,199.73L444.58,201.3L445.29,180.42L446.37,188.77L446.72,201.85L447.08,186.54L447.44,199.71L448.15,190.97L448.87,193.79L449.23,203.38L450.3,203.22L450.66,186.26L451.37,188.68L451.73,201.25L452.08,199.15L452.44,159.39L453.16,202.15L454.23,204.6L454.59,203.81L456.02,189.89L456.37,194.1L456.73,129.43L457.45,200.85L458.16,179.16L458.52,195.5L459.23,179.12L459.59,206.13L460.3,184.68L461.02,175.79L461.38,181.25L462.09,200.56L462.81,199.47L463.16,201.52L463.88,173.5L464.95,205L465.31,204.46L466.02,187.01L466.38,202.26L466.74,203.8L467.09,181.14L468.88,202.82L469.24,173.18L469.6,203.46L469.95,122.77L471.38,194.03L471.74,156.19L472.46,193.37L473.17,192.21L473.53,201.15L473.88,203.07L474.6,182.7L476.39,205.35L477.1,190.62L479.25,190.1L479.6,191.51L480.32,203.24L480.68,193.77L482.82,177.85L483.18,199.05L483.89,146.81L484.25,202.5L484.96,206.64L485.32,185.06L486.75,198.42L487.11,192.12L487.47,190.96L487.82,173.06L488.18,118.07L488.54,206.05L488.89,202.3L490.32,204.7L490.68,174.88L491.04,206.05L491.4,177.11L491.75,197.71L492.83,197.07L493.18,195.6L493.54,195.33L494.97,173.12L495.68,199.14L496.76,200.69L497.11,201.31L497.83,200.9L498.9,181.27L499.26,197.48L499.97,201.63L500.33,180.28L501.05,185.74L501.4,203.1L501.76,109.27L502.12,173.69L502.48,202.78L502.83,184.33L504.98,201.79L506.05,203.75L506.41,206.96L507.12,202.41L507.84,174.78L509.27,198.23L509.62,197.71L509.98,118.4L510.34,204.83L511.41,128.21L512.48,202.99L513.2,186.61L514.27,202.25L514.63,190.3L514.98,187.53L516.06,201.37L516.77,202.67L517.13,199.16L517.49,197.83L517.84,199.78L518.2,183.76L518.56,199.27L518.91,201.64L519.99,173.06L520.34,205.06L521.06,175.46L521.42,189.51L521.77,178.51L522.13,203.29L522.49,200.77L522.85,180.77L523.2,188.74L525.35,188.87L526.42,207.95L526.78,176.83L527.85,183.83L529.28,79.32L529.99,202.74L530.35,167.93L531.42,195.19L531.78,183.53L532.14,199.86L532.5,170.26L533.57,204.78L533.92,196.98L535.35,202.44L535.71,188.09L536.78,204.09L537.5,166.72L537.86,183.63L539.29,188.22L539.64,190.38L540,201.96"/></g><g class="points"/><g class="text"/></g><g class="trace scatter trace569b0e" style="stroke-miterlimit: 2; opacity: 1;"><g class="fills"/><g class="errorbars"/><g class="lines"><path class="js-line" style="vector-effect: none; fill: none; stroke: rgb(255, 0, 0); stroke-opacity: 1; stroke-width: 2px; opacity: 1;" d="M0,-5246.32L5,-134.3L5.36,-97.35L5.72,-55.86L6.08,-386.65L6.43,-18.11L8.22,59.4L8.58,64.57L8.93,6.69L9.29,77.15L9.65,-296.73L10.01,67.52L10.36,95.54L11.44,104.52L11.79,67.35L12.51,114.09L12.87,113.69L13.22,111.12L13.94,128.14L14.3,87.66L15.37,129.15L15.72,133.46L16.44,133.77L16.8,130.9L17.15,137.06L17.51,134.46L17.87,-108.53L19.66,121.35L20.01,125.58L21.44,134.36L21.8,133.92L22.16,133.07L23.23,135.75L23.59,135.27L23.94,134.57L24.3,137.58L24.66,135.62L25.02,136.94L25.37,136.3L25.73,138.9L26.09,136.32L26.45,136.78L27.16,139.48L27.52,136.76L28.23,140.68L28.59,139.14L28.95,137.53L29.31,140.03L29.66,139.12L30.02,140.53L30.38,139.65L30.73,134.99L31.45,142.89L31.81,141.98L32.16,138.52L33.59,143.73L33.95,142.18L34.67,143.99L35.02,142.62L35.38,141.63L35.74,144.09L36.1,144.43L36.45,141.95L37.88,146.62L38.24,142.65L39.31,145.51L39.67,141.47L40.74,147.94L41.1,148.41L41.46,148.46L41.81,147.55L43.24,149.65L43.6,147.42L43.96,149.7L44.32,149.52L44.67,149.33L45.03,150.5L45.39,148.35L46.46,150.17L46.82,149.52L47.89,149.8L48.25,148.59L49.32,151.55L49.68,150.64L50.03,151.24L50.39,150.61L50.75,147.23L51.82,151.09L52.18,151.28L52.53,150.64L52.89,151.82L53.25,151.16L53.61,152.01L53.96,151.82L54.32,152.28L54.68,150.9L55.39,150.5L55.75,151.49L56.11,152.42L56.47,151.77L56.82,151.8L57.9,151.5L58.25,152.17L58.61,150.57L58.97,152.69L61.11,152.25L61.47,152.98L63.61,152.62L63.97,153.1L64.33,153.04L64.69,152.16L66.47,153.45L66.83,152.69L67.9,153.23L68.26,153.16L69.33,153.3L69.69,153.38L70.76,153.24L71.12,153.22L73.62,153.17L73.98,153.16L101.85,153.21L102.21,153.21L245.88,153.23"/></g><g class="points"/><g class="text"/></g><g class="trace scatter traceed4324" style="stroke-miterlimit: 2; opacity: 1;"><g class="fills"/><g class="errorbars"/><g class="lines"><path class="js-line" style="vector-effect: none; fill: none; stroke: rgb(255, 165, 0); stroke-opacity: 1; stroke-width: 2px; opacity: 1;" d="M0,-5400L8.077516172337347,-5399.999999999971L8.22,-1644.78L8.58,-262.78L10.01,-354.01L10.36,-39.54L10.72,-8L11.44,-18.34L11.79,-3.03L12.51,47.58L12.87,-24.92L13.22,57.53L13.94,56.83L14.3,91.67L14.65,-89.75L15.01,-97.06L15.37,102.14L15.72,104.69L16.08,113.51L16.8,57.8L17.15,7.63L17.51,-63.84L17.87,104.63L18.23,129.01L18.58,54.11L20.01,-479.51L20.37,132.9L20.73,140.39L21.09,94.62L21.44,-85.03L21.8,115.27L22.16,96.61L22.51,148.17L23.23,20.01L23.59,134.51L23.94,0L24.3,26.85L24.66,135.75L25.02,-137.47L25.37,-107.01L25.73,135.72L26.09,132.3L26.45,136.14L27.16,150.54L27.52,128.39L28.23,160.51L28.59,122.45L28.95,160.29L29.31,149.12L29.66,124.25L30.02,152.18L30.38,150.89L30.73,144.05L31.09,-102.48L31.45,13.96L31.81,141.99L32.16,62.51L32.52,128.62L32.88,133.89L33.24,157.97L33.59,149.5L33.95,-108.03L35.02,157.51L35.38,134.17L35.74,45.94L36.81,153.02L37.17,156.82L37.88,103.54L38.24,149.86L38.6,38.6L38.95,155.61L39.31,157.57L39.67,45.63L40.03,147.6L40.38,141.66L40.74,164.93L41.1,149.6L41.46,-44.12L41.81,149.73L42.53,134.54L42.89,8.11L43.96,149.95L44.32,139.98L44.67,142.74L45.03,155.67L45.39,152.11L45.74,136.14L46.1,139.15L46.46,-196.73L47.17,145.46L47.53,-115.59L47.89,167.28L48.6,159.92L48.96,96.25L49.32,150.3L49.68,43.51L50.03,162.71L50.39,129.61L50.75,41.08L52.18,170.15L52.53,169.78L52.89,117.28L53.25,170.09L53.61,166.84L53.96,-133.84L54.32,161.23L54.68,161.08L55.04,165.14L55.39,94L56.11,146.13L56.47,128.78L56.82,129.98L57.18,-16.95L57.54,118.05L57.9,122.36L58.25,163.05L58.61,135.02L58.97,41.5L59.32,166.4L59.68,106L60.04,-0.98L60.75,170.71L61.11,103.39L61.47,-11.63L61.83,109.89L62.18,155.57L62.54,68.55L62.9,165.85L63.26,57.09L63.61,160.56L63.97,151.59L64.33,158.3L64.69,37.03L65.4,164.13L65.76,151.11L66.12,158.15L66.47,150.1L66.83,156.45L67.19,165.21L67.54,164.23L67.9,118.53L68.62,135.85L68.97,98.05L69.33,166.46L69.69,131.52L70.05,134.82L70.76,168.4L71.12,58.52L72.19,154.98L72.55,142.21L72.91,141.47L73.26,-211.21L73.62,156.03L73.98,139.58L74.33,-221.87L74.69,159.54L75.41,-15.19L75.76,95.46L76.12,155.72L76.48,46.97L76.84,173.3L77.19,155.33L77.55,135.9L77.91,153.56L78.27,59.82L78.62,98.82L78.98,-54.27L79.34,59.06L79.7,153.84L80.05,136.93L80.41,139.17L80.77,153.79L81.13,125.37L81.48,164.39L81.84,163.36L82.2,148.09L82.55,147.02L82.91,157.17L83.27,-6.58L83.63,152.37L83.98,124.67L84.34,105.02L84.7,163.3L85.06,164.09L85.41,42.01L85.77,155.11L86.13,146.77L86.49,117.11L87.2,157.82L87.56,-1.97L88.63,152.76L88.99,162.79L89.34,150.12L89.7,166.35L90.77,129.9L91.13,149.67L91.49,33.27L91.85,157.28L92.2,51.48L92.56,166.88L92.92,156L93.28,132.5L93.63,127.54L93.99,150.96L94.35,150.09L94.71,164.81L95.06,-62.71L95.42,158.74L95.78,126.34L96.14,-1.08L96.49,162.73L97.21,97.83L97.56,116.81L97.92,166.02L98.28,40.5L98.64,154.78L98.99,135.69L100.07,160.98L100.42,-44.45L101.5,160L101.85,15.69L102.21,174.79L102.57,152.79L102.93,118.94L103.28,164.87L103.64,164.22L104,160.81L104.35,154.25L104.71,104.3L105.07,162.89L105.43,138.65L105.78,107.71L106.14,161.04L106.5,160.19L106.86,141.22L107.21,166.46L107.57,110.55L107.93,158.83L108.29,158.53L108.64,146.53L109,-9.31L109.36,164.81L109.72,143.53L110.07,162.74L110.43,49.17L111.14,148.08L111.5,129.8L111.86,153.5L112.22,160.56L112.57,159.99L112.93,156.97L113.29,158.25L113.65,164.01L114.36,161.67L114.72,106.98L115.43,95.79L115.79,163.97L116.15,162.12L116.51,142.43L116.86,159.89L117.22,135.67L118.29,162.35L118.65,148.68L119.36,-16.4L119.72,141.45L120.08,-157.92L120.44,-6.05L120.79,153.86L121.15,154.48L121.51,149.51L121.87,125.31L122.22,162.9L122.58,164.24L122.94,56.65L123.3,162.06L123.65,156.09L124.01,126.47L124.37,-45.77L124.73,-19.13L125.08,149.81L125.8,118.27L126.15,14.81L126.87,165.52L127.23,164.36L127.58,131.78L128.3,164.46L128.66,160.97L129.01,118.32L129.37,164.73L129.73,163.86L130.09,139.12L130.44,164.96L130.8,124.54L131.16,149.08L131.52,141.54L131.87,134.23L132.59,100.64L132.95,167.02L133.3,135.88L133.66,163.4L134.02,-164.16L134.73,161.9L135.09,71.74L135.45,128.11L136.16,160.85L136.52,-92.87L137.23,171.54L137.59,160.46L137.95,75.92L138.66,140.31L139.02,129.97L139.38,160.09L139.74,149.06L140.09,95.35L141.16,149.94L141.52,76.84L142.24,158.47L142.59,158.09L142.95,103.8L143.67,164.45L144.02,127.01L144.38,162.48L144.74,-13.8L145.1,165.73L145.81,161.54L146.17,151.35L147.24,-37.88L147.6,157.92L147.95,152.22L148.31,-195.49L148.67,160.87L149.38,145.34L149.74,31.38L150.1,-102.02L150.46,165.57L150.81,155.42L151.17,161.19L151.53,162.98L151.89,47.61L152.24,155.99L152.6,154.08L152.96,159.1L153.32,48.85L153.67,138.96L154.03,-100.84L155.1,160.19L155.46,25.74L156.53,165.86L156.89,162.59L157.25,-49.73L157.6,130.49L157.96,129.43L158.32,123.4L158.68,39.42L159.39,163.17L159.75,149.15L160.11,154.99L160.46,131.89L160.82,158.42L161.18,15.69L161.54,155.13L161.89,132.48L162.25,68.06L162.61,141.45L162.96,139.5L163.32,124.07L163.68,155.27L164.04,6.55L164.39,171.25L164.75,165.73L165.11,156.82L165.47,34.9L165.82,166.25L166.18,158.93L166.54,127.08L166.9,163.57L167.25,136.69L167.61,166.25L167.97,23.61L168.33,163.64L169.04,160L169.4,-0.32L169.76,143.62L170.11,-3.81L170.47,106.72L170.83,139.33L171.18,124.28L171.54,45.08L172.26,169.34L172.61,35.37L173.69,164.76L174.04,-5.45L174.4,161.65L174.76,149.21L175.12,60.96L175.83,161.87L176.19,156.55L176.55,47.56L177.62,148.06L177.97,159.13L178.33,162.55L178.69,158.19L179.05,147.39L179.4,163.5L179.76,143.62L180.12,160.23L180.48,67.2L181.19,165.89L181.55,153.73L181.91,-131.52L182.26,163.75L182.62,117.92L183.69,140.88L184.05,29.45L184.41,149.73L184.77,84.06L185.12,133.05L185.48,168.79L185.84,158.68L186.19,162.32L186.55,167.8L186.91,160.94L187.27,41.71L187.62,162.2L187.98,123.41L188.34,70.41L188.7,138.76L189.05,163L189.41,99.66L189.77,152.42L190.13,132.64L190.48,-142.22L191.56,159.83L191.91,158.21L192.27,160.1L192.63,131.87L193.34,158.84L193.7,132.48L194.06,-96.62L194.41,142.37L194.77,162.39L195.13,167.3L195.49,29.74L196.2,161.62L196.56,123.93L196.92,112.87L197.27,-18.97L197.63,171.68L197.99,158.02L198.35,-23.37L198.7,167.48L199.42,164.39L199.77,152.35L200.13,132.88L200.49,167.5L201.56,135.27L201.92,172.87L202.28,60.36L202.63,150.24L202.99,135.89L203.35,-1.53L203.71,161.57L204.78,129.99L205.14,158.21L205.49,68L205.85,116.44L206.21,127.16L206.57,43.63L206.92,58.65L207.28,161L208.35,151.6L208.71,160.12L209.07,86.41L209.42,164.39L209.78,154.26L210.14,-27.54L210.5,161.46L210.85,144.49L211.21,147.9L211.57,129.59L211.93,152.03L212.28,-96.38L213,163.13L213.36,140.33L213.71,162.45L214.07,164.59L214.43,100.82L214.78,170.04L215.5,166.76L215.86,169.35L216.57,1.94L216.93,89.04L218,164.46L218.36,166.23L218.72,72.65L219.07,125.23L219.43,161.25L219.79,44.6L220.15,168.8L220.5,69.24L221.22,161.36L221.58,134.26L221.93,160.46L222.29,136.42L222.65,46.31L223.36,142.12L223.72,-3.75L224.43,160.61L224.79,144.55L225.15,161.51L225.51,93.6L225.86,159.41L226.22,133.13L227.29,168.92L227.65,117.44L228.01,134.91L228.37,-26.19L228.72,167.46L229.08,-50.48L230.15,167.26L230.51,-27.66L231.22,161.75L231.58,127.73L231.94,134.21L232.3,155.14L232.65,142.67L233.01,156.74L234.08,131.95L234.44,159.44L234.8,146.48L235.16,-19.63L236.23,157.88L236.59,167.92L237.3,118.4L237.66,150.87L238.01,125.94L238.37,156.31L238.73,147.27L239.09,166.1L239.44,113.64L239.8,157.25L240.16,165.25L241.59,59.39L241.95,159.1L242.66,85.06L243.02,158.49L243.38,154.62L243.73,133.26L244.09,53.11L244.45,160.82L244.8,155.91L245.16,-68.76L245.52,-24.38L245.88,169.33L246.23,136.84L246.59,33.66L246.95,165.19L247.31,131.09L247.66,129.91L248.02,47.41L248.38,133.98L248.74,162.89L249.09,132.32L249.45,136.11L249.81,158.47L250.17,160.61L250.52,16.05L250.88,141.18L251.59,-167.96L251.95,104.81L252.31,-38.25L252.67,152.33L253.02,-51.54L253.38,159.7L253.74,166.34L254.1,154.78L254.45,76.06L254.81,148.85L255.17,24.71L255.53,163.34L255.88,161.54L256.24,-10.44L256.6,158.55L256.96,130.15L257.31,44.88L258.03,155.61L258.39,112.71L258.74,117.02L259.1,139.89L259.46,161.9L259.81,161.51L260.17,143.39L260.89,165.72L261.24,163.85L261.6,158.49L262.32,152.85L262.67,157.64L263.03,67.31L263.39,143.45L263.75,158.57L264.1,156.73L264.46,147.58L264.82,161.25L265.53,160.2L265.89,140.61L266.25,158.48L266.6,-46.67L266.96,160.81L267.68,151.97L268.03,165.52L268.75,142.7L269.11,29.09L269.46,164.72L269.82,161.04L270.18,132.92L270.54,108.56L270.89,162.53L271.25,163.59L271.61,156.38L271.97,138.38L272.32,-58.59L273.4,153.23L273.75,130.44L274.11,104.95L274.47,135.8L274.82,163.12L275.18,23.19L275.54,129.69L275.9,92.26L276.25,91.24L276.97,138.03L277.33,130.27L277.68,74.45L278.04,-71.96L278.4,157.91L278.76,148.95L279.11,152.33L279.47,163.28L279.83,70.75L280.19,139.08L280.54,147.81L280.9,133.21"/></g><g class="points"/><g class="text"/></g><g class="trace scatter trace36ee65" style="stroke-miterlimit: 2; opacity: 1;"><g class="fills"/><g class="errorbars"/><g class="lines"><path class="js-line" style="vector-effect: none; fill: none; stroke: rgb(173, 216, 230); stroke-opacity: 1; stroke-width: 2px; opacity: 1;" d="M0,-3553.04L2.5,-120.29L3.22,-13.58L3.93,44.43L5,-10L6.08,69.92L6.43,74.84L7.5,120.81L7.86,117.6L8.22,138.6L8.93,130.34L10.01,156.99L10.36,161.28L11.44,172.02L11.79,-50.79L12.87,176.99L13.22,180.14L13.58,180.27L13.94,178.71L14.3,173.37L15.01,186.45L15.37,136.5L16.44,183.94L16.8,72.45L17.15,187.64L17.51,190.22L17.87,193.11L18.23,160.65L18.94,195.55L19.3,189.56L19.66,195.32L20.73,195.96L21.44,194.15L21.8,197.46L22.16,189.41L22.51,179.6L23.23,198.19L23.59,126.76L23.94,196.88L24.3,-1052.57L25.02,197.97L25.73,192.46L26.09,173.18L27.52,202.39L27.88,203.59L28.23,201.5L28.59,191.21L28.95,167.59L29.31,198.5L29.66,194.74L30.02,158.82L31.09,200.18L31.45,202.92L31.81,203.77L32.16,196.69L32.88,204.38L33.59,-510.39L34.31,189.26L35.38,203.86L36.81,201.17L37.17,204.42L37.88,203.07L38.24,204.44L38.6,202.89L38.95,148.05L40.03,204.6L40.74,-136.6L41.81,192.19L42.17,201.56L42.53,199.28L42.89,203.08L43.6,204.04L43.96,-733.15L45.39,204.76L45.74,204.42L46.1,204.11L46.46,201.86L46.82,204.64L47.17,194.46L47.89,204.09L48.6,-6.8L50.39,178.1L51.11,185.48L52.53,198.64L52.89,197.28L53.61,200.35L54.32,198.4L55.04,203.31L55.75,203.77L56.47,204.32L56.82,192.42L57.9,203.7L58.25,205.83L58.61,199.1L58.97,203.03L59.32,204.99L60.04,174.63L60.4,204.55L61.83,207.52L62.18,207.32L62.54,207.68L62.9,11.71L63.26,206.85L63.61,205.89L64.33,206.49L65.04,208.54L65.4,206.22L65.76,175.73L66.12,203.03L66.47,206.45L67.54,208.29L67.9,206.28L68.26,208.87L68.62,208.4L68.97,208.37L70.4,208.13L70.76,153.23L71.48,208.64L72.19,-1220.37L73.26,209.14L73.62,208.69L75.05,209.53L75.41,107.78L76.12,209.95L76.84,209.57L77.19,182.13L77.91,-634.87L78.27,206.25L78.62,205.6L78.98,210.95L79.7,208.76L80.05,210.05L80.41,209.6L80.77,207.77L81.84,201.29L82.2,204.56L83.63,208.58L83.98,209.29L84.34,205.21L84.7,207.8L85.06,208.19L86.13,209.79L86.49,209L87.56,210.54L87.92,207.52L88.63,210.97L88.99,210.5L90.42,211.25L90.77,210.94L91.85,211.64L92.2,210.7L92.56,210.67L92.92,205.76L93.99,212.2L94.71,211.93L95.78,211.46L96.49,212.28L98.64,211.32L99.35,212.59L99.71,212.58L100.07,211.54L100.42,-166.66L100.78,208.99L101.14,211.17L102.21,212.61L102.57,211.59L102.93,212.77L103.28,210.8L103.64,212.74L104,212.24L104.35,211.57L105.07,212.7L105.43,211.6L105.78,212.79L106.14,210.94L106.5,212.95L106.86,212.17L107.21,211.29L107.57,213.01L107.93,211.61L108.29,209.96L108.64,211.88L109,208.1L109.72,213.17L110.07,212.33L110.43,212.97L111.14,207.62L111.5,212.62L112.93,213.05L113.65,213.46L114,213.63L114.36,212.81L115.79,212.46L116.15,213.25L117.94,213.32L118.29,211.35L118.65,-25.85L119.01,211.9L119.36,213.11L119.72,213.49L120.08,212.7L121.51,213.08L121.87,212.85L123.65,213.74L124.01,213.81L125.08,213.27L125.8,209.64L126.87,213.59L127.58,213.71L128.66,210.66L129.01,110.08L129.73,213.91L130.09,213.45L130.44,213.79L131.87,213.17L133.3,213.66L133.66,213.26L134.02,213.94L134.73,198.97L135.09,213.83L136.16,214.21L136.52,214.24L137.23,213.02L137.59,211.19L137.95,213.9L139.02,212.96L139.38,210.07L140.09,214.4L140.45,213.77L140.81,214.16L141.16,213.19L141.52,214.36L141.88,213.9L142.24,213.15L142.59,214.09L142.95,213.85L144.02,214.52L144.38,211.02L144.74,213.97L145.1,213.54L145.45,210.49L146.17,214.36L146.53,212.85L147.6,212.97L147.95,212L148.31,213.31L149.38,210.02L150.46,214.58L150.81,214.3L151.17,214.32L151.53,213.54L152.6,213.4L153.32,212.84L154.03,214.71L155.1,214.27L155.46,214.81L155.82,213.55L156.17,196.15L156.53,214.3L156.89,214.75L158.68,214.97L159.03,214.17L159.39,212.93L160.82,214.61L161.18,214.94L161.54,214.49L161.89,214.17L162.25,214.64L162.61,214.18L162.96,214.29L164.39,214.19L164.75,213.93L165.11,214.51L165.47,214.04L165.82,212.16L166.18,214.52L166.54,213.64L167.25,208.83L167.97,215L168.33,213.37L169.76,214.62L170.83,214.39L171.18,213.94L171.54,214.42L171.9,214.69L172.61,212.88L172.97,214.85L174.04,214.32L174.4,214.41L174.76,210.68L175.12,211.65L175.47,215.06L176.55,213.05L176.9,214.29L177.62,198.44L177.97,215.08L179.76,214.77L180.83,214.92L181.55,213.51L181.91,214.23L182.26,214.51L182.62,215.09L182.98,214.51L183.34,214.62L185.84,215.02L186.19,214.21L186.91,214.99L187.98,212.69L189.77,214.9L190.13,214.81L191.2,214.7L191.56,213.92L191.91,215.35L192.27,214.74L192.63,214.76L194.41,215.14L195.13,214.51L195.49,213.95L195.84,215.39L197.27,214.96L197.63,215.48L198.7,215.13L199.42,215.09L200.49,215.01L200.85,214.66L202.28,215.46L202.63,214.69L203.71,215.35L204.06,215.15L205.49,214.63L205.85,215.05L210.5,215.19L210.85,214.61L211.93,215.37L212.28,215.29L214.07,215.41L214.78,215.17L216.57,214.51L216.93,215.41L218,214.88L218.72,215.4L219.79,215.23L220.15,215.34L221.22,214.77L221.58,215.02L222.65,215.02L223.36,215.22L224.79,215.5L225.86,215.28L228.72,215.41L229.08,215.43L230.15,215.57L230.51,214.66L231.58,215.37L231.94,215.51L234.08,215.16L235.16,215.53L437.43,215.54"/></g><g class="points"/><g class="text"/></g><g class="trace scatter traced1eb10" style="stroke-miterlimit: 2; opacity: 1;"><g class="fills"/><g class="errorbars"/><g class="lines"><path class="js-line" style="vector-effect: none; fill: none; stroke: rgb(76, 175, 80); stroke-opacity: 1; stroke-width: 2px; opacity: 1;" d="M0,-3562.37L0.71,-4349.42L2.14,-395.2L2.5,-127.1L3.22,-13.34L3.57,-1901.27L3.93,-155.38L4.29,45.83L4.65,-159.57L5,-18.28L5.36,69.17L6.08,95.84L6.43,-160.16L7.15,103.95L7.5,-490.98L7.86,118.52L8.22,75.24L8.58,110.9L8.93,127.97L9.29,64.88L9.65,139.71L10.01,139.62L10.36,142.44L11.44,80.28L11.79,-153.73L12.87,152.75L13.22,78.41L13.58,120.24L13.94,72.47L14.65,162.24L15.01,146.2L15.37,158.76L15.72,161.43L16.08,153.92L16.44,167.45L16.8,-52.44L17.87,169.02L18.23,159.45L18.58,101.12L18.94,167.65L19.3,-109.27L19.66,180.75L20.01,148.98L20.37,183.68L20.73,179.93L21.09,167.69L21.44,180.37L21.8,160.61L22.51,189.62L22.87,156.26L23.23,195.36L23.59,138.32L23.94,175.98L24.3,132.44L25.37,183.45L25.73,157.11L26.45,192.49L26.8,192.15L27.16,196.19L27.52,145.87L27.88,195.68L28.23,188.05L28.59,181.72L28.95,161.61L30.38,198.65L30.73,201.48L31.09,199.28L31.45,199.71L31.81,189.32L32.16,197.54L32.88,197.2L33.24,198.86L33.59,201.51L33.95,163.04L34.31,202.19L35.02,201.31L35.38,204.04L36.1,198.75L36.45,173.73L36.81,203.02L37.52,201.89L37.88,200.72L38.24,203.41L38.6,202.26L38.95,162.48L40.03,206.85L40.38,202.68L41.1,201.64L41.46,206.89L42.53,199.41L42.89,207.25L43.24,206.18L43.6,194.15L43.96,206.25L44.32,193.25L44.67,205.99L45.03,194.65L45.74,206.58L46.1,206.48L46.46,177.75L47.53,206.55L47.89,208.39L48.6,204.26L48.96,149.61L49.32,172.22L49.68,129.52L50.75,206L51.11,200.51L51.82,206.57L52.18,206.47L52.53,200.12L52.89,208.47L53.25,207.51L53.61,207.54L53.96,197.22L54.32,209.67L55.04,202.76L55.39,205.57L55.75,204.81L56.11,201.43L57.18,210.27L57.54,207.67L57.9,209.17L58.25,166.95L59.32,208.93L59.68,196.25L60.04,205.59L60.4,195.23L60.75,205.52L61.11,189.25L62.18,209.67L62.54,209.06L62.9,203.36L63.26,204.92L63.61,182L63.97,209.87L64.33,208.63L64.69,206.65L65.04,208.97L65.4,204.9L65.76,208.62L66.12,207.56L66.47,204.56L66.83,208.06L67.19,171.41L67.54,209.7L67.9,165.22L68.62,206.36L68.97,202.29L69.33,209.01L69.69,210.85L70.05,208.15L70.4,209.1L70.76,185.9L71.12,208.59L71.48,207.76L71.83,157.06L72.55,208.15L72.91,206.59L73.26,208.14L73.62,209.84L73.98,204.66L74.33,209.39L74.69,200.9L75.05,201.83L75.41,117.43L76.48,206.44L76.84,203.45L77.19,202.52L77.55,180.71L77.91,204.16L78.27,155.97L78.98,210.41L79.34,176.62L80.05,206.81L80.41,177.03L81.13,209.01L81.48,208.73L81.84,205.65L82.2,207.37L82.55,168.07L83.63,209.08L83.98,204.95L84.7,207.95L85.06,198.92L85.41,166.32L85.77,205.2L86.13,200.07L86.49,204.93L86.84,204.92L87.2,172.8L87.56,207.61L88.27,187.85L88.63,205.45L90.42,211.71L90.77,207.57L91.13,206.94L91.49,204.18L91.85,211.21L92.2,208.71L92.56,208.81L93.28,205.4L93.63,207.17L93.99,209.38L94.35,207.75L94.71,161.92L95.06,142L95.42,204.92L95.78,208.78L96.14,207.55L96.49,202.54L96.85,202.47L97.21,207.95L97.56,206.04L97.92,206.25L98.28,208.79L98.64,179.17L98.99,209.26L99.35,207.36L100.07,202.27L100.42,209.8L100.78,207.51L101.14,198.02L101.5,197.58L101.85,207.37L102.57,203.34L102.93,207.29L103.28,209.51L103.64,207.78L104,208.19L104.71,159.32L105.07,205.05L105.78,208.39L106.14,198.3L107.21,208.62L107.57,202.97L107.93,207.6L108.29,206.74L108.64,205.18L109,207.96L109.36,203.83L110.07,208.84L110.43,143.16L110.79,207L111.14,199L111.5,199.59L111.86,209.65L112.22,200.85L112.57,158.2L113.65,210.09L114,202.89L114.36,178.97L114.72,206.08L115.08,206.01L115.43,147.25L115.79,207.03L116.15,105.33L116.86,209.05L117.22,207.52L117.58,204.97L119.01,170.43L119.36,138.11L120.08,209.63L120.44,181.1L120.79,203.25L121.15,149.22L121.51,204.54L121.87,182.9L122.22,177.99L122.58,209.28L122.94,206.86L123.3,206.49L123.65,201.15L124.01,206.74L124.37,121.36L125.44,209.47L125.8,180.7L126.51,189L126.87,208.53L127.23,199.59L127.58,209.12L127.94,181.09L128.66,206.72L129.01,190.19L129.73,178.71L130.09,208.75L130.8,209.3L131.16,207.48L132.23,206.48L132.59,209.84L133.3,204.45L133.66,204.76L134.02,208.63L134.37,158.53L134.73,205.53L135.09,188.52L135.45,206.76L135.8,202.4L136.16,200.71L136.52,204.95L136.88,166.62L137.23,208.08L137.59,207.81L137.95,203.91L138.31,181.28L138.66,206.28L139.02,185.74L139.38,204.56L139.74,182.77L140.09,204.53L140.45,168.12L141.52,207.68L141.88,207.77L142.24,181.69L142.59,209.83L142.95,208.62L143.31,206.17L143.67,210.57L144.02,198.8L144.38,205.43L144.74,206.52L145.81,208.52L146.17,203.97L146.53,205.45L146.88,192.69L147.24,207.8L147.6,205.52L147.95,199.2L148.31,180.45L148.67,209.01L149.03,179.07L149.38,203.93L149.74,207.07L150.1,206.22L150.46,194.74L151.53,209.44L151.89,207.3L152.24,122.62L152.6,203.78L152.96,204.94L154.03,210.6L154.39,200.32L154.75,208.96L155.46,208.69L155.82,207.65L156.17,204.61L156.53,209.93L156.89,154.86L157.6,160.49L157.96,206.98L158.32,176.46L158.68,208.04L159.03,197.75L159.39,177.25L159.75,205.1L160.11,190.91L160.46,208.02L160.82,205.46L161.18,186.88L161.54,210.2L162.25,209.23L162.61,208.64L163.32,202.13L163.68,148.08L164.39,210.51L164.75,208L165.11,208.59L165.47,207.11L165.82,207.32L166.18,198.74L166.54,208.09L166.9,203.06L167.25,206.88L167.61,207.47L167.97,199.73L168.68,167.75L169.04,200.34L169.4,209.68L169.76,182.13L170.11,200.22L170.47,194.03L170.83,197.92L171.9,207.49L172.26,148.08L172.61,210.11L172.97,203.64L173.33,171.18L173.69,210.17L174.04,205.73L174.4,205.66L175.12,209.75L175.47,208.2L175.83,183.59L176.55,182.14L176.9,203.53L177.26,204.48L177.62,207.98L178.33,207.73L178.69,171.2L179.05,209.19L179.4,207.41L179.76,202.98L180.48,206.54L180.83,208.35L181.55,201.04L181.91,208.18L182.26,208.14L182.62,198.45L182.98,170.68L183.34,199.68L183.69,208.49L184.05,205.56L184.41,174.04L185.12,208.82L185.48,130.7L186.55,211.09L186.91,208.62L187.27,206.04L187.62,159.92L187.98,206.83L188.34,203.91L188.7,178.85L189.05,159.24L189.41,182.67L190.48,208.85L190.84,207.45L191.2,172.06L191.56,202.11L191.91,201.94L192.27,205.85L192.63,193.55L192.98,207.36L193.34,181.1L193.7,208.47L194.41,207.5L194.77,205.55L195.13,183.94L195.49,210.38L196.56,202.69L196.92,209.26L197.27,140.65L197.63,208.07L197.99,202.28L198.35,209.58L198.7,205.16L199.06,203.67L199.42,207.43L199.77,205.25L200.13,206.95L200.49,189.57L200.85,207.99L201.2,209.31L201.56,172.35L201.92,207.16L202.28,204.09L202.63,201.42L202.99,205.13L203.35,121.32L203.71,207.91L204.06,205.12L204.42,205.1L204.78,201.23L205.14,206.99L205.49,200.5L205.85,207.26L206.21,173.66L207.28,208.08L207.64,209L207.99,210.26L208.35,180.88L208.71,208.94L209.07,206.87L209.42,188.56L210.5,209.18L210.85,205.68L211.21,198.79L211.57,210.89L211.93,178.32L212.28,209.61L212.64,209.8L213,205.34L213.36,173.65L214.78,209.63L215.14,184.33L215.86,210.2L216.21,199.47L216.57,209.47L216.93,201.24L217.29,165.07L217.64,205.26L218,164.07L218.36,161.91L218.72,208.06L219.43,207.4L219.79,205.98L220.15,166.99L220.5,194.03L220.86,177.24L221.22,207.8L221.58,171.72L222.29,209.27L222.65,183.36L223,183.88L223.36,206.11L224.08,208L224.43,152.08L224.79,202.41L225.86,207.4L226.22,198.43L226.58,189.38L226.94,206L227.29,206.68L227.65,205.34L228.37,204.33L228.72,196L229.79,208.26L230.15,205.31L230.51,209.43L230.87,207.22L231.22,205.55L231.58,208.09L231.94,205.62L232.3,197.9L233.37,207.09L233.73,205.26L234.08,196.11L234.44,204.46L234.8,204.52L235.16,184.93L235.51,106.58L236.59,209.67L236.94,206.14L237.3,207.27L237.66,167.37L238.73,209.21L239.09,175.44L239.44,210.54L239.8,198.93L240.16,175.34L240.52,111.7L240.87,208.98L241.23,187.92L241.59,208.03L241.95,205.93L242.66,201.59L243.02,207.24L243.38,208.22L243.73,206.72L244.8,207.46L245.16,174.05L245.88,209.73L246.23,204.09L247.31,208.94L247.66,204.27L248.38,205.29L248.74,203.9L249.09,204.61L249.45,201.98L249.81,205.06L250.17,175.5L250.52,205.62L250.88,136.36L252.31,208.1L252.67,206.71L253.02,207.39L253.38,195.33L253.74,184.77L254.1,204.5L254.81,199.69L255.17,185.32L256.24,208.93L256.6,205.82L256.96,199.23L257.31,208.96L258.03,200.55L258.39,202.91L259.1,206.31L259.46,203.8L259.81,203.11L260.17,206.18L260.53,206.35L260.89,205.59L261.24,207.6L261.6,207.52L261.96,199.98L262.32,204.02L262.67,177.22L263.39,207.38L263.75,170.84L264.46,207.38L264.82,201.74L265.18,209.07L265.89,209.32L266.25,206.85L266.6,206.28L266.96,168.73L267.32,207.47L267.68,209.31L268.03,207.33L268.39,208.49L268.75,207.71L269.11,207.93"/></g><g class="points"/><g class="text"/></g></g></g><g class="overplot"/><path class="xlines-above crisp" style="fill: none; stroke-width: 1px; stroke: rgb(68, 68, 68); stroke-opacity: 1;" d="M79,370.5H620"/><path class="ylines-above crisp" style="fill: none; stroke-width: 1px; stroke: rgb(68, 68, 68); stroke-opacity: 1;" d="M79.5,100V370"/><g class="overlines-above"/><g class="xaxislayer-above"><path class="xtick ticks crisp" style="stroke: rgb(68, 68, 68); stroke-opacity: 1; stroke-width: 1px;" d="M0,371v5" transform="translate(80,0)"/><path class="xtick ticks crisp" style="stroke: rgb(68, 68, 68); stroke-opacity: 1; stroke-width: 1px;" d="M0,371v5" transform="translate(151.48000000000002,0)"/><path class="xtick ticks crisp" style="stroke: rgb(68, 68, 68); stroke-opacity: 1; stroke-width: 1px;" d="M0,371v5" transform="translate(222.95,0)"/><path class="xtick ticks crisp" style="stroke: rgb(68, 68, 68); stroke-opacity: 1; stroke-width: 1px;" d="M0,371v5" transform="translate(294.43,0)"/><path class="xtick ticks crisp" style="stroke: rgb(68, 68, 68); stroke-opacity: 1; stroke-width: 1px;" d="M0,371v5" transform="translate(365.9,0)"/><path class="xtick ticks crisp" style="stroke: rgb(68, 68, 68); stroke-opacity: 1; stroke-width: 1px;" d="M0,371v5" transform="translate(437.38,0)"/><path class="xtick ticks crisp" style="stroke: rgb(68, 68, 68); stroke-opacity: 1; stroke-width: 1px;" d="M0,371v5" transform="translate(508.86,0)"/><path class="xtick ticks crisp" style="stroke: rgb(68, 68, 68); stroke-opacity: 1; stroke-width: 1px;" d="M0,371v5" transform="translate(580.3299999999999,0)"/><g class="xtick"><text text-anchor="middle" x="0" y="390.4" style="font-family: TOBESTRIPPEDOpen SansTOBESTRIPPED, verdana, arial, sans-serif; font-size: 12px; fill: rgb(68, 68, 68); fill-opacity: 1; white-space: pre; opacity: 1;" transform="translate(80,0)">0</text></g><g class="xtick"><text text-anchor="middle" x="0" y="390.4" style="font-family: TOBESTRIPPEDOpen SansTOBESTRIPPED, verdana, arial, sans-serif; font-size: 12px; fill: rgb(68, 68, 68); fill-opacity: 1; white-space: pre; opacity: 1;" transform="translate(151.48000000000002,0)">200</text></g><g class="xtick"><text text-anchor="middle" x="0" y="390.4" style="font-family: TOBESTRIPPEDOpen SansTOBESTRIPPED, verdana, arial, sans-serif; font-size: 12px; fill: rgb(68, 68, 68); fill-opacity: 1; white-space: pre; opacity: 1;" transform="translate(222.95,0)">400</text></g><g class="xtick"><text text-anchor="middle" x="0" y="390.4" style="font-family: TOBESTRIPPEDOpen SansTOBESTRIPPED, verdana, arial, sans-serif; font-size: 12px; fill: rgb(68, 68, 68); fill-opacity: 1; white-space: pre; opacity: 1;" transform="translate(294.43,0)">600</text></g><g class="xtick"><text text-anchor="middle" x="0" y="390.4" style="font-family: TOBESTRIPPEDOpen SansTOBESTRIPPED, verdana, arial, sans-serif; font-size: 12px; fill: rgb(68, 68, 68); fill-opacity: 1; white-space: pre; opacity: 1;" transform="translate(365.9,0)">800</text></g><g class="xtick"><text text-anchor="middle" x="0" y="390.4" style="font-family: TOBESTRIPPEDOpen SansTOBESTRIPPED, verdana, arial, sans-serif; font-size: 12px; fill: rgb(68, 68, 68); fill-opacity: 1; white-space: pre; opacity: 1;" transform="translate(437.38,0)">1000</text></g><g class="xtick"><text text-anchor="middle" x="0" y="390.4" style="font-family: TOBESTRIPPEDOpen SansTOBESTRIPPED, verdana, arial, sans-serif; font-size: 12px; fill: rgb(68, 68, 68); fill-opacity: 1; white-space: pre; opacity: 1;" transform="translate(508.86,0)">1200</text></g><g class="xtick"><text text-anchor="middle" x="0" y="390.4" style="font-family: TOBESTRIPPEDOpen SansTOBESTRIPPED, verdana, arial, sans-serif; font-size: 12px; fill: rgb(68, 68, 68); fill-opacity: 1; white-space: pre; opacity: 1;" transform="translate(580.3299999999999,0)">1400</text></g></g><g class="yaxislayer-above"><path class="ytick ticks crisp" style="stroke: rgb(68, 68, 68); stroke-opacity: 1; stroke-width: 1px;" d="M79,0h-5" transform="translate(0,342.91999999999996)"/><path class="ytick ticks crisp" style="stroke: rgb(68, 68, 68); stroke-opacity: 1; stroke-width: 1px;" d="M79,0h-5" transform="translate(0,285.32)"/><path class="ytick ticks crisp" style="stroke: rgb(68, 68, 68); stroke-opacity: 1; stroke-width: 1px;" d="M79,0h-5" transform="translate(0,227.70999999999998)"/><path class="ytick ticks crisp" style="stroke: rgb(68, 68, 68); stroke-opacity: 1; stroke-width: 1px;" d="M79,0h-5" transform="translate(0,170.11)"/><path class="ytick ticks crisp" style="stroke: rgb(68, 68, 68); stroke-opacity: 1; stroke-width: 1px;" d="M79,0h-5" transform="translate(0,112.5)"/><g class="ytick"><text text-anchor="end" x="71.6" y="4.199999999999999" style="font-family: TOBESTRIPPEDOpen SansTOBESTRIPPED, verdana, arial, sans-serif; font-size: 12px; fill: rgb(68, 68, 68); fill-opacity: 1; white-space: pre; opacity: 1;" transform="translate(0,342.91999999999996)">0</text></g><g class="ytick"><text text-anchor="end" x="71.6" y="4.199999999999999" style="font-family: TOBESTRIPPEDOpen SansTOBESTRIPPED, verdana, arial, sans-serif; font-size: 12px; fill: rgb(68, 68, 68); fill-opacity: 1; white-space: pre; opacity: 1;" transform="translate(0,285.32)">0.001</text></g><g class="ytick"><text text-anchor="end" x="71.6" y="4.199999999999999" style="font-family: TOBESTRIPPEDOpen SansTOBESTRIPPED, verdana, arial, sans-serif; font-size: 12px; fill: rgb(68, 68, 68); fill-opacity: 1; white-space: pre; opacity: 1;" transform="translate(0,227.70999999999998)">0.002</text></g><g class="ytick"><text text-anchor="end" x="71.6" y="4.199999999999999" style="font-family: TOBESTRIPPEDOpen SansTOBESTRIPPED, verdana, arial, sans-serif; font-size: 12px; fill: rgb(68, 68, 68); fill-opacity: 1; white-space: pre; opacity: 1;" transform="translate(0,170.11)">0.003</text></g><g class="ytick"><text text-anchor="end" x="71.6" y="4.199999999999999" style="font-family: TOBESTRIPPEDOpen SansTOBESTRIPPED, verdana, arial, sans-serif; font-size: 12px; fill: rgb(68, 68, 68); fill-opacity: 1; white-space: pre; opacity: 1;" transform="translate(0,112.5)">0.004</text></g></g><g class="overaxes-above"/></g></g><g class="polarlayer"/><g class="smithlayer"/><g class="ternarylayer"/><g class="geolayer"/><g class="funnelarealayer"/><g class="pielayer"/><g class="iciclelayer"/><g class="treemaplayer"/><g class="sunburstlayer"/><g class="glimages"/><defs id="topdefs-a8805a"><g class="clips"/><clipPath id="legenda8805a"><rect width="94" height="105" x="0" y="0"/></clipPath></defs><g class="layer-above"><g class="imagelayer"/><g class="shapelayer"/></g><g class="infolayer"><g class="legend" pointer-events="all" transform="translate(491.8359712230216,110.00000000000001)"><rect class="bg" shape-rendering="crispEdges" style="stroke: rgb(68, 68, 68); stroke-opacity: 1; fill: rgb(255, 255, 255); fill-opacity: 1; stroke-width: 0px;" width="94" height="105" x="0" y="0"/><g class="scrollbox" transform="" clip-path="url(#legenda8805a)"><g class="groups"><g class="traces" style="opacity: 1;" transform="translate(0,14.5)"><text class="legendtext" text-anchor="start" style="font-family: TOBESTRIPPEDOpen SansTOBESTRIPPED, verdana, arial, sans-serif; font-size: 12px; fill: rgb(68, 68, 68); fill-opacity: 1; white-space: pre;" x="40" y="4.680000000000001">vshape</text><g class="layers" style="opacity: 1;"><g class="legendfill"/><g class="legendlines"><path class="js-line" d="M5,0h30" style="fill: none; stroke: rgb(156, 39, 176); stroke-opacity: 1; stroke-width: 2px;"/></g><g class="legendsymbols"><g class="legendpoints"/></g></g><rect class="legendtoggle" style="fill: rgb(0, 0, 0); fill-opacity: 0;" x="0" y="-9.5" width="88.55000305175781" height="19"/></g><g class="traces" style="opacity: 1;" transform="translate(0,33.5)"><text class="legendtext" text-anchor="start" style="font-family: TOBESTRIPPEDOpen SansTOBESTRIPPED, verdana, arial, sans-serif; font-size: 12px; fill: rgb(68, 68, 68); fill-opacity: 1; white-space: pre;" x="40" y="4.680000000000001">inverse</text><g class="layers" style="opacity: 1;"><g class="legendfill"/><g class="legendlines"><path class="js-line" d="M5,0h30" style="fill: none; stroke: rgb(255, 0, 0); stroke-opacity: 1; stroke-width: 2px;"/></g><g class="legendsymbols"><g class="legendpoints"/></g></g><rect class="legendtoggle" style="fill: rgb(0, 0, 0); fill-opacity: 0;" x="0" y="-9.5" width="88.55000305175781" height="19"/></g><g class="traces" style="opacity: 1;" transform="translate(0,52.5)"><text class="legendtext" text-anchor="start" style="font-family: TOBESTRIPPEDOpen SansTOBESTRIPPED, verdana, arial, sans-serif; font-size: 12px; fill: rgb(68, 68, 68); fill-opacity: 1; white-space: pre;" x="40" y="4.680000000000001">sin</text><g class="layers" style="opacity: 1;"><g class="legendfill"/><g class="legendlines"><path class="js-line" d="M5,0h30" style="fill: none; stroke: rgb(255, 165, 0); stroke-opacity: 1; stroke-width: 2px;"/></g><g class="legendsymbols"><g class="legendpoints"/></g></g><rect class="legendtoggle" style="fill: rgb(0, 0, 0); fill-opacity: 0;" x="0" y="-9.5" width="88.55000305175781" height="19"/></g><g class="traces" style="opacity: 1;" transform="translate(0,71.5)"><text class="legendtext" text-anchor="start" style="font-family: TOBESTRIPPEDOpen SansTOBESTRIPPED, verdana, arial, sans-serif; font-size: 12px; fill: rgb(68, 68, 68); fill-opacity: 1; white-space: pre;" x="40" y="4.680000000000001">linear</text><g class="layers" style="opacity: 1;"><g class="legendfill"/><g class="legendlines"><path class="js-line" d="M5,0h30" style="fill: none; stroke: rgb(173, 216, 230); stroke-opacity: 1; stroke-width: 2px;"/></g><g class="legendsymbols"><g class="legendpoints"/></g></g><rect class="legendtoggle" style="fill: rgb(0, 0, 0); fill-opacity: 0;" x="0" y="-9.5" width="88.55000305175781" height="19"/></g><g class="traces" style="opacity: 1;" transform="translate(0,90.5)"><text class="legendtext" text-anchor="start" style="font-family: TOBESTRIPPEDOpen SansTOBESTRIPPED, verdana, arial, sans-serif; font-size: 12px; fill: rgb(68, 68, 68); fill-opacity: 1; white-space: pre;" x="40" y="4.680000000000001">random</text><g class="layers" style="opacity: 1;"><g class="legendfill"/><g class="legendlines"><path class="js-line" d="M5,0h30" style="fill: none; stroke: rgb(76, 175, 80); stroke-opacity: 1; stroke-width: 2px;"/></g><g class="legendsymbols"><g class="legendpoints"/></g></g><rect class="legendtoggle" style="fill: rgb(0, 0, 0); fill-opacity: 0;" x="0" y="-9.5" width="88.55000305175781" height="19"/></g></g></g><rect class="scrollbar" rx="20" ry="3" width="0" height="0" style="fill: rgb(128, 139, 164); fill-opacity: 1;" x="0" y="0"/></g><g class="g-gtitle"><text class="gtitle" style="font-family: TOBESTRIPPEDOpen SansTOBESTRIPPED, verdana, arial, sans-serif; font-size: 17px; fill: rgb(68, 68, 68); opacity: 1; font-weight: normal; white-space: pre;" x="350" y="50" text-anchor="middle" dy="0em">LSTM16 Distortion models</text></g><g class="g-xtitle"><text class="xtitle" style="font-family: TOBESTRIPPEDOpen SansTOBESTRIPPED, verdana, arial, sans-serif; font-size: 14px; fill: rgb(68, 68, 68); opacity: 1; font-weight: normal; white-space: pre;" x="350" y="422" text-anchor="middle">Epochs</text></g><g class="g-ytitle" transform="translate(-12.06640625,0)"><text class="ytitle" transform="rotate(-90,42,235)" style="font-family: TOBESTRIPPEDOpen SansTOBESTRIPPED, verdana, arial, sans-serif; font-size: 14px; fill: rgb(68, 68, 68); opacity: 1; font-weight: normal; white-space: pre;" x="42" y="235" text-anchor="middle">Validation loss</text></g></g></svg>