<svg class="main-svg" xmlns="http://www.w3.org/2000/svg" xmlns:xlink="http://www.w3.org/1999/xlink" width="700" height="450" style="" viewBox="0 0 700 450"><rect x="0" y="0" width="700" height="450" style="fill: rgb(255, 255, 255); fill-opacity: 1;"/><defs id="defs-31d3fe"><g class="clips"><clipPath id="clip31d3fexyplot" class="plotclip"><rect width="540" height="270"/></clipPath><clipPath class="axesclip" id="clip31d3fex"><rect x="80" y="0" width="540" height="450"/></clipPath><clipPath class="axesclip" id="clip31d3fey"><rect x="0" y="100" width="700" height="270"/></clipPath><clipPath class="axesclip" id="clip31d3fexy"><rect x="80" y="100" width="540" height="270"/></clipPath></g><g class="gradients"/><g class="patterns"/></defs><g class="bglayer"/><g class="layer-below"><g class="imagelayer"/><g class="shapelayer"/></g><g class="cartesianlayer"><g class="subplot xy"><g class="layer-subplot"><g class="shapelayer"/><g class="imagelayer"/></g><g class="minor-gridlayer"><g class="x"/><g class="y"/></g><g class="gridlayer"><g class="x"><path class="xgrid crisp" transform="translate(239.28,0)" d="M0,100v270" style="stroke: rgb(238, 238, 238); stroke-opacity: 1; stroke-width: 1px;"/><path class="xgrid crisp" transform="translate(398.56,0)" d="M0,100v270" style="stroke: rgb(238, 238, 238); stroke-opacity: 1; stroke-width: 1px;"/><path class="xgrid crisp" transform="translate(557.8299999999999,0)" d="M0,100v270" style="stroke: rgb(238, 238, 238); stroke-opacity: 1; stroke-width: 1px;"/></g><g class="y"><path class="ygrid crisp" transform="translate(0,329.76)" d="M80,0h540" style="stroke: rgb(238, 238, 238); stroke-opacity: 1; stroke-width: 1px;"/><path class="ygrid crisp" transform="translate(0,276.76)" d="M80,0h540" style="stroke: rgb(238, 238, 238); stroke-opacity: 1; stroke-width: 1px;"/><path class="ygrid crisp" transform="translate(0,223.76999999999998)" d="M80,0h540" style="stroke: rgb(238, 238, 238); stroke-opacity: 1; stroke-width: 1px;"/><path class="ygrid crisp" transform="translate(0,170.76999999999998)" d="M80,0h540" style="stroke: rgb(238, 238, 238); stroke-opacity: 1; stroke-width: 1px;"/><path class="ygrid crisp" transform="translate(0,117.78)" d="M80,0h540" style="stroke: rgb(238, 238, 238); stroke-opacity: 1; stroke-width: 1px;"/></g></g><g class="zerolinelayer"/><path class="xlines-below"/><path class="ylines-below"/><g class="overlines-below"/><g class="xaxislayer-below"/><g class="yaxislayer-below"/><g class="overaxes-below"/><g class="plot" transform="translate(80,100)" clip-path="url(#clip31d3fexyplot)"><g class="scatterlayer mlayer"><g class="trace scatter tracec6a5b3" style="stroke-miterlimit: 2; opacity: 1;"><g class="fills"/><g class="errorbars"/><g class="lines"><path class="js-line" style="vector-effect: none; fill: none; stroke: rgb(156, 39, 176); stroke-opacity: 1; stroke-width: 2px; opacity: 1;" d="M0,-5400L1.5617069725054715,-5399.999999999998L2.23,-289.77L2.87,-30.91L3.5,23.65L4.46,-34.05L4.78,25.66L6.05,74.66L6.37,94.98L7.33,119.32L7.96,107.71L8.28,138.58L8.6,129.39L8.92,37.16L9.88,163.03L10.19,162.66L10.51,94.08L10.83,144.17L11.47,170.16L11.79,173.68L12.42,173.19L12.74,171.28L13.38,169.64L13.7,180.35L14.65,184.57L14.97,-66.53L15.93,190.48L16.25,189.85L17.2,175.54L17.52,192.23L19.11,188.16L19.43,193.51L19.75,192.18L20.07,195.08L21.02,163.14L21.34,187.7L21.66,184.12L22.3,198.32L22.62,199.78L22.94,198.51L23.25,197.88L23.89,118.71L24.21,200.06L24.53,200.02L24.85,201.08L25.48,192.18L25.8,170.8L26.44,199.52L26.76,-116.48L27.71,197.08L28.03,200.64L28.35,202.94L28.67,199.97L29.31,198.31L30.26,-21.34L30.58,186.24L31.54,202.54L32.17,201.41L32.81,199.83L33.13,188.61L33.77,202.64L34.09,198.97L34.4,200.63L34.72,137.82L35.68,204.54L36.32,-102L37.27,197.4L37.59,201.16L37.91,202.82L38.23,201.52L38.55,201.95L38.86,204.11L39.18,87.61L40.46,204.87L40.78,203.56L41.09,204.07L41.41,194.11L41.73,204.94L42.05,181.89L42.69,204.9L43.32,-62.11L44.6,154.67L44.92,168.05L46.83,193.31L47.15,189.58L47.78,197.41L48.42,195.87L49.06,202.11L49.69,203.32L50.33,203.51L50.65,200.45L50.97,204.73L51.29,203.76L51.61,204.68L51.92,205.83L52.24,201.45L52.56,205.17L52.88,204.76L53.52,128.89L53.84,197.62L54.79,208.3L55.11,209.56L55.43,211.87L55.75,211.56L56.07,200.52L56.38,188.12L56.7,210.59L57.34,213.13L57.66,211.6L57.98,207.11L58.3,211.68L58.61,-28.56L59.25,208L60.21,211.79L60.53,210.87L60.84,212.32L61.16,212.62L61.48,214.53L62.12,212.48L62.76,215.16L63.07,181.7L63.39,209.95L63.71,215.79L64.35,202.6L64.67,65.3L65.62,215.71L65.94,217.07L66.26,216.02L66.58,217.41L66.9,216.97L67.22,202.7L67.85,217.51L68.17,215.64L68.49,217.92L68.81,209.92L69.45,211.82L69.76,149.27L70.72,218.96L71.04,219.85L71.36,219.96L71.68,216.82L71.99,204.41L72.95,200.94L73.91,214.2L74.22,215.27L74.86,218.18L75.18,218.11L75.5,218.05L76.13,219.78L76.77,219.04L77.09,219.82L77.41,218.66L77.73,218.31L78.05,220.78L78.36,213.5L79.32,222.48L80.28,222.42L80.59,221.64L80.91,222.59L81.23,222.58L81.87,222.54L82.19,220.59L82.51,221.6L82.82,217.73L83.78,222.17L84.42,222.88L85.05,220.94L85.37,221.65L86.01,223.18L86.33,223.76L86.97,222.79L87.28,223.3L87.6,222.56L87.92,222.4L88.88,224.6L89.2,223.13L89.51,102.75L89.83,173.34L90.15,220.75L90.79,223.48L91.11,222.8L91.43,223.04L91.74,224.16L92.06,223.68L92.38,222.85L92.7,224.09L93.02,223.57L93.66,223.25L93.97,224.94L94.29,224.25L94.61,222.49L94.93,225.63L95.25,224.65L95.57,223.85L96.2,224.56L96.52,223.74L96.84,224.51L97.16,134.08L97.8,224.4L98.12,222.97L98.43,224.68L99.07,221.97L99.39,225.25L99.71,226.21L100.03,224.45L100.66,225.34L101.3,224.89L101.62,225.66L101.94,225.18L102.26,224.26L103.21,224.45L103.53,225.02L104.8,226.15L105.12,225.32L105.44,222.44L105.76,169.07L107.03,225L107.35,225.55L108.63,225.02L108.95,226.02L109.9,224.72L110.22,226.45L110.54,226.67L110.86,225.28L111.18,226.75L111.49,226.02L112.13,225.98L112.77,227.26L113.09,226.47L113.72,227.23L114.04,225.99L114.68,225.18L115,222.86L115.32,219.86L115.64,226.93L116.27,227.26L116.59,225.77L116.91,226.74L117.23,225.88L117.55,226.06L118.82,227.75L120.1,223.65L120.41,224.69L121.69,227.16L122.33,226.24L122.64,227.4L122.96,226.74L123.92,228.17L124.24,192.6L124.56,225.86L124.87,226.93L125.19,226.19L125.51,227.02L125.83,226.88L127.1,228.01L127.42,227.47L127.74,227.12L128.06,227.56L128.38,226.9L128.7,224.75L129.02,228.06L129.65,227.13L129.97,227.26L130.61,227.05L131.25,227.02L131.56,224.25L131.88,227.38L132.2,225.92L133.16,205.47L133.47,225.57L134.75,228.68L135.07,227.39L135.39,228L135.7,227.78L136.02,227.54L136.66,225.16L136.98,227.75L138.25,227.57L138.57,227.63L138.89,226.53L139.21,165.77L139.85,228.05L140.16,227.9L140.48,227.7L141.12,228.45L141.44,227.6L141.76,228.23L142.08,227.02L143.99,229.25L144.31,228.26L144.94,227.64L145.26,228.71L146.54,228.38L146.85,228.79L148.13,226.65L148.45,226.62L149.08,226.92L149.4,228.29L150.68,229.87L151,228.93L151.31,227.51L152.27,228.25L153.23,227.94L153.54,228.03L153.86,227.46L154.18,227.79L154.5,229.34L155.46,227.58L155.77,228.7L156.09,226.36L156.41,227.73L157.37,227.37L157.69,227.5L158.32,223.57L158.96,229.18L159.6,228.83L159.92,229.53L160.23,228.88L161.19,229.48L161.83,228.3L162.15,228.95L162.46,228.89L163.1,227.74L163.42,229.7L164.69,228.44L165.01,228.68L165.65,229.92L165.97,228.28L166.6,229.14L167.56,228.19L167.88,227.88L168.2,228.45L168.83,229.03L169.47,229.39L169.79,226.01L170.75,228.8L171.06,227.7L171.38,229.7L172.02,229.26L172.34,229.32L172.66,230.27L172.98,230.04L173.29,229.44L174.25,226.74L174.57,228.97L175.21,229.15L175.84,227.37L176.48,230.11L176.8,229.61L177.12,230.34L178.71,228.2L179.03,229.29L181.26,230.24L181.58,231.14L183.17,225.35L183.49,228.14L183.81,229.56L184.76,229.31L186.67,229.77L187.31,228.39L188.27,229.88L188.59,229.6L188.9,229.3L189.22,229.51L189.54,228.65L190.18,230.13L190.5,228.9L190.82,228.79L191.45,231.13L191.77,227.81L192.41,228.13L192.73,229L193.36,229.75L193.68,228.49L194,230.69L194.32,228.78L194.96,230.43L196.23,228.59L196.55,230.39L196.87,230.66L197.19,227.5L198.14,231.02L198.46,229.55L199.1,229.53L199.42,228.39L199.73,228.18L200.05,228.95L200.37,228.91L201.33,229.61L201.96,228.2L202.28,229.69L202.6,229.31L202.92,230.49L204.51,229.39L204.83,229.86L205.15,228.76L205.47,229.88L205.79,230.66L207.38,230.21L207.7,230.07L208.65,230.12L209.61,231.1L210.57,229.61L211.2,229.97L211.84,231.32L212.48,229.83L213.11,229.32L213.43,229.72L213.75,229.93L214.07,230.34L214.39,229.67L215.03,229.75L215.98,229.34L216.3,230.74L217.26,229.78L217.57,229.97L217.89,229.12L218.21,229.49L218.85,230.26L219.17,229.15L219.49,231.24L220.76,229.35L221.08,229.57L221.4,229.48L221.72,230.3L222.99,229.79L223.63,229.77L223.94,230.11L224.58,228.48L224.9,228.88L225.22,228.47L225.54,230.19L226.17,230.46L226.49,229.46L226.81,229.05L227.13,230.58L228.4,230.43L228.72,227.35L229.04,230.46L229.68,230.27L230,229.2L230.63,230.68L230.95,230.1L231.27,230.11L231.91,229.84L232.23,228.64L232.55,230.76L233.18,230.16L233.5,229.16L234.46,230.26L235.09,229.4L235.41,230.42L235.73,229.67L236.37,229.16L237.32,230.93L237.64,230.41L239.24,230.35L239.55,229.92L239.87,228.18L240.51,229.13L240.83,228.27L241.15,230.35L241.47,228.96L241.78,229.62L242.42,229.14L243.06,228.87L243.38,230.21L243.7,230.5L244.01,230.05L244.33,230.01L244.97,230.73L245.29,229.06L245.93,230.92L246.24,228.85L247.2,230.96L247.52,230.02L247.84,229.21L248.47,229.53L248.79,229.44L249.11,229.35L249.43,230.15L250.39,229.94L250.7,230.73L251.02,229.53L251.34,230.38L251.66,230.21L253.57,229.07L253.89,230.83L254.21,231.07L254.53,229.42L254.84,231.46L255.48,230.61L255.8,228.13L256.12,230.19L256.44,230.02L256.76,229.95L257.07,230.75L257.39,229.25L257.71,229.96L258.03,230.16L259.62,229.68L260.26,230.19L260.9,229.48L261.22,230.28L261.53,231.34L262.17,231.08L262.49,229.74L262.81,229.75L263.13,228.21L263.45,231.04L264.08,230.31L264.4,230.05L266.63,230.19L267.27,229.67L268.22,230.38L268.54,229.61L269.18,228.46L269.82,230.46L270.77,229.96L271.09,230.97L272.68,229.85L273,230.68L274.28,228.95L274.6,229.58L275.55,230.15L276.51,228.83L276.83,230.05L277.14,230.69L277.46,229.24L277.78,230.01L278.1,228.68L279.06,230.84L279.37,230.16L280.65,229.59L280.97,231.03L281.28,229.02L281.92,229.75L282.24,229.69L282.56,231.06L282.88,230.13L283.2,229.29L283.51,230.49L284.15,229.39L285.11,230.2L285.74,229.93L286.06,230.28L286.38,229.72L287.02,229.5L287.97,230.66L288.29,229.83L288.61,231.02L288.93,230.2L289.25,230.43L289.89,229.32L290.2,230.71L290.84,229.65L291.16,231.06L292.12,228.93L292.43,229.8L293.71,228.78L294.03,229.71L294.35,228.7L294.98,229.65L296.89,230.09L297.21,228.17L298.49,230.34L299.12,229.37L299.44,230.54L300.08,230.3L300.4,230.15L301.67,229.9L301.99,230.05L303.9,230.47L304.22,228.6L304.86,230.57L305.5,229.84L306.13,230.71L306.45,229.7L306.77,230.91L307.09,229.11L307.41,230.05L308.04,227.19L309,231.15L309.32,229.54L309.64,229.53L310.59,230.54L311.87,230.44L312.18,229.85L312.5,229.09L312.82,229.98L313.14,230.44L314.41,229.71L314.73,228.45L315.05,230.59L315.37,229.12L316.01,229.21L316.33,230.59L316.64,229.99L316.96,229.96L317.28,230.58L317.92,230.08L318.24,230.62L318.56,228.8L320.47,230.93L320.79,228.87L321.42,230.59L322.06,230.33L322.7,228.94L323.33,230.42L323.65,228.51L323.97,230.25L324.93,229.92L325.56,230.32L325.88,228.93L326.52,230.61L326.84,230.43L327.16,230.1L327.48,230.85L327.79,229.12L328.43,230L329.71,229.46L330.34,230.38L330.66,229.52L330.98,230.33L332.25,229.23L332.89,226.96L333.21,229.89L334.17,230.29L334.48,229.94L334.8,228.93L335.12,230.24L335.44,230.06L335.76,229.68L336.08,230.11L336.4,230.45L337.03,231.17L337.35,230.33L337.67,228.6L338.31,229.31L339.58,229.92L339.9,229.1L341.49,230.68L341.81,229.18L343.4,230.42L344.04,230.44L345,230.34L345.63,230.27L346.59,231.04L347.54,228.99L347.86,229.57L348.18,228.3L348.5,228.32L349.77,230.09L351.05,230.48L351.37,228.24L352.64,230.3L352.96,229.94L353.28,229.52L353.6,230.41L354.55,228.9L354.87,230.31L355.51,230.89L355.83,229.99L356.15,228.76L356.46,230.11L356.78,230.58L357.1,229.21L357.42,229.73L358.38,227.91L359.33,230.97L359.65,230.04L359.97,230.62L360.29,230.21L360.61,227.67L360.92,230.79L361.56,229.91L361.88,229.99L363.15,230.53L363.79,230.18L365.7,230.45L366.02,228.67L367.3,230.34L367.93,229.98L369.21,229.49L369.53,230.17L370.16,230.14L370.48,229.46L371.12,229.94L371.44,229.27L371.75,228.93L372.07,230.47L373.35,229.88L373.67,231.04L374.94,229.52L375.26,230.39L375.58,230.65L375.9,229.99L376.21,228.9L377.17,231.12L377.49,229.36L377.81,230.79L378.44,229.2L380.67,230.12L380.99,229.97L381.31,229L381.63,229.73L382.59,230.01L385.45,230.06L385.77,230.33L386.73,229.73L387.05,230.41L387.68,227.67L388,229.47L388.32,229.53L388.64,229.11L388.96,230.37L389.28,230.35L389.59,229.01L389.91,230.57"/></g><g class="points"/><g class="text"/></g><g class="trace scatter trace81a43f" style="stroke-miterlimit: 2; opacity: 1;"><g class="fills"/><g class="errorbars"/><g class="lines"><path class="js-line" style="vector-effect: none; fill: none; stroke: rgb(33, 150, 243); stroke-opacity: 1; stroke-width: 2px; opacity: 1;" d="M0,-5400L0.9609277498483058,-5400L1.27,-282.26L2.87,18.83L3.19,-667.61L3.5,17.89L4.46,100.67L5.73,126.87L6.05,130.63L6.37,-337.29L7.01,113.67L7.33,139.86L8.28,118.08L9.24,164.61L9.56,167.04L10.51,172.94L10.83,150.56L11.47,177.81L11.79,1.66L12.74,178.48L14.97,187.79L15.29,187.82L15.61,192.56L15.93,145.71L16.25,188.03L16.56,193.6L17.2,-120.53L17.52,137.61L18.16,193.98L19.11,195.95L19.43,198.3L19.75,196.36L20.07,191.83L20.71,183.46L21.02,197.61L21.34,199.95L21.66,199.3L22.3,200.96L22.62,175.15L23.25,-24.57L24.53,200.35L25.17,200.84L25.48,202.91L26.12,201.45L26.44,199.57L27.08,159.03L28.35,205.78L28.67,205.41L30.26,45.35L31.86,210.57L32.81,206.09L33.77,208.64L34.09,209.07L34.72,171.54L35.04,185.76L35.36,209.91L35.68,45.05L36.32,183.93L36.95,197.35L38.55,200.12L40.14,173.64L40.78,207.82L41.73,212.35L42.05,210.99L42.69,214.07L43.32,212.61L43.64,213.78L43.96,209.8L45.55,162.51L45.87,212.04L46.51,213.78L46.83,212.52L47.78,206.16L49.06,206.55L49.69,214.45L50.01,199.79L50.65,214.57L50.97,213.36L51.61,216.24L51.92,215.34L52.24,211.27L52.88,214.96L53.52,192.32L54.47,216.56L54.79,211.95L55.43,217.24L55.75,216L56.07,1.47L56.7,209.63L57.34,215.8L57.98,218.2L58.3,217.71L58.61,216.39L59.25,218.04L60.21,216.73L60.53,216.04L60.84,218.19L61.16,212.71L62.12,215.09L63.07,218.17L63.39,216.85L63.71,217.43L65.3,217.93L65.94,216.5L67.22,216.94L67.85,218.15L68.49,219.1L68.81,217.1L69.45,178.59L69.76,210.93L70.72,219.14L71.36,217.49L71.68,193.13L71.99,219.12L72.95,218.57L73.91,218.68L74.54,219.58L74.86,214.52L75.18,217L75.5,90.49L76.77,218.18L77.09,219.48L77.73,218.27L78.05,219.66L78.36,218.18L78.68,219.72L79.32,218.87L80.28,200.1L80.59,218.95L80.91,214.92L81.87,219.89L82.19,-111.39L82.51,202.36L82.82,214.24L83.46,217.84L83.78,216.95L85.37,219.53L86.33,87.81L87.28,217.43L87.92,212.47L88.56,219.94L89.2,220.66L89.83,219.79L90.47,219.28L90.79,221.76L91.43,222.5L91.74,220.16L92.38,221.51L92.7,221.3L93.97,221.49L94.29,221.61L94.61,220.51L94.93,221.01L95.25,220.17L96.84,212.37L97.48,222.48L97.8,222L98.12,214.81L98.43,222.53L99.39,221.96L99.71,222.48L100.03,221.51L100.35,218.11L100.66,221.39L101.3,219.44L101.62,222.46L102.58,223.24L104.8,222.55L105.12,223.33L105.44,222L105.76,222.4L106.08,223.98L107.35,222.25L107.67,217.69L108.31,223.31L109.26,216.27L110.22,224.38L110.86,224.48L111.18,222.69L111.49,223.63L112.13,221.97L113.09,224.1L113.72,223.67L114.04,223.1L114.68,224.1L115,224.09L115.32,208.65L116.27,225.28L116.59,224.14L117.23,223.54L117.55,224.45L119.46,224.78L120.1,219.65L120.41,224.29L121.69,223.83L122.33,223.92L122.64,225.6L122.96,224.78L123.92,224.42L124.24,223.52L124.56,225.17L124.87,224.46L125.19,226.23L126.15,224.09L126.47,224.3L126.79,225.09L127.1,223.7L127.42,225.9L127.74,222.96L128.06,224.69L128.7,225.89L129.33,220.37L129.65,225.35L130.29,226.08L131.25,224.81L132.2,226.46L133.16,222.22L134.11,226.79L134.43,225.46L137.3,226.44L138.25,226.89L138.57,227.28L138.89,225.92L139.21,225.55L139.53,205.88L140.16,227.41L140.48,227.2L141.12,227.82L142.08,226.17L143.35,226.9L145.26,225.38L145.9,224.31L147.17,227.76L147.81,215.5L148.13,169.52L148.45,226.9L149.08,227.03L150.04,227.08L150.68,228.1L151,227.43L151.31,227.77L152.27,227.24L152.59,227.54L152.91,226.23L154.18,227.81L154.82,225L155.46,227.97L155.77,227L156.41,228.32L157.37,226.69L157.69,226.93L158.32,221.7L159.6,228.12L159.92,228.55L160.23,226.67L161.19,227.79L161.83,223.12L162.15,227.85L163.42,226.54L163.74,228.69L164.37,227.31L164.69,227.65L165.01,228.22L165.65,227.96L165.97,195.72L166.6,228.52L167.56,227.63L168.83,228.18L169.79,227.53L170.43,229.02L170.75,227.56L171.06,229.1L171.38,228.83L171.7,228.23L172.02,227.52L172.34,228.65L173.29,226.55L173.93,229.5L175.21,226.02L175.84,227.83L176.48,225.37L176.8,226.57L177.12,228.18L179.67,228.85L180.3,227.92L180.62,229.81L181.26,229.15L181.9,228.36L182.53,229.43L183.49,228.67L188.27,228.9L188.59,228.24L190.18,228.79L190.5,228.42L191.77,229.9L192.09,228.05L192.73,229.57L193.36,229.3L193.68,228.11L195.27,228.41L195.59,229.65L196.87,229.3L197.5,227.96L199.42,230.61L199.73,227.18L200.05,228.93L200.37,228.73L201.33,230.14L201.96,229L202.28,229.68L204.51,229.99L204.83,230.18L206.42,227.71L206.74,230.27L207.38,229.95L207.7,228.04L208.02,230.39L208.65,230.12L209.61,229.07L209.93,229.86L210.25,229.5L212.48,229.49L213.43,230.7L214.39,229.7L215.03,230.64L215.34,229.95L215.66,229.94L216.3,229.99L216.62,230.53L218.21,228.11L218.85,230.13L219.49,229.33L220.44,230.77L221.08,229.03L221.4,229.59L221.72,230.75L222.03,230.69L222.67,227.94L223.63,230.91L223.94,230.14L224.58,229.95L225.86,228.99L226.17,230.45L227.13,229.85L227.77,230.12L228.4,230.31L229.04,229.47L229.68,230.61L230.32,228.53L230.63,230.76L230.95,229.77L231.27,228.47L231.91,231.18L232.23,230.14L232.55,231.39L233.5,229.43L235.09,230.69L235.73,229.38L236.37,229.89L237.01,230.13L237.32,231.14L240.51,230.6L240.83,230.88L243.7,230.27L244.33,230.77L244.97,230.35L245.29,230.73L246.24,230.36L246.88,230.48L247.2,231.39L247.52,229.34L247.84,231.21L248.47,230.65L248.79,230.32L249.43,230.36L250.39,230.55L251.02,229.1L251.34,230.29L253.57,230.21L253.89,231.32L254.84,230.11L256.12,230.3L256.76,231.33L257.07,230.74L258.03,230.69L258.99,231.37L260.26,230.56L260.58,229.37L260.9,230.5L261.53,231.37L262.81,230.58L263.13,230.74L264.4,231.41L265.04,230.63L266.31,229.71L266.63,231.07L267.59,231.34L268.22,230.04L268.54,231.44L269.18,230.03L271.09,231.08L272.05,229.8L273.32,231.06L273.96,230.97L274.6,230.11L275.55,231.16L275.87,229.03L276.51,231.19L277.14,230.74L277.46,231.32L279.37,230.85L280.65,231.3L280.97,230.26L281.28,230.83L281.6,227.2L282.24,231.44L282.56,231.28L282.88,230.76L283.51,230.31L284.15,230.94L287.34,232.02L287.97,230.82L288.29,230.08L288.61,231.39L288.93,230.14L289.25,230.73L289.89,230.74L290.2,231.07L290.84,230.43L291.8,231.49L292.12,230.9L293.07,231.05L293.39,231.09L294.03,231.74L295.3,230.6L295.62,230.02L295.94,231.22L296.26,231.37L296.58,230.41L296.89,230.75L297.21,229.18L297.53,231.48L297.85,230.45L299.12,229.94L299.76,231.36L300.08,229.68L301.04,231.53L301.35,230.91L301.67,230.83L302.31,231.18L302.63,229.89L303.27,231.07L303.9,230.36L304.22,231.67L304.54,231.19L305.5,230.57L306.13,231.32L306.45,230.4L307.09,231.87L307.41,229.4L308.36,230.48L309.32,230.01L310.91,230.44L311.55,229.62L311.87,229.86L312.5,231.59L313.14,230.33L314.1,231.47L314.41,231.65L314.73,230.92L315.37,230.06L316.01,231.5L316.64,232.06L316.96,230.98L317.28,232.19L317.92,231L319.51,231.91L319.83,231.08L320.47,229.74L322.06,230.22L323.65,231.65L323.97,231.18L324.93,230.77L325.56,230.05L326.84,231.48L327.48,231.13L327.79,230L328.43,231.3L329.71,231.36L330.02,230.39L330.34,231.15L330.66,231.71L330.98,230.38L332.25,230.35L333.21,230.67L334.17,229.62L335.12,231.9L335.44,228.97L335.76,230.85L336.4,230.73L337.03,231.46L337.35,229.79L337.67,231.42L338.31,229.64L339.58,230.85L339.9,232.19L341.17,230.48L341.49,230.8L342.13,231.35L343.08,230.92L343.4,231.63L344.04,230.13L344.68,231.29L345,230.07L346.27,231.82L347.54,231.3L347.86,230.76L348.18,231.63L349.77,231.24L351.05,230L351.37,230.65L351.69,231.32L352.64,231.56L353.6,231.29L353.92,231.26L354.23,230.14L354.55,231.64L354.87,230.54L355.51,230.81L355.83,231.64L356.46,229.82L357.1,231.73L357.42,231.01L358.38,231.85L359.33,230.62L359.65,231.46L360.29,230.31L360.61,230.96L361.88,232.09L362.2,231.7L362.84,231.21L363.15,231.49L363.79,230.16L364.75,231.41L365.07,230.33L365.7,228.88L366.02,231.07L366.34,231.97L366.66,231.7L366.98,230.74L367.3,231.58L367.93,231.08L371.75,231.48L373.35,230.8L373.98,231.31L374.62,231.07L374.94,230.46L375.26,231.82L375.9,230.6L376.53,231.39L377.17,229.8L377.81,231.64L380.04,231.16L380.36,231.08L380.99,231.19L381.31,230.5L381.63,231.02L382.59,230.73L382.9,230.4L383.86,230.66L384.18,230.79L384.5,229.89L386.41,230.95L386.73,231.13L387.68,230.65L388,230.21L389.28,231.34L389.59,229.83L390.23,231.05L391.19,230.78L391.51,231.49L392.46,231.7L392.78,231.56L393.1,228.48L395.01,231.43L395.33,231.1L396.28,231.33L396.6,230.44L396.92,231.25L397.88,230.98L398.2,230.53L398.51,231.48L398.83,230.82L399.47,231.2L400.11,231.16L400.42,230.8L401.38,231.49L401.7,230.42L402.34,231.14L405.2,231.46L406.48,231.35L407.11,231.15L407.43,231.81L408.71,230.09L409.34,231.85L409.66,232.09L410.3,231.41L410.94,231.34L411.26,230.25L411.57,231.18L411.89,229.89L412.53,230.16L412.85,231.27L413.49,230.29L413.8,231.53L414.44,224.78L414.76,231.55L415.4,231.19L415.72,230.81L416.03,231.68L416.35,231.48L417.31,231.13L418.26,231.4L418.58,230.66L418.9,230.21L420.49,230.99L421.45,231.57L421.77,230.65L422.41,231.7L423.04,230.56L427.18,230.51L427.5,231.7L428.14,230.55L428.46,231.25L429.09,230.81L430.37,231.58L430.69,231.25L431.32,230.08L431.64,231.01L431.96,231.15L434.51,231.44L434.83,230.81L435.15,231.37L435.47,231.18L435.78,230.89L438.33,231.28L439.61,231.1L441.84,231.71L442.79,230.07L443.75,231.16L444.07,231.25L444.7,230.82L445.02,232.05L445.66,231.86L445.98,229.77L446.93,231.71L447.25,231.02L447.57,230.5L447.89,230.24L450.12,231.14L451.08,230.56L451.39,231.59L452.03,230.66L452.67,231.23L452.99,231.87L453.94,231.36L454.26,229.85L454.9,231.72L455.85,230.16L456.17,232.27L457.45,231.49L458.08,231.3L459.04,230.68L459.99,230.79L460.63,229.85L460.95,231.38L461.27,231.05L461.59,229.55L462.54,231.19L463.18,231.34L463.5,230.36L463.82,231.54L464.14,230.86L464.45,230.64L464.77,228.56L465.09,231.62L465.73,230.62L466.05,231.45L466.37,230.93L468.28,231.12L469.55,230.87L470.19,230.42L470.51,231.41L471.78,231.15L472.1,232.25L472.42,231.14L472.74,230.77L474.65,231.73L474.97,230.21L475.6,231.15L475.92,230.47L477.2,231.26L478.47,231.32L479.43,231.18L481.02,229.49L481.34,231.39L481.66,230.98L481.98,228.21L482.61,231.4L482.93,230.94L485.16,230.76L486.12,231.78L486.75,230.97L487.39,229.59L488.35,230.88L489.94,231.09L490.26,230.77L490.89,231.21L492.17,230.94L492.81,230.83L493.12,229.4L493.44,230.92L494.08,230.77L494.4,229.39L495.35,231.33L495.99,230.99L496.63,231.55L496.95,230.2L497.58,231.73L497.9,229.42L498.22,231.23L498.54,230.84L498.86,230.48L500.13,231.23L500.45,230.36L501.09,230.86L501.41,230.55L502.04,230.32L503.64,231.63L503.96,230.5L504.91,231.99L506.19,231.13L508.1,230.82L508.42,229.47L509.37,231.84L509.69,231.64L510.33,231.61L510.65,229.78L512.88,231.14L513.19,230.26L514.47,231.16"/></g><g class="points"/><g class="text"/></g><g class="trace scatter traceef6bb7" style="stroke-miterlimit: 2; opacity: 1;"><g class="fills"/><g class="errorbars"/><g class="lines"><path class="js-line" style="vector-effect: none; fill: none; stroke: rgb(0, 150, 136); stroke-opacity: 1; stroke-width: 2px; opacity: 1;" d="M0,-3497.35L1.27,-95.35L2.23,21.04L3.19,73.21L3.5,-460.59L4.46,49.68L4.78,73.2L5.1,-180.83L5.42,53.14L6.05,121.13L6.37,44.88L7.01,111.25L7.33,37.54L7.96,148.15L8.28,-97.91L8.6,131L9.24,158.23L9.88,-597.76L10.19,45.24L10.83,128.34L11.47,131.69L11.79,122.31L12.11,132.49L12.42,135.7L13.38,149.2L13.7,137.85L15.29,163.51L15.61,162.44L15.93,152.29L16.25,170.91L16.56,-434.98L17.2,166.83L17.52,162.02L18.16,176.13L19.11,160.41L19.43,164.1L19.75,154.36L20.07,91.27L20.71,176.67L21.34,168.64L21.66,172.17L22.3,170.43L22.62,89.63L22.94,175.49L23.25,165.33L23.89,134.12L24.53,185.39L24.85,154.59L25.17,127.49L25.48,175.26L25.8,157.42L26.12,135.02L26.44,143.74L26.857203391723882,-5400L27.304626912228386,-5400L27.71,-57.35L28.35,26.04L29.94,84.7L30.26,73.49L30.58,102.52L31.54,39.15L32.81,123.8L33.13,123.81L34.72,139.09L35.04,135.65L35.36,134.8L35.68,139.43L36.32,141.66L36.63,139.73L36.95,137.13L37.27,142.4L37.91,140.88L38.23,137.95L38.55,148.65L39.18,133.12L39.82,149.57L40.14,143.38L40.46,146.37L41.09,155.21L41.41,148.48L41.73,159.78L42.05,159.25L42.69,160.79L43.32,157.74L43.64,167.03L43.96,154.65L44.6,158.3L44.92,153L46.19,168.32L46.51,163.86L47.15,164.84L47.78,164.25L48.74,173L49.06,167.33L50.33,182L50.65,177.34L50.97,174.1L51.29,181.68L51.61,181.66L51.92,183.19L52.88,179.65L53.52,182.75L53.84,177.04L54.15,182.4L54.47,186.46L54.79,189.48L55.43,180.32L57.34,190.32L57.66,187.49L58.3,194.04L58.61,192.09L58.93,191.44L59.25,191.02L60.21,194.39L60.53,189.72L60.84,192.64L61.16,195.56L61.48,190.02L62.12,195.02L63.39,194.71L63.71,193.93L64.35,196.9L64.67,195.34L64.99,195.27L65.62,195.72L65.94,194.1L66.26,196.08L66.58,196.11L66.9,200.18L67.22,197.61L67.85,199.22L68.49,192.54L68.81,195.74L69.45,195.55L69.76,195.6L70.08,199.66L70.72,197.25L71.36,199.8L71.68,200.08L71.99,198.52L72.95,199.31L73.59,197.59L74.22,202.6L74.54,199.09L74.86,201.01L75.18,199.33L75.5,200L75.82,203.15L76.13,194.13L77.09,203.55L77.73,200.37L78.05,202.05L78.68,201.59L79,196.07L79.32,203.8L80.28,202.01L80.91,203.68L81.23,200.18L81.87,203.03L82.19,201.85L82.51,201.18L83.46,198.95L83.78,200.61L84.42,205.95L85.37,199.09L86.01,204.84L86.33,198.35L86.97,206.14L87.28,205.66L87.6,197.78L87.92,203.77L88.56,203.11L88.88,201.6L89.83,205L90.15,202.62L90.47,197.28L90.79,204L91.11,202.59L91.74,204.35L92.38,203.7L92.7,202.51L93.97,205.35L94.29,204.21L94.61,205.59L94.93,204.49L95.25,206.1L95.57,202.14L95.89,205.31L96.52,202.78L97.16,207.47L97.48,204.16L99.07,208.27L99.39,205.1L99.71,208.78L100.35,208.06L100.66,205.69L101.3,206.47L101.62,205.07L102.26,207.41L102.58,206.82L103.21,205.79L104.17,206.04L104.8,208.88L105.76,201.73L106.08,208.57L107.03,208.54L107.35,204.26L107.67,206.76L108.31,206.1L108.63,206.42L108.95,209.1L109.26,208.21L109.58,205.09L109.9,203.32L110.22,209.01L110.86,206.5L111.18,208.64L111.49,207.53L112.13,208.48L112.45,207.9L112.77,209.15L113.09,209.05L113.72,207.44L114.68,210.99L115,208.47L115.32,209.2L115.64,205.39L116.27,209.21L116.59,207.47L116.91,209.66L117.23,206.26L119.14,207.75L119.46,209.33L120.41,208.91L121.37,210.98L121.69,208.24L122.33,212.41L122.64,210.75L122.96,204L124.87,212.25L125.19,209.22L125.51,206.93L125.83,207.82L126.15,211.46L127.42,206.17L127.74,210.91L128.38,206.6L128.7,211.32L129.02,206.33L129.65,207.31L129.97,210.42L130.29,211.52L131.25,210.36L131.56,207.48L131.88,210.43L132.2,207.92L133.16,210.36L134.75,207.34L135.07,208.92L135.39,211.43L136.02,210.6L136.66,209.07L136.98,212.05L137.3,209.79L138.25,210.09L138.89,212.8L139.21,207.76L139.85,211.33L140.16,210.38L140.48,210.07L141.44,208.28L141.76,204.58L142.08,214.44L143.35,210.91L143.99,209.79L144.31,211.69L144.94,212.46L145.26,208.11L145.9,210.32L146.85,207.52L147.17,211.71L147.81,209.41L148.13,209.85L148.45,205.75L149.08,213.39L149.4,209.88L149.72,207.11L150.68,212.37L151,210.4L151.31,213.07L152.27,210.9L152.59,212.64L152.91,211.35L153.23,210.79L153.54,208.74L153.86,209.09L154.18,210.19L154.82,212.14L155.14,210.13L155.46,208.31L155.77,211.44L156.09,208.4L156.41,212.06L157.37,210.92L157.69,211.66L158.32,211.2L158.96,211.95L159.6,211.14L160.23,209.71L161.19,210.65L161.51,205.51L161.83,213.02L162.78,203.58L163.1,210.21L163.42,209.77L163.74,210.92L164.37,211.1L164.69,212.22L165.65,210.65L165.97,212.72L166.6,211.49L167.56,212.06L167.88,210.57L168.83,211.21L169.47,210.75L169.79,212.78L170.11,211.76L170.43,212.06L170.75,211.39L171.06,213.81L171.38,214.3L171.7,208.88L172.66,213.72L172.98,210.71L173.93,211.32L174.25,210.76L174.57,208.27L175.21,212.13L175.84,211.19L176.8,206.91L177.12,211.09L177.75,211.6L178.07,209.61L178.71,212.2L179.03,205.3L179.35,211.11L179.67,208.8L180.3,210.2L180.62,213.48L180.94,210.02L181.26,213.16L181.9,212.65L182.53,208.8L183.17,212.13L183.49,201.69L183.81,208.94L184.76,210.6L186.04,210.09L186.36,211.07L187.31,212.44L187.63,212.59L187.95,209.57L188.27,212.48L188.59,212.22L188.9,211.65L189.22,209.44L189.86,211.58L190.18,211.42L190.5,208.8L190.82,212.01L191.45,210.9L191.77,211.25L192.09,210.6L192.41,210.76L192.73,211.94L193.36,211.23L193.68,212.38L194,208.47L194.32,209.73L195.27,210.22L196.23,211.98L196.55,213.99L197.5,211.47L197.82,213.21L198.46,209.22L199.1,213.16L199.73,206.45L200.05,210.2L200.37,207.74L201.33,208.86L201.65,207.07L202.6,212.04L202.92,210.36L203.88,211.39L204.19,208.87L204.51,212.26L204.83,209.86L205.15,209.96L205.47,209.06L206.42,211.52L206.74,213.45L207.38,211.46L207.7,211.27L208.02,208.54L208.65,213L209.61,211.8L209.93,212.88L210.25,209.51L210.57,211.29L211.2,210.43L211.84,209.94L212.48,211.2L213.11,211.15L213.43,209.03L213.75,200.61L214.07,210.78L214.39,212.88L215.03,207.24L215.34,213.4L215.66,213.96L215.98,210.68L216.3,210.68L216.62,212.6L217.26,211.35L217.57,209.02L218.85,213.51L219.17,212.11L219.49,212.18L219.8,214.06L220.44,210.4L220.76,211.67L221.08,202.68L222.03,213.68L222.35,211.43L223.63,207.59L223.94,208.8L224.58,209.37L225.54,211.93L225.86,209.9L226.81,213.01L227.13,211.36L228.4,209.59L229.04,211.99L229.36,208.74L229.68,211.84L230,210.09L230.32,210.68L230.63,210.32L230.95,209.01L231.27,209.21L231.59,210.32L232.23,213.64L232.55,211.31L232.86,211.23L233.18,212.63L233.5,211.8L233.82,213.13L234.14,211.09L234.46,211.98L235.09,212.36L235.41,211.4L235.73,211.94L236.37,212.6L236.69,212.05L237.01,207.82L237.32,211.82L237.64,209.94L239.24,211.05L239.55,210.09L239.87,211.35L240.51,211.06L241.15,210.56L241.47,213.72L241.78,209.82L242.74,212.23L243.7,210.29L244.01,211.46L244.33,207.22L244.65,210.39L244.97,212.73L245.29,209.12L245.61,210.35L245.93,211.72L246.24,209.76L246.88,211.89L247.84,210.72L248.16,213.22L248.47,209.25L248.79,211.7L249.11,212.86L249.43,207.66L250.39,212.41L250.7,206.1L251.02,209.66L251.34,215.04L252.61,211.19L252.93,210.79L253.25,212.93L253.57,212.53L253.89,210.6L254.21,212.35L254.53,207.81L254.84,213.36L256.12,212.96L257.39,208.45L258.03,210.22L258.35,210.28L258.99,211.42L259.3,212.12L259.62,208.62L260.26,208.71L260.58,211.35L260.9,210.98L261.22,213.16L261.53,209.55L261.85,211.06L262.17,213.14L263.13,207.49L263.45,212.59L264.08,211.93L264.4,212.32L265.04,207.31L265.99,213.14L266.31,211.03L266.63,211.45L267.27,211.02L267.59,210.84L268.22,211.73L269.18,206.9L269.82,211.01L270.77,207L271.09,210.6L272.05,208.53L272.68,212.39L273,213.68L273.32,211.59L273.96,210.28L274.28,211.34L274.6,208.5L275.55,211.61L276.51,211.28L276.83,212.43L277.78,209.74L278.1,213.12L279.69,212.69L280.33,206.5L280.97,213.42L281.28,210.82L281.6,212.35L281.92,213.09L282.24,209.83L282.56,213.21L282.88,210.69L283.2,210.81L284.15,211.97L284.47,213.63L285.11,210.52L285.74,212.9L287.34,210.39L287.97,213.04L288.29,210.67L288.61,211.23L288.93,212.13L289.25,212.17L289.89,213.2L290.2,213.67L290.84,210.43L291.16,212.47L291.8,210.95L292.12,208.36L292.43,212.35L292.75,212.75L293.07,210.21L293.39,210.24L293.71,212.88L294.35,209.65L294.98,211.43L295.3,212.99L295.62,210.41L296.89,212.18L297.21,203.75L297.53,212.89L297.85,212.53L298.49,211.96L299.12,212.57L299.44,214.21L299.76,210.36L300.4,211.67L300.72,211.56L301.04,210.38L301.35,205.08L302.31,213.85L302.63,212.52L303.27,213.56L303.9,212.62L304.22,206.94L304.54,213.04L304.86,209.87L305.81,212.07L306.13,212.98L307.09,209.54L307.41,211.81L308.36,209.74L309.32,211.59L309.64,212.09L310.91,207.34L311.87,211.42L312.18,211L312.5,212.88L312.82,210.63L313.14,209.19L314.1,212.26L314.41,211.21L314.73,211.02L315.05,212.88L315.37,210.51L316.01,209.47L317.28,213.61L317.92,212.94L318.56,207.55L318.87,213.58L319.19,210.25L319.51,211.03L319.83,212.44L320.79,211.77L322.06,212.57L323.02,212.38L323.33,211.43L323.65,210.54L323.97,204.92L325.56,208.97L325.88,211.96L326.52,205.99L326.84,207.68L327.48,212.03L328.43,208.15L329.71,214.41L330.02,210.54L330.66,210.84L330.98,208.37L332.25,210.82L332.57,205.44L333.21,215.07L333.85,209.12L334.48,213.51L335.12,208.46L335.44,213.2L335.76,208.94L336.4,212.37L337.03,212.98L337.35,210.82L338.63,213.31L338.94,211.28L339.26,212.26L339.58,212.15L339.9,206.73L340.22,212.96L340.85,211.47L341.17,211.36L341.81,211.46L342.13,213.17L343.08,212.08L343.4,207.43L344.04,204.07L344.36,210.9L344.68,209.52L345,209.96L345.63,210.79L346.59,211.71L347.54,210L347.86,210.42L348.18,213.42L351.05,212.34L351.37,210.77L351.69,209.03L352.32,210.35L352.96,212.3L353.28,204.54L353.92,213.06L354.23,211.81L354.55,210.46L354.87,212.11L355.51,211.93L355.83,206.92L356.46,210.82L356.78,210.22L357.1,211.23L357.42,209.69L358.38,213.94L358.69,211.63L359.33,212.9L359.65,210.69L359.97,212.94L360.29,212.62L360.61,210.93L361.24,211.15L361.56,213.13L361.88,209.67L362.2,212.14L362.84,210.63L363.79,211.82L364.11,208.57L364.75,210.01L365.07,209.84L365.38,209.04L365.7,211.51L366.02,208.23L366.34,211.09L366.66,210.81L366.98,208.75L367.3,211.73L367.93,209.97L368.25,213.06L368.57,212.09L369.21,204.93L370.16,213.52L370.48,211.88L371.44,211.32L371.75,213.22L372.07,212.61L373.35,213.31L373.67,212.92L373.98,210.03L374.62,211.38L374.94,209.22L375.9,211.97L376.21,209.86L377.17,213.87L377.81,212.47L378.76,209.63L379.08,212.54L380.04,211.57L380.36,207.95L380.67,206.07L380.99,211.19L381.31,210.81L381.63,212.99L382.9,210.74L383.86,211.03L384.18,210.32L384.5,214.78L385.13,208.52L385.45,211.53L386.41,208.39L387.05,212.27L387.68,212.99L388.32,210.62L388.64,210.85L388.96,212.97L389.28,211.48L389.59,206.03L390.23,204.7L391.19,212.43L391.51,212.54L392.46,211.68L392.78,210.49L393.1,211.59L393.42,211.94L394.37,210.22L394.69,212.39L395.01,209.35L395.33,212.92L395.65,211.07L395.97,212.32L396.28,210.61L396.6,209.23L397.24,212.38L397.56,209.29L397.88,213.68L398.2,213.2L398.51,211.27L398.83,211.86L399.15,210.14L399.47,212.23L400.11,209.85L401.38,212.66L401.7,202.38L402.65,213.6L402.97,211.76L403.29,208.03L403.61,214.1L403.93,211.65L404.88,210.6L405.2,210.59L406.16,213.1L407.11,209.31L407.43,210.74L408.39,212.61L408.71,210.08L409.66,212.1L410.3,211.91L410.94,211.43L411.26,212.62L412.53,210.47L412.85,211.3L413.49,212.85L413.8,211.49L414.12,214.37L414.44,209.86L415.4,212.13L415.72,209.76L416.03,209.52"/></g><g class="points"/><g class="text"/></g></g></g><g class="overplot"/><path class="xlines-above crisp" style="fill: none; stroke-width: 1px; stroke: rgb(68, 68, 68); stroke-opacity: 1;" d="M79,370.5H620"/><path class="ylines-above crisp" style="fill: none; stroke-width: 1px; stroke: rgb(68, 68, 68); stroke-opacity: 1;" d="M79.5,100V370"/><g class="overlines-above"/><g class="xaxislayer-above"><path class="xtick ticks crisp" style="stroke: rgb(68, 68, 68); stroke-opacity: 1; stroke-width: 1px;" d="M0,371v5" transform="translate(80,0)"/><path class="xtick ticks crisp" style="stroke: rgb(68, 68, 68); stroke-opacity: 1; stroke-width: 1px;" d="M0,371v5" transform="translate(239.28,0)"/><path class="xtick ticks crisp" style="stroke: rgb(68, 68, 68); stroke-opacity: 1; stroke-width: 1px;" d="M0,371v5" transform="translate(398.56,0)"/><path class="xtick ticks crisp" style="stroke: rgb(68, 68, 68); stroke-opacity: 1; stroke-width: 1px;" d="M0,371v5" transform="translate(557.8299999999999,0)"/><g class="xtick"><text text-anchor="middle" x="0" y="390.4" style="font-family: TOBESTRIPPEDOpen SansTOBESTRIPPED, verdana, arial, sans-serif; font-size: 12px; fill: rgb(68, 68, 68); fill-opacity: 1; white-space: pre; opacity: 1;" transform="translate(80,0)">0</text></g><g class="xtick"><text text-anchor="middle" x="0" y="390.4" style="font-family: TOBESTRIPPEDOpen SansTOBESTRIPPED, verdana, arial, sans-serif; font-size: 12px; fill: rgb(68, 68, 68); fill-opacity: 1; white-space: pre; opacity: 1;" transform="translate(239.28,0)">500</text></g><g class="xtick"><text text-anchor="middle" x="0" y="390.4" style="font-family: TOBESTRIPPEDOpen SansTOBESTRIPPED, verdana, arial, sans-serif; font-size: 12px; fill: rgb(68, 68, 68); fill-opacity: 1; white-space: pre; opacity: 1;" transform="translate(398.56,0)">1000</text></g><g class="xtick"><text text-anchor="middle" x="0" y="390.4" style="font-family: TOBESTRIPPEDOpen SansTOBESTRIPPED, verdana, arial, sans-serif; font-size: 12px; fill: rgb(68, 68, 68); fill-opacity: 1; white-space: pre; opacity: 1;" transform="translate(557.8299999999999,0)">1500</text></g></g><g class="yaxislayer-above"><path class="ytick ticks crisp" style="stroke: rgb(68, 68, 68); stroke-opacity: 1; stroke-width: 1px;" d="M79,0h-5" transform="translate(0,329.76)"/><path class="ytick ticks crisp" style="stroke: rgb(68, 68, 68); stroke-opacity: 1; stroke-width: 1px;" d="M79,0h-5" transform="translate(0,276.76)"/><path class="ytick ticks crisp" style="stroke: rgb(68, 68, 68); stroke-opacity: 1; stroke-width: 1px;" d="M79,0h-5" transform="translate(0,223.76999999999998)"/><path class="ytick ticks crisp" style="stroke: rgb(68, 68, 68); stroke-opacity: 1; stroke-width: 1px;" d="M79,0h-5" transform="translate(0,170.76999999999998)"/><path class="ytick ticks crisp" style="stroke: rgb(68, 68, 68); stroke-opacity: 1; stroke-width: 1px;" d="M79,0h-5" transform="translate(0,117.78)"/><g class="ytick"><text text-anchor="end" x="71.6" y="4.199999999999999" style="font-family: TOBESTRIPPEDOpen SansTOBESTRIPPED, verdana, arial, sans-serif; font-size: 12px; fill: rgb(68, 68, 68); fill-opacity: 1; white-space: pre; opacity: 1;" transform="translate(0,329.76)">0.001</text></g><g class="ytick"><text text-anchor="end" x="71.6" y="4.199999999999999" style="font-family: TOBESTRIPPEDOpen SansTOBESTRIPPED, verdana, arial, sans-serif; font-size: 12px; fill: rgb(68, 68, 68); fill-opacity: 1; white-space: pre; opacity: 1;" transform="translate(0,276.76)">0.002</text></g><g class="ytick"><text text-anchor="end" x="71.6" y="4.199999999999999" style="font-family: TOBESTRIPPEDOpen SansTOBESTRIPPED, verdana, arial, sans-serif; font-size: 12px; fill: rgb(68, 68, 68); fill-opacity: 1; white-space: pre; opacity: 1;" transform="translate(0,223.76999999999998)">0.003</text></g><g class="ytick"><text text-anchor="end" x="71.6" y="4.199999999999999" style="font-family: TOBESTRIPPEDOpen SansTOBESTRIPPED, verdana, arial, sans-serif; font-size: 12px; fill: rgb(68, 68, 68); fill-opacity: 1; white-space: pre; opacity: 1;" transform="translate(0,170.76999999999998)">0.004</text></g><g class="ytick"><text text-anchor="end" x="71.6" y="4.199999999999999" style="font-family: TOBESTRIPPEDOpen SansTOBESTRIPPED, verdana, arial, sans-serif; font-size: 12px; fill: rgb(68, 68, 68); fill-opacity: 1; white-space: pre; opacity: 1;" transform="translate(0,117.78)">0.005</text></g></g><g class="overaxes-above"/></g></g><g class="polarlayer"/><g class="smithlayer"/><g class="ternarylayer"/><g class="geolayer"/><g class="funnelarealayer"/><g class="pielayer"/><g class="iciclelayer"/><g class="treemaplayer"/><g class="sunburstlayer"/><g class="glimages"/><defs id="topdefs-31d3fe"><g class="clips"/><clipPath id="legend31d3fe"><rect width="96" height="67" x="0" y="0"/></clipPath></defs><g class="layer-above"><g class="imagelayer"/><g class="shapelayer"/></g><g class="infolayer"><g class="legend" pointer-events="all" transform="translate(470.18461538461537,109)"><rect class="bg" shape-rendering="crispEdges" style="stroke: rgb(68, 68, 68); stroke-opacity: 1; fill: rgb(255, 255, 255); fill-opacity: 1; stroke-width: 0px;" width="96" height="67" x="0" y="0"/><g class="scrollbox" transform="" clip-path="url(#legend31d3fe)"><g class="groups"><g class="traces" style="opacity: 1;" transform="translate(0,14.5)"><text class="legendtext" text-anchor="start" style="font-family: TOBESTRIPPEDOpen SansTOBESTRIPPED, verdana, arial, sans-serif; font-size: 12px; fill: rgb(68, 68, 68); fill-opacity: 1; white-space: pre;" x="40" y="4.680000000000001">LSTM16</text><g class="layers" style="opacity: 1;"><g class="legendfill"/><g class="legendlines"><path class="js-line" d="M5,0h30" style="fill: none; stroke: rgb(156, 39, 176); stroke-opacity: 1; stroke-width: 2px;"/></g><g class="legendsymbols"><g class="legendpoints"/></g></g><rect class="legendtoggle" style="fill: rgb(0, 0, 0); fill-opacity: 0;" x="0" y="-9.5" width="90.06666564941406" height="19"/></g><g class="traces" style="opacity: 1;" transform="translate(0,33.5)"><text class="legendtext" text-anchor="start" style="font-family: TOBESTRIPPEDOpen SansTOBESTRIPPED, verdana, arial, sans-serif; font-size: 12px; fill: rgb(68, 68, 68); fill-opacity: 1; white-space: pre;" x="40" y="4.680000000000001">LSTM32</text><g class="layers" style="opacity: 1;"><g class="legendfill"/><g class="legendlines"><path class="js-line" d="M5,0h30" style="fill: none; stroke: rgb(33, 150, 243); stroke-opacity: 1; stroke-width: 2px;"/></g><g class="legendsymbols"><g class="legendpoints"/></g></g><rect class="legendtoggle" style="fill: rgb(0, 0, 0); fill-opacity: 0;" x="0" y="-9.5" width="90.06666564941406" height="19"/></g><g class="traces" style="opacity: 1;" transform="translate(0,52.5)"><text class="legendtext" text-anchor="start" style="font-family: TOBESTRIPPEDOpen SansTOBESTRIPPED, verdana, arial, sans-serif; font-size: 12px; fill: rgb(68, 68, 68); fill-opacity: 1; white-space: pre;" x="40" y="4.680000000000001">Conv1D</text><g class="layers" style="opacity: 1;"><g class="legendfill"/><g class="legendlines"><path class="js-line" d="M5,0h30" style="fill: none; stroke: rgb(0, 150, 136); stroke-opacity: 1; stroke-width: 2px;"/></g><g class="legendsymbols"><g class="legendpoints"/></g></g><rect class="legendtoggle" style="fill: rgb(0, 0, 0); fill-opacity: 0;" x="0" y="-9.5" width="90.06666564941406" height="19"/></g></g></g><rect class="scrollbar" rx="20" ry="3" width="0" height="0" style="fill: rgb(128, 139, 164); fill-opacity: 1;" x="0" y="0"/></g><g class="g-gtitle"><text class="gtitle" style="font-family: TOBESTRIPPEDOpen SansTOBESTRIPPED, verdana, arial, sans-serif; font-size: 17px; fill: rgb(68, 68, 68); opacity: 1; font-weight: normal; white-space: pre;" x="350" y="50" text-anchor="middle" dy="0em">Model comparison: Distortion</text></g><g class="g-xtitle"><text class="xtitle" style="font-family: TOBESTRIPPEDOpen SansTOBESTRIPPED, verdana, arial, sans-serif; font-size: 14px; fill: rgb(68, 68, 68); opacity: 1; font-weight: normal; white-space: pre;" x="350" y="422" text-anchor="middle">Epochs</text></g><g class="g-ytitle" transform="translate(-12.06640625,0)"><text class="ytitle" transform="rotate(-90,42,235)" style="font-family: TOBESTRIPPEDOpen SansTOBESTRIPPED, verdana, arial, sans-serif; font-size: 14px; fill: rgb(68, 68, 68); opacity: 1; font-weight: normal; white-space: pre;" x="42" y="235" text-anchor="middle">Training loss</text></g></g></svg>