<svg class="main-svg" xmlns="http://www.w3.org/2000/svg" xmlns:xlink="http://www.w3.org/1999/xlink" width="700" height="450" style="" viewBox="0 0 700 450"><rect x="0" y="0" width="700" height="450" style="fill: rgb(255, 255, 255); fill-opacity: 1;"/><defs id="defs-e034f5"><g class="clips"><clipPath id="clipe034f5xyplot" class="plotclip"><rect width="540" height="270"/></clipPath><clipPath class="axesclip" id="clipe034f5x"><rect x="80" y="0" width="540" height="450"/></clipPath><clipPath class="axesclip" id="clipe034f5y"><rect x="0" y="100" width="700" height="270"/></clipPath><clipPath class="axesclip" id="clipe034f5xy"><rect x="80" y="100" width="540" height="270"/></clipPath></g><g class="gradients"/><g class="patterns"/></defs><g class="bglayer"/><g class="layer-below"><g class="imagelayer"/><g class="shapelayer"/></g><g class="cartesianlayer"><g class="subplot xy"><g class="layer-subplot"><g class="shapelayer"/><g class="imagelayer"/></g><g class="minor-gridlayer"><g class="x"/><g class="y"/></g><g class="gridlayer"><g class="x"><path class="xgrid crisp" transform="translate(239.28,0)" d="M0,100v270" style="stroke: rgb(238, 238, 238); stroke-opacity: 1; stroke-width: 1px;"/><path class="xgrid crisp" transform="translate(398.56,0)" d="M0,100v270" style="stroke: rgb(238, 238, 238); stroke-opacity: 1; stroke-width: 1px;"/><path class="xgrid crisp" transform="translate(557.8299999999999,0)" d="M0,100v270" style="stroke: rgb(238, 238, 238); stroke-opacity: 1; stroke-width: 1px;"/></g><g class="y"><path class="ygrid crisp" transform="translate(0,329.76)" d="M80,0h540" style="stroke: rgb(238, 238, 238); stroke-opacity: 1; stroke-width: 1px;"/><path class="ygrid crisp" transform="translate(0,276.76)" d="M80,0h540" style="stroke: rgb(238, 238, 238); stroke-opacity: 1; stroke-width: 1px;"/><path class="ygrid crisp" transform="translate(0,223.76999999999998)" d="M80,0h540" style="stroke: rgb(238, 238, 238); stroke-opacity: 1; stroke-width: 1px;"/><path class="ygrid crisp" transform="translate(0,170.76999999999998)" d="M80,0h540" style="stroke: rgb(238, 238, 238); stroke-opacity: 1; stroke-width: 1px;"/><path class="ygrid crisp" transform="translate(0,117.78)" d="M80,0h540" style="stroke: rgb(238, 238, 238); stroke-opacity: 1; stroke-width: 1px;"/></g></g><g class="zerolinelayer"/><path class="xlines-below"/><path class="ylines-below"/><g class="overlines-below"/><g class="xaxislayer-below"/><g class="yaxislayer-below"/><g class="overaxes-below"/><g class="plot" transform="translate(80,100)" clip-path="url(#clipe034f5xyplot)"><g class="scatterlayer mlayer"><g class="trace scatter traceb00de9" style="stroke-miterlimit: 2; opacity: 1;"><g class="fills"/><g class="errorbars"/><g class="lines"><path class="js-line" style="vector-effect: none; fill: none; stroke: rgb(156, 39, 176); stroke-opacity: 1; stroke-width: 2px; opacity: 1;" d="M0,-3209.29L2.23,-51.38L2.87,46.78L3.5,100.15L4.46,50.08L5.73,128.12L6.05,152.93L7.33,186.77L7.96,179.18L8.92,203.69L9.24,207.64L10.19,217.52L10.51,12.55L11.47,222.1L11.79,224.99L12.11,225.11L12.42,223.67L12.74,218.76L13.38,230.8L13.7,184.84L14.65,228.49L14.97,125.92L15.29,231.89L15.61,234.26L15.93,236.92L16.25,207.07L16.88,239.17L17.2,233.66L17.52,238.96L18.48,239.55L19.11,237.88L19.43,240.92L19.75,233.52L20.07,224.5L20.71,241.6L21.02,175.88L21.34,240.39L21.66,-909.02L22.3,241.39L22.94,236.32L23.25,218.59L24.53,245.46L24.85,246.57L25.17,244.64L25.48,235.17L25.8,213.44L26.12,241.88L26.44,238.42L26.76,205.38L27.08,236.08L27.4,237.99L28.35,246.73L28.67,240.21L29.31,247.29L29.94,-410.25L30.58,233.38L31.54,246.82L32.81,244.33L33.13,247.33L33.77,246.08L34.09,247.34L34.4,245.92L34.72,195.47L35.68,247.49L36.32,-66.39L37.27,236.08L37.59,244.69L37.91,242.6L38.23,246.1L38.86,246.98L39.18,-615.17L40.46,247.64L40.78,247.33L41.09,247.04L41.41,244.97L41.73,247.53L42.05,238.16L42.69,247.03L43.32,53.02L44.92,223.12L45.55,229.91L46.83,242.01L47.15,240.76L47.78,243.59L48.42,241.79L49.06,246.31L49.69,246.72L50.33,247.24L50.65,236.29L51.61,246.66L51.92,248.63L52.24,242.43L52.56,246.05L52.88,247.86L53.52,219.92L53.84,247.45L55.11,250.18L55.43,250L55.75,250.33L56.07,70.05L56.38,249.57L56.7,248.68L57.34,249.23L57.98,251.12L58.3,248.98L58.61,220.93L58.93,246.05L59.25,249.19L60.21,250.89L60.53,249.04L60.84,251.42L61.48,250.96L61.8,250.93L62.76,250.74L63.07,200.24L63.71,251.2L64.35,-1063.39L65.3,251.67L65.62,251.25L66.58,252.33L66.9,252.03L67.22,158.43L67.85,252.41L68.49,252.07L68.81,226.83L69.45,-524.77L69.76,249.01L70.08,248.42L70.4,253.34L71.04,251.32L71.36,252.51L71.68,252.1L72.95,244.44L73.27,247.46L74.54,251.16L74.86,251.81L75.18,248.06L75.5,250.43L75.82,250.79L76.77,252.27L77.09,251.54L78.05,252.96L78.36,250.18L79,253.35L79.32,252.92L80.28,253.72L81.23,253.86L81.87,253.97L82.51,253.07L82.82,248.56L83.78,254.48L84.42,254.23L85.37,253.81L86.01,254.55L87.92,253.67L88.56,254.84L88.88,254.83L89.2,253.88L89.51,-94.04L89.83,251.53L90.15,253.54L91.11,254.86L91.43,253.92L91.74,255.01L92.06,253.2L92.38,254.98L92.7,254.52L93.02,253.9L93.66,254.94L93.97,253.93L94.29,255.03L94.61,253.32L94.93,255.17L95.25,254.46L95.57,253.65L95.89,255.23L96.2,253.94L96.52,252.42L96.84,254.19L97.16,250.71L97.8,255.37L98.12,254.6L98.43,255.19L99.07,250.27L99.39,254.87L101.3,255.64L101.62,255.8L102.58,254.79L103.21,254.72L104.17,255.57L104.8,255.03L105.12,255.52L105.44,253.7L105.76,35.49L106.08,254.2L106.4,255.32L106.72,255.68L107.03,254.95L107.35,255.23L108.31,255.29L108.63,255.08L110.22,255.9L110.54,255.97L111.49,255.47L112.13,252.13L113.09,255.76L113.72,255.88L114.68,253.07L115,160.54L115.64,256.06L115.95,255.64L116.27,255.94L117.55,255.38L118.82,255.83L119.14,255.46L119.46,256.08L120.1,242.32L120.41,255.99L121.37,256.33L121.69,256.37L122.33,255.24L122.64,253.56L122.96,256.05L123.92,255.19L124.24,252.53L124.87,256.51L125.19,255.93L125.51,256.29L125.83,255.39L126.15,256.47L126.47,256.05L126.79,255.36L127.1,256.22L127.42,256L128.38,256.62L128.7,253.4L129.02,256.11L129.33,255.72L129.65,252.91L130.29,256.47L130.61,255.08L131.56,255.19L131.88,254.3L132.2,255.51L133.16,252.48L134.11,256.67L134.43,256.41L134.75,256.44L135.07,255.71L136.02,255.59L136.66,255.07L137.3,256.8L138.25,256.39L138.57,256.88L138.89,255.73L139.21,239.72L139.53,256.41L139.85,256.83L141.44,257.03L141.76,256.29L142.08,255.15L143.35,256.7L143.67,257L143.99,256.59L144.31,256.3L145.26,256.41L145.9,256.69L146.85,256.08L147.17,256.61L147.49,256.17L147.81,254.45L148.13,256.62L148.45,255.81L149.08,251.38L149.72,257.06L150.04,255.56L150.68,256.64L152.59,256.09L152.91,256.52L153.23,256.77L153.54,256.27L153.86,255.11L154.18,256.92L154.5,256.63L154.82,256.1L155.46,256.52L155.77,253.09L156.09,253.98L156.41,257.11L157.37,255.26L157.69,256.41L158.32,241.82L158.64,257.13L160.23,256.85L161.19,256.99L161.83,255.69L162.15,256.35L162.46,256.61L162.78,257.15L163.1,256.61L163.42,256.71L165.65,257.07L165.97,256.33L166.6,257.05L167.56,254.93L169.15,256.97L169.47,256.89L170.43,256.78L170.75,256.07L171.06,257.38L171.7,256.84L172.02,257.07L173.29,257.19L173.93,256.61L174.25,256.09L174.57,257.42L175.84,257.02L176.16,257.5L177.12,257.18L177.75,257.14L178.71,257.07L179.03,256.74L180.3,257.48L180.62,256.77L181.58,257.38L181.9,257.2L183.17,256.72L183.49,257.11L187.63,257.24L187.95,256.7L188.9,257.4L189.22,257.33L190.82,257.44L191.45,257.21L193.04,256.61L193.36,257.44L194.32,256.95L194.96,257.43L195.91,257.27L196.23,257.38L197.5,257.07L197.82,257.29L202.28,257.28L202.6,257.04L203.88,257.43L204.19,257.45L205.15,257.58L205.47,256.75L206.42,257.4L206.74,257.53L208.65,257.21L209.61,257.55L219.8,257.56L220.44,257.6L222.03,257.54L222.35,257.57L228.72,257.6L229.04,257.44L239.55,257.56L239.87,257.45L246.24,257.5L246.88,257.55L254.84,257.55L255.48,257.59L263.76,257.53L264.08,257.55L389.91,257.55"/></g><g class="points"/><g class="text"/></g><g class="trace scatter trace1abf9a" style="stroke-miterlimit: 2; opacity: 1;"><g class="fills"/><g class="errorbars"/><g class="lines"><path class="js-line" style="vector-effect: none; fill: none; stroke: rgb(33, 150, 243); stroke-opacity: 1; stroke-width: 2px; opacity: 1;" d="M0,-5400L0.12151974140082697,-5400L1.27,-218.88L2.87,58.86L3.19,-41.91L3.5,51.85L4.46,116.6L5.1,133.58L5.73,117.73L6.05,153.71L6.37,0.81L7.33,150.21L8.28,151.97L9.56,177.38L10.51,185.83L10.83,-49.24L11.47,193.97L11.79,-1109.14L12.11,182.89L12.42,192.76L12.74,195.86L14.97,197.14L15.61,211.23L15.93,191.08L16.56,212.42L17.2,38.18L18.16,211.49L19.11,216.61L19.75,218.62L20.07,46.43L21.34,220.48L21.66,218.73L22.3,220.48L22.62,199.93L23.25,-1167.35L23.89,215.59L25.17,224.22L25.48,223.68L26.12,222.59L26.44,224.63L27.08,212.94L27.4,-629.55L28.35,221.39L28.67,224.32L30.26,209.33L31.54,231.74L31.86,205.1L33.13,230.28L33.77,229.61L34.09,225.02L34.72,88.69L35.36,230.79L35.68,-1703.04L36.95,218.42L38.55,226.96L39.82,-157.28L40.14,226.63L41.41,233.12L41.73,233L42.05,232.23L43.32,233.58L43.64,232.68L45.55,229.05L45.87,233.53L47.78,232.4L49.06,220.65L49.69,233.53L50.01,169.79L50.97,235.75L51.61,236.53L51.92,221.49L52.24,236.61L52.88,237.01L54.15,234.97L54.47,230.56L54.79,187.56L55.43,233.46L55.75,237.8L56.07,190.7L56.7,228.26L57.34,235.43L57.98,236.48L58.3,233.7L59.25,237.45L60.21,221.47L60.53,237.3L60.84,154.81L61.16,238.02L62.12,234.91L63.07,238.21L63.39,236.45L64.35,239.12L64.67,238.45L64.99,237.76L65.94,238.8L66.58,236.72L67.22,236.86L67.85,235.73L68.81,238.69L69.45,220.93L69.76,216.97L70.08,239.39L70.72,238.87L71.36,-202.22L71.68,239.71L71.99,239.06L72.95,228.17L73.91,238.97L74.54,238.12L74.86,238.95L75.18,239.57L75.5,39.95L76.13,237.83L76.77,239.58L77.09,238.07L77.73,238.92L78.36,240.53L78.68,239.93L79.32,238.98L80.28,236.92L80.59,240.33L80.91,239.24L81.87,241.29L82.19,196.9L82.51,229.47L82.82,235.34L83.78,238.57L85.37,238.42L86.01,-714.22L86.33,221.33L87.28,235.68L87.6,181.22L88.56,240.98L89.2,240.79L89.83,240.85L90.15,238.64L91.43,241.72L91.74,241.73L92.38,240.56L92.7,241.84L93.97,239.6L94.29,241.77L95.25,241.06L96.84,239.05L97.16,241.64L97.48,241.42L97.8,240.63L98.12,239.99L98.43,240.89L99.39,241.93L100.03,240.77L100.35,241.85L100.66,240.54L101.3,241.62L103.21,242.24L104.8,242.52L105.12,242.61L105.44,241.24L106.08,242.52L107.35,187.41L108.31,242.33L109.26,241.93L109.58,242.68L109.9,240.57L110.22,243.33L110.86,242.59L111.18,241.95L111.49,242.54L112.13,238.99L112.45,243.07L112.77,238.43L113.09,242.89L113.72,242.91L114.04,240.98L114.68,241.7L115,243.41L115.32,241.74L115.64,243.16L115.95,242.78L117.55,243.52L119.14,241.22L119.46,242.95L120.1,237.96L120.41,242.9L121.69,243.21L122.96,241.84L123.92,237.55L124.87,243.49L125.19,243.62L126.47,241.04L126.79,242.68L127.1,234.72L127.42,243.2L127.74,242.33L128.7,243.88L129.33,243.62L130.29,242.89L131.25,242.16L131.88,243.89L132.2,242.84L133.16,239.47L133.47,243.91L134.43,243.75L135.39,243.64L135.7,243.05L136.66,243.37L136.98,243.22L137.3,244.13L139.21,244.03L139.53,244.53L139.85,242.43L140.16,244.18L140.48,244.07L142.08,243.83L143.35,244.52L143.67,242.5L143.99,244.38L144.31,236.19L144.62,243.63L145.26,243.52L145.9,242.32L147.17,244.69L147.81,-89.37L148.13,244L148.45,243.97L149.08,244.52L150.68,244.56L151,244.23L151.31,243.16L152.27,244.51L153.23,244.32L153.54,243.57L153.86,244.34L154.18,244L154.82,242.42L155.77,244.88L156.41,244.89L157.69,244.01L158.32,216.43L158.64,244.83L159.6,244.81L160.23,244.02L161.19,245.15L161.83,242.86L162.15,244.57L162.46,244.41L162.78,245.07L163.1,243.32L163.42,245.22L163.74,244.53L164.37,244.13L164.69,245.12L165.01,239.24L165.65,244.31L165.97,109.1L166.6,244.98L167.56,244.71L169.79,245.29L170.11,243.74L171.38,245.09L171.7,244.37L172.34,243.86L172.66,243.29L173.29,245.18L173.93,244.83L174.25,244.55L175.84,244.36L176.48,242.66L177.12,244.82L179.03,245.34L179.35,244.83L179.67,245.16L180.3,244.95L181.26,245.22L181.9,244.55L182.53,245.35L183.49,245.02L187.31,245.48L187.63,245.1L188.27,245.51L188.59,243.19L189.22,245.5L189.54,245.31L189.86,244.73L190.18,245.25L190.5,244.24L191.45,245.51L191.77,245.61L193.36,244.72L193.68,245.72L195.59,245.8L196.23,245.11L196.55,245.79L196.87,243.94L197.5,245.86L198.14,244.39L198.46,245.87L199.42,245.84L200.37,244.4L201.33,246.02L202.28,245.97L202.92,245.68L205.47,245.79L206.42,245.3L206.74,246.18L207.38,245.81L207.7,244.52L208.65,246.04L209.61,245.75L210.25,245.56L212.48,246.03L215.66,246.09L215.98,246.4L217.26,246.13L217.57,246.07L217.89,245.56L218.21,246.48L219.49,246.13L220.44,246.24L221.4,245.92L221.72,246.54L223.94,246.12L224.58,245.9L226.17,246.29L226.81,246.46L227.13,246.51L227.77,244.87L229.36,246.34L229.68,246.74L230.32,245.82L230.63,246.15L230.95,240.98L231.91,246.69L232.23,246.27L233.18,246.21L233.5,245.14L235.41,246.34L235.73,245.65L236.69,245.23L237.01,246.15L237.32,246.64L239.24,246.09L239.55,245.71L240.51,246.76L241.78,246.51L243.06,246.55L244.33,246.46L244.65,246.78L244.97,246.38L245.29,246.73L245.61,246.79L247.84,246.57L248.16,246.57L248.79,246.03L249.11,246.53L249.43,246.42L252.61,246.72L253.25,246.31L253.57,246.82L253.89,246.59L254.53,246.73L256.44,246.45L256.76,246.19L257.07,246.86L258.03,246.67L258.99,246.65L260.26,246.42L260.9,246.62L261.53,246.8L262.17,246.22L262.49,246.57L262.81,246.72L265.04,246.74L265.36,246.83L269.18,246.33L270.77,246.7L272.05,246.88L272.68,246.77L279.37,246.74L280.33,246.83L281.28,246.71L281.6,245.55L282.56,246.84L282.88,246.77L307.41,246.83L308.04,246.73L309.32,246.78L310.91,246.64L312.82,247L313.14,246.3L315.05,246.93L315.37,246.86L319.51,246.91L319.83,246.86L322.06,246.95L322.7,246.95L330.34,246.97L330.66,246.96L335.44,246.91L335.76,246.95L347.54,247.01L347.86,246.95L352.96,247.01L353.28,247.01L376.53,247L377.17,247.01L514.47,247.01"/></g><g class="points"/><g class="text"/></g><g class="trace scatter trace30927c" style="stroke-miterlimit: 2; opacity: 1;"><g class="fills"/><g class="errorbars"/><g class="lines"><path class="js-line" style="vector-effect: none; fill: none; stroke: rgb(0, 150, 136); stroke-opacity: 1; stroke-width: 2px; opacity: 1;" d="M0,-640.57L0.96,-34.5L2.23,-43.73L2.87,-623.41L3.19,158.44L3.5,-32.43L4.46,69.76L4.78,144.66L5.1,-42.62L5.42,104.01L5.73,30.52L6.05,54.41L6.37,150.54L7.01,-1161.19L7.33,149.47L7.96,155.7L8.28,105.18L9.24,178.78L9.56,-3259.86L9.88,-129.29L10.83,164.93L11.47,111.59L12.11,84.98L12.42,-88.39L13.38,135.27L13.7,136.34L14.97,73.46L15.29,12.16L16.25,205.29L16.56,111.8L16.88,171.94L17.52,154.91L18.16,111.11L19.11,194.23L19.43,202.08L19.75,-527.26L20.07,119.27L20.71,197.78L21.34,157.85L21.66,168.78L22.3,155.69L22.62,219.52L22.94,181.72L23.25,188.73L23.89,163.67L24.53,179.96L25.17,210.38L25.48,179.01L25.8,74.73L26.12,177.66L26.44,202.64L27.08,-3212.73L27.4,-52.53L28.35,103.67L28.67,91.35L29.31,26.38L29.94,126.06L30.26,107.65L30.58,83.78L31.54,-233.87L31.86,144.77L33.13,144.53L33.77,178.8L34.09,188.48L34.4,171.67L34.72,124.23L35.04,135.56L35.36,166.25L35.68,94.64L36.32,120.94L37.27,164.74L37.91,172.46L38.23,163.62L38.55,190.88L39.18,116.03L39.82,181.01L40.14,156.76L40.46,178.31L40.78,171.6L41.09,201.15L41.41,154.99L41.73,203.19L42.05,160.78L42.69,155.27L43.32,209.75L43.64,136.21L43.96,139L44.28,150.85L44.6,94.44L44.92,182.89L45.55,181.81L45.87,194.67L46.19,175.46L46.51,210.83L46.83,171L47.15,172.87L47.78,196.1L48.74,165.05L49.06,173.81L49.69,215.78L50.33,186.71L50.65,194.27L50.97,210.89L51.29,149.13L51.61,216.88L51.92,197.94L52.24,199.32L52.88,188.13L53.52,210.87L53.84,201.29L54.15,175.6L54.79,218.84L55.43,189.21L56.38,221.33L56.7,156.58L57.66,227.52L57.98,211.7L58.3,223.35L58.93,158.64L59.25,207.95L60.21,202.52L60.53,208.71L60.84,223.35L61.16,222.46L61.48,212.59L62.12,197.62L62.76,146.95L63.07,137.27L63.39,227.45L64.35,174.82L64.67,230.5L65.62,163.01L65.94,229.63L66.58,204.35L66.9,231.9L67.22,176.28L67.85,212.81L68.49,215.5L68.81,230.76L70.4,204.03L70.72,216.69L73.59,132.81L73.91,215.66L74.22,223.04L74.54,179.23L75.5,223.94L75.82,195.16L76.13,206.04L76.77,194.46L77.09,221.97L77.73,206.4L78.36,230.83L78.68,186.55L79,235.85L79.32,230.27L80.28,231.33L80.91,184.36L81.23,205.84L81.87,205.3L82.19,208.2L82.51,182.67L82.82,224.84L83.46,203.71L83.78,224.58L84.42,209.47L86.01,228.45L86.33,221.21L87.92,208.82L88.56,224.32L88.88,217.9L89.2,192.06L89.51,231.13L89.83,228.91L90.15,212.63L90.47,213.65L90.79,224.18L91.11,230.17L91.43,189.18L91.74,232.23L92.38,209.28L92.7,61.87L93.97,229.31L94.61,236.19L94.93,165.87L95.25,219.62L95.89,235.11L96.52,233.74L96.84,236.34L97.16,206.13L97.8,233.94L98.12,110.04L99.07,232.17L99.39,213.74L99.71,234.05L100.03,217.67L100.35,197.27L100.66,218.9L101.3,127.69L101.62,224L101.94,112.76L102.26,192.22L102.58,207.06L103.21,202.59L104.17,201.47L104.8,238.18L105.12,220.43L105.44,211.04L105.76,143.46L106.08,211.06L106.4,215.68L107.03,218.11L107.35,227.79L107.67,237.2L108.31,212.93L108.95,196.94L109.26,227.09L109.58,236.21L109.9,227.58L110.22,219.38L110.54,227.26L110.86,159.2L111.18,243.44L111.49,222.49L112.13,206.43L112.45,207.26L112.77,212.9L113.09,183.83L113.72,201.25L114.68,220.65L115,186.94L116.27,233.43L116.59,214.41L117.55,232.27L118.82,181.7L119.14,239.28L119.46,219.68L120.1,202.29L120.41,196.55L121.37,221.32L121.69,215.55L122.33,231.16L122.96,239L123.92,224.51L124.24,224.03L124.56,175.72L125.51,239.53L125.83,196.17L126.15,232.28L126.47,227.64L126.79,181.39L127.1,176.27L127.42,219.5L128.06,237.14L128.38,230.72L128.7,193.58L129.02,231.21L129.65,223.8L129.97,214.78L130.29,225.34L131.25,196.69L131.56,196.02L131.88,177.76L132.2,203.13L133.16,193.3L134.11,237.95L134.75,234.38L135.07,238.9L135.39,236.55L135.7,169.48L136.66,237.91L136.98,198.38L137.3,239.05L138.25,233.37L138.57,208.03L138.89,227.15L139.21,240.37L140.16,189.44L140.48,225.76L141.12,220.29L141.44,243.6L141.76,240.84L142.08,192.56L143.99,240.9L144.31,194.34L144.62,245.22L145.26,230.76L145.9,176.26L146.85,241.19L147.17,132.16L147.81,241.43L148.13,240.29L148.45,221.19L149.08,225.68L149.4,242.39L149.72,210.24L150.04,221.45L150.68,239.57L152.27,216.59L152.59,238.69L152.91,238.67L153.23,242.17L153.54,183.26L153.86,227.36L154.18,227.31L154.82,223.88L155.14,200.45L155.77,240.61L156.09,233.36L156.41,191.92L157.69,239.09L158.32,230.72L158.64,217.07L158.96,234.98L159.6,238.64L159.92,197.6L160.23,231.57L161.19,212.62L161.51,217.39L161.83,212.67L162.15,239.92L162.46,238.22L162.78,243.7L163.1,189.74L163.42,234.2L163.74,237.37L164.37,218.39L164.69,233.46L165.33,193.3L165.65,210.97L165.97,213.4L166.6,196.85L167.56,216.62L167.88,225.01L168.83,219.34L169.79,244.22L170.11,228.91L170.43,183.76L170.75,230.1L171.06,224.06L171.38,238.96L171.7,226.46L172.02,227.46L172.98,232.18L173.29,218.22L173.93,209.15L174.25,216.96L174.57,241.88L175.21,237.16L175.84,106.02L176.16,239.24L176.8,219.42L177.12,231.91L177.75,215.84L178.07,232.16L179.03,207.27L179.35,236.64L179.67,211.29L180.3,228.44L181.26,206.23L181.9,231.12L182.21,222.15L182.53,237.55L183.81,202.46L184.76,234.02L186.04,222.73L186.36,242.48L187.31,220.51L187.63,235.12L187.95,215.38L188.27,247.14L188.9,209.56L189.22,220.74L189.54,231.08L189.86,234.29L190.18,224.07L190.5,216.16L190.82,226.19L191.45,169.39L192.41,242.83L192.73,242.28L193.36,239.15L193.68,101.03L194,233.33L194.32,178.43L195.59,236.79L195.91,234.63L196.23,212.47L196.55,236.55L196.87,191.89L197.19,224.76L197.5,173.79L198.14,220.49L198.46,207.34L199.1,230.88L199.42,189.26L199.73,226.7L200.05,222.71L201.33,237.8L201.65,235.44L202.28,213.74L202.6,182.2L202.92,237.28L203.88,232.17L204.51,233.58L204.83,205.53L205.15,233.67L205.47,207.88L206.42,204.32L206.74,240.97L207.38,228.63L207.7,241.76L208.02,240.42L208.34,202.1L208.65,242.67L209.61,224.42L209.93,209.31L210.25,227.86L210.57,212.49L211.2,202.45L211.84,186.91L212.48,238.4L213.11,185.92L213.43,200.65L213.75,209.76L214.07,169.79L214.39,199.09L215.03,197.38L215.34,233.98L215.98,221.83L216.3,239.69L216.62,215.76L217.26,240.63L217.89,215.69L218.21,222.95L218.85,218.41L219.8,241.58L220.44,226.21L221.08,244.94L221.4,232.26L221.72,233.46L222.03,221.19L222.35,236.51L222.67,203.74L222.99,167.81L223.63,223.24L224.58,196.61L225.54,232.43L226.81,194.06L227.13,228.8L227.77,226.44L228.09,238.56L228.4,211.31L229.04,223.49L229.36,216.17L229.68,230.99L230,201.6L230.32,204.33L230.63,220.01L231.27,244.8L231.59,229.66L231.91,201.24L232.23,232.19L232.55,230.92L232.86,201.66L233.18,230.56L233.5,220.41L233.82,237.02L234.14,234.06L234.46,224.72L235.09,218.33L235.41,225.38L235.73,236.86L236.37,203.32L237.01,198.82L237.32,223.78L237.64,221.4L239.24,242.15L239.87,235.65L240.51,237.98L240.83,233.77L241.15,241.69L241.47,231.8L241.78,234.07L242.74,225.43L243.06,238.62L243.38,231.2L243.7,225.3L244.33,229.03L244.65,201.59L244.97,206.71L245.29,206.48L245.61,230.27L245.93,232.18L246.24,218.84L247.2,237.45L247.52,233.47L247.84,217.48L248.16,216.74L248.47,223.21L248.79,218.37L249.11,238.31L249.43,192.74L250.39,233.6L250.7,228.27L251.02,233.9L251.34,208.16L251.66,239.16L251.98,235L252.61,227.92L252.93,216.89L253.25,219.14L253.57,237.76L253.89,214.76L254.21,242.21L254.53,227.03L254.84,204.7L256.12,194.64L256.76,247.39L257.07,236.42L257.39,235.4L258.03,208.59L258.35,225.95L258.99,232.88L259.3,206.04L259.62,244.63L260.26,215.39L260.9,218.92L261.22,217.86L261.53,233.88L262.17,229.42L262.49,182.53L262.81,158.12L263.13,223.86L263.76,216.71L264.08,181.28L265.04,240.95L265.36,237.84L265.68,227.59L265.99,226.51L266.31,213.9L266.63,229.84L267.27,222.41L267.59,239.73L268.22,223.29L269.18,229.96L269.82,180.37L270.77,195.52L271.09,231.23L272.05,217.85L272.68,240.83L273.96,211.06L274.28,237.59L274.6,200.1L275.55,227.27L276.51,192.8L276.83,228.14L277.14,204.89L277.46,238.44L277.78,236.71L278.1,244.11L279.06,233.73L279.37,173.24L280.33,231.92L280.65,246.66L280.97,207.63L281.28,228.1L281.6,226.28L282.56,158.01L282.88,199.5L283.2,232.67L283.51,198.35L284.15,213.24L284.47,235.02L285.11,232.05L285.74,231.66L286.06,238.71L287.02,218.39L287.34,208.9L287.97,239.12L288.29,235.82L288.61,211.71L288.93,153.04L289.25,166.72L289.89,240.38L290.2,210.87L290.84,216.22L291.16,204.59L291.8,241.12L292.12,229.59L292.43,227.11L292.75,242.71L293.39,240.35L293.71,232.35L294.03,238.54L294.35,233.03L294.98,230.84L295.62,240.74L295.94,90.34L296.26,240.26L296.89,206.1L297.21,186.69L297.53,240.4L297.85,201.75L298.49,230.06L299.12,244.77L299.44,217.97L299.76,222.2L300.08,237.04L300.4,241.55L300.72,209.8L301.04,222.12L301.35,152.26L301.67,242.82L302.31,221.72L302.63,228.58L303.27,240.35L303.9,239.43L304.22,233.17L304.54,237.57L304.86,207.06L305.81,215.35L306.13,242.71L307.09,220.33L307.41,234.53L308.36,203.07L309.32,228.79L309.64,213.23L310.91,194.32L311.23,231.32L311.87,227.14L312.18,217.79L312.5,216.36L312.82,221.98L313.14,201.78L314.1,205.95L314.73,233.93L315.05,226.42L315.37,239.99L316.01,233.37L316.33,238.53L316.64,216.02L316.96,227.54L317.28,225.59L317.92,194.33L318.24,223.99L318.56,219.85L318.87,205.51L319.19,170.29L319.51,224.54L320.15,203.26L320.47,230.81L320.79,224.98L322.06,218.69L322.7,231.49L323.02,172.72L323.33,240.33L323.97,232.36L324.93,240.63L325.56,194.38L325.88,239.99L326.52,221.94L326.84,223.44L327.48,224.53L327.79,176.08L328.43,209.44L329.71,238.59L330.02,232.3L330.34,220.13L330.66,195L330.98,221.57L332.25,224.73L333.85,236.48L334.17,198.45L335.12,232.37L335.44,223.35L335.76,158.08L336.4,198.31L337.03,236.31L337.35,204.64L338.31,236.98L338.63,227.28L338.94,194.73L339.26,225.8L339.58,219.88L339.9,229.9L340.22,220.78L340.54,221.13L340.85,218.78L341.17,237.27L341.81,194.73L342.13,228.38L342.77,222.21L343.08,241.81L344.04,195.38L344.36,240.55L344.68,240.36L345,229.48L345.63,238.26L345.95,210.59L346.27,199.66L346.59,230.12L347.54,240.04L347.86,198.15L348.18,227.62L349.77,223.1L350.41,236.33L350.73,229.2L351.05,233.76L351.37,241.9L351.69,232.88L352.32,241.26L352.64,234.98L352.96,206.92L353.28,149.91L353.6,225.9L353.92,228.43L354.55,244.23L354.87,45.49L355.83,234.5L356.15,218.39L356.46,196.99L357.42,244.72L358.38,212.61L358.69,214.26L359.33,227.46L359.97,237.04L360.29,180.62L360.61,215.89L360.92,156.06L361.24,211.28L361.56,212.54L361.88,245.44L362.2,187.38L362.84,237.65L363.15,160.73L364.11,237.51L364.75,226.78L365.07,240.91L365.38,210.99L366.34,200.98L366.66,231.13L366.98,242.49L367.3,228.73L367.93,236.35L368.57,196.25L369.21,229.8L370.16,238.2L370.48,217.1L370.8,237.55L371.12,194.65L371.75,235.82L372.07,222.92L373.35,232.09L373.67,205.08L373.98,225.94L374.62,211.87L374.94,240.52L375.26,237.84L375.9,237.11L376.21,237.87L376.53,211.42L377.17,204.89L377.81,218.08L378.44,212.18L378.76,239.33L379.4,193.67L380.04,216.46L380.36,236.96L380.67,222.49L380.99,183.37L381.63,239.98L382.59,241.52L383.86,230.92L384.18,197.83L384.5,239.26L385.13,209.82L385.45,241.25L386.41,225.45L387.05,240.83L387.68,224.67L388,219.85L388.32,199.1L388.96,242.05L389.28,239.88L389.59,242.17L390.23,224.16L391.19,235.54L391.51,239.83L392.46,227.05L392.78,224.86L393.1,237.63L393.42,241.25L393.74,220.88L394.37,212.76L394.69,220.9L395.33,217.9L395.97,247.35L396.28,233.76L396.92,239.67L397.24,189.52L397.56,243.7L398.2,226.5L398.51,233.59L398.83,230.43L399.15,243.94L399.47,219.79L400.11,238.22L401.38,191.17L401.7,199.29L402.65,244.18L402.97,226.69L403.29,213.73L403.61,235.39L405.2,181.34L406.16,231.28L406.48,206.03L406.8,238.56L407.11,224.78L407.43,234.95L407.75,228.72L408.39,193.82L408.71,225.53L409.34,182.48L410.3,231.34L410.94,214.17L411.26,232.98L411.57,183.17L411.89,233.88L412.53,226.8L412.85,241.05L413.8,179.29L414.12,246.43L414.76,232.21L415.4,180.68L415.72,239.11L416.03,238.17"/></g><g class="points"/><g class="text"/></g></g></g><g class="overplot"/><path class="xlines-above crisp" style="fill: none; stroke-width: 1px; stroke: rgb(68, 68, 68); stroke-opacity: 1;" d="M79,370.5H620"/><path class="ylines-above crisp" style="fill: none; stroke-width: 1px; stroke: rgb(68, 68, 68); stroke-opacity: 1;" d="M79.5,100V370"/><g class="overlines-above"/><g class="xaxislayer-above"><path class="xtick ticks crisp" style="stroke: rgb(68, 68, 68); stroke-opacity: 1; stroke-width: 1px;" d="M0,371v5" transform="translate(80,0)"/><path class="xtick ticks crisp" style="stroke: rgb(68, 68, 68); stroke-opacity: 1; stroke-width: 1px;" d="M0,371v5" transform="translate(239.28,0)"/><path class="xtick ticks crisp" style="stroke: rgb(68, 68, 68); stroke-opacity: 1; stroke-width: 1px;" d="M0,371v5" transform="translate(398.56,0)"/><path class="xtick ticks crisp" style="stroke: rgb(68, 68, 68); stroke-opacity: 1; stroke-width: 1px;" d="M0,371v5" transform="translate(557.8299999999999,0)"/><g class="xtick"><text text-anchor="middle" x="0" y="390.4" style="font-family: TOBESTRIPPEDOpen SansTOBESTRIPPED, verdana, arial, sans-serif; font-size: 12px; fill: rgb(68, 68, 68); fill-opacity: 1; white-space: pre; opacity: 1;" transform="translate(80,0)">0</text></g><g class="xtick"><text text-anchor="middle" x="0" y="390.4" style="font-family: TOBESTRIPPEDOpen SansTOBESTRIPPED, verdana, arial, sans-serif; font-size: 12px; fill: rgb(68, 68, 68); fill-opacity: 1; white-space: pre; opacity: 1;" transform="translate(239.28,0)">500</text></g><g class="xtick"><text text-anchor="middle" x="0" y="390.4" style="font-family: TOBESTRIPPEDOpen SansTOBESTRIPPED, verdana, arial, sans-serif; font-size: 12px; fill: rgb(68, 68, 68); fill-opacity: 1; white-space: pre; opacity: 1;" transform="translate(398.56,0)">1000</text></g><g class="xtick"><text text-anchor="middle" x="0" y="390.4" style="font-family: TOBESTRIPPEDOpen SansTOBESTRIPPED, verdana, arial, sans-serif; font-size: 12px; fill: rgb(68, 68, 68); fill-opacity: 1; white-space: pre; opacity: 1;" transform="translate(557.8299999999999,0)">1500</text></g></g><g class="yaxislayer-above"><path class="ytick ticks crisp" style="stroke: rgb(68, 68, 68); stroke-opacity: 1; stroke-width: 1px;" d="M79,0h-5" transform="translate(0,329.76)"/><path class="ytick ticks crisp" style="stroke: rgb(68, 68, 68); stroke-opacity: 1; stroke-width: 1px;" d="M79,0h-5" transform="translate(0,276.76)"/><path class="ytick ticks crisp" style="stroke: rgb(68, 68, 68); stroke-opacity: 1; stroke-width: 1px;" d="M79,0h-5" transform="translate(0,223.76999999999998)"/><path class="ytick ticks crisp" style="stroke: rgb(68, 68, 68); stroke-opacity: 1; stroke-width: 1px;" d="M79,0h-5" transform="translate(0,170.76999999999998)"/><path class="ytick ticks crisp" style="stroke: rgb(68, 68, 68); stroke-opacity: 1; stroke-width: 1px;" d="M79,0h-5" transform="translate(0,117.78)"/><g class="ytick"><text text-anchor="end" x="71.6" y="4.199999999999999" style="font-family: TOBESTRIPPEDOpen SansTOBESTRIPPED, verdana, arial, sans-serif; font-size: 12px; fill: rgb(68, 68, 68); fill-opacity: 1; white-space: pre; opacity: 1;" transform="translate(0,329.76)">0.001</text></g><g class="ytick"><text text-anchor="end" x="71.6" y="4.199999999999999" style="font-family: TOBESTRIPPEDOpen SansTOBESTRIPPED, verdana, arial, sans-serif; font-size: 12px; fill: rgb(68, 68, 68); fill-opacity: 1; white-space: pre; opacity: 1;" transform="translate(0,276.76)">0.002</text></g><g class="ytick"><text text-anchor="end" x="71.6" y="4.199999999999999" style="font-family: TOBESTRIPPEDOpen SansTOBESTRIPPED, verdana, arial, sans-serif; font-size: 12px; fill: rgb(68, 68, 68); fill-opacity: 1; white-space: pre; opacity: 1;" transform="translate(0,223.76999999999998)">0.003</text></g><g class="ytick"><text text-anchor="end" x="71.6" y="4.199999999999999" style="font-family: TOBESTRIPPEDOpen SansTOBESTRIPPED, verdana, arial, sans-serif; font-size: 12px; fill: rgb(68, 68, 68); fill-opacity: 1; white-space: pre; opacity: 1;" transform="translate(0,170.76999999999998)">0.004</text></g><g class="ytick"><text text-anchor="end" x="71.6" y="4.199999999999999" style="font-family: TOBESTRIPPEDOpen SansTOBESTRIPPED, verdana, arial, sans-serif; font-size: 12px; fill: rgb(68, 68, 68); fill-opacity: 1; white-space: pre; opacity: 1;" transform="translate(0,117.78)">0.005</text></g></g><g class="overaxes-above"/></g></g><g class="polarlayer"/><g class="smithlayer"/><g class="ternarylayer"/><g class="geolayer"/><g class="funnelarealayer"/><g class="pielayer"/><g class="iciclelayer"/><g class="treemaplayer"/><g class="sunburstlayer"/><g class="glimages"/><defs id="topdefs-e034f5"><g class="clips"/><clipPath id="legende034f5"><rect width="96" height="67" x="0" y="0"/></clipPath></defs><g class="layer-above"><g class="imagelayer"/><g class="shapelayer"/></g><g class="infolayer"><g class="legend" pointer-events="all" transform="translate(471.6461538461538,113.99999999999999)"><rect class="bg" shape-rendering="crispEdges" style="stroke: rgb(68, 68, 68); stroke-opacity: 1; fill: rgb(255, 255, 255); fill-opacity: 1; stroke-width: 0px;" width="96" height="67" x="0" y="0"/><g class="scrollbox" transform="" clip-path="url(#legende034f5)"><g class="groups"><g class="traces" style="opacity: 1;" transform="translate(0,14.5)"><text class="legendtext" text-anchor="start" style="font-family: TOBESTRIPPEDOpen SansTOBESTRIPPED, verdana, arial, sans-serif; font-size: 12px; fill: rgb(68, 68, 68); fill-opacity: 1; white-space: pre;" x="40" y="4.680000000000001">LSTM16</text><g class="layers" style="opacity: 1;"><g class="legendfill"/><g class="legendlines"><path class="js-line" d="M5,0h30" style="fill: none; stroke: rgb(156, 39, 176); stroke-opacity: 1; stroke-width: 2px;"/></g><g class="legendsymbols"><g class="legendpoints"/></g></g><rect class="legendtoggle" style="fill: rgb(0, 0, 0); fill-opacity: 0;" x="0" y="-9.5" width="90.06666564941406" height="19"/></g><g class="traces" style="opacity: 1;" transform="translate(0,33.5)"><text class="legendtext" text-anchor="start" style="font-family: TOBESTRIPPEDOpen SansTOBESTRIPPED, verdana, arial, sans-serif; font-size: 12px; fill: rgb(68, 68, 68); fill-opacity: 1; white-space: pre;" x="40" y="4.680000000000001">LSTM32</text><g class="layers" style="opacity: 1;"><g class="legendfill"/><g class="legendlines"><path class="js-line" d="M5,0h30" style="fill: none; stroke: rgb(33, 150, 243); stroke-opacity: 1; stroke-width: 2px;"/></g><g class="legendsymbols"><g class="legendpoints"/></g></g><rect class="legendtoggle" style="fill: rgb(0, 0, 0); fill-opacity: 0;" x="0" y="-9.5" width="90.06666564941406" height="19"/></g><g class="traces" style="opacity: 1;" transform="translate(0,52.5)"><text class="legendtext" text-anchor="start" style="font-family: TOBESTRIPPEDOpen SansTOBESTRIPPED, verdana, arial, sans-serif; font-size: 12px; fill: rgb(68, 68, 68); fill-opacity: 1; white-space: pre;" x="40" y="4.680000000000001">Conv1D</text><g class="layers" style="opacity: 1;"><g class="legendfill"/><g class="legendlines"><path class="js-line" d="M5,0h30" style="fill: none; stroke: rgb(0, 150, 136); stroke-opacity: 1; stroke-width: 2px;"/></g><g class="legendsymbols"><g class="legendpoints"/></g></g><rect class="legendtoggle" style="fill: rgb(0, 0, 0); fill-opacity: 0;" x="0" y="-9.5" width="90.06666564941406" height="19"/></g></g></g><rect class="scrollbar" rx="20" ry="3" width="0" height="0" style="fill: rgb(128, 139, 164); fill-opacity: 1;" x="0" y="0"/></g><g class="g-gtitle"><text class="gtitle" style="font-family: TOBESTRIPPEDOpen SansTOBESTRIPPED, verdana, arial, sans-serif; font-size: 17px; fill: rgb(68, 68, 68); opacity: 1; font-weight: normal; white-space: pre;" x="350" y="50" text-anchor="middle" dy="0em">Model comparison: Distortion</text></g><g class="g-xtitle"><text class="xtitle" style="font-family: TOBESTRIPPEDOpen SansTOBESTRIPPED, verdana, arial, sans-serif; font-size: 14px; fill: rgb(68, 68, 68); opacity: 1; font-weight: normal; white-space: pre;" x="350" y="422" text-anchor="middle">Epochs</text></g><g class="g-ytitle" transform="translate(-12.06640625,0)"><text class="ytitle" transform="rotate(-90,42,235)" style="font-family: TOBESTRIPPEDOpen SansTOBESTRIPPED, verdana, arial, sans-serif; font-size: 14px; fill: rgb(68, 68, 68); opacity: 1; font-weight: normal; white-space: pre;" x="42" y="235" text-anchor="middle">Validation loss</text></g></g></svg>