<svg class="main-svg" xmlns="http://www.w3.org/2000/svg" xmlns:xlink="http://www.w3.org/1999/xlink" width="700" height="450" style="" viewBox="0 0 700 450"><rect x="0" y="0" width="700" height="450" style="fill: rgb(255, 255, 255); fill-opacity: 1;"/><defs id="defs-2b84e6"><g class="clips"><clipPath id="clip2b84e6xyplot" class="plotclip"><rect width="540" height="270"/></clipPath><clipPath class="axesclip" id="clip2b84e6x"><rect x="80" y="0" width="540" height="450"/></clipPath><clipPath class="axesclip" id="clip2b84e6y"><rect x="0" y="100" width="700" height="270"/></clipPath><clipPath class="axesclip" id="clip2b84e6xy"><rect x="80" y="100" width="540" height="270"/></clipPath></g><g class="gradients"/><g class="patterns"/></defs><g class="bglayer"/><g class="layer-below"><g class="imagelayer"/><g class="shapelayer"/></g><g class="cartesianlayer"><g class="subplot xy"><g class="layer-subplot"><g class="shapelayer"/><g class="imagelayer"/></g><g class="minor-gridlayer"><g class="x"/><g class="y"/></g><g class="gridlayer"><g class="x"><path class="xgrid crisp" transform="translate(151.48000000000002,0)" d="M0,100v270" style="stroke: rgb(238, 238, 238); stroke-opacity: 1; stroke-width: 1px;"/><path class="xgrid crisp" transform="translate(222.95,0)" d="M0,100v270" style="stroke: rgb(238, 238, 238); stroke-opacity: 1; stroke-width: 1px;"/><path class="xgrid crisp" transform="translate(294.43,0)" d="M0,100v270" style="stroke: rgb(238, 238, 238); stroke-opacity: 1; stroke-width: 1px;"/><path class="xgrid crisp" transform="translate(365.9,0)" d="M0,100v270" style="stroke: rgb(238, 238, 238); stroke-opacity: 1; stroke-width: 1px;"/><path class="xgrid crisp" transform="translate(437.38,0)" d="M0,100v270" style="stroke: rgb(238, 238, 238); stroke-opacity: 1; stroke-width: 1px;"/><path class="xgrid crisp" transform="translate(508.86,0)" d="M0,100v270" style="stroke: rgb(238, 238, 238); stroke-opacity: 1; stroke-width: 1px;"/><path class="xgrid crisp" transform="translate(580.3299999999999,0)" d="M0,100v270" style="stroke: rgb(238, 238, 238); stroke-opacity: 1; stroke-width: 1px;"/></g><g class="y"><path class="ygrid crisp" transform="translate(0,301.46000000000004)" d="M80,0h540" style="stroke: rgb(238, 238, 238); stroke-opacity: 1; stroke-width: 1px;"/><path class="ygrid crisp" transform="translate(0,254.83)" d="M80,0h540" style="stroke: rgb(238, 238, 238); stroke-opacity: 1; stroke-width: 1px;"/><path class="ygrid crisp" transform="translate(0,208.20999999999998)" d="M80,0h540" style="stroke: rgb(238, 238, 238); stroke-opacity: 1; stroke-width: 1px;"/><path class="ygrid crisp" transform="translate(0,161.57999999999998)" d="M80,0h540" style="stroke: rgb(238, 238, 238); stroke-opacity: 1; stroke-width: 1px;"/><path class="ygrid crisp" transform="translate(0,114.96000000000001)" d="M80,0h540" style="stroke: rgb(238, 238, 238); stroke-opacity: 1; stroke-width: 1px;"/></g></g><g class="zerolinelayer"><path class="yzl zl crisp" transform="translate(0,348.09000000000003)" d="M80,0h540" style="stroke: rgb(68, 68, 68); stroke-opacity: 1; stroke-width: 1px;"/></g><path class="xlines-below"/><path class="ylines-below"/><g class="overlines-below"/><g class="xaxislayer-below"/><g class="yaxislayer-below"/><g class="overaxes-below"/><g class="plot" transform="translate(80,100)" clip-path="url(#clip2b84e6xyplot)"><g class="scatterlayer mlayer"><g class="trace scatter trace011013" style="stroke-miterlimit: 2; opacity: 1;"><g class="fills"/><g class="errorbars"/><g class="lines"><path class="js-line" style="vector-effect: none; fill: none; stroke: rgb(156, 39, 176); stroke-opacity: 1; stroke-width: 2px; opacity: 1;" d="M0,-5400L2.2443658840727805,-5399.999999999998L3.22,-98.18L3.57,-31.71L3.93,-891.59L5,34.77L6.43,62.97L6.79,62.07L7.15,65.9L7.86,82.26L8.22,77.29L9.29,17.44L9.65,25.11L10.01,105.98L11.79,117.54L12.15,118.95L14.3,127.84L16.8,116.63L17.51,140.62L17.87,-112.08L18.94,137.38L19.3,138.66L20.37,142.34L21.44,144.63L21.8,146.5L22.16,144.41L22.51,145.04L23.94,148.97L24.3,144.01L25.02,144.66L25.37,149.7L26.09,141.44L26.8,151.94L28.23,153.78L28.59,154.06L30.38,156.13L30.73,155.27L31.09,155.5L31.81,149.48L32.16,140.5L33.95,159.65L35.38,158.49L35.74,159.97L36.81,159.92L37.17,161.54L38.24,159.08L38.6,160.6L38.95,160.64L39.31,161.59L40.03,162.03L40.74,161.09L41.1,160.68L41.46,162.08L43.24,160.55L44.67,161.51L45.03,160.61L45.74,163.35L46.1,163.21L46.46,160.91L46.82,160.49L47.17,161.28L47.89,160.6L48.6,161.36L48.96,161.18L49.32,163.02L49.68,161.97L51.11,161.52L52.18,162.39L52.53,162.09L53.61,161.67L55.04,163L55.75,161.31L56.11,162.39L56.82,160.18L57.18,162.27L57.9,163.25L58.25,161.62L58.61,159.99L59.32,162.96L60.04,161.83L60.75,163.37L61.11,163.39L61.47,160.74L62.9,163.43L63.26,161.78L63.61,162.67L64.33,161.37L64.69,159.88L65.04,163.15L65.76,161.51L66.12,162.64L67.54,160.88L67.9,161.84L68.62,163.18L69.69,162.62L70.76,163.4L71.12,162.33L71.48,162.7L72.19,159.57L72.91,163.96L73.26,160.69L73.98,160.84L74.69,162.03L76.12,162.85L76.84,163.69L77.19,164.26L77.91,162.35L78.27,162.97L78.62,161.18L79.34,162.25L80.05,162.84L80.41,162.71L80.77,161.31L82.55,163.86L82.91,160.24L83.98,163.51L84.34,161.81L84.7,160.41L85.06,163.01L85.41,161.97L86.13,163.85L87.2,160.6L87.56,162.94L87.92,162.98L88.27,161.18L88.99,163.39L90.06,160.63L91.13,163.93L91.85,161.15L92.2,163.55L92.56,161.77L92.92,161.25L93.63,162.69L93.99,161.85L95.78,161.77L96.85,160.53L97.92,161.82L98.64,162.84L99.35,161.31L100.78,164.09L101.14,161.88L101.5,161.19L101.85,162.04L102.57,162.84L102.93,161.2L103.64,162.7L104,163.69L105.43,162.36L105.78,163.25L106.14,161.53L107.21,162.72L108.64,161L109.72,162.87L110.07,161.32L111.14,162.71L111.5,161.84L111.86,162.76L112.22,161.51L112.57,163.21L112.93,161.2L113.65,164.07L114,163.37L114.36,163.45L114.72,160.31L115.08,161.35L115.79,162.29L116.86,160.97L117.58,161.38L118.65,163.91L119.01,163.02L120.44,162.59L120.79,160.76L122.22,162.71L122.58,160.23L122.94,162.46L123.3,162.11L123.65,161.88L124.73,161.98L125.08,163.75L125.8,163.82L126.15,162.48L126.87,163.33L127.58,162.61L127.94,161.93L128.66,162.74L129.37,163.1L129.73,160.86L130.44,162.84L130.8,161.86L131.52,161.27L131.87,163.45L134.02,162.8L134.73,164.37L135.09,161.11L136.52,162.18L137.23,162.59L137.59,161.41L137.95,162.9L139.02,162.41L139.38,163.48L139.74,162.6L140.09,162.4L140.45,160.56L140.81,161.15L141.16,163L141.52,163.28L141.88,161.73L142.24,161.62L142.59,160.71L142.95,163.39L143.31,162.87L143.67,162.51L145.1,161.69L145.45,163.08L145.81,162.68L146.17,163.86L147.95,161.17L148.31,162.25L151.89,162.66L152.24,161.8L152.6,162.44L153.32,162.14L153.67,162.79L154.03,162.43L155.1,162.29L156.17,163.25L156.53,160.93L157.6,162.01L158.32,162.33L158.68,161.56L159.03,162.67L160.82,161.78L161.18,163.01L161.54,160.97L161.89,162.41L162.25,163.41L163.68,160.5L164.39,163.02L165.11,162.37L165.82,162.51L167.25,161.13L167.97,162.92L168.33,161.35L169.04,162.4L169.4,163.15L169.76,161.01L171.18,164.63L171.54,162.57L171.9,164.17L172.26,163.29L172.61,162.98L172.97,163.35L173.69,162.34L174.04,161.75L174.4,162L174.76,162.2L175.12,160.53L175.47,161.81L176.55,162.14L176.9,162.11L177.62,162.82L177.97,162.58L178.33,160.15L179.05,163.14L179.4,162.61L179.76,162.07L181.19,162.4L181.55,163.37L181.91,162.64L182.26,159.24L183.34,164.08L183.69,163.33L184.41,162.96L184.77,161.72L185.12,160.24L185.48,162.77L185.84,161.7L186.19,163.66L186.91,161.23L187.98,161.06L190.48,162.8L190.84,162.58L191.2,163.14L191.56,162.26L191.91,161.11L192.27,164.19L192.63,161.99L192.98,162.82L193.34,162.48L194.41,161.82L195.13,163.22L195.49,162.1L196.56,162.73L197.27,162.33L197.63,160.35L198.7,163.08L199.42,160.39L204.06,162.45L204.78,160.85L205.85,162.26L207.28,162.21L208.71,162.97L209.07,160.11L209.42,162.04L210.14,160.7L210.5,162.76L210.85,160.36L211.21,162.89L211.57,162.5L212.28,162.52L212.64,160.86L213,161.8L213.36,162.71L214.07,161.07L214.78,161.36L215.14,160.96L215.5,163.96L216.21,161.13L216.93,162.26L218,162.17L219.07,163.02L219.43,160.36L220.15,162.54L221.58,162.88L222.29,164.59L223.72,161.44L224.08,161.24L224.79,162.56L225.86,161.44L226.22,163.45L226.58,161.8L226.94,162.09L227.65,161.78L228.72,158.42L229.08,163.61L229.44,163.16L229.79,162.73L230.15,161.89L230.51,162.79L231.58,163.34L231.94,161.44L232.65,163.73L233.01,164.17L233.37,160.78L233.73,161.01L234.08,162.88L235.16,163.12L235.51,161.65L236.23,162.33L238.37,162.24L239.44,163.24L240.52,163.22L241.23,160.88L241.59,163.78L241.95,160.22L242.3,162.02L242.66,161.02L243.02,162.24L243.73,161.33L244.45,164.21L244.8,163.76L245.52,162.65L245.88,163.4L246.23,162.62L246.59,161.43L247.31,162.56L247.66,161.1L248.02,162.6L248.38,160.62L248.74,161.41L249.09,161.22L249.81,161.71L251.24,163.14L251.95,162.21L253.38,161.53L253.74,162.56L254.45,163.32L254.81,162.09L255.53,163.22L256.24,162.71L257.31,163.6L257.67,160.48L258.39,162.24L258.74,160.84L259.1,163.59L259.46,160.98L259.81,162.06L260.17,160.23L260.53,162.45L260.89,162.73L261.24,164.21L261.6,161.18L261.96,163.61L262.67,162.73L263.75,162.41L264.1,164.14L265.18,162.11L265.53,163.44L265.89,159.83L266.25,163.5L266.6,163.17L268.39,161.93L268.75,162.45L269.82,164.43L270.89,160.09L271.25,162L272.68,161.16L273.04,164.1L274.11,159.88L274.47,162.27L274.82,160.97L275.18,163.61L275.54,163.2L275.9,161.3L276.25,162.72L276.97,161.89L277.68,163.2L278.04,162.33L278.4,160.45L278.76,160.96L279.11,162.56L279.47,162.33L279.83,159.49L280.9,164.09L281.61,159.1L281.97,162.89L282.69,161.96L283.4,163.29L283.76,162.31L284.12,163.01L284.47,162.07L284.83,162.64L285.9,164.13L287.33,162.87L288.05,161.55L288.41,163.45L289.48,161.09L289.83,162.84L290.55,163.2L290.91,162.39L291.98,161.11L292.34,161.6L292.69,162.75L293.05,162.76L293.41,161.78L293.77,162.93L294.12,161.76L294.48,161.04L295.55,163.09L295.91,162.83L296.62,163.69L297.34,162.6L298.41,163.03L298.77,159.92L299.13,164L299.84,162.45L300.91,161.23L301.27,163.24L302.7,161.93L303.77,161.18L304.13,162.87L305.2,162.07L305.92,162.2L306.27,163.98L307.35,160.46L307.7,162.99L308.06,160.68L309.13,163.09L309.49,161.61L310.21,163.12L311.28,161.97L313.06,162.15L313.42,161.59L314.49,161.46L314.85,162.87L315.21,162.16L315.57,161.36L316.28,163.82L316.64,162.72L317,162.78L317.71,162.46L318.07,163.26L318.78,163.07L319.14,161.56L319.85,162.77L320.57,160.91L320.93,163.62L322,162.41L322.36,161.32L323.07,161.84L323.43,161.38L323.79,162.91L324.14,162.93L324.5,161.17L325.22,161.58L325.57,162.8L326.29,163.03L326.64,158.96L327.36,163.98L327.72,160.6L328.43,162.93L328.79,160.82L329.86,162.42L331.29,163.36L331.65,162.51L332.01,164.4L333.08,161.92L333.43,163.2L334.15,162.5L335.58,161.54L335.94,163.29L336.29,162.25L336.65,161.81L338.08,163.07L338.44,162L339.15,163.34L339.51,161.15L340.94,163.21L341.3,160.99L343.08,160.65L343.44,161.42L343.8,162L344.16,161.58L344.51,161.41L345.59,160.89L345.94,162.85L347.02,163.49L348.8,161.62L349.87,162.47L350.23,163.68L350.59,163.88L350.95,160.39L351.3,162.5L352.38,162.37L353.09,162.02L353.45,162.65L354.52,162.68L355.23,161.75L355.59,162.96L355.95,161.95L356.66,162.62L357.74,161.24L358.09,163.64L358.45,160.4L358.81,162.72L359.17,161.33L359.52,164.34L359.88,160.47L361.31,163.93L362.03,162.29L363.45,162.37L364.53,161.27L365.24,162.18L366.67,160.5L367.74,162.96L368.46,161.94L370.24,163.19L370.6,162.26L371.32,162.22L372.75,162.49L373.46,163.67L373.82,162.26L376.32,162.97L376.68,161.62L377.39,161.84L378.11,163.58L378.46,161.89L378.82,162.9L379.54,161.27L379.89,162.11L380.61,161.73L381.32,163.13L382.04,161.9L382.4,162.06L382.75,163.11L383.11,163.75L383.47,161.82L383.83,161.35L384.9,162.99L385.97,163.29L386.33,161.07L387.76,164.13L388.11,157.25L388.47,163.52L388.83,159.12L389.9,161.77L390.26,161.18L390.62,162.51L392.4,162.01L393.12,160.19L394.55,163.5L395.62,158.59L395.98,163.01L396.69,162.75L397.05,161.57L397.41,162.73L397.76,162.47L398.12,161.54L398.84,163.57L399.19,162.36L399.91,161.76L400.62,161.45L400.98,163.01L402.41,162.43L403.12,163.28L403.48,161.33L403.84,163.66L404.2,160.29L404.55,160.92L404.91,162.89L405.98,162.11L406.34,162.43L407.05,162.13L407.41,163.36L408.13,162.1L408.48,163.8L409.2,163.95L409.56,160.85L410.27,163.63L410.63,162.18L410.99,163.07L411.7,160.96L412.06,162.27L412.77,163.91L413.49,163.27L415.27,162.15L415.63,163.06L415.99,163.84L416.35,162.2L416.7,163.61L417.06,162.84L417.42,160.74L419.56,164.1L420.28,161.45L421.71,162.76L422.42,162.61L423.14,161.9L423.85,163.58L425.28,161.17L426.35,163.37L426.71,164.15L427.07,162.69L427.43,163.73L427.78,162.15L429.57,163.52L430.64,161.83L431.36,162.98L432.07,162.85L432.43,163.53L433.5,163.13L434.22,160.33L434.93,162.67L435.29,163.97L436.36,162.91L437.79,162.16L438.86,163.06L439.22,161.9L440.29,162.35L440.65,162.74L441.01,161.29L442.44,163.78L443.15,163.38L444.22,159.69L444.58,163.17L445.29,161.67L446.37,162.28L447.08,162.23L447.44,160.44L448.15,163.45L448.87,161.19L451.73,163.66L452.08,162.26L452.8,161.57L453.16,163.58L454.59,163.12L456.02,163.21L456.37,163.29L456.73,162.16L457.45,162.65L458.16,162.63L458.52,163.78L459.23,162.19L460.3,162.84L461.02,163.14L461.73,161.8L462.09,162.61L462.81,162.87L463.16,161.92L463.88,161.72L464.24,162.88L466.02,162.49L466.38,162.96L467.09,162.78L468.17,160.74L468.88,160.49L469.24,162.65L469.6,162L469.95,162.95L471.38,161.82L471.74,163.69L472.46,163.54L472.81,161.79L473.17,161.96L473.53,161.1L474.6,163.17L476.39,162.26L479.6,162.82L480.32,164.35L481.39,160.11L481.75,162L483.18,163.77L483.89,162.05L484.25,163.14L484.61,160.62L484.96,162.35L485.32,161.59L486.04,162.63L486.75,163.63L487.11,162.93L487.47,162.94L487.82,164.14L488.18,162.03L488.89,161.13L490.32,162.27L490.68,161.9L491.04,160L491.75,162.7L492.83,161.99L493.18,160.53L493.54,162.14L494.97,160.71L495.68,163.23L496.76,163.51L497.83,162.9L498.19,163.67L498.9,163.16L499.26,161.31L499.97,162.36L500.33,161.77L501.05,161.4L501.4,161.53L501.76,163.12L502.48,162.16L502.83,162.79L504.98,163.62L507.12,161.5L507.84,164.08L508.19,161.31L509.27,162.5L509.98,162.49L510.34,160.5L512.12,162.94L512.48,163.07L513.91,160.1L514.27,162.15L514.98,162.98L516.06,162.49L516.77,162.48L517.13,160.83L517.49,162.89L517.84,161.84L518.2,162.16L518.56,161.7L518.91,162.6L519.99,161.5L520.34,162.01L520.7,162.93L521.06,162.39L521.42,162.12L521.77,161.57L522.13,163.2L523.2,161.63L525.35,162.18L526.06,162.93L526.42,162.44L526.78,162.58L527.85,161.86L529.28,162.61L530.35,163.24L531.42,160.64L531.78,162.45L532.14,160.89L532.5,161.32L533.57,163.71L533.92,161.65L535.35,160.64L535.71,162.06L536.07,160.9L536.78,164.95L537.5,161.87L537.86,162.32L539.29,162.63L539.64,161.45L540,161.95"/></g><g class="points"/><g class="text"/></g><g class="trace scatter trace1a6bbf" style="stroke-miterlimit: 2; opacity: 1;"><g class="fills"/><g class="errorbars"/><g class="lines"><path class="js-line" style="vector-effect: none; fill: none; stroke: rgb(255, 0, 0); stroke-opacity: 1; stroke-width: 2px; opacity: 1;" d="M0,-5400L2.2889567160900604,-5400L3.22,-134.69L3.57,-83.84L3.93,-59.88L4.29,-171.21L4.65,7.27L5.72,55.95L6.08,-3.53L7.86,121.67L8.22,122.17L8.93,129.95L9.29,124.2L10.01,59.96L10.36,136.64L10.72,138.52L11.08,145.37L11.44,144.37L11.79,138.68L12.87,151.06L13.22,137.18L13.94,155.84L14.3,79.69L15.37,158.34L15.72,143.26L16.08,159.55L16.44,154.35L16.8,117.46L17.15,161.03L17.87,-482.79L18.23,42.61L19.66,146.44L20.01,151.26L20.37,150.74L20.73,155.41L21.09,156.51L21.44,153.84L22.51,160.42L22.87,159.54L23.94,160.12L24.3,161.14L25.37,162.02L25.73,160.1L26.09,163.16L26.45,161.61L26.8,161.83L27.16,162.87L27.52,160.83L27.88,160.75L28.23,161.49L28.59,161.39L28.95,163.43L29.31,164.26L29.66,162.24L30.73,164.98L31.09,164.49L31.45,162.27L31.81,165.2L32.16,165.72L32.52,162.83L33.95,166.56L34.31,164.76L34.67,162.11L35.02,164.44L35.38,165.75L36.1,166.49L36.45,164.12L36.81,167.17L37.17,163.73L37.52,167.85L37.88,165.94L38.24,166.36L38.95,168.22L39.31,167.47L39.67,163.97L40.03,166.43L40.38,167.87L41.1,167.12L41.46,168.51L42.53,169.99L42.89,161.29L43.6,169.73L43.96,169.33L44.32,167.62L45.39,171.1L45.74,169.42L46.1,170.29L46.46,169.99L46.82,169.75L47.17,169.5L47.53,170.63L48.25,170.84L48.6,171.51L48.96,170.68L49.32,171.01L49.68,171.1L50.03,169.91L50.39,170.56L50.75,170.44L51.82,172.59L52.18,172.03L52.53,172.39L52.89,169.91L53.96,171.78L54.32,169.95L55.04,172.03L55.39,171.59L55.75,171.7L56.11,170.68L57.54,172.61L57.9,171.41L58.25,170.72L58.61,170.98L58.97,171.45L59.32,171.21L59.68,172.23L60.75,172.17L61.11,170.85L61.47,169.95L61.83,172.13L62.54,172.01L62.9,172.59L63.26,171.5L63.61,172.65L63.97,171.92L64.33,171.03L64.69,172.51L65.4,171.32L65.76,172.11L66.47,169.77L66.83,172.35L67.19,169.68L67.54,172.26L67.9,171.03L68.62,172.91L68.97,171.95L69.33,172.64L69.69,172.53L70.05,171.34L70.4,170.96L70.76,172.82L71.48,171.98L71.83,173.69L72.91,170.24L73.26,172.29L73.98,172.85L74.33,171.47L75.41,173.39L75.76,171.13L76.12,171.53L76.48,170.34L76.84,173.59L77.19,169.69L77.55,173.86L77.91,170.94L78.27,172.5L78.98,170.21L79.34,172.29L79.7,171.09L80.05,171.43L80.41,172.79L81.13,172.26L81.48,172.11L82.2,168.07L82.55,173.92L83.27,170.1L83.63,172.4L84.34,172.69L84.7,170.74L85.06,171.23L85.41,173.04L85.77,171.54L86.13,173.31L86.49,173.25L86.84,168.82L87.92,173.44L88.27,171.75L88.63,172.69L88.99,170.95L89.34,172.98L89.7,171.46L90.06,172.21L90.77,173.33L91.13,172.62L91.49,172.64L91.85,173.8L92.2,172.97L92.56,172.87L92.92,171.67L93.28,172.89L93.63,173.74L93.99,173.4L94.35,171.52L94.71,169.6L95.06,170.81L95.42,172.35L96.14,173.05L96.49,173.23L96.85,172.52L97.21,169.83L98.28,173.41L98.64,173.01L98.99,170.78L99.35,173.17L99.71,172.89L100.07,171.67L100.42,171.85L100.78,172.48L101.14,169.31L101.5,172.32L101.85,172.25L102.21,173.65L102.57,172.75L102.93,171.16L103.64,173.9L104,172.46L104.71,170.59L105.07,173.04L105.78,172.27L106.14,173.7L106.5,173.99L106.86,173.3L107.21,173.47L107.57,170.61L107.93,171.45L108.29,170.32L108.64,173.13L109,172.21L109.36,170.89L109.72,172.84L110.43,172.67L110.79,172.02L111.5,171.53L111.86,172.47L112.22,173.44L112.57,172.65L112.93,172.48L113.29,173.35L113.65,171.42L114,172.49L114.36,171.5L114.72,170.92L115.08,170.15L115.43,173.74L116.15,171.4L116.51,172.01L116.86,171.3L117.58,173.48L117.94,172.7L118.29,173.05L119.36,169.06L119.72,171.32L120.08,172.6L120.44,172.18L120.79,172.28L121.15,171.08L121.51,171.51L121.87,173.42L122.22,170.27L122.58,173.3L122.94,171.33L123.3,171.06L123.65,173.2L124.73,169.48L125.08,171.08L125.44,172.95L125.8,172.83L126.15,172.07L127.23,172.61L127.58,171.93L127.94,172.85L128.3,171.87L128.66,172.36L129.01,171.41L129.37,173.15L130.09,172.67L130.44,171.28L130.8,170.73L131.16,172.72L132.23,170.84L132.59,172.26L132.95,172.9L133.3,171.79L133.66,173.52L134.02,170.64L135.09,172.94L135.45,171.57L135.8,169.72L136.16,173.2L137.59,170.81L137.95,172.69L138.31,172.22L138.66,173.21L139.38,170.87L139.74,173.29L140.09,171.64L140.45,172.92L140.81,173L141.16,172.74L141.52,170.89L142.59,173.97L142.95,173.21L144.02,171.45L144.38,171.31L145.1,172.92L145.45,172.15L145.81,171.1L146.17,171.58L146.53,173.18L146.88,172.77L147.24,171L147.6,172.86L147.95,172.48L148.31,172.18L148.67,172.88L149.03,169.79L149.74,171.91L150.1,171.6L150.46,173.31L150.81,173.08L151.17,172.57L151.53,170.07L151.89,170.99L152.24,172.02L152.96,173.82L153.32,172.83L153.67,170L154.03,172.94L154.39,172.61L155.82,172.75L156.17,171.82L156.53,173.4L156.89,170.55L157.25,170.8L157.6,173.1L158.32,172.98L158.68,170.71L159.03,171.86L159.39,171.75L159.75,170.27L160.82,172.99L161.18,173.18L161.54,169.47L161.89,172.81L162.25,172.73L162.96,170.58L163.32,172.04L163.68,171.02L164.04,173.04L164.39,173.28L164.75,169.76L165.47,173.84L165.82,170.4L167.25,173.67L167.61,172.48L168.68,169.65L169.04,172.39L169.76,171.9L170.11,168.51L170.83,173.12L171.18,171.23L171.54,172.95L171.9,169.35L172.26,173.08L172.61,172.44L172.97,172.44L173.69,170.22L174.04,172L174.4,171.71L174.76,173.04L175.47,171.31L175.83,172.4L176.19,173.87L176.55,173.25L176.9,171.46L177.62,172.93L177.97,169.97L178.33,173.48L178.69,172.7L179.05,171.16L179.4,173.61L179.76,169.51L180.48,172.62L180.83,172.51L181.19,171.73L181.55,171.45L181.91,172.6L182.26,173.9L182.62,171.99L182.98,170.57L183.34,173.6L184.05,172.95L184.41,173.71L185.12,170.11L185.48,173.5L185.84,170.65L186.55,170.9L186.91,173.05L187.27,171.73L187.62,172.16L187.98,172.48L189.41,173.61L189.77,171.37L190.84,174.31L191.2,172.49L192.27,172.81L192.63,171.33L192.98,170.78L193.34,172.88L194.06,173.59L194.41,172.92L194.77,172.78L195.84,172.34L196.2,171.27L197.27,173.34L197.63,172.73L198.35,170.88L198.7,171.76L199.06,172.45L199.42,171.27L200.49,173.12L200.85,170.38L202.63,174.02L202.99,172.18L203.71,171.89L204.06,171.23L204.42,172.14L204.78,171L205.14,172.3L205.49,171.57L205.85,171.51L206.21,173.61L206.57,171.7L206.92,173.14L207.28,173.04L207.64,171.66L207.99,170.96L208.35,172.9L208.71,171.54L209.07,171.97L209.42,172.02L209.78,170.96L210.14,173.83L211.21,171.92L211.57,172.36L212.28,173.17L212.64,171.97L213.71,172.51L214.07,170.28L215.5,174.24L215.86,174.12L216.93,171.79L217.29,172.17L217.64,172.82L218,171.57L219.07,173.66L219.43,172.59L219.79,173.28L220.15,172.26L221.22,173.06L221.58,170.58L221.93,173.31L222.29,171.7L222.65,172.8L223,173.68L223.36,172.8L223.72,173.2L224.43,173.62L224.79,172.41L225.15,171.79L225.51,172.38L225.86,173.04L226.58,173.2L226.94,171.76L227.29,170.74L227.65,172.79L228.01,170.14L228.37,173.19L228.72,171.3L229.08,172.38L229.44,173.04L229.79,173.25L230.15,172.62L230.51,171.31L230.87,172.65L231.22,170.57L232.3,173.03L232.65,171.79L233.37,171.18L233.73,172.94L234.08,171.51L234.44,174.37L235.51,171L235.87,171.8L236.23,170.68L236.59,171.15L236.94,172.98L237.66,173.15L238.01,172.24L239.09,172.89L239.44,172.83L239.8,173.35L240.16,172.53L240.52,170.27L240.87,174.16L241.59,171.82L241.95,173.3L243.02,171.87L243.38,172.31L243.73,173.18L244.09,172L244.45,171.02L244.8,172L245.16,172.85L245.52,168.98L245.88,173.74"/></g><g class="points"/><g class="text"/></g><g class="trace scatter trace483586" style="stroke-miterlimit: 2; opacity: 1;"><g class="fills"/><g class="errorbars"/><g class="lines"><path class="js-line" style="vector-effect: none; fill: none; stroke: rgb(255, 165, 0); stroke-opacity: 1; stroke-width: 2px; opacity: 1;" d="M0,-5400L6.748130602632551,-5400L8.93,-260.3L9.29,-165.77L11.79,-47.55L12.15,-7.38L12.51,12.2L12.87,-69.76L13.22,21.15L15.37,64.74L15.72,66.13L16.08,68.05L16.44,64.6L17.51,80.43L17.87,69.41L18.23,76.5L18.58,65.6L19.66,93.81L20.01,-92.29L21.09,99.23L21.44,101.78L21.8,100.35L22.16,101.46L22.51,102.04L22.87,102.07L23.23,79.18L24.3,106.45L24.66,-292.84L25.02,107.03L26.09,112.42L26.45,112.48L26.8,116.3L27.16,113.67L27.52,111.32L28.59,118.29L28.95,118.53L30.02,113.28L30.38,117.67L30.73,119.72L31.09,118.53L31.45,118.42L32.16,120.3L32.52,115.99L32.88,104.96L33.24,119.33L33.59,121.48L33.95,118.74L34.31,118.14L34.67,119.24L35.02,121.83L35.38,121.6L35.74,119.98L36.1,121.49L36.45,113.62L37.17,122.42L37.52,117.75L37.88,120.88L38.24,117.2L39.67,121.83L40.03,121.9L41.1,124.66L41.46,124.24L42.17,122.04L42.53,117.08L42.89,123.82L43.24,123.24L43.6,122.51L44.32,124.85L44.67,124.54L45.03,123.84L45.39,111.43L45.74,122.13L46.1,122.19L47.17,124.02L47.53,122.66L48.25,124.61L48.6,121.88L48.96,124.8L49.32,122.13L49.68,118.33L50.03,123L50.39,122.2L50.75,122.29L51.11,124.95L51.46,123.62L51.82,124.12L52.89,120.61L53.25,124.1L53.61,121.72L53.96,123.06L54.32,123.89L55.04,120.99L55.39,122.43L56.47,125.03L56.82,122.88L57.18,121.41L57.54,125.19L58.97,120.51L59.32,125.02L59.68,122.65L60.04,124.07L60.4,123.88L60.75,123.77L61.11,124.56L61.83,120.82L62.18,122.8L63.26,124.41L63.61,123.55L63.97,123.98L64.33,121.91L64.69,120.38L65.04,121.95L65.4,122.74L65.76,121.22L66.12,125.97L66.83,123.78L67.19,124.73L67.54,124.37L67.9,125.58L68.62,120.67L68.97,123.01L69.33,123.57L69.69,123L70.05,125.74L70.76,120.58L71.12,120.76L71.48,120.73L72.55,124.64L72.91,123.06L73.26,119.69L73.62,120.42L73.98,123.28L74.69,126.33L75.05,119.85L75.41,124.04L75.76,120.72L76.12,123.15L76.48,122.54L76.84,124.32L77.91,122.44L78.27,124.5L79.34,121.6L79.7,126.23L80.41,123.92L80.77,125.3L81.13,123.63L81.48,124.1L81.84,125.84L82.2,120.31L82.55,121.47L82.91,123.45L83.27,125.07L83.63,121.58L84.7,124.28L85.06,124.25L86.13,123.11L86.49,124.76L86.84,119.72L87.2,123.5L87.56,122.06L87.92,122.92L88.27,126.04L89.34,121.91L89.7,123.06L90.06,119.21L90.42,123.55L90.77,124.99L91.13,123.76L91.49,123.55L91.85,123.86L92.2,122.62L92.56,120L92.92,123.82L93.28,122.69L93.63,122.89L93.99,125.55L95.06,122.76L95.42,123.6L95.78,122.21L96.14,122.45L96.49,124.92L96.85,121.77L97.21,124.5L97.56,123.24L98.28,124.89L98.64,123.11L98.99,117.05L99.35,124.3L99.71,123.77L100.07,125.68L100.42,121.21L100.78,123.11L101.14,123.91L101.5,120.75L101.85,124.1L102.21,122.91L102.93,124.64L103.28,122.98L103.64,124.01L104,123.23L104.35,121.65L104.71,124.74L105.07,124.53L105.43,123.44L106.14,125.69L106.5,125.09L106.86,124.81L107.57,124.71L107.93,120.76L109,123.51L109.36,123.16L110.07,120L110.43,124.6L110.79,118.94L111.14,123.56L111.5,124L111.86,123.39L112.22,125.49L112.57,122.14L112.93,122.33L113.29,124.05L113.65,123.14L114,124.59L115.43,121.99L115.79,123.04L116.15,125.73L116.51,123.29L116.86,123.81L117.22,121.79L117.58,124.99L117.94,124.54L118.29,122.89L119.01,124.86L119.36,123.53L119.72,124.36L120.08,122.58L120.44,122.69L120.79,124.35L121.87,123.58L122.22,124L122.58,122.05L122.94,125.51L124.01,116.53L124.37,123.66L124.73,123.98L125.08,122.58L125.44,119.65L125.8,125.31L126.51,122.53L126.87,125.08L127.58,121.28L127.94,121.95L128.3,116.31L129.37,124.78L129.73,121.25L130.8,124.91L131.16,124.12L131.52,120.15L131.87,122.54L132.23,124.01L132.59,112.94L132.95,123.51L133.3,124L133.66,124.84L134.02,124.02L134.37,123.11L134.73,123.5L135.09,122.81L135.45,124.45L135.8,120.79L136.16,126.1L136.52,123.27L136.88,124.41L137.23,125.23L137.95,124.26L138.31,123.55L139.02,121.91L139.38,122.47L139.74,125.39L141.88,120.1L142.24,123.5L143.67,124.72L144.02,122.99L144.38,123.93L144.74,121.58L145.1,124.27L145.45,121.85L145.81,121.87L146.17,122.7L146.53,122.38L146.88,121L147.6,124.45L147.95,121.41L148.31,120L148.67,124L150.1,117.34L150.46,123.97L150.81,122.84L151.17,123.26L151.53,123.16L151.89,124.57L152.24,123.13L152.6,122.65L153.32,123.68L153.67,118.86L155.1,124.98L155.46,124.27L155.82,125.65L156.17,122.06L156.53,123.94L156.89,123.81L157.25,123.66L157.6,124.44L157.96,120.97L158.32,122.54L158.68,119.18L159.03,124.13L159.75,124.05L160.11,121.34L161.18,125.78L161.54,114.33L161.89,124.62L162.61,124.35L162.96,123.55L163.68,124.07L164.04,121.37L165.11,125.19L165.47,122.99L165.82,123.38L166.18,122.32L166.54,120.28L166.9,125.28L167.61,122.04L167.97,125.17L168.33,119.47L168.68,123.36L169.04,124.65L169.4,124.66L169.76,123.34L170.11,125.34L170.47,122.58L170.83,119.01L171.18,123.82L171.54,122.5L171.9,122.79L172.26,123.21L172.61,125.02L172.97,122.11L173.69,122.04L174.04,123.92L174.4,122.31L174.76,124.73L175.12,124.93L175.47,122.89L175.83,122.03L176.19,123.14L176.55,123.01L176.9,124.69L177.26,120.47L177.62,124.4L177.97,123.14L178.33,121.73L178.69,123.65L179.05,123.75L179.4,122.82L179.76,122.4L180.12,123.49L180.48,124.41L180.83,121.52L181.19,125.49L181.55,124.73L181.91,125.02L182.26,122L182.62,123.12L182.98,123.1L183.34,121.93L183.69,125.03L184.77,123.09L185.12,124.84L185.84,121.52L186.19,125.69L186.91,122.49L187.27,125.9L187.62,125.37L187.98,122.91L188.34,120.82L188.7,122.5L189.05,124.41L189.77,123.73L190.13,125.06L191.2,120.4L191.56,125.3L191.91,121.49L192.27,124.29L192.63,123.3L192.98,122.88L193.34,117.96L194.06,123.99L194.41,118.29L194.77,124.82L195.13,121.95L195.49,122.65L195.84,123.93L196.2,122.48L196.56,122.34L196.92,124.43L197.27,124.02L197.63,122.58L197.99,124.39L198.35,124.27L198.7,119.66L199.06,124.53L199.42,120.85L199.77,121.38L200.13,120.41L200.49,122.32L200.85,125.62L201.2,122.81L201.56,123.6L202.63,125.22L202.99,124.12L203.35,123.47L203.71,125.19L204.06,123.08L204.42,125.5L205.14,124.17L205.49,122.4L205.85,119.73L206.21,121.57L206.57,125.75L206.92,126.06L207.28,125.06L208.71,120.3L209.07,124.64L209.78,122.76L210.14,124.16L210.5,123.94L210.85,124.98L211.21,124.03L211.57,124.6L211.93,124.74L212.28,122.19L212.64,122.99L213,123.87L214.07,122.63L214.43,122.51L214.78,124.16L215.14,121.77L215.86,124.09L216.21,120.54L217.64,125.76L218,123.47L218.36,123.63L218.72,120.92L219.07,121.18L219.43,125.35L220.5,118.95L220.86,123.33L221.93,124.21L222.29,125.34L223,121.81L223.36,124.12L224.43,121.81L224.79,124.53L225.51,123.76L225.86,125.82L227.29,122.59L227.65,124.49L228.37,124.43L228.72,122.51L229.08,123.2L229.44,121.06L230.15,124.27L230.51,122.69L230.87,121.79L231.22,124.47L231.58,116.35L232.65,123.93L233.01,124.71L234.08,121.34L234.44,121.91L235.51,123.97L235.87,122.67L236.59,124.96L236.94,124.6L237.3,124.09L237.66,124.44L238.01,123.15L238.37,120.65L238.73,123.29L239.09,123.83L239.8,124.35L240.16,120.7L241.23,123.27L241.59,123.8L242.66,118.75L243.02,123.06L243.38,124.37L243.73,119.95L244.8,123.58L245.16,120.2L245.88,124.1L246.23,123.63L246.59,116.72L247.31,125.89L247.66,121.81L248.02,118.78L248.38,124.5L249.45,122.34L249.81,124.79L250.17,121.87L250.52,123.6L250.88,124.4L251.24,120.61L251.59,122.35L251.95,123.79L252.31,125L252.67,122.3L253.02,124.56L253.38,120.17L254.45,123.81L254.81,122.98L255.17,122.68L256.24,123.61L256.6,123.58L257.31,123.47L257.67,122.09L258.03,124.27L258.39,121.24L259.1,124.91L259.46,123.35L259.81,123.31L260.17,124.75L260.53,124L260.89,121.47L261.24,124.51L261.6,121.67L261.96,122.93L263.03,120.99L263.39,124.54L264.46,122.37L264.82,123.1L265.18,121.92L265.53,126.13L266.6,121.41L266.96,124.11L267.32,124.26L267.68,122.78L268.03,114.31L268.39,124.86L268.75,123L269.11,125.49L269.46,120.14L269.82,122.91L270.18,122.28L270.89,124.88L271.25,119.47L271.97,124.39L272.32,121.19L272.68,125.2L273.04,122.65L273.4,123.49L273.75,124.73L274.11,122.84L274.47,121.78L274.82,124.55L275.18,123.28L275.54,125.48L275.9,125.21L276.25,122.29L276.61,121.91L276.97,125.23L277.68,122.54L278.04,125.08L279.11,121.45L279.47,123.47L279.83,121.61L280.19,125.13L280.9,122.8"/></g><g class="points"/><g class="text"/></g><g class="trace scatter trace15dab9" style="stroke-miterlimit: 2; opacity: 1;"><g class="fills"/><g class="errorbars"/><g class="lines"><path class="js-line" style="vector-effect: none; fill: none; stroke: rgb(173, 216, 230); stroke-opacity: 1; stroke-width: 2px; opacity: 1;" d="M0,-5400L1.6427803965063081,-5400L2.5,-255.64L3.22,-27.88L3.93,20.12L5,-30.65L6.08,58.82L6.43,58.2L7.5,91.39L7.86,99.83L8.22,104.3L8.93,94.08L9.29,121.24L9.65,113.15L10.01,32L11.08,142.75L11.44,142.43L11.79,82.09L12.15,126.16L12.87,149.03L13.22,152.12L13.58,151.93L13.94,151.7L15.01,148.57L15.37,157.99L16.44,161.71L16.8,-59.22L17.87,166.91L18.23,166.35L19.3,153.76L19.66,168.45L21.44,164.87L21.8,169.57L22.16,168.4L22.51,170.95L23.59,142.85L23.94,164.46L24.3,161.31L25.02,173.8L25.37,175.09L25.73,173.97L26.09,173.41L26.8,103.76L27.16,175.33L27.52,175.3L27.88,176.23L28.59,168.4L28.95,149.59L29.66,174.86L30.02,-103.17L31.09,172.71L31.45,175.85L31.81,177.87L32.16,175.25L32.88,173.8L33.59,40.85L33.95,-19.47L34.31,163.18L35.38,177.51L35.74,176.25L36.1,176.52L36.81,175.13L37.17,165.26L37.88,177.6L38.24,174.38L38.6,175.84L38.95,120.58L39.31,166.8L39.67,177.1L40.03,179.27L40.74,-90.43L41.81,172.99L42.17,176.3L42.53,177.77L42.89,176.62L43.24,177L43.6,178.89L43.96,76.4L45.39,179.57L45.74,178.41L46.1,178.86L46.46,170.1L46.82,179.62L47.17,159.34L47.89,179.59L48.6,-55.34L50.03,135.4L50.39,147.17L52.53,169.4L52.89,166.11L53.61,173L54.32,171.65L55.04,177.14L55.75,178.2L56.82,175.67L57.18,179.45L57.54,178.59L57.9,179.4L58.25,180.41L58.61,176.56L58.97,179.83L59.32,179.47L60.04,112.71L60.4,173.19L61.47,182.58L61.83,183.69L62.18,185.72L62.54,185.45L62.9,175.74L63.26,164.83L63.61,184.59L64.33,186.83L64.69,185.49L65.04,181.53L65.4,185.56L65.76,-25.81L66.47,182.32L67.54,185.66L67.9,184.85L68.26,186.12L68.62,186.38L68.97,188.06L69.69,186.26L70.4,188.62L70.76,159.18L71.12,184.03L71.48,189.18L72.19,177.57L72.55,56.77L73.62,189.1L73.98,190.3L74.33,189.37L74.69,190.6L75.05,190.21L75.41,177.66L76.84,191.05L77.19,184.01L77.91,185.68L78.27,130.65L79.34,191.96L79.7,192.74L80.05,192.84L80.41,190.08L80.77,179.16L81.84,176.11L82.91,187.78L83.27,188.71L84.34,191.22L84.7,191.16L85.41,192.68L86.13,192.03L86.49,192.72L86.84,191.69L87.2,191.39L87.56,193.56L87.92,187.15L88.27,192.62L88.63,194.69L88.99,195.06L90.06,195.01L90.42,194.32L90.77,195.15L91.13,195.15L91.85,195.11L92.2,193.39L92.56,194.29L92.92,190.88L93.99,194.78L94.71,195.41L95.42,193.71L95.78,194.33L96.49,195.68L96.85,196.18L97.56,195.33L97.92,195.78L98.28,195.13L98.64,194.99L99.71,196.93L100.07,195.63L100.42,89.72L100.78,151.82L101.14,193.53L101.85,195.94L102.21,195.34L102.57,195.55L102.93,196.53L103.28,196.11L103.64,195.38L104,196.48L104.35,196.02L105.07,195.74L105.43,197.22L105.78,196.61L106.14,195.07L106.5,197.83L106.86,196.97L107.21,196.26L107.93,196.89L108.29,196.16L108.64,196.85L109,117.28L109.72,196.75L110.07,195.49L110.43,197L111.14,194.61L111.5,197.5L111.86,198.34L112.22,196.79L112.93,197.58L113.65,197.18L114,197.85L114.36,197.44L114.72,196.62L115.79,196.79L116.15,197.29L117.58,198.29L117.94,197.56L118.29,195.03L118.65,148.07L120.08,197.28L120.44,197.76L121.87,197.29L122.22,198.17L123.3,197.03L123.65,198.55L124.01,198.74L124.37,197.52L124.73,198.81L125.08,198.18L125.8,198.14L126.51,199.26L126.87,198.57L127.58,199.23L127.94,198.15L128.66,197.44L129.01,195.4L129.37,192.75L129.73,198.98L130.09,198.25L130.44,199.27L131.52,198.05L131.87,198.21L133.3,199.7L133.66,198.05L134.73,196.09L135.09,197L136.52,199.17L137.23,198.36L137.59,199.39L137.95,198.81L139.02,200.07L139.38,168.77L139.74,198.04L140.09,198.97L140.45,198.32L140.81,199.05L141.16,198.93L142.95,199.45L143.31,199.14L143.67,199.53L144.02,198.95L144.38,197.05L144.74,199.97L145.1,199.36L145.45,199.15L147.24,199.05L147.6,196.61L147.95,199.37L148.31,198.08L149.38,180.1L150.46,199.89L150.81,199.53L151.17,200.52L151.53,199.38L151.89,199.92L152.6,199.51L153.32,197.42L154.03,199.83L155.1,199.54L155.46,199.59L155.82,198.63L156.17,145.16L156.53,197.25L156.89,199.96L157.6,199.65L158.32,200.31L159.39,199.05L160.82,200.18L161.18,200.22L161.54,201.02L162.61,199.6L162.96,200.54L164.39,200.25L164.75,200.61L166.18,198.72L166.54,198.7L167.25,198.96L167.61,200.17L169.04,201.56L169.4,200.73L169.76,199.48L170.83,200.13L171.9,199.86L172.26,199.94L172.61,199.44L172.97,199.73L173.33,201.1L174.4,199.55L174.76,200.53L175.12,198.47L175.47,199.68L176.55,199.36L176.9,199.48L177.62,196.02L178.33,200.95L179.05,200.65L179.4,201.26L179.76,200.69L180.83,201.22L181.91,200.75L182.26,200.69L182.98,199.69L183.34,201.41L183.69,200.66L184.41,200.97L184.77,200.3L185.12,200.51L185.48,200.86L185.84,201.6L186.19,200.16L186.91,200.92L187.98,200.09L188.34,199.81L188.7,200.31L189.41,200.82L190.13,201.14L190.48,198.17L191.56,200.62L191.91,199.65L192.27,201.41L192.63,200.2L192.98,201.02L193.34,201.08L193.7,201.91L195.13,200.32L195.49,198.8L196.56,200.93L197.27,199.36L197.99,201.77L198.35,201.33L198.7,201.97L200.49,200.09L200.85,201.05L203.71,202.68L204.06,201.19L204.42,200.31L204.78,201.48L205.49,197.58L205.85,200.04L206.21,201.28L207.28,201.07L209.42,201.47L210.14,200.26L211.57,201.32L211.93,201.06L212.28,201.24L212.64,200.49L213.36,201.79L213.71,200.71L214.07,200.61L214.78,202.67L215.14,199.75L215.86,200.03L216.21,200.8L216.93,201.45L217.29,200.35L217.64,202.28L218,200.6L218.72,202.06L220.15,200.43L220.5,202.02L220.86,202.25L221.22,199.47L222.29,202.57L222.65,201.28L223.36,201.26L223.72,200.26L224.08,200.08L224.43,200.76L224.79,200.71L225.86,201.33L226.58,200.09L226.94,201.4L227.29,201.07L227.65,202.1L229.44,201.14L229.79,201.55L230.15,200.58L230.51,201.57L230.87,202.26L232.65,201.86L233.01,201.74L234.08,201.78L235.16,202.64L236.23,201.33L236.94,201.65L237.66,202.83L238.37,201.52L239.44,201.43L239.8,201.61L240.16,201.97L240.52,201.38L241.23,201.45L242.3,201.1L242.66,202.32L243.73,201.49L244.09,201.65L244.45,200.9L244.8,201.22L245.52,201.9L245.88,200.93L246.23,202.77L246.59,202.05L247.31,202.41L248.38,201.21L248.74,201.94L250.17,201.49L250.88,201.47L251.24,201.77L251.95,200.34L252.67,200.33L253.02,201.84L254.1,201.2L254.45,200.84L255.53,202.26L255.88,202.25L256.24,202.05L256.6,199.34L256.96,202.08L257.67,201.91L258.03,200.97L258.74,202.27L259.1,201.76L259.46,201.78L260.17,201.53L260.53,200.48L260.89,202.34L261.24,202.26L261.6,201.81L261.96,200.94L262.32,201.81L262.67,201.74L263.03,201.9L263.75,201.15L264.1,202.05L264.46,201.38L265.18,200.94L266.25,202.49L266.6,202.03L268.39,201.99L268.75,201.61L269.11,200.07L269.82,200.91L270.18,200.16L270.54,201.98L270.89,200.76L271.25,201.34L272.68,200.68L273.04,201.86L273.75,201.72L274.11,201.68L274.82,202.32L275.18,200.85L275.9,202.48L276.25,200.66L277.33,202.52L277.68,201.69L278.04,200.98L278.4,201.48L278.76,201.26L279.47,201.1L279.83,201.81L281.26,202.31L281.61,201.26L282.33,201.86L282.69,201.69L283.4,201.9L283.76,201.2L284.12,201.57L284.47,200.86L284.83,202.41L285.19,202.61L285.55,201.16L285.9,202.96L286.62,202.21L286.98,200.03L287.33,201.85L287.69,201.69L288.05,201.63L288.41,202.34L288.76,201.01L289.12,201.64L289.48,201.81L291.26,201.39L291.98,201.84L292.69,201.21L293.05,201.92L294.12,202.63L294.48,201.45L294.84,201.46L295.2,200.1L295.55,202.59L295.91,201.88L296.27,201.94L297.7,201.46L298.05,201.97L300.2,201.6L300.91,202.01L301.99,200.32L302.7,202.08L303.77,201.64L304.13,202.53L305.92,201.54L306.27,202.27L307.7,200.75L308.06,201.31L309.13,201.81L310.21,200.64L310.56,201.72L310.92,202.29L311.28,201.01L311.63,201.68L311.99,200.52L313.06,202.42L313.42,201.82L314.85,201.31L315.21,202.58L315.57,200.82L315.92,201.69L316.28,201.46L316.64,201.4L317,202.6L317.71,201.05L318.07,202.11L318.78,201.14L319.14,201.93L322.36,201.38L323.07,202.26L323.43,201.52L323.79,202.57L325.22,201.07L325.57,202.3L326.29,201.37L326.64,202.6L327.72,200.74L328.07,201.5L329.5,200.6L329.86,201.42L330.22,200.53L330.93,201.37L333.08,201.75L333.43,200.07L334.86,201.97L335.58,201.12L336.65,201.94L337.01,201.81L338.44,201.59L338.8,201.72L340.94,202.09L341.3,200.44L342.01,202.18L342.73,201.53L343.44,202.3L343.8,201.41L344.16,202.48L344.51,200.89L344.87,201.72L345.59,199.2L346.66,202.69L347.02,201.27L347.37,201.26L348.44,202.15L349.87,202.06L350.23,201.54L350.59,200.87L350.95,201.66L351.3,202.06L352.73,201.42L353.09,200.31L353.45,202.2L353.81,200.9L354.52,200.98L354.88,202.2L355.23,201.67L355.59,201.64L355.95,202.18L356.66,201.75L357.02,202.22L357.38,200.62L359.52,202.49L359.88,200.68L361.31,201.96L362.03,200.74L362.74,202.04L363.1,200.36L363.45,201.9L364.53,201.61L365.24,201.96L365.6,200.73L366.67,202.05L367.03,201.76L367.39,202.42L367.74,200.9L368.46,201.67L369.89,201.2L370.6,202.01L370.96,201.26L371.32,201.96L372.75,200.99L373.46,199L373.82,201.58L375.25,201.62L375.61,200.73L375.96,201.88L376.32,201.73L376.68,201.39L378.11,202.7L378.46,201.97L378.82,200.44L379.54,201.07L380.97,201.6L381.32,200.88L383.11,202.28L383.47,200.95L385.25,202.05L385.97,202.06L387.04,201.98L387.76,201.91L388.83,202.59L389.9,200.78L390.26,201.29L390.62,200.18L390.97,200.19L392.4,201.75L393.83,202.1L394.19,200.13L395.62,201.94L395.98,201.62L396.33,201.25L396.69,202.03L397.76,200.71L398.12,201.95L398.84,202.46L399.19,201.67L399.55,200.59L399.91,201.77L400.26,202.19L400.62,200.98L400.98,201.44L402.05,199.84L403.12,202.53L403.48,201.71L403.84,202.22L404.2,201.86L404.55,199.63L404.91,202.37L405.27,201.63L405.63,201.6L409.2,201.97L409.56,201.65L410.27,202.07L410.63,200.51L412.06,201.97L412.77,201.66L414.2,201.23L414.56,201.82L415.27,201.8L415.63,201.2L416.35,201.63L416.7,201.03L417.06,200.74L417.42,202.09L418.85,201.57L419.21,202.59L420.64,201.25L420.99,202.02L421.35,202.25L421.71,201.67L422.06,200.71L423.14,202.66L423.49,201.11L423.85,202.37L424.57,200.97L427.07,201.78L427.43,201.65L427.78,200.79L428.14,201.43L429.21,201.68L432.43,201.73L432.79,201.97L433.86,201.44L434.22,202.04L434.93,199.62L435.29,201.21L436,200.89L436.36,202L436.72,201.99L437.07,200.81L437.43,202.18"/></g><g class="points"/><g class="text"/></g><g class="trace scatter tracea8b305" style="stroke-miterlimit: 2; opacity: 1;"><g class="fills"/><g class="errorbars"/><g class="lines"><path class="js-line" style="vector-effect: none; fill: none; stroke: rgb(76, 175, 80); stroke-opacity: 1; stroke-width: 2px; opacity: 1;" d="M0,-5400L2.1023976614662336,-5400.000000000002L2.86,-136.82L3.22,-66.71L3.57,-49.84L3.93,-72.63L4.29,0.71L6.08,50.98L6.43,50.75L6.79,43.86L7.15,65.52L7.86,-144.99L8.22,84.56L8.93,99.09L9.29,97.26L9.65,101.17L10.36,105.75L10.72,103.62L11.08,93.26L11.44,111.04L11.79,112.78L12.15,102.49L13.22,126.02L13.58,126.63L14.65,132.1L15.01,132.85L15.72,133.43L16.08,135.85L16.44,139.1L16.8,108.57L17.15,115.67L17.51,142.46L17.87,140.87L18.23,143.36L18.58,145.01L18.94,144.68L19.3,56.46L20.73,149.67L21.09,150.41L21.44,148.96L21.8,152.31L22.16,153.13L22.51,152.09L22.87,151.45L23.23,151.51L23.59,145.06L25.02,157.82L25.37,136.6L26.45,159.52L26.8,160.23L27.88,160.91L28.23,160.36L29.66,163.78L30.02,163.86L30.38,164L30.73,162.79L31.81,166.42L32.16,164.62L32.52,162.46L32.88,163.39L33.24,164.98L34.31,167.35L34.67,164.26L35.02,166.69L35.38,165.85L35.74,165.34L36.1,167.69L36.45,166.32L36.81,166.76L37.17,166.46L37.52,164.88L37.88,168.27L38.24,168.17L38.6,167.92L40.03,168.84L40.38,166.78L41.1,171.34L41.46,169.48L41.81,166.93L42.17,168.86L42.53,168.31L43.24,169.88L43.6,168.66L44.32,170.71L44.67,168.8L45.74,171.93L46.1,169.27L47.17,171.73L47.53,171.86L48.6,169.94L48.96,171.19L49.32,170.11L49.68,170.82L50.03,170.43L50.75,169.87L51.11,170.98L51.46,170.73L51.82,169.55L52.89,171.32L53.25,170.82L53.61,171.01L53.96,170.22L54.32,168.43L54.68,171.74L55.75,169.81L56.11,171.86L57.18,170.9L57.54,171.84L58.61,171.03L58.97,169.97L59.32,171.5L59.68,169.32L60.04,170.83L60.4,170.18L60.75,170.38L61.47,171.85L61.83,171.33L62.18,171.59L62.9,171.09L63.26,170.65L63.61,172.07L63.97,170.06L65.4,173.24L65.76,169.88L66.47,172.36L66.83,172.03L67.19,170.92L67.9,171.86L68.26,169.78L68.97,171.33L69.33,170.72L69.69,171.29L70.05,170.27L70.4,172.61L70.76,171.84L71.12,171.92L71.48,171.98L71.83,170.92L72.55,172.34L72.91,171.15L73.62,172.45L73.98,170.9L75.76,172.06L76.12,169.92L77.19,172.43L77.55,172.05L78.27,172.57L78.62,171.32L79.34,170.51L79.7,171.87L80.77,171.31L81.13,171.82L82.2,172.16L82.55,170.65L82.91,170.58L83.27,171.62L83.63,170.08L83.98,171.38L84.34,172.04L85.06,170.63L85.41,172.19L86.84,170.68L87.2,171.4L87.56,170.13L87.92,172.02L88.99,171.83L89.34,170.7L89.7,172.72L90.06,170.42L90.77,171.54L91.13,170.09L91.49,169.94L91.85,170.61L92.92,170.89L93.28,172.14L94.35,168.44L94.71,172.03L95.06,169.45L95.42,171.35L95.78,170.54L96.49,172.01L96.85,167.8L97.21,172.71L97.56,171.64L97.92,171.23L98.28,172.12L98.64,171.89L98.99,169.66L99.35,172.96L99.71,172.23L100.07,171.42L100.42,170.55L100.78,172.45L101.85,170.73L102.21,171.12L102.57,171.72L102.93,170.75L104,171.22L104.35,171.16L104.71,169.45L105.07,169.74L105.43,171.87L105.78,172.2L106.14,170.79L107.21,172.87L107.57,171.43L108.64,170.55L109,171.86L109.72,171.08L110.07,168.28L111.5,171.56L111.86,172.28L112.57,169.77L112.93,169.97L113.29,171.54L113.65,172.29L114,170.39L115.08,172.31L115.43,172.01L116.15,170.19L116.51,172.68L117.58,171.46L117.94,172.02L119.01,170.11L119.36,171.64L119.72,170.85L120.08,171.94L120.79,171.41L121.15,172.25L121.87,171.07L122.22,172.03L122.58,172.14L122.94,169.99L123.65,172.03L124.01,171.76L124.37,170.54L124.73,170.51L125.08,171.95L125.44,170.56L125.8,171.39L126.15,171.62L126.51,172.05L126.87,171.42L127.23,170.7L127.94,171.72L128.3,170.26L128.66,171.45L129.01,171.06L129.37,170.97L130.8,172.44L131.16,169.5L132.59,171.78L132.95,171.05L133.66,171.19L134.02,172.22L134.73,170.67L135.09,171.73L135.45,172.87L135.8,172.17L136.16,172.03L136.52,172.84L136.88,171.08L137.23,172.19L137.59,169.24L138.66,171.95L139.02,171.62L139.38,171.23L139.74,172.86L140.81,171.23L141.16,170.62L141.52,172.1L141.88,171.01L142.24,170.65L142.59,170.25L142.95,171.08L143.31,172.81L143.67,170.33L144.74,172.58L145.1,171.02L145.81,170.45L146.17,171.02L146.53,171.66L146.88,170.69L147.6,172.21L147.95,169.68L148.67,172.53L149.03,172.01L149.38,171.4L149.74,171.17L150.1,172.07L150.81,171.56L151.17,172.81L151.89,170.73L152.24,166.78L152.96,171.68L153.32,170.26L153.67,171.1L154.39,172.2L154.75,170.52L155.1,173.08L155.46,170.95L155.82,172.35L156.53,171.2L156.89,171.97L157.96,171.04L158.32,169.42L159.39,173.23L159.75,169.3L160.11,172.03L160.46,169.91L160.82,169.96L161.18,172.24L161.54,171.24L161.89,168.97L163.32,172.32L163.68,171.27L164.04,172.54L164.39,170.36L165.47,171.13L165.82,170.84L166.18,172.25L166.54,171.35L166.9,171.16L168.33,171.21L168.68,169.77L170.11,172.71L170.47,172.24L171.18,170.13L171.54,171.55L172.26,172.31L172.61,169.71L174.04,172.4L174.4,171.45L175.12,171.8L175.47,172.58L176.55,171.11L176.9,170.96L177.26,169.38L177.62,172.24L178.33,171.3L178.69,172.03L179.4,171.22L179.76,172.12L180.48,169.79L180.83,169.96L181.19,170.94L181.55,172.69L181.91,171.43L182.26,172.04L183.34,171.63L183.69,171.43L184.05,170L184.41,171.62L184.77,172.28L185.48,170.97L185.84,171.52L186.19,172.81L186.55,169.88L186.91,171.25L187.27,170.83L188.7,172.54L189.05,171.68L189.41,172.24L189.77,171.39L190.48,171.77L190.84,171.19L191.2,170.67L191.56,171.55L192.27,171.46L192.63,171.89L192.98,169.81L193.34,171.68L193.7,171.37L194.06,170.03L194.41,172.16L194.77,172.71L195.13,170.05L195.84,172.09L196.2,171.54L196.56,171.49L197.27,170.16L197.63,172.32L198.35,172.21L198.7,170.87L199.06,170.98L199.42,171.9L200.13,169.91L200.49,171.52L200.85,170.89L201.2,171.91L201.92,172.32L202.28,170.71L203.35,172.17L203.71,171.66L204.06,172.24L204.42,171.85L204.78,171.38L206.21,171.71L206.57,171.81L206.92,172.6L207.28,169.58L207.64,172.22L207.99,171.31L208.35,171.69L208.71,170.92L209.07,171.21L209.42,172.15L209.78,172.91L210.14,171.19L210.5,170.67L210.85,172.16L211.57,172.27L211.93,169.92L212.28,172.18L212.64,172.07L213,171.68L213.36,170.5L213.71,172.21L215.14,170.96L215.5,172.35L216.57,170.9L216.93,173.03L218.36,170.85L218.72,168.98L220.15,172.31L220.5,171.92L221.58,170.82L221.93,171.25L222.29,171.4L222.65,172.47L223,173.21L223.36,172.71L223.72,170.04L224.43,172.01L224.79,171.22L225.15,170.81L225.51,171.56L225.86,169.3L226.94,173.23L227.29,171.25L227.65,170.77L228.01,171.94L229.08,170.92L229.44,169.8L229.79,172.68L230.15,171.56L230.51,170.98L231.22,172.39L231.58,170.6L231.94,172.48L232.3,171.81L232.65,171.66L233.01,171.79L233.37,171.11L234.44,170.19L234.8,170.84L236.23,172.04L236.59,169.87L236.94,169.68L237.3,171.7L237.66,170.06L238.01,171.17L238.37,171.72L239.8,170.34L240.16,171.62L240.52,170.47L240.87,171.41L241.23,171.34L241.59,171.84L241.95,170.72L242.3,172.27L242.66,170.23L243.02,171.52L243.38,170.43L243.73,171.22L244.8,171.8L245.16,171.61L246.23,171.66L246.59,171.39L247.66,171.25L248.02,171.58L248.38,171.6L248.74,170.02L249.09,171.95L249.45,171.49L249.81,170.5L250.52,172.08L250.88,171.56L251.24,169.46L252.31,172.48L252.67,170.87L253.38,171.45L253.74,171.9L254.1,172.67L254.45,171.65L254.81,172.08L255.17,170.5L255.53,170.86L255.88,171.85L257.31,171.48L257.67,172.4L258.03,173.2L258.39,170.78L259.1,173.11L259.46,171.53L260.17,170.97L260.53,172.03L260.89,171.88L261.24,170.69L261.96,172.17L262.32,171.13L262.67,172.08L263.03,170.56L263.39,172.56L263.75,171.52L264.1,172.02L264.46,171.31L264.82,171.52L265.18,171.7L266.25,170.99L266.6,171.39L266.96,170.53L267.32,170.94L267.68,170.88L268.03,172.18L268.39,169.13L268.75,171.81L269.11,171.27"/></g><g class="points"/><g class="text"/></g></g></g><g class="overplot"/><path class="xlines-above crisp" style="fill: none; stroke-width: 1px; stroke: rgb(68, 68, 68); stroke-opacity: 1;" d="M79,370.5H620"/><path class="ylines-above crisp" style="fill: none; stroke-width: 1px; stroke: rgb(68, 68, 68); stroke-opacity: 1;" d="M79.5,100V370"/><g class="overlines-above"/><g class="xaxislayer-above"><path class="xtick ticks crisp" style="stroke: rgb(68, 68, 68); stroke-opacity: 1; stroke-width: 1px;" d="M0,371v5" transform="translate(80,0)"/><path class="xtick ticks crisp" style="stroke: rgb(68, 68, 68); stroke-opacity: 1; stroke-width: 1px;" d="M0,371v5" transform="translate(151.48000000000002,0)"/><path class="xtick ticks crisp" style="stroke: rgb(68, 68, 68); stroke-opacity: 1; stroke-width: 1px;" d="M0,371v5" transform="translate(222.95,0)"/><path class="xtick ticks crisp" style="stroke: rgb(68, 68, 68); stroke-opacity: 1; stroke-width: 1px;" d="M0,371v5" transform="translate(294.43,0)"/><path class="xtick ticks crisp" style="stroke: rgb(68, 68, 68); stroke-opacity: 1; stroke-width: 1px;" d="M0,371v5" transform="translate(365.9,0)"/><path class="xtick ticks crisp" style="stroke: rgb(68, 68, 68); stroke-opacity: 1; stroke-width: 1px;" d="M0,371v5" transform="translate(437.38,0)"/><path class="xtick ticks crisp" style="stroke: rgb(68, 68, 68); stroke-opacity: 1; stroke-width: 1px;" d="M0,371v5" transform="translate(508.86,0)"/><path class="xtick ticks crisp" style="stroke: rgb(68, 68, 68); stroke-opacity: 1; stroke-width: 1px;" d="M0,371v5" transform="translate(580.3299999999999,0)"/><g class="xtick"><text text-anchor="middle" x="0" y="390.4" style="font-family: TOBESTRIPPEDOpen SansTOBESTRIPPED, verdana, arial, sans-serif; font-size: 12px; fill: rgb(68, 68, 68); fill-opacity: 1; white-space: pre; opacity: 1;" transform="translate(80,0)">0</text></g><g class="xtick"><text text-anchor="middle" x="0" y="390.4" style="font-family: TOBESTRIPPEDOpen SansTOBESTRIPPED, verdana, arial, sans-serif; font-size: 12px; fill: rgb(68, 68, 68); fill-opacity: 1; white-space: pre; opacity: 1;" transform="translate(151.48000000000002,0)">200</text></g><g class="xtick"><text text-anchor="middle" x="0" y="390.4" style="font-family: TOBESTRIPPEDOpen SansTOBESTRIPPED, verdana, arial, sans-serif; font-size: 12px; fill: rgb(68, 68, 68); fill-opacity: 1; white-space: pre; opacity: 1;" transform="translate(222.95,0)">400</text></g><g class="xtick"><text text-anchor="middle" x="0" y="390.4" style="font-family: TOBESTRIPPEDOpen SansTOBESTRIPPED, verdana, arial, sans-serif; font-size: 12px; fill: rgb(68, 68, 68); fill-opacity: 1; white-space: pre; opacity: 1;" transform="translate(294.43,0)">600</text></g><g class="xtick"><text text-anchor="middle" x="0" y="390.4" style="font-family: TOBESTRIPPEDOpen SansTOBESTRIPPED, verdana, arial, sans-serif; font-size: 12px; fill: rgb(68, 68, 68); fill-opacity: 1; white-space: pre; opacity: 1;" transform="translate(365.9,0)">800</text></g><g class="xtick"><text text-anchor="middle" x="0" y="390.4" style="font-family: TOBESTRIPPEDOpen SansTOBESTRIPPED, verdana, arial, sans-serif; font-size: 12px; fill: rgb(68, 68, 68); fill-opacity: 1; white-space: pre; opacity: 1;" transform="translate(437.38,0)">1000</text></g><g class="xtick"><text text-anchor="middle" x="0" y="390.4" style="font-family: TOBESTRIPPEDOpen SansTOBESTRIPPED, verdana, arial, sans-serif; font-size: 12px; fill: rgb(68, 68, 68); fill-opacity: 1; white-space: pre; opacity: 1;" transform="translate(508.86,0)">1200</text></g><g class="xtick"><text text-anchor="middle" x="0" y="390.4" style="font-family: TOBESTRIPPEDOpen SansTOBESTRIPPED, verdana, arial, sans-serif; font-size: 12px; fill: rgb(68, 68, 68); fill-opacity: 1; white-space: pre; opacity: 1;" transform="translate(580.3299999999999,0)">1400</text></g></g><g class="yaxislayer-above"><path class="ytick ticks crisp" style="stroke: rgb(68, 68, 68); stroke-opacity: 1; stroke-width: 1px;" d="M79,0h-5" transform="translate(0,348.09000000000003)"/><path class="ytick ticks crisp" style="stroke: rgb(68, 68, 68); stroke-opacity: 1; stroke-width: 1px;" d="M79,0h-5" transform="translate(0,301.46000000000004)"/><path class="ytick ticks crisp" style="stroke: rgb(68, 68, 68); stroke-opacity: 1; stroke-width: 1px;" d="M79,0h-5" transform="translate(0,254.83)"/><path class="ytick ticks crisp" style="stroke: rgb(68, 68, 68); stroke-opacity: 1; stroke-width: 1px;" d="M79,0h-5" transform="translate(0,208.20999999999998)"/><path class="ytick ticks crisp" style="stroke: rgb(68, 68, 68); stroke-opacity: 1; stroke-width: 1px;" d="M79,0h-5" transform="translate(0,161.57999999999998)"/><path class="ytick ticks crisp" style="stroke: rgb(68, 68, 68); stroke-opacity: 1; stroke-width: 1px;" d="M79,0h-5" transform="translate(0,114.96000000000001)"/><g class="ytick"><text text-anchor="end" x="71.6" y="4.199999999999999" style="font-family: TOBESTRIPPEDOpen SansTOBESTRIPPED, verdana, arial, sans-serif; font-size: 12px; fill: rgb(68, 68, 68); fill-opacity: 1; white-space: pre; opacity: 1;" transform="translate(0,348.09000000000003)">0</text></g><g class="ytick"><text text-anchor="end" x="71.6" y="4.199999999999999" style="font-family: TOBESTRIPPEDOpen SansTOBESTRIPPED, verdana, arial, sans-serif; font-size: 12px; fill: rgb(68, 68, 68); fill-opacity: 1; white-space: pre; opacity: 1;" transform="translate(0,301.46000000000004)">0.001</text></g><g class="ytick"><text text-anchor="end" x="71.6" y="4.199999999999999" style="font-family: TOBESTRIPPEDOpen SansTOBESTRIPPED, verdana, arial, sans-serif; font-size: 12px; fill: rgb(68, 68, 68); fill-opacity: 1; white-space: pre; opacity: 1;" transform="translate(0,254.83)">0.002</text></g><g class="ytick"><text text-anchor="end" x="71.6" y="4.199999999999999" style="font-family: TOBESTRIPPEDOpen SansTOBESTRIPPED, verdana, arial, sans-serif; font-size: 12px; fill: rgb(68, 68, 68); fill-opacity: 1; white-space: pre; opacity: 1;" transform="translate(0,208.20999999999998)">0.003</text></g><g class="ytick"><text text-anchor="end" x="71.6" y="4.199999999999999" style="font-family: TOBESTRIPPEDOpen SansTOBESTRIPPED, verdana, arial, sans-serif; font-size: 12px; fill: rgb(68, 68, 68); fill-opacity: 1; white-space: pre; opacity: 1;" transform="translate(0,161.57999999999998)">0.004</text></g><g class="ytick"><text text-anchor="end" x="71.6" y="4.199999999999999" style="font-family: TOBESTRIPPEDOpen SansTOBESTRIPPED, verdana, arial, sans-serif; font-size: 12px; fill: rgb(68, 68, 68); fill-opacity: 1; white-space: pre; opacity: 1;" transform="translate(0,114.96000000000001)">0.005</text></g></g><g class="overaxes-above"/></g></g><g class="polarlayer"/><g class="smithlayer"/><g class="ternarylayer"/><g class="geolayer"/><g class="funnelarealayer"/><g class="pielayer"/><g class="iciclelayer"/><g class="treemaplayer"/><g class="sunburstlayer"/><g class="glimages"/><defs id="topdefs-2b84e6"><g class="clips"/><clipPath id="legend2b84e6"><rect width="94" height="105" x="0" y="0"/></clipPath></defs><g class="layer-above"><g class="imagelayer"/><g class="shapelayer"/></g><g class="infolayer"><g class="legend" pointer-events="all" transform="translate(494.4258992805756,110.00000000000001)"><rect class="bg" shape-rendering="crispEdges" style="stroke: rgb(68, 68, 68); stroke-opacity: 1; fill: rgb(255, 255, 255); fill-opacity: 1; stroke-width: 0px;" width="94" height="105" x="0" y="0"/><g class="scrollbox" transform="" clip-path="url(#legend2b84e6)"><g class="groups"><g class="traces" style="opacity: 1;" transform="translate(0,14.5)"><text class="legendtext" text-anchor="start" style="font-family: TOBESTRIPPEDOpen SansTOBESTRIPPED, verdana, arial, sans-serif; font-size: 12px; fill: rgb(68, 68, 68); fill-opacity: 1; white-space: pre;" x="40" y="4.680000000000001">vshape</text><g class="layers" style="opacity: 1;"><g class="legendfill"/><g class="legendlines"><path class="js-line" d="M5,0h30" style="fill: none; stroke: rgb(156, 39, 176); stroke-opacity: 1; stroke-width: 2px;"/></g><g class="legendsymbols"><g class="legendpoints"/></g></g><rect class="legendtoggle" style="fill: rgb(0, 0, 0); fill-opacity: 0;" x="0" y="-9.5" width="88.55000305175781" height="19"/></g><g class="traces" style="opacity: 1;" transform="translate(0,33.5)"><text class="legendtext" text-anchor="start" style="font-family: TOBESTRIPPEDOpen SansTOBESTRIPPED, verdana, arial, sans-serif; font-size: 12px; fill: rgb(68, 68, 68); fill-opacity: 1; white-space: pre;" x="40" y="4.680000000000001">inverse</text><g class="layers" style="opacity: 1;"><g class="legendfill"/><g class="legendlines"><path class="js-line" d="M5,0h30" style="fill: none; stroke: rgb(255, 0, 0); stroke-opacity: 1; stroke-width: 2px;"/></g><g class="legendsymbols"><g class="legendpoints"/></g></g><rect class="legendtoggle" style="fill: rgb(0, 0, 0); fill-opacity: 0;" x="0" y="-9.5" width="88.55000305175781" height="19"/></g><g class="traces" style="opacity: 1;" transform="translate(0,52.5)"><text class="legendtext" text-anchor="start" style="font-family: TOBESTRIPPEDOpen SansTOBESTRIPPED, verdana, arial, sans-serif; font-size: 12px; fill: rgb(68, 68, 68); fill-opacity: 1; white-space: pre;" x="40" y="4.680000000000001">sin</text><g class="layers" style="opacity: 1;"><g class="legendfill"/><g class="legendlines"><path class="js-line" d="M5,0h30" style="fill: none; stroke: rgb(255, 165, 0); stroke-opacity: 1; stroke-width: 2px;"/></g><g class="legendsymbols"><g class="legendpoints"/></g></g><rect class="legendtoggle" style="fill: rgb(0, 0, 0); fill-opacity: 0;" x="0" y="-9.5" width="88.55000305175781" height="19"/></g><g class="traces" style="opacity: 1;" transform="translate(0,71.5)"><text class="legendtext" text-anchor="start" style="font-family: TOBESTRIPPEDOpen SansTOBESTRIPPED, verdana, arial, sans-serif; font-size: 12px; fill: rgb(68, 68, 68); fill-opacity: 1; white-space: pre;" x="40" y="4.680000000000001">linear</text><g class="layers" style="opacity: 1;"><g class="legendfill"/><g class="legendlines"><path class="js-line" d="M5,0h30" style="fill: none; stroke: rgb(173, 216, 230); stroke-opacity: 1; stroke-width: 2px;"/></g><g class="legendsymbols"><g class="legendpoints"/></g></g><rect class="legendtoggle" style="fill: rgb(0, 0, 0); fill-opacity: 0;" x="0" y="-9.5" width="88.55000305175781" height="19"/></g><g class="traces" style="opacity: 1;" transform="translate(0,90.5)"><text class="legendtext" text-anchor="start" style="font-family: TOBESTRIPPEDOpen SansTOBESTRIPPED, verdana, arial, sans-serif; font-size: 12px; fill: rgb(68, 68, 68); fill-opacity: 1; white-space: pre;" x="40" y="4.680000000000001">random</text><g class="layers" style="opacity: 1;"><g class="legendfill"/><g class="legendlines"><path class="js-line" d="M5,0h30" style="fill: none; stroke: rgb(76, 175, 80); stroke-opacity: 1; stroke-width: 2px;"/></g><g class="legendsymbols"><g class="legendpoints"/></g></g><rect class="legendtoggle" style="fill: rgb(0, 0, 0); fill-opacity: 0;" x="0" y="-9.5" width="88.55000305175781" height="19"/></g></g></g><rect class="scrollbar" rx="20" ry="3" width="0" height="0" style="fill: rgb(128, 139, 164); fill-opacity: 1;" x="0" y="0"/></g><g class="g-gtitle"><text class="gtitle" style="font-family: TOBESTRIPPEDOpen SansTOBESTRIPPED, verdana, arial, sans-serif; font-size: 17px; fill: rgb(68, 68, 68); opacity: 1; font-weight: normal; white-space: pre;" x="350" y="50" text-anchor="middle" dy="0em">LSTM16 Distortion models</text></g><g class="g-xtitle"><text class="xtitle" style="font-family: TOBESTRIPPEDOpen SansTOBESTRIPPED, verdana, arial, sans-serif; font-size: 14px; fill: rgb(68, 68, 68); opacity: 1; font-weight: normal; white-space: pre;" x="350" y="422" text-anchor="middle">Epochs</text></g><g class="g-ytitle" transform="translate(-12.06640625,0)"><text class="ytitle" transform="rotate(-90,42,235)" style="font-family: TOBESTRIPPEDOpen SansTOBESTRIPPED, verdana, arial, sans-serif; font-size: 14px; fill: rgb(68, 68, 68); opacity: 1; font-weight: normal; white-space: pre;" x="42" y="235" text-anchor="middle">Training loss</text></g></g></svg>