<svg class="main-svg" xmlns="http://www.w3.org/2000/svg" xmlns:xlink="http://www.w3.org/1999/xlink" width="700" height="450" style="" viewBox="0 0 700 450"><rect x="0" y="0" width="700" height="450" style="fill: rgb(255, 255, 255); fill-opacity: 1;"/><defs id="defs-475eea"><g class="clips"><clipPath id="clip475eeaxyplot" class="plotclip"><rect width="540" height="270"/></clipPath><clipPath class="axesclip" id="clip475eeax"><rect x="80" y="0" width="540" height="450"/></clipPath><clipPath class="axesclip" id="clip475eeay"><rect x="0" y="100" width="700" height="270"/></clipPath><clipPath class="axesclip" id="clip475eeaxy"><rect x="80" y="100" width="540" height="270"/></clipPath></g><g class="gradients"/><g class="patterns"/></defs><g class="bglayer"/><g class="layer-below"><g class="imagelayer"/><g class="shapelayer"/></g><g class="cartesianlayer"><g class="subplot xy"><g class="layer-subplot"><g class="shapelayer"/><g class="imagelayer"/></g><g class="minor-gridlayer"><g class="x"/><g class="y"/></g><g class="gridlayer"><g class="x"><path class="xgrid crisp" transform="translate(155.68,0)" d="M0,100v270" style="stroke: rgb(238, 238, 238); stroke-opacity: 1; stroke-width: 1px;"/><path class="xgrid crisp" transform="translate(231.37,0)" d="M0,100v270" style="stroke: rgb(238, 238, 238); stroke-opacity: 1; stroke-width: 1px;"/><path class="xgrid crisp" transform="translate(307.05,0)" d="M0,100v270" style="stroke: rgb(238, 238, 238); stroke-opacity: 1; stroke-width: 1px;"/><path class="xgrid crisp" transform="translate(382.73,0)" d="M0,100v270" style="stroke: rgb(238, 238, 238); stroke-opacity: 1; stroke-width: 1px;"/><path class="xgrid crisp" transform="translate(458.42,0)" d="M0,100v270" style="stroke: rgb(238, 238, 238); stroke-opacity: 1; stroke-width: 1px;"/><path class="xgrid crisp" transform="translate(534.1,0)" d="M0,100v270" style="stroke: rgb(238, 238, 238); stroke-opacity: 1; stroke-width: 1px;"/><path class="xgrid crisp" transform="translate(609.78,0)" d="M0,100v270" style="stroke: rgb(238, 238, 238); stroke-opacity: 1; stroke-width: 1px;"/></g><g class="y"><path class="ygrid crisp" transform="translate(0,340.02)" d="M80,0h540" style="stroke: rgb(238, 238, 238); stroke-opacity: 1; stroke-width: 1px;"/><path class="ygrid crisp" transform="translate(0,301.59000000000003)" d="M80,0h540" style="stroke: rgb(238, 238, 238); stroke-opacity: 1; stroke-width: 1px;"/><path class="ygrid crisp" transform="translate(0,263.15999999999997)" d="M80,0h540" style="stroke: rgb(238, 238, 238); stroke-opacity: 1; stroke-width: 1px;"/><path class="ygrid crisp" transform="translate(0,224.73000000000002)" d="M80,0h540" style="stroke: rgb(238, 238, 238); stroke-opacity: 1; stroke-width: 1px;"/><path class="ygrid crisp" transform="translate(0,186.3)" d="M80,0h540" style="stroke: rgb(238, 238, 238); stroke-opacity: 1; stroke-width: 1px;"/><path class="ygrid crisp" transform="translate(0,147.87)" d="M80,0h540" style="stroke: rgb(238, 238, 238); stroke-opacity: 1; stroke-width: 1px;"/><path class="ygrid crisp" transform="translate(0,109.44)" d="M80,0h540" style="stroke: rgb(238, 238, 238); stroke-opacity: 1; stroke-width: 1px;"/></g></g><g class="zerolinelayer"/><path class="xlines-below"/><path class="ylines-below"/><g class="overlines-below"/><g class="xaxislayer-below"/><g class="yaxislayer-below"/><g class="overaxes-below"/><g class="plot" transform="translate(80,100)" clip-path="url(#clip475eeaxyplot)"><g class="scatterlayer mlayer"><g class="trace scatter trace8ee40d" style="stroke-miterlimit: 2; opacity: 1;"><g class="fills"/><g class="errorbars"/><g class="lines"><path class="js-line" style="vector-effect: none; fill: none; stroke: rgb(156, 39, 176); stroke-opacity: 1; stroke-width: 2px; opacity: 1;" d="M0,-455.63L1.14,-514.4L2.65,-61.92L3.41,103.43L4.16,154.25L5.3,149.87L5.68,150.07L6.05,21.31L6.81,178.73L7.19,170.31L7.57,178.68L8.33,190.48L8.7,188.89L9.46,174.03L9.84,-86.53L10.22,185.73L10.6,185.19L10.97,159.18L11.35,189.53L11.73,163.77L12.11,163.76L12.87,185.92L13.62,173.91L14.38,181.35L14.76,183.96L15.14,172.05L15.89,182.43L16.27,191.93L17.41,195.31L18.16,129.93L18.54,164.97L19.68,181.28L20.06,188.69L20.43,151.99L20.81,159.35L21.57,170.49L21.95,201.67L22.7,-45.81L23.46,201.73L23.84,147.97L24.98,196.16L25.35,187.16L25.73,180.09L26.49,142.47L27.25,202.57L27.62,190.25L28.38,191.61L29.14,-129.21L29.52,146.41L30.65,196.53L31.03,194.53L31.41,177.74L32.17,206.12L33.3,187.48L33.68,203.3L34.06,214.23L34.81,196.3L35.57,195.51L35.95,174.14L36.33,198.25L37.46,207.04L37.84,185.89L38.22,197.27L38.98,202.75L39.36,197.66L40.11,218.57L40.49,209.62L40.87,218.93L41.25,216.48L41.63,207.84L42,215.98L42.38,184.71L43.14,174.97L43.52,199.46L44.27,217.28L44.65,195.8L45.79,206.99L46.17,199.47L46.55,214.73L47.3,202.59L47.68,215.03L48.06,209.9L48.44,214.6L49.57,209.37L49.95,213.5L50.71,212.72L51.46,208.76L51.84,195.44L52.22,217.44L52.6,219.04L52.98,212.7L53.36,197.13L54.11,215.84L54.49,215.39L54.87,225.63L55.63,215.06L56.01,218.69L57.52,203.98L57.9,214.89L58.28,214.06L59.03,218.21L59.41,199.65L59.79,210.99L60.17,210.88L60.93,221.4L61.3,210.89L61.68,221.75L62.06,215.31L62.82,227.44L63.95,210.24L64.33,222.54L65.09,216.55L65.84,198.26L66.6,218.51L66.98,212.13L67.36,204.24L68.11,218.52L68.87,212.25L69.25,223.53L70.01,219.22L70.39,187.36L71.52,222.17L71.9,196.63L72.28,228.33L72.66,208.91L73.03,215.61L73.79,221.21L74.55,216.06L74.93,205.53L75.3,221.48L76.44,204.6L76.82,214.14L77.2,218.83L77.58,200.88L78.71,227.62L79.09,212.37L79.47,203.7L79.85,207.33L80.6,211.65L80.98,202.06L81.36,217.86L82.49,226.04L82.87,208.75L83.25,194.53L83.63,216.3L84.39,216.73L84.77,227.68L85.14,215.08L85.52,232.05L86.66,217.97L87.04,221.7L87.41,199.39L88.55,226.12L88.93,219.77L89.31,228.53L89.68,220.93L90.06,211.71L90.44,227.39L91.2,203.27L92.33,220.98L92.71,225.39L93.09,224.12L93.47,211.25L94.23,229.48L95.36,218.11L95.74,220.63L96.12,215.89L97.25,223.27L97.63,204.86L98.01,225.49L98.39,216.26L99.15,214.79L99.52,216.25L100.28,199.03L102.17,227.77L102.55,205.56L103.31,220.34L103.69,219.84L104.06,216.81L104.44,213.34L105.2,216.41L105.58,213.45L105.96,221.02L106.33,224L106.71,217.64L107.85,221.59L108.23,221.62L108.61,224.45L108.98,222.93L109.74,222.18L110.12,218.05L111.63,222.1L112.39,228.29L112.77,227.76L113.15,216.57L113.52,230.78L113.9,214.8L114.66,232.14L115.04,222.03L115.42,213.39L115.8,225.61L116.17,234.15L116.55,225.5L116.93,230.21L117.69,225.88L118.44,228.06L118.82,219.82L119.2,221.88L119.58,232.18L120.34,226.89L120.71,183.54L121.85,229.32L122.61,215.84L122.99,225.27L123.74,214.99L124.5,217.63L124.88,227.32L125.63,218.07L126.01,218.97L127.15,230.84L127.53,221.71L127.9,232.87L128.66,224.12L129.04,219.89L129.42,220.15L129.8,224.28L130.18,221.26L130.55,223.1L130.93,224.23L131.31,221.09L131.69,229.99L132.07,229.29L132.45,211.98L133.96,229.21L134.34,225.46L135.09,225.28L135.47,227.43L136.23,226.87L136.61,233.94L137.37,221.81L137.74,227.28L138.5,233.84L138.88,225.83L139.26,220.83L139.64,223.81L141.15,214.63L141.91,233.09L142.66,226L143.04,218.81L144.18,233.28L147.2,218.9L147.58,228.04L147.96,228.52L148.34,221.75L148.72,222.2L149.1,215.43L149.85,232.03L150.23,223.51L150.61,221.47L150.99,223.24L151.37,232.1L152.12,221.93L152.5,224.67L152.88,224.04L153.26,224.73L153.64,216.9L154.02,233.64L154.39,225.61L154.77,230.1L155.15,219.48L155.91,225.36L156.29,226.38L156.66,230.13L157.04,228.54L158.18,218.34L159.31,229.47L159.69,230.9L160.45,226.98L160.83,230.5L161.21,226.19L161.58,231.87L162.72,222.29L163.1,230.8L164.23,228.29L164.61,223.72L164.99,226.46L165.37,224.28L165.75,224.11L166.5,226.38L166.88,232.05L167.64,229.98L168.02,230.38L168.4,226.92L168.77,232.97L170.29,233.05L171.42,223.84L171.8,229.04L172.18,227.3L172.56,221.64L174.07,231.99L174.45,230.53L174.83,228.19L175.21,233L177.1,214.92L177.48,221.98L177.86,229.62L178.23,223.77L178.99,230.16L179.37,226.05L179.75,226.12L180.88,228.63L181.26,222.24L181.64,226.79L182.02,224.3L182.4,234.89L182.78,220.98L183.15,229.77L183.91,228.76L184.29,230.01L184.67,223.69L185.05,233.7L185.42,230.02L185.8,221.73L186.94,230.47L187.32,226.2L188.83,233.75L189.59,227.46L189.96,233.32L190.34,233.13L191.48,225.04L192.24,229.26L192.61,228.71L193.37,223.91L193.75,229.82L194.13,225.19L194.51,230.94L195.26,231.71L195.64,230.59L196.02,230.56L196.4,231.66L196.78,231.17L197.15,231.78L197.91,227.26L199.05,219.05L199.43,229.56L200.94,228.7L201.32,223.98L201.7,227.72L202.07,223.88L203.21,235.61L203.59,227.12L203.97,224.55L204.34,227.28L204.72,226.44L205.1,234.36L205.48,231.35L205.86,232.51L206.62,231.39L206.99,227.1L207.37,231.07L208.13,230.9L209.26,224.15L209.64,234.84L211.16,219.86L211.53,231.95L212.29,226.48L212.67,232.28L213.05,230.97L213.43,224.99L214.18,223.77L214.56,216.39L215.32,231.42L216.08,218.15L216.83,223.03L217.59,220.25L217.97,226.58L218.35,217.95L219.48,228.84L221,227.95L221.37,235.11L221.75,225.31L222.51,228.92L222.89,224.47L223.27,230.07L223.64,228.7L224.02,224.07L224.4,231.29L224.78,230.44L225.16,226.28L226.29,233.44L226.67,232.78L227.43,223.26L228.56,231.5L228.94,218.39L230.08,229.71L230.46,227.59L230.83,226.94L231.59,226.33L231.97,221.17L232.35,230.49L232.73,220.19L233.86,230.77L234.24,226.2L234.62,223.2L235,223.34L235.37,231L236.51,222.78L236.89,227.84L237.27,226.88L237.65,230.1L238.02,227.05L239.16,234.01L239.92,230.29L240.29,206.58L240.67,227.43L241.05,227.01L242.19,235.48L243.32,223.99L243.7,226.63L244.08,227.97L245.21,219.77L247.11,233.38L247.48,223.93L247.86,234.24L249,234.21L249.38,217.94L249.75,230.74L250.13,233.6L251.65,227.72L252.4,233.37L253.16,232.52L253.54,226.1L253.92,226.67L254.3,219.72L254.67,220.77L255.43,232.73L255.81,221.87L256.19,222.69L256.57,222.25L257.32,233.52L258.08,227.09L258.46,225.12L258.84,232.07L259.22,232.26L259.97,231.71L260.35,230.76L260.73,213.6L261.86,226.03L262.24,216.87L263.38,229.49L263.76,222.82L264.13,225.44L264.51,233.72L264.89,227.7L265.65,231.18L267.16,227.73L267.92,228.68L268.3,223.28L268.68,230.28L269.81,220.45L270.57,228.43L271.32,222.3L271.7,230.18L272.08,223.07L272.46,224.86L272.84,228.12L273.22,228.71L273.59,236.02L273.97,220L274.35,235.42L274.73,230.62L275.49,222.8L275.87,228.75L276.24,235.71L276.62,229.6L277,226.48L278.51,230.77L279.27,230.22L279.65,231.43L280.03,222.51L280.78,232.88L281.16,226.89L281.54,228.45L281.92,233.98L282.3,229.23L284.19,230.8L284.57,223.87L284.95,230.94L285.7,229.96L286.08,224.65L286.46,217L286.84,230.93L287.97,230.36L288.35,229.42L288.73,230.13L289.11,225.43L289.49,228.93L289.87,225.59L290.25,225.81L290.62,225.29L291,227.47L291.38,236.3L291.76,231.53L292.14,221.72L293.27,226.25L293.65,221.71L294.03,233.64L294.41,232.39L294.79,228.3L295.16,234.01L295.54,233.26L295.92,229.94L296.3,232.07L297.44,232.47L298.19,224.17L298.57,233.19L299.33,231.21L300.08,223.57L300.46,227.59L300.84,218.1L301.22,231.15L301.6,222.34L301.98,227.37L303.49,233.93L303.87,217.34L305,230.08L305.38,228.2L305.76,222.58L306.14,229.42L306.52,230.15L306.9,224.36L307.65,229.96L308.03,220.23L309.17,232.09L309.54,215.52L309.92,233.44L310.3,224.02L310.68,221.44L311.44,234.72L311.81,229.16L312.19,225.13L312.57,232.85L312.95,235.42L313.33,226.81L313.71,224.72L314.09,231.13L314.84,230.17L315.22,223.85L315.6,228.99L315.98,222.73L316.36,230.16L316.73,228.56L317.49,230.02L318.63,229.41L319,231.99L320.52,223.47L321.65,226.64L322.03,231.08L323.17,229.26L323.92,218.63L324.3,222.31L324.68,221.4L325.44,234.36L325.82,227.68L326.19,229.38L327.33,221.24L328.47,230.75L328.84,233.32L329.6,217.72L329.98,229.2L330.36,230.14L330.74,236.25L333.38,227.25L333.76,215.84L334.52,230.74L334.9,230.35L335.28,226.1L335.66,225.45L336.03,230.85L336.41,223.48L336.79,228.52L337.55,220.98L338.68,225.74L339.44,224.58L339.82,231.06L340.95,227.47L342.09,229.56L342.47,227.2L343.22,231.12L343.6,226.17L344.36,231.46L344.74,229.44L345.49,221.81L345.87,231.25L346.63,228.79L347.01,230.92L347.39,226.38L348.14,232.08L348.52,229.28L348.9,232.9L349.28,227.06L349.66,230.73L350.41,227.74L351.55,232.44L351.93,225.13L352.31,232.25L352.68,231.04L353.06,224.5L353.44,232.01L353.82,231.31L354.58,221.92L355.71,233.43L356.09,230.12L356.47,227.71L356.85,225.11L357.22,233.1L357.98,221.64L358.36,228.96L358.74,227.56L359.12,231.02L359.5,231.31L360.25,225L361.01,232.37L361.39,225.76L361.77,220.73L362.14,221.28L362.9,220.64L364.04,235.16L364.41,230.22L364.79,216.68L365.17,232.78L365.93,226.8L366.31,230.6L367.44,222.31L367.82,224.94L368.96,231.52L369.33,223.05L369.71,228.31L370.09,231.49L370.47,220.01L370.85,229.15L371.23,228.6L371.6,231L371.98,221.91L373.88,233.43L374.25,223.95L374.63,228.28L375.39,226.74L375.77,233.44L376.15,223.04L376.52,233.71L376.9,228.92L377.66,225.15L378.04,226.5L378.42,224.25L378.79,224.56L379.17,233.02L380.31,223.93L380.69,234.47L381.07,219.18L382.58,225.93L383.34,224.86L383.71,228.17L384.09,229.88L384.47,226.58L384.85,229.34L385.98,230.51L386.74,226.69L387.12,229.95L387.88,227.36L388.26,227.97L388.63,232.95L389.39,222.52L390.15,229.27L391.66,228.6L392.04,220.12L393.17,233.87L394.69,222.86L395.82,235.7L396.58,216.39L396.96,229.94L397.34,225.22L398.09,229.82L398.85,220.74L399.61,229.4L400.36,224.2L400.74,229.78L401.12,228.87L401.88,231.71L402.63,221.88L403.01,229.99L403.39,229.13L403.77,231.92L405.28,218.79L405.66,225.9L406.04,234.53L406.42,230.07L407.18,221.01L407.93,227.58L408.69,229.2L409.07,226.24L409.45,229.46L409.82,224.68L410.58,227.45L410.96,228.78L411.34,224.79L411.72,223.8L412.85,225.24L413.23,231.03L413.61,223.86L413.99,230.14L415.5,231.33L416.26,224.78L416.64,227.67L417.01,232.78L417.39,224.28L417.77,230.39L418.53,235.49L419.66,229.71L420.04,225.32L420.42,224.04L420.8,229.59L421.56,224.92L422.31,232.38L422.69,218.2L423.07,223.68L423.45,234.08L424.58,227.69L425.72,233.33L426.1,223.75L426.85,230.52L427.23,231.31L427.61,228.79L427.99,229.61L428.37,228.24L429.12,230.99L429.5,224.93L429.88,225.46L430.26,233.44L431.02,226.46L431.39,231.59L432.15,221.31L432.53,230.29L433.29,230.77L433.67,227.5L434.04,217.93L434.42,224.9L434.8,231.6L435.18,231.09L435.56,224.55L436.31,227.73L437.07,224.54L437.83,226.34L438.58,233.06L439.72,227.48L440.1,234.57L440.48,229.95L440.85,234.26L441.23,231.33L441.61,234.12L441.99,231.15L443.5,228.83L443.88,218.87L444.26,232.06L445.02,228.82L445.4,233.66L445.77,227.6L446.15,220.89L446.53,228.44L447.29,232.17L448.04,226.39L448.42,228.89L448.8,221.01L449.56,229.32L449.94,222.67L450.69,230.19L451.45,220.96L452.96,228.73L453.34,229.97L454.48,228.43L454.86,233.5L455.99,231.46L456.37,224.33L456.75,218.37L457.51,229.68L457.88,225.31L459.02,227.4L459.4,227.45L459.78,233.73L460.53,221.87L460.91,230.93L461.29,232.15L461.67,225.89L462.42,233.29L462.8,227.22L463.56,231.01L464.7,231.57L465.07,229.57L466.21,230.99L466.59,230.73L466.97,234.27L467.34,226.6L467.72,231.41L468.48,230.29L468.86,221.35L469.24,229.93L469.61,223.6L470.75,233.46L471.13,232.74L471.51,230.16L472.26,225.35L472.64,232.78L473.4,229.26L473.78,235.03L474.16,224.6L474.53,231.44L475.29,219.49L475.67,226.94L476.8,227.72L477.18,222.98L477.94,230.94L478.32,232.47L478.7,227.09L479.07,230.3L479.45,226.23L479.83,227.52L480.59,220.71"/></g><g class="points"/><g class="text"/></g><g class="trace scatter tracef940c3" style="stroke-miterlimit: 2; opacity: 1;"><g class="fills"/><g class="errorbars"/><g class="lines"><path class="js-line" style="vector-effect: none; fill: none; stroke: rgb(33, 150, 243); stroke-opacity: 1; stroke-width: 2px; opacity: 1;" d="M0,-182.28L0.76,-32.73L2.65,-227.37L3.41,12.91L4.16,-214.8L5.3,-12.08L5.68,-109.6L6.05,-8.58L6.81,51.18L7.57,0.5L8.33,31.06L8.7,55.63L9.84,16.75L10.6,-3.64L10.97,38.73L11.35,-78.1L12.11,-43.43L12.49,107.89L13.62,14.87L14,46.37L14.38,-3.24L14.76,64.87L16.27,-26.99L17.79,41.6L18.16,37.89L18.54,-150.52L19.68,81.69L20.06,-25.64L20.43,62.35L20.81,10.63L21.57,54.64L22.7,110.15L23.08,66.01L23.84,97.92L24.6,80.95L24.98,26.15L25.35,95.44L25.73,85.35L26.49,-3.3L27.62,39.87L28.38,87.1L29.14,14.47L29.52,110.5L30.27,-28.91L31.03,18.14L31.41,50.4L32.17,22.02L32.54,98.29L32.92,3.75L33.68,-11.86L34.06,-4.48L34.81,56.08L35.95,-13.13L36.33,71.1L37.46,122.52L37.84,8.63L39.36,-20.98L40.11,22.74L40.49,11.8L40.87,40.99L41.25,41.88L41.63,124.05L43.14,-69.09L43.52,73.13L43.9,12.8L44.27,63.86L45.41,29.75L45.79,78.69L47.3,131.85L47.68,146.91L48.44,81.21L48.82,99.45L49.19,63.82L49.57,101.77L49.95,56.03L50.71,91.64L51.46,-13.64L52.6,53.05L52.98,125.54L54.11,59.57L54.49,109.13L55.63,-18.59L56.76,107.57L58.28,116.8L59.03,91.37L59.41,99.53L59.79,-10.2L60.55,126.43L61.3,122.12L61.68,46.24L62.06,70.62L62.82,53.02L64.33,125.26L64.71,94.26L65.09,142.19L65.84,110.23L66.22,131.01L66.6,-28.68L66.98,-29.04L67.36,111.22L68.11,150.96L68.49,130.3L68.87,121.65L69.25,-33.1L70.01,125.71L70.39,125.35L71.52,77.06L71.9,72.37L72.28,132.84L72.66,136.2L73.79,94.89L74.55,125.35L74.93,94.33L75.3,42.86L75.68,53.55L76.44,101.15L76.82,-13.71L77.2,45.39L77.58,54.33L78.33,148.55L78.71,125.07L79.09,135.32L80.6,23.04L81.36,20.44L82.49,75L82.87,65.26L83.63,118.34L84.01,73.61L84.77,58.89L85.14,126.51L85.52,14.15L86.66,69.43L87.41,135.01L87.79,94.03L88.17,51.65L88.55,127.96L88.93,119.42L89.31,37.34L90.06,94.34L90.44,40.81L91.2,104.4L91.58,94.16L92.33,131.25L92.71,95.83L93.09,134.63L93.85,22.62L94.23,96.34L95.36,148.52L95.74,106.06L96.12,115.97L96.5,73.41L99.15,152.69L99.52,146.99L101.42,74.53L102.17,104.54L102.55,132.53L103.31,98.06L104.06,142.59L104.44,74.53L105.2,67.16L105.58,88.92L105.96,-64.32L106.33,124.28L106.71,130.24L107.09,68.45L107.47,66.58L107.85,111.99L108.61,141.58L108.98,56.21L110.12,137.13L111.63,126.7L112.39,99.87L112.77,104.81L113.15,132.2L113.52,128.26L115.04,133.38L115.8,54.66L116.17,130.73L117.69,58.39L118.07,115.72L118.44,21.3L118.82,123.25L119.58,140.84L120.34,72.73L120.71,50.37L121.09,128.72L121.47,75.78L121.85,148.05L122.61,37.54L123.74,101.79L124.5,102.05L124.88,114.36L125.63,136.24L126.01,68.91L127.53,118.86L127.9,50.41L128.66,-14.1L129.42,131.3L130.18,93.1L130.55,107.67L130.93,142.68L131.31,93.83L132.07,81.79L132.45,11.45L133.58,112.99L133.96,40.37L135.09,119.53L135.47,112.72L136.99,142.72L137.37,91.5L138.5,128.03L138.88,124.5L139.26,89.39L139.64,132.76L141.15,86.47L141.53,108.67L141.91,97.16L142.66,110.75L143.04,20.77L144.56,78.87L145.31,115.58L145.69,33.97L146.07,142.01L147.2,43.91L147.58,17.74L147.96,94.8L148.34,127.18L148.72,115.43L149.1,58.99L150.23,150.29L150.61,137.34L150.99,133.89L151.37,135.05L151.74,123.26L153.64,38.61L154.02,99.29L154.39,133.99L154.77,89.91L155.91,8.4L156.29,88.76L156.66,85.87L157.04,72.47L158.18,107.3L158.56,55.54L159.31,53.13L159.69,110.58L160.45,119.46L160.83,147.64L161.21,139.08L161.58,103.71L162.34,65.11L162.72,105.44L163.1,145.15L164.23,98.22L164.61,125.27L164.99,89.97L165.37,58.6L165.75,82.53L166.12,73.62L166.88,56.6L167.64,74.16L168.4,-24.71L168.77,39.9L170.29,18.12L170.67,41.04L171.04,27.54L171.42,135.21L171.8,98.23L172.56,125.31L173.31,42L174.07,144.44L175.59,18.28L175.96,134.18L176.34,94.18L177.1,109.7L178.23,139.12L178.99,68.76L179.37,25L179.75,53.31L180.88,150.14L181.26,148.22L181.64,76.37L182.02,113.28L182.4,82.14L182.78,74.28L183.15,145.64L183.91,118.59L184.29,87.93L184.67,118.02L185.05,129.77L185.42,118.17L185.8,77.19L186.94,107.41L187.32,48.67L188.83,137.02L189.59,126L190.34,48.1L191.48,69.6L191.86,108L192.24,102.65L192.61,99.75L192.99,45.04L193.37,58.74L193.75,123.77L194.13,82.59L194.51,105.92L195.26,77.36L195.64,50.97L196.02,139.83L196.4,87.81L196.78,133.25L197.15,95.73L197.91,57.71L199.05,82.73L200.56,50.65L201.32,102.36L201.7,134.02L202.07,120.56L202.45,73.34L203.97,124.71L204.34,82.91L204.72,79.6L205.1,83.52L206.62,-13.93L206.99,103.89L208.13,80.23L208.89,133.86L209.64,41.63L210.02,105.96L210.4,72.36L211.16,88.84L213.43,122.71L214.18,105.63L214.56,132.96L214.94,107.79L215.32,68.17L216.83,143.98L217.97,102.68L219.48,90.96L221,89.7L221.37,116.14L221.75,-19.8L222.89,144.59L223.27,98.11L223.64,146.29L224.02,124.41L224.78,90.04L225.16,82.55L225.54,115.92L226.29,77.06L226.67,95.83L227.43,133.02L227.81,67.37L228.19,92.58L228.94,49.54L229.7,78.59L230.08,65.91L230.46,74.62L230.83,100.8L231.97,15.28L232.35,135.98L233.1,77.92L233.48,76.34L233.86,64.55L234.24,60.09L234.62,68.23L235.37,88.2L235.75,73.65L236.51,-10.43L236.89,126.99L237.27,-27.65L237.65,113.77L238.02,24.8L239.54,138.7L239.92,107.85L240.29,9.49L240.67,100.83L241.05,146.63L242.19,71.97L242.56,118.02L242.94,108.17L243.32,134.09L243.7,-45.07L244.08,114.21L245.21,145.22L245.59,142.54L246.35,94.67L246.73,112.65L247.11,24.19L247.86,129.82L249,-6.76L249.75,116.64L250.13,52.51L252.4,90.93L253.16,55.27L253.54,87.88L253.92,50.49L254.67,114.69L255.43,113.18L255.81,-70.47L256.19,63.55L256.57,50.85L256.94,144.71L257.32,68.99L258.08,119.79L258.46,101.89L258.84,134.75L259.97,103.05L260.35,134.84L260.73,-15.32L261.11,100.11L261.86,100.02L262.62,116.51L263,108.27L263.38,114.19L263.76,96.89L264.51,89.1L265.65,-12.39L266.78,108.82L268.3,39.32L269.43,96.62L269.81,97.83L270.57,134.11L271.32,3.22L272.46,142.08L272.84,92.66L273.59,85.4L273.97,127.93L274.35,83.42L274.73,99.93L275.11,94.22L276.24,118.21L276.62,109.13L277,155.42L277.38,78.62L279.27,92.11L279.65,109.86L281.16,70.75L281.54,83.88L281.92,83.76L282.3,68.48L284.19,159.35L284.57,139.83L286.46,105.89L286.84,18.32L287.22,84.15L288.35,97.12L288.73,119.27L289.11,111.64L289.49,100.81L289.87,93.49L290.25,126.27L290.62,52.02L291,118.28L291.38,125.54L292.52,74.21L293.27,88.61L293.65,119.55L294.03,100.14L294.41,113.1L294.79,116.34L295.16,135.85L295.92,85.69L296.3,86.82L297.44,75.34L298.57,99.19L299.33,144.12L300.08,50.45L300.46,102.54L300.84,99.03L301.22,50.33L301.6,142.71L302.35,128.73L302.73,49.08L304.25,107.21L304.63,140.27L305,75.04L305.76,104.14L306.52,98.68L306.9,115.78L307.65,112.94L308.03,147.86L308.41,119.15L309.17,133.23L309.54,78.83L309.92,125.39L310.3,130.06L311.44,0.79L311.81,101.42L312.19,83.52L312.57,15.2L313.33,121.85L314.09,61.13L314.84,142.35L315.22,20.5L316.36,129.99L316.73,65.62L317.49,108.85L317.87,67.38L318.63,92.43L319,63.1L319.76,95.5L320.52,82.18L321.65,53.47L322.03,98L323.92,59.64L324.3,138.51L325.44,67.94L325.82,75.1L326.19,123.46L327.33,118.69L327.71,63.41L328.47,120.03L329.22,53.92L329.6,136.8L330.74,17.88L331.87,62.12L332.25,130.34L333.01,121.07L333.38,139.66L333.76,119.9L334.14,50.94L334.52,131.37L334.9,65.42L335.28,82.81L335.66,114.73L336.03,75.78L336.79,121.79L337.55,79.44L338.68,115.64L339.44,114.03L339.82,50.85L340.95,61.11L342.09,152.4L342.47,127.95L342.85,67.91L343.22,105.59L343.6,74.61L344.36,93.9L344.74,73.86L345.49,112.65L345.87,85.78L346.63,135.63L347.01,144.03L347.39,51.42L348.52,105.19L348.9,89.73L349.28,138.52L350.79,161.77L351.17,148.15L351.55,51.79L351.93,125.33L352.31,87.73L352.68,56.84L353.06,139.82L353.44,101.18L353.82,111.35L355.33,20.09L355.71,107.04L356.09,52.7L356.47,113.47L356.85,110.65L357.6,32.95L357.98,151.11L358.36,85.26L359.12,51.96L359.5,102.55L360.25,8.35L361.39,59.55L361.77,-17.9L363.66,115.35L364.04,90.87L364.41,56.76L364.79,63.96L365.17,89.09L366.31,148.32L367.44,104.06L369.33,106.19L370.09,110.77L370.47,37.93L370.85,150.69L371.6,88.26L371.98,105.68L373.12,122L373.5,148.92L374.25,92.2L374.63,142.17L375.39,126.4L376.15,67.83L376.52,74.05L376.9,115.19L377.66,118.31L378.04,85.64L378.42,132.31L378.79,88.96L379.17,112.95L379.55,18.72L379.93,107.27L380.31,138.01L381.07,94.32L382.58,115.64L383.34,70.52L383.71,120.43L384.09,-5.34L384.47,47.07L384.85,57.49L385.98,78.11L386.74,44.25L387.12,51.7L387.88,122.83L388.26,128.1L389.01,122.36L390.15,81.68L391.66,-28.16L392.42,118.96L392.8,53.1L393.17,15.06L394.69,50.14L395.44,71.32L395.82,51.47L396.58,107.76L396.96,79.99L398.09,50.72L398.47,71.94L398.85,11.85L399.61,87.55L400.36,99.4L400.74,33.96L401.12,88.51L401.88,3.01L403.39,140.08L403.77,113.77L404.53,103.59L404.91,136.05L405.28,105.23L405.66,120.27L406.04,118.23L406.42,123.34L407.55,84.45L409.07,-7.48L409.45,44.56L410.58,114.94L410.96,65.43L411.34,112.62L411.72,-6.56L412.85,104.21L413.23,80.84L413.61,10.73L415.5,108.26L416.26,66.47L417.01,-44.47L417.39,91.2L417.77,31.87L418.91,126.02L420.04,88.19L420.42,88.53L420.8,84.25L421.18,102.05L421.56,112.62L422.31,158.14L422.69,96.75L423.45,120.13L423.83,100.63L424.2,120.43L425.72,-11.55L426.1,125.46L426.85,86.19L427.23,133.03L427.61,76.97L427.99,119.45L428.37,122.08L429.12,23.62L429.5,76.22L429.88,136.46L430.26,122.08L431.02,102.25L431.39,106.63L432.15,31.2L432.53,134.5L433.29,67.03L434.42,123.46L434.8,114.56L435.18,33.23L435.56,157.06L437.07,64.86L437.45,98.83L437.83,-46.07L438.58,93.38L438.96,107.31L439.72,104.66L440.1,131.62L440.48,126.95L440.85,95.57L441.23,100.22L441.61,90.81L441.99,133.86L443.5,96.67L443.88,77.48L444.26,148.65L445.4,-5.4L445.77,93.11L448.04,115.96L448.8,101.42L449.56,115.09L449.94,145.58L450.32,90.91L450.69,91.65L451.45,88.78L451.83,89.11L452.21,105.73L452.59,57.83L452.96,142.2L453.34,125.58L454.48,122.66L454.86,114.85L455.99,118.14L456.75,55.79L457.51,130.86L457.88,100.01L459.02,152.4L459.4,82.96L459.78,131.64L460.53,49.84L461.67,122.53L462.05,106.5L462.42,132.1L462.8,60.66L463.56,5.57L464.7,65.28L465.07,111.57L466.21,124.3L466.59,41.84L466.97,129.56L467.34,104.54L468.48,117.92L469.24,55.86L469.61,68.48L469.99,102.53L470.37,115.06L470.75,89.45L471.51,100.83L471.89,84.78L472.64,96.44L473.02,81.9L474.53,126.9L475.29,87.58L475.67,70.31L476.8,71.53L477.18,121.85L477.94,114.97L478.32,98.45L478.7,118.07L479.07,53.1L479.45,116.43L479.83,126.55L480.97,60.25L481.35,123.19L482.86,74.36L483.24,134.19L484.37,82.14L485.13,137.55L485.51,95.3L486.26,97.5L486.64,144.18L487.4,107.77L488.16,139.88L488.54,36.48L488.91,110.75L489.29,23.97L490.05,112.63L490.43,-11.27L491.56,106.03L492.32,106.39L492.7,124.65L493.45,50.4L493.83,142.59L494.21,91.38L494.59,138.76L495.73,92.23L496.1,-78.07L496.48,117.15L497.62,-33.97L498.75,74.1L499.13,140.52L499.51,77.53L499.89,-12.92L500.64,151.14L501.02,108.71L501.4,100.73L501.78,107.31L502.54,72.14L504.43,149.96L505.19,117.63L507.83,59.31L508.59,28.01L510.48,137.93L511.24,70.94L512.38,99.39L512.75,55L513.13,89.37L513.51,16.54L514.65,118.99L515.4,27.94L515.78,94.68L516.16,17.14L517.3,122.43L517.67,-15.99L519.19,132.29L519.57,41.58L520.7,115.44L521.84,81.58L522.21,83.47L522.59,98.68L524.11,108.61L524.48,105.31L524.86,148.84L525.24,73.69L526,33.59L526.38,95.05L527.13,65.07L527.51,66.17L528.27,101.66L528.65,41.84L529.4,103.05L529.78,94.28L530.54,111.82L530.92,110.51L531.3,117.14L531.67,123.58L532.05,112.18L532.43,75.16L532.81,122.75L533.57,108.81L534.7,150.15L535.84,124.13L536.22,87.4L536.97,113.64L537.73,96.69L538.11,14.26L539.24,79.35L539.62,130.6L540,98.85"/></g><g class="points"/><g class="text"/></g><g class="trace scatter tracef1e19c" style="stroke-miterlimit: 2; opacity: 1;"><g class="fills"/><g class="errorbars"/><g class="lines"><path class="js-line" style="vector-effect: none; fill: none; stroke: rgb(0, 150, 136); stroke-opacity: 1; stroke-width: 2px; opacity: 1;" d="M0,-158.39L0.76,-329.57L1.14,-215.25L1.51,-138.48L2.27,-477.69L3.41,-48.44L3.78,-42.61L4.16,-126.8L5.3,-35.15L5.68,-15.56L6.81,133.16L7.19,140.91L8.33,168.96L8.7,175.87L9.08,189.17L9.46,150.71L9.84,195.8L10.22,180.65L10.6,81.46L10.97,191.02L11.35,177.08L11.73,160.19L12.49,194.88L12.87,181.83L14.38,199.75L14.76,110.56L15.89,195.59L16.27,195.96L16.65,55.81L17.03,141.03L17.41,168.73L17.79,173.98L18.16,197.75L18.92,131.4L19.3,189.56L20.43,179.34L20.81,178.22L21.19,173.79L21.57,199.7L22.7,170.15L23.08,196.16L23.84,199.09L24.22,180.89L25.35,205.85L25.73,192.3L26.49,189.25L26.87,196.41L27.62,209.97L28,206.33L28.38,185.97L29.14,197.81L29.52,191.07L30.27,212.62L30.65,192.21L31.03,198.34L31.41,185.04L32.54,199.93L32.92,201.14L33.3,183.9L33.68,201.45L34.06,188.21L34.44,198.6L34.81,199.11L35.19,200.18L35.57,211.62L36.33,174.48L36.71,203.65L37.08,61.43L37.46,201.54L37.84,211.48L38.22,201.92L38.6,203.94L38.98,212.82L39.36,203.42L39.73,206.71L40.11,215.25L40.87,198.1L41.25,218.36L41.63,211.34L42,188.64L42.76,220.86L43.14,197.46L43.9,210.95L44.27,209.36L44.65,197.65L45.03,208.29L45.41,192.31L46.17,213.26L46.55,209.24L47.68,207L48.06,184.8L48.82,218.59L49.19,210.38L49.57,177.66L49.95,206.63L50.33,214.27L50.71,212.63L51.09,216.41L52.22,210.86L52.6,211.21L53.36,219.36L53.74,204.46L55.63,227.53L56.01,219.71L56.38,204.56L56.76,222.17L57.14,224.05L57.52,214.44L57.9,224.14L58.28,220.68L58.65,216.59L59.03,218.99L59.41,226.26L60.17,212L60.55,225.59L60.93,220.46L61.3,222.91L61.68,223.68L62.06,219.1L62.44,222.33L62.82,222.6L63.57,214.45L63.95,224.86L64.71,221.69L65.09,226.2L65.47,173.99L65.84,202.05L66.22,213.38L66.6,221.08L66.98,210.37L67.74,222.03L68.11,218.53L68.49,226.37L68.87,223.27L69.25,207.09L70.01,225.65L70.39,221.57L70.76,224.6L72.28,211.06L72.66,225.07L73.03,218.57L73.41,227.13L74.17,217.09L74.55,225.63L75.3,220.16L75.68,224.35L76.06,231.45L76.44,226.19L76.82,214.36L77.58,226.93L77.95,223.04L78.71,228.44L79.09,233.29L80.22,216.99L80.6,227.32L81.74,217.91L82.12,224.48L82.49,231.91L82.87,221.95L83.63,228.83L84.01,226.24L84.39,225.39L84.77,228.1L85.52,224.79L85.9,225.05L86.28,226.88L86.66,226.13L87.04,230.79L87.41,225.43L87.79,231.18L88.17,219.99L88.55,226.17L88.93,221.34L89.68,222.87L90.06,234L90.82,227.05L91.2,230.18L91.58,225.72L91.96,228.8L92.33,227.66L93.47,223.13L93.85,230.49L94.98,219.68L95.36,225.04L96.12,229.65L96.5,226.08L96.87,229.77L97.25,224.09L98.01,229.49L98.39,226.55L98.77,221.24L99.15,233.09L99.52,222.29L99.9,228.92L100.28,228.75L101.04,228.55L101.42,221.55L102.17,230.26L102.55,229.9L102.93,228.67L103.69,229.1L104.06,229.44L104.44,223.6L104.82,226.4L105.2,228.03L105.58,225.44L105.96,226.86L106.33,230.03L106.71,233.72L107.09,227.86L107.47,234.12L107.85,230.04L108.23,227.78L108.61,226.93L108.98,219.98L109.36,227.47L109.74,227.08L110.12,227.45L110.5,226.55L110.88,235.57L111.25,228.2L111.63,235.72L112.39,226.03L112.77,232.25L113.9,224.48L114.28,225.85L114.66,226.41L115.04,230.85L115.8,224.54L116.17,230.28L116.55,230.42L116.93,227.88L117.31,231.07L117.69,226.66L118.44,230.47L118.82,228.37L119.2,227.38L119.58,231.88L120.34,223.82L120.71,228.35L121.47,224.08L121.85,229.96L122.23,231.55L122.61,230.31L122.99,227.67L123.36,230.2L123.74,225.78L124.12,224.42L124.5,228.05L124.88,233.39L125.26,229.33L125.63,229.4L126.01,228.96L126.39,226.41L126.77,231.62L127.15,230.51L127.53,224.97L128.28,232.98L128.66,223.41L129.42,229.38L129.8,225.34L130.55,230.68L130.93,229.28L131.31,224.23L131.69,234.36L132.07,229.38L132.45,227.11L133.96,222.3L134.34,231.29L134.72,225.25L135.09,230.28L135.47,228.82L135.85,225.75L136.23,226L136.61,230.41L136.99,231.57L137.37,227.79L138.5,232.64L138.88,234.22L139.26,224.9L139.64,227.36L140.01,230.36L140.39,223.55L140.77,226.98L141.15,227.04L141.53,229.77L141.91,228.81L142.28,228.8L142.66,228.49L143.04,221.84L144.18,233.58L144.56,230.22L145.31,231.34L145.69,226.76L146.07,223.34L146.45,226.47L146.83,225.74L147.2,225.2L147.58,230.68L147.96,229.61L148.34,225.63L148.72,226.78L149.1,222.85L150.23,231.33L150.61,226.59L150.99,229.02L151.37,224.53L152.5,234.65L152.88,231.85L153.26,224.42L153.64,226.42L154.02,226.78L154.39,233.91L154.77,232.09L155.15,233.56L155.91,226.83L156.29,227.32L156.66,229.89L157.42,231.41L157.8,222.13L158.18,231.25L158.56,230.43L158.93,227.09L159.31,226.02L159.69,226.97L160.07,228.93L160.45,234.94L160.83,215.89L161.21,233L161.58,230.41L161.96,230.74L162.34,226.68L162.72,228.2L163.1,232.9L163.48,228.34L163.85,231.69L164.23,231.42L164.61,227.63L164.99,231.85L165.37,226.76L165.75,228.34L166.12,232.51L166.5,233.98L166.88,229.4L168.4,223.28L168.77,225.69L169.15,226.69L169.53,234.46L170.67,224.63L171.04,227.47L171.8,236.83L172.18,225.55L172.56,228.79L172.94,223.96L173.31,233.07L173.69,228.37L174.07,228.74L174.45,228.56L174.83,226.13L175.21,229.67L175.59,224.78L176.34,230.31L176.72,227.58L177.1,230.36L177.48,226.54L177.86,231.23L178.23,229.23L178.61,228.87L180.5,225L180.88,231.02L181.26,231.23L181.64,226.3L182.4,230.31L182.78,225.98L183.15,230.36L183.53,227.36L183.91,226.92L184.67,228.67L185.05,233.82L186.18,227.65L186.56,230.42L187.32,238.25L187.69,231.02L188.07,231.19L188.45,233.34L190.34,224.91L190.72,228.47L191.1,232.67L191.48,226.49L191.86,225.3L192.24,233.67L192.61,237.5L192.99,222.62L194.51,232.63L194.88,224.14L196.78,234.26L197.15,226.95L198.29,234.51L198.67,233.47L199.05,228.87L199.43,223.93L199.8,227.07L200.18,230.03L200.56,227.16L200.94,230.74L201.32,227.39L201.7,232.67L202.45,228.08L202.83,233.44L204.34,227.02L204.72,230.75L205.1,225.25L205.48,235.37L207.37,222.39L207.75,231.62L208.13,231.37L208.51,227.62L208.89,234.42L209.26,227.4L209.64,231.97L210.02,228.87L210.4,226.58L210.78,227.02L211.16,232.93L211.91,228.6L212.29,228.99L212.67,228.55L213.05,231.01L213.43,233.08L213.81,224.49L214.56,226.92L214.94,225.7L216.08,232.88L216.45,228.8L216.83,229.93L217.21,226.22L218.35,235.2L218.72,228.2L219.1,222.91L219.48,226.96L219.86,233.52L220.62,227.61L221,228.03L221.37,230.01L221.75,226.37L222.13,231.51L222.51,230.68L222.89,225.06L224.4,234.56L224.78,230.38L225.16,227.47L225.54,231.91L225.91,230.33L226.29,230.85L226.67,233.27L227.05,224.63L227.43,229.79L227.81,232.68L228.19,227.14L228.56,232.6L228.94,232.11L229.7,222.61L230.08,229.98L230.83,232.31L231.21,233.61L231.97,222.63L232.35,229.37L232.73,223.84L233.1,226.94L233.48,230.76L233.86,231.21L234.24,223.57L235,225.99L235.37,232.38L235.75,225.69L236.13,236.14L236.51,227.59L236.89,229.26L237.27,233.01L238.4,221.11L238.78,223.17L239.92,227.92L240.29,234.73L241.43,225.93L241.81,229.8L242.19,230.84L242.56,228.47L243.32,231.84L243.7,226.65L244.08,235.93L244.46,228.31L244.84,230.58L245.21,226.77L245.59,229.15L245.97,233.06L246.35,233.87L246.73,228.68L247.11,231.79L247.48,228.8L247.86,224.71L248.24,230.37L248.62,228.47L249,228.77L249.38,227.56L249.75,230.73L250.13,228.3L250.51,230.46L250.89,231.41L251.27,231.72L251.65,224.85L252.03,230.08L252.4,228.23L252.78,229.17L253.16,221.16L253.54,232.63L253.92,228.81L254.3,229.91L254.67,232.95L255.81,223.52L256.19,227.73L256.57,227.67L256.94,226.05L257.32,223.67L257.7,229.05L258.46,225.44L258.84,230.42L259.22,225.83L259.59,227.52L259.97,228.78L260.35,227.11L260.73,229.01L261.49,224.35L261.86,233.39L262.24,233.42L262.62,229.06L263,234.74L263.38,234.27L263.76,229.43L264.89,230.81L265.27,226.51L265.65,234.67L266.03,225.09L266.78,234.55L267.16,224.27L267.92,228.06L268.3,226.48L269.05,231.64L269.43,228.5L269.81,230.01L270.19,225.18L270.95,227.99L271.32,224.79L272.08,225.81L272.46,231.02L272.84,229.89L273.22,224.03L273.97,232.99L274.35,226.87L274.73,231.64L275.11,230.27L275.49,226.22L276.24,223.43L276.62,230.44L277,229.32L277.38,225.6L278.14,231.46L278.51,226.07L279.27,232.53L279.65,231.73L280.03,225.95L280.41,230.79L280.78,228.54L281.16,225.18L281.92,234.72L282.3,226.7L282.68,224.39L283.06,231.93L283.43,231.64L283.81,228.93L284.19,222.36L284.57,228.33L284.95,227.43L285.33,228.71L285.7,224.77L286.84,232.44L287.22,230.42L287.97,230.89L288.35,229.91L288.73,231.29L289.11,226.95L289.49,230.18L289.87,224.54L291,229.46L291.38,226.51L291.76,225.98L292.14,228.46L292.52,230.25L292.89,228.83L293.27,228.02L293.65,227.35L294.03,233.71L294.41,229.08L294.79,229.94L295.16,235.46L295.54,230.55L295.92,231.84L296.3,233.7L296.68,234.18L297.06,231.58L297.44,232.26L297.81,229.74L298.19,227.83L298.57,232.83L298.95,225.82L299.33,229.52L299.71,232.17L300.46,227.5L300.84,235.49L301.22,234.83L301.6,230.46L302.35,228.36L302.73,233.71L303.11,234.78L303.49,224.44L304.63,230.14L305,227.59L305.38,231.21L305.76,227.92L306.14,231.13L306.52,225.9L306.9,228.05L307.27,229.46L308.41,232.89L308.79,222.84L309.92,234.02L310.3,226.43L311.44,224.32L311.81,233.02L313.33,229.22L313.71,224.09L314.09,230.68L314.46,226.15L314.84,226.8L315.22,228.68L315.6,226.07L316.36,230.58L316.73,229.63L317.11,227.81L317.49,225.78L317.87,229.68L318.25,231.94L318.63,228.98L319.38,226.81L319.76,230.31L320.14,224.47L320.52,226.62L320.9,227.1L321.28,228.26L321.65,226.05L322.03,226.49L322.41,229.59L323.17,227.84L323.55,229.02L323.92,222.75L324.3,233.37L325.44,228.53L325.82,226.74L326.19,232.94L326.57,229.71L326.95,225.62L328.09,230.67L328.47,228.93L328.84,224.88L329.22,228.05L329.6,228.11L329.98,234.79L330.36,226.3L330.74,225.72L331.11,226.51L331.49,226.01L331.87,233.49L332.25,224.62L332.63,224.36L333.01,229.88L334.14,223.37L334.52,234.13L335.28,226.27L335.66,231.01L336.03,225.97L336.41,229.06L336.79,230.75L337.93,225.92L338.3,229.81L339.06,226.46L339.44,231.11L340.57,226.96L340.95,233.63L342.09,224.65L342.47,230.79L342.85,227.43L343.22,230.32L343.6,229.43L343.98,223.39L344.36,232.93L344.74,235.58L345.12,231.93L345.49,231.14L345.87,234.97L346.25,227.39L346.63,231.1L347.01,228.41L347.39,226.55L347.76,233.83L348.14,225.18L348.52,228.29L348.9,232.26L349.28,228.25L349.66,235.85L350.79,226.57L351.17,229.17L351.55,229.28L351.93,230.34L352.31,224.09L352.68,225.35L353.06,228.07L353.82,231.67L354.2,228.61L354.95,231.44L355.33,228.59L355.71,233.88L356.09,225.86L356.47,225.76L356.85,224.8L357.22,232.28L357.6,224.11L357.98,231.93L358.36,225.95L358.74,230.03L359.12,224.79L359.5,228.15L359.87,229.28L360.25,224.13L360.63,227.05L361.01,228.26L361.39,229.59L361.77,226.84L362.14,231L362.52,224.97L364.04,231.59L364.41,224.46L365.93,235.64L366.31,230.1L366.69,226.15L367.06,230.71L367.44,233.99L367.82,227.06L368.2,233.6L368.58,226.45L369.33,229.65L369.71,225L370.09,225.94L370.47,229.86L370.85,231.4L371.23,228.18L371.6,227.13L371.98,227.36L372.36,229.44L372.74,232.49L373.12,227.83L373.5,228.53L373.88,233.17L375.77,225.65L376.15,229.09L376.52,225.56"/></g><g class="points"/><g class="text"/></g></g></g><g class="overplot"/><path class="xlines-above crisp" style="fill: none; stroke-width: 1px; stroke: rgb(68, 68, 68); stroke-opacity: 1;" d="M79,370.5H620"/><path class="ylines-above crisp" style="fill: none; stroke-width: 1px; stroke: rgb(68, 68, 68); stroke-opacity: 1;" d="M79.5,100V370"/><g class="overlines-above"/><g class="xaxislayer-above"><path class="xtick ticks crisp" style="stroke: rgb(68, 68, 68); stroke-opacity: 1; stroke-width: 1px;" d="M0,371v5" transform="translate(80,0)"/><path class="xtick ticks crisp" style="stroke: rgb(68, 68, 68); stroke-opacity: 1; stroke-width: 1px;" d="M0,371v5" transform="translate(155.68,0)"/><path class="xtick ticks crisp" style="stroke: rgb(68, 68, 68); stroke-opacity: 1; stroke-width: 1px;" d="M0,371v5" transform="translate(231.37,0)"/><path class="xtick ticks crisp" style="stroke: rgb(68, 68, 68); stroke-opacity: 1; stroke-width: 1px;" d="M0,371v5" transform="translate(307.05,0)"/><path class="xtick ticks crisp" style="stroke: rgb(68, 68, 68); stroke-opacity: 1; stroke-width: 1px;" d="M0,371v5" transform="translate(382.73,0)"/><path class="xtick ticks crisp" style="stroke: rgb(68, 68, 68); stroke-opacity: 1; stroke-width: 1px;" d="M0,371v5" transform="translate(458.42,0)"/><path class="xtick ticks crisp" style="stroke: rgb(68, 68, 68); stroke-opacity: 1; stroke-width: 1px;" d="M0,371v5" transform="translate(534.1,0)"/><path class="xtick ticks crisp" style="stroke: rgb(68, 68, 68); stroke-opacity: 1; stroke-width: 1px;" d="M0,371v5" transform="translate(609.78,0)"/><g class="xtick"><text text-anchor="middle" x="0" y="390.4" style="font-family: TOBESTRIPPEDOpen SansTOBESTRIPPED, verdana, arial, sans-serif; font-size: 12px; fill: rgb(68, 68, 68); fill-opacity: 1; white-space: pre; opacity: 1;" transform="translate(80,0)">0</text></g><g class="xtick"><text text-anchor="middle" x="0" y="390.4" style="font-family: TOBESTRIPPEDOpen SansTOBESTRIPPED, verdana, arial, sans-serif; font-size: 12px; fill: rgb(68, 68, 68); fill-opacity: 1; white-space: pre; opacity: 1;" transform="translate(155.68,0)">200</text></g><g class="xtick"><text text-anchor="middle" x="0" y="390.4" style="font-family: TOBESTRIPPEDOpen SansTOBESTRIPPED, verdana, arial, sans-serif; font-size: 12px; fill: rgb(68, 68, 68); fill-opacity: 1; white-space: pre; opacity: 1;" transform="translate(231.37,0)">400</text></g><g class="xtick"><text text-anchor="middle" x="0" y="390.4" style="font-family: TOBESTRIPPEDOpen SansTOBESTRIPPED, verdana, arial, sans-serif; font-size: 12px; fill: rgb(68, 68, 68); fill-opacity: 1; white-space: pre; opacity: 1;" transform="translate(307.05,0)">600</text></g><g class="xtick"><text text-anchor="middle" x="0" y="390.4" style="font-family: TOBESTRIPPEDOpen SansTOBESTRIPPED, verdana, arial, sans-serif; font-size: 12px; fill: rgb(68, 68, 68); fill-opacity: 1; white-space: pre; opacity: 1;" transform="translate(382.73,0)">800</text></g><g class="xtick"><text text-anchor="middle" x="0" y="390.4" style="font-family: TOBESTRIPPEDOpen SansTOBESTRIPPED, verdana, arial, sans-serif; font-size: 12px; fill: rgb(68, 68, 68); fill-opacity: 1; white-space: pre; opacity: 1;" transform="translate(458.42,0)">1000</text></g><g class="xtick"><text text-anchor="middle" x="0" y="390.4" style="font-family: TOBESTRIPPEDOpen SansTOBESTRIPPED, verdana, arial, sans-serif; font-size: 12px; fill: rgb(68, 68, 68); fill-opacity: 1; white-space: pre; opacity: 1;" transform="translate(534.1,0)">1200</text></g><g class="xtick"><text text-anchor="middle" x="0" y="390.4" style="font-family: TOBESTRIPPEDOpen SansTOBESTRIPPED, verdana, arial, sans-serif; font-size: 12px; fill: rgb(68, 68, 68); fill-opacity: 1; white-space: pre; opacity: 1;" transform="translate(609.78,0)">1400</text></g></g><g class="yaxislayer-above"><path class="ytick ticks crisp" style="stroke: rgb(68, 68, 68); stroke-opacity: 1; stroke-width: 1px;" d="M79,0h-5" transform="translate(0,340.02)"/><path class="ytick ticks crisp" style="stroke: rgb(68, 68, 68); stroke-opacity: 1; stroke-width: 1px;" d="M79,0h-5" transform="translate(0,301.59000000000003)"/><path class="ytick ticks crisp" style="stroke: rgb(68, 68, 68); stroke-opacity: 1; stroke-width: 1px;" d="M79,0h-5" transform="translate(0,263.15999999999997)"/><path class="ytick ticks crisp" style="stroke: rgb(68, 68, 68); stroke-opacity: 1; stroke-width: 1px;" d="M79,0h-5" transform="translate(0,224.73000000000002)"/><path class="ytick ticks crisp" style="stroke: rgb(68, 68, 68); stroke-opacity: 1; stroke-width: 1px;" d="M79,0h-5" transform="translate(0,186.3)"/><path class="ytick ticks crisp" style="stroke: rgb(68, 68, 68); stroke-opacity: 1; stroke-width: 1px;" d="M79,0h-5" transform="translate(0,147.87)"/><path class="ytick ticks crisp" style="stroke: rgb(68, 68, 68); stroke-opacity: 1; stroke-width: 1px;" d="M79,0h-5" transform="translate(0,109.44)"/><g class="ytick"><text text-anchor="end" x="71.6" y="4.199999999999999" style="font-family: TOBESTRIPPEDOpen SansTOBESTRIPPED, verdana, arial, sans-serif; font-size: 12px; fill: rgb(68, 68, 68); fill-opacity: 1; white-space: pre; opacity: 1;" transform="translate(0,340.02)">0.02</text></g><g class="ytick"><text text-anchor="end" x="71.6" y="4.199999999999999" style="font-family: TOBESTRIPPEDOpen SansTOBESTRIPPED, verdana, arial, sans-serif; font-size: 12px; fill: rgb(68, 68, 68); fill-opacity: 1; white-space: pre; opacity: 1;" transform="translate(0,301.59000000000003)">0.04</text></g><g class="ytick"><text text-anchor="end" x="71.6" y="4.199999999999999" style="font-family: TOBESTRIPPEDOpen SansTOBESTRIPPED, verdana, arial, sans-serif; font-size: 12px; fill: rgb(68, 68, 68); fill-opacity: 1; white-space: pre; opacity: 1;" transform="translate(0,263.15999999999997)">0.06</text></g><g class="ytick"><text text-anchor="end" x="71.6" y="4.199999999999999" style="font-family: TOBESTRIPPEDOpen SansTOBESTRIPPED, verdana, arial, sans-serif; font-size: 12px; fill: rgb(68, 68, 68); fill-opacity: 1; white-space: pre; opacity: 1;" transform="translate(0,224.73000000000002)">0.08</text></g><g class="ytick"><text text-anchor="end" x="71.6" y="4.199999999999999" style="font-family: TOBESTRIPPEDOpen SansTOBESTRIPPED, verdana, arial, sans-serif; font-size: 12px; fill: rgb(68, 68, 68); fill-opacity: 1; white-space: pre; opacity: 1;" transform="translate(0,186.3)">0.1</text></g><g class="ytick"><text text-anchor="end" x="71.6" y="4.199999999999999" style="font-family: TOBESTRIPPEDOpen SansTOBESTRIPPED, verdana, arial, sans-serif; font-size: 12px; fill: rgb(68, 68, 68); fill-opacity: 1; white-space: pre; opacity: 1;" transform="translate(0,147.87)">0.12</text></g><g class="ytick"><text text-anchor="end" x="71.6" y="4.199999999999999" style="font-family: TOBESTRIPPEDOpen SansTOBESTRIPPED, verdana, arial, sans-serif; font-size: 12px; fill: rgb(68, 68, 68); fill-opacity: 1; white-space: pre; opacity: 1;" transform="translate(0,109.44)">0.14</text></g></g><g class="overaxes-above"/></g></g><g class="polarlayer"/><g class="smithlayer"/><g class="ternarylayer"/><g class="geolayer"/><g class="funnelarealayer"/><g class="pielayer"/><g class="iciclelayer"/><g class="treemaplayer"/><g class="sunburstlayer"/><g class="glimages"/><defs id="topdefs-475eea"><g class="clips"/><clipPath id="legend475eea"><rect width="96" height="67" x="0" y="0"/></clipPath></defs><g class="layer-above"><g class="imagelayer"/><g class="shapelayer"/></g><g class="infolayer"><g class="legend" pointer-events="all" transform="translate(481.0941176470588,109)"><rect class="bg" shape-rendering="crispEdges" style="stroke: rgb(68, 68, 68); stroke-opacity: 1; fill: rgb(255, 255, 255); fill-opacity: 1; stroke-width: 0px;" width="96" height="67" x="0" y="0"/><g class="scrollbox" transform="" clip-path="url(#legend475eea)"><g class="groups"><g class="traces" style="opacity: 1;" transform="translate(0,14.5)"><text class="legendtext" text-anchor="start" style="font-family: TOBESTRIPPEDOpen SansTOBESTRIPPED, verdana, arial, sans-serif; font-size: 12px; fill: rgb(68, 68, 68); fill-opacity: 1; white-space: pre;" x="40" y="4.680000000000001">LSTM32</text><g class="layers" style="opacity: 1;"><g class="legendfill"/><g class="legendlines"><path class="js-line" d="M5,0h30" style="fill: none; stroke: rgb(156, 39, 176); stroke-opacity: 1; stroke-width: 2px;"/></g><g class="legendsymbols"><g class="legendpoints"/></g></g><rect class="legendtoggle" style="fill: rgb(0, 0, 0); fill-opacity: 0;" x="0" y="-9.5" width="90.06666564941406" height="19"/></g><g class="traces" style="opacity: 1;" transform="translate(0,33.5)"><text class="legendtext" text-anchor="start" style="font-family: TOBESTRIPPEDOpen SansTOBESTRIPPED, verdana, arial, sans-serif; font-size: 12px; fill: rgb(68, 68, 68); fill-opacity: 1; white-space: pre;" x="40" y="4.680000000000001">Conv1D</text><g class="layers" style="opacity: 1;"><g class="legendfill"/><g class="legendlines"><path class="js-line" d="M5,0h30" style="fill: none; stroke: rgb(33, 150, 243); stroke-opacity: 1; stroke-width: 2px;"/></g><g class="legendsymbols"><g class="legendpoints"/></g></g><rect class="legendtoggle" style="fill: rgb(0, 0, 0); fill-opacity: 0;" x="0" y="-9.5" width="90.06666564941406" height="19"/></g><g class="traces" style="opacity: 1;" transform="translate(0,52.5)"><text class="legendtext" text-anchor="start" style="font-family: TOBESTRIPPEDOpen SansTOBESTRIPPED, verdana, arial, sans-serif; font-size: 12px; fill: rgb(68, 68, 68); fill-opacity: 1; white-space: pre;" x="40" y="4.680000000000001">LSTM16</text><g class="layers" style="opacity: 1;"><g class="legendfill"/><g class="legendlines"><path class="js-line" d="M5,0h30" style="fill: none; stroke: rgb(0, 150, 136); stroke-opacity: 1; stroke-width: 2px;"/></g><g class="legendsymbols"><g class="legendpoints"/></g></g><rect class="legendtoggle" style="fill: rgb(0, 0, 0); fill-opacity: 0;" x="0" y="-9.5" width="90.06666564941406" height="19"/></g></g></g><rect class="scrollbar" rx="20" ry="3" width="0" height="0" style="fill: rgb(128, 139, 164); fill-opacity: 1;" x="0" y="0"/></g><g class="g-gtitle"><text class="gtitle" style="font-family: TOBESTRIPPEDOpen SansTOBESTRIPPED, verdana, arial, sans-serif; font-size: 17px; fill: rgb(68, 68, 68); opacity: 1; font-weight: normal; white-space: pre;" x="350" y="50" text-anchor="middle" dy="0em">Model comparison: LPF</text></g><g class="g-xtitle"><text class="xtitle" style="font-family: TOBESTRIPPEDOpen SansTOBESTRIPPED, verdana, arial, sans-serif; font-size: 14px; fill: rgb(68, 68, 68); opacity: 1; font-weight: normal; white-space: pre;" x="350" y="422" text-anchor="middle">Epochs</text></g><g class="g-ytitle" transform="translate(-4.2666015625,0)"><text class="ytitle" transform="rotate(-90,42,235)" style="font-family: TOBESTRIPPEDOpen SansTOBESTRIPPED, verdana, arial, sans-serif; font-size: 14px; fill: rgb(68, 68, 68); opacity: 1; font-weight: normal; white-space: pre;" x="42" y="235" text-anchor="middle">Validation loss</text></g></g></svg>