<svg class="main-svg" xmlns="http://www.w3.org/2000/svg" xmlns:xlink="http://www.w3.org/1999/xlink" width="700" height="450" style="" viewBox="0 0 700 450"><rect x="0" y="0" width="700" height="450" style="fill: rgb(255, 255, 255); fill-opacity: 1;"/><defs id="defs-145afe"><g class="clips"><clipPath id="clip145afexyplot" class="plotclip"><rect width="540" height="270"/></clipPath><clipPath class="axesclip" id="clip145afex"><rect x="80" y="0" width="540" height="450"/></clipPath><clipPath class="axesclip" id="clip145afey"><rect x="0" y="100" width="700" height="270"/></clipPath><clipPath class="axesclip" id="clip145afexy"><rect x="80" y="100" width="540" height="270"/></clipPath></g><g class="gradients"/><g class="patterns"/></defs><g class="bglayer"/><g class="layer-below"><g class="imagelayer"/><g class="shapelayer"/></g><g class="cartesianlayer"><g class="subplot xy"><g class="layer-subplot"><g class="shapelayer"/><g class="imagelayer"/></g><g class="minor-gridlayer"><g class="x"/><g class="y"/></g><g class="gridlayer"><g class="x"><path class="xgrid crisp" transform="translate(155.68,0)" d="M0,100v270" style="stroke: rgb(238, 238, 238); stroke-opacity: 1; stroke-width: 1px;"/><path class="xgrid crisp" transform="translate(231.37,0)" d="M0,100v270" style="stroke: rgb(238, 238, 238); stroke-opacity: 1; stroke-width: 1px;"/><path class="xgrid crisp" transform="translate(307.05,0)" d="M0,100v270" style="stroke: rgb(238, 238, 238); stroke-opacity: 1; stroke-width: 1px;"/><path class="xgrid crisp" transform="translate(382.73,0)" d="M0,100v270" style="stroke: rgb(238, 238, 238); stroke-opacity: 1; stroke-width: 1px;"/><path class="xgrid crisp" transform="translate(458.42,0)" d="M0,100v270" style="stroke: rgb(238, 238, 238); stroke-opacity: 1; stroke-width: 1px;"/><path class="xgrid crisp" transform="translate(534.1,0)" d="M0,100v270" style="stroke: rgb(238, 238, 238); stroke-opacity: 1; stroke-width: 1px;"/><path class="xgrid crisp" transform="translate(609.78,0)" d="M0,100v270" style="stroke: rgb(238, 238, 238); stroke-opacity: 1; stroke-width: 1px;"/></g><g class="y"><path class="ygrid crisp" transform="translate(0,309.96000000000004)" d="M80,0h540" style="stroke: rgb(238, 238, 238); stroke-opacity: 1; stroke-width: 1px;"/><path class="ygrid crisp" transform="translate(0,247.01)" d="M80,0h540" style="stroke: rgb(238, 238, 238); stroke-opacity: 1; stroke-width: 1px;"/><path class="ygrid crisp" transform="translate(0,184.05)" d="M80,0h540" style="stroke: rgb(238, 238, 238); stroke-opacity: 1; stroke-width: 1px;"/><path class="ygrid crisp" transform="translate(0,121.09)" d="M80,0h540" style="stroke: rgb(238, 238, 238); stroke-opacity: 1; stroke-width: 1px;"/></g></g><g class="zerolinelayer"/><path class="xlines-below"/><path class="ylines-below"/><g class="overlines-below"/><g class="xaxislayer-below"/><g class="yaxislayer-below"/><g class="overaxes-below"/><g class="plot" transform="translate(80,100)" clip-path="url(#clip145afexyplot)"><g class="scatterlayer mlayer"><g class="trace scatter tracebee986" style="stroke-miterlimit: 2; opacity: 1;"><g class="fills"/><g class="errorbars"/><g class="lines"><path class="js-line" style="vector-effect: none; fill: none; stroke: rgb(156, 39, 176); stroke-opacity: 1; stroke-width: 2px; opacity: 1;" d="M0,-181.23L1.14,-23.55L1.51,-28.44L2.65,74.29L4.16,184.66L5.3,203.44L5.68,202.46L6.05,188.67L7.19,210.61L7.57,206.75L8.33,212.2L8.7,210.53L9.46,213.23L10.22,211.54L10.6,216.91L10.97,214.41L11.35,215.27L11.73,216.08L12.11,210.53L12.49,213.83L12.87,216.33L13.62,216.23L14,218.15L14.38,220.3L14.76,200.28L15.14,218.58L15.89,217.57L16.27,221.56L17.41,218.11L18.16,218.63L18.54,217.8L19.3,220.13L19.68,214.88L20.43,220.3L20.81,218.38L21.57,222.09L21.95,219.89L22.7,220.45L23.08,213.2L23.46,222.09L23.84,221.92L24.6,222.84L25.35,224.4L25.73,222.67L26.49,222.92L26.87,221.4L27.25,220.48L27.62,223.11L28.38,223.44L29.14,216.34L29.52,203.88L29.89,223.32L30.27,223.41L30.65,224.57L31.03,225.2L31.41,224.15L32.17,227.18L32.54,226.95L32.92,226.99L34.06,227.91L34.81,229.16L35.57,229.08L35.95,225.91L36.33,229.01L37.46,227.01L37.84,230.89L38.22,227.56L38.98,228.95L39.36,231.27L40.11,229.24L41.25,231.14L41.63,231.68L42,228.44L42.38,230.19L43.14,230.36L43.52,230.9L43.9,230.5L44.27,229.31L44.65,231.56L45.03,230.42L45.41,231.34L46.55,231.54L47.3,228.59L48.82,232.69L49.19,231.49L49.57,231.13L49.95,232.22L52.22,233.75L52.6,232.48L52.98,233.72L53.36,232.46L54.11,233.92L55.25,233.45L55.63,234.24L56.01,232.81L56.76,233.16L58.28,232.99L59.03,232.41L59.41,233.79L59.79,232.84L60.17,233.6L60.55,233.1L60.93,233.42L61.3,233.92L62.06,233.96L62.82,233.17L63.95,234.25L64.33,233.66L65.84,235.51L66.22,234.95L66.6,234.73L70.39,235.04L71.52,233.99L72.66,235.91L73.03,234.74L73.79,234.5L74.55,235.38L77.2,235.15L77.58,234.34L78.33,235.89L78.71,235.16L79.09,235.56L79.47,234.48L79.85,235.74L80.6,234.33L80.98,235.59L81.36,234.39L81.74,235.74L82.49,237.4L82.87,237.06L83.25,236.34L84.77,237.37L85.14,236.32L85.52,235.85L86.66,237L87.41,237.61L87.79,237L88.17,237.15L88.93,237.48L89.31,236.66L89.68,237.37L90.06,235.9L90.44,235.8L91.2,236.51L91.58,237.53L92.33,236.66L94.23,237.12L95.36,236.44L96.12,238.39L96.5,238.13L97.25,238.23L97.63,238.9L98.01,238.03L99.15,238.53L99.52,238.06L100.28,236.8L101.42,237.54L103.31,238.91L103.69,229.71L104.44,235.45L105.2,235.95L110.12,238.73L111.63,238.43L112.01,238.95L112.39,237.27L113.52,238.73L113.9,238.81L116.17,239.08L116.55,239.39L116.93,238.7L117.69,239.09L118.82,239.55L119.2,239.08L119.58,239.5L120.34,239.07L120.71,237.63L121.09,231.99L122.61,236.51L122.99,236.74L124.5,237.65L124.88,238.08L129.04,239.59L129.42,230.19L130.55,239.15L130.93,239.37L131.31,238.99L131.69,239.68L133.2,239.97L133.58,240.09L133.96,239.29L134.34,239.66L135.09,239.15L136.23,240.08L136.61,239.8L137.74,240.05L138.12,240.06L139.26,240.19L139.64,240.35L147.58,239.49L147.96,240.16L150.61,239.98L150.99,240.29L152.12,239.9L152.5,239.8L153.26,240.32L153.64,239.9L155.15,240.09L155.91,239.64L157.04,240.51L158.18,240.09L170.29,240.42L170.67,240.02L172.18,240.66L172.56,239.83L175.21,240.28L175.59,240.35L178.23,240.52L178.99,239.91L179.75,240.53L180.88,240.3L184.29,240.69L184.67,240.28L185.05,240.59L185.42,240.08L185.8,240.17L191.86,240.17L192.24,240.09L192.99,240.41L193.37,240.15L194.51,240.47L195.26,240.42L205.1,240.5L205.48,239.91L206.99,240.62L207.37,240.31L212.29,240.15L212.67,240.05L214.18,240.48L214.56,240.41L215.32,240.6L216.08,240.35L217.59,240.34L217.97,240.58L219.48,240.43L221,240.4L221.37,239.78L221.75,240.26L222.51,240.37L224.02,240.18L224.4,240.61L225.16,240.42L225.54,240.86L226.67,240.07L227.43,240.24L228.94,240.13L229.7,240.24L230.83,240.16L231.59,240.44L233.48,240.29L233.86,240.72L235.75,239.87L236.51,240.79L237.27,240.54L237.65,240.57L238.02,240.31L239.16,240.48L240.29,240.4L240.67,240.31L241.05,240.48L242.19,240L245.21,240.21L245.59,240.36L247.11,240.11L247.48,240.6L247.86,240.14L249,240.53L250.13,240.44L250.89,240.37L262.62,240.21L263,240.87L264.13,240.03L264.51,240.51L266.03,240.11L266.78,240.55L268.3,240.43L268.68,240.34L269.81,240.68L270.57,239.57L271.32,240.96L271.7,240.25L273.97,240.57L274.35,240.22L275.49,240.03L275.87,240.28L277.76,240.21L278.14,240.7L278.51,240.26L279.27,240.7L280.03,240.1L280.78,240.83L281.92,240.05L282.3,240.05L284.95,240.46L285.7,240.27L288.73,240.41L289.11,240.08L289.87,240.78L290.25,240.21L291,240.61L291.38,240.14L292.52,240.62L293.27,240.35L296.3,240.18L297.44,240.43L305.76,240.22L306.14,239.86L306.52,240.41L306.9,239.93L307.65,240.58L309.92,240.51L310.3,240.89L311.44,240.35L311.81,240.43L315.6,240.47L315.98,240.24L320.52,240.22L321.65,240.43L322.03,240.05L323.17,240.13L324.68,240.38L325.44,240.33L326.19,240.26L327.33,240.2L328.84,240.45L329.22,240.28L330.36,240.64L330.74,240.14L332.25,240.65L333.01,240.48L336.03,240.18L336.41,240.56L340.95,240.24L341.33,240.6L352.68,240.56L353.06,240.64L357.22,240.38L357.6,240.65L359.12,240.03L359.5,240.37L364.79,240.46L365.17,240.17L366.31,240.16L367.44,240.32L375.39,240.15L375.77,240.64L376.9,240.55L377.66,240.24L379.17,240.08L379.55,240.53L380.69,240.55L381.07,240.27L384.85,240.33L385.98,240.8L390.15,240.33L391.66,240.82L392.8,240.23L393.17,240.63L395.82,240.41L396.58,240.62L396.96,239.92L397.34,240.32L398.09,240.19L398.85,240.08L399.61,240.24L401.88,240.63L402.26,240.43L407.93,240.22L408.69,240.39L409.82,240.03L410.58,239.88L412.85,240.18L413.23,240.32L420.42,240.54L420.8,240.04L421.18,240.46L421.56,240.05L422.31,240.3L423.45,240.25L423.83,240.42L429.12,240.37L429.5,240.58L431.02,240.56L431.39,240.72L432.15,240.01L432.53,240.59L433.29,240.65L435.56,240.41L435.94,240.54L437.07,240.48L437.45,240.72L440.48,240.66L440.85,239.78L441.99,240.75L443.5,240.04L445.02,240.49L445.4,240.43L446.91,240.21L447.29,239.99L448.04,240.88L448.42,240.12L449.94,240.2L450.32,239.94L451.45,240.29L451.83,240.12L452.96,240.89L453.34,240.41L470.37,240.63L470.75,240.06L476.8,240.6L477.18,240.35L480.59,240.39"/></g><g class="points"/><g class="text"/></g><g class="trace scatter trace8c9e58" style="stroke-miterlimit: 2; opacity: 1;"><g class="fills"/><g class="errorbars"/><g class="lines"><path class="js-line" style="vector-effect: none; fill: none; stroke: rgb(33, 150, 243); stroke-opacity: 1; stroke-width: 2px; opacity: 1;" d="M0,-281.7L2.65,-56L3.41,-19.54L5.3,28.25L5.68,23.38L7.19,62.77L7.57,53.32L8.33,50.19L8.7,58.7L9.84,64.06L10.22,48.91L10.6,-38.76L10.97,9.03L11.35,40.07L12.49,71.36L12.87,58.69L13.62,67.03L14,62.64L14.76,77.08L15.14,74.93L16.27,71.65L17.79,75.11L18.16,72.56L18.54,75.09L18.92,64.13L19.3,79.21L19.68,76.9L20.06,67.28L20.43,77.45L20.81,76.88L21.57,77.78L23.08,86.98L23.46,86.75L23.84,87.47L24.98,88.04L25.35,92.68L26.49,88.25L26.87,89.93L28.38,90.87L29.14,93.47L29.52,82.64L29.89,89.91L30.27,84.58L31.03,90.04L31.41,89.01L32.17,82.24L32.92,92.33L33.68,92.25L34.06,86.39L34.81,90.67L37.84,94.4L38.98,93.49L39.36,89.19L40.11,92.86L40.49,82.47L40.87,92.27L41.25,90.01L41.63,89.63L42,94.67L43.14,81.3L43.52,85.69L43.9,85.05L44.27,89.9L45.41,87.53L45.79,88.82L48.44,101.98L48.82,98.59L49.19,100.8L49.57,96.69L51.46,104.47L51.84,96.4L52.22,105.53L52.6,101.08L52.98,97.73L53.36,93.49L54.11,103.2L55.25,96.51L55.63,98.46L58.28,105.84L59.03,101.38L59.41,104.48L59.79,103.26L60.17,103.25L60.55,104.12L61.3,103.36L62.06,107.66L62.82,102.31L63.57,104.12L64.33,109.46L65.09,102.43L65.84,109.98L66.22,102.74L66.6,104.79L66.98,107.37L67.36,106.62L68.11,108.85L68.49,108.26L68.87,109.42L69.25,111.18L69.63,108.03L70.01,104.52L70.39,110.14L71.52,107.22L71.9,103.56L72.66,109.11L73.79,112.3L74.55,107.37L74.93,107.51L75.3,110.01L75.68,110.2L76.44,109.47L77.2,112.11L77.58,110.25L78.33,111.07L78.71,113.05L79.09,112.05L79.47,113.81L79.85,109.92L80.6,112.88L81.36,108.29L81.74,112.43L82.49,110.27L82.87,113.55L83.25,109.46L83.63,113.99L84.01,111.64L84.77,112.44L85.14,110.51L85.52,114.87L86.66,109.25L87.41,118.43L87.79,103.44L88.17,113.22L88.55,113.31L88.93,116.91L89.31,108.65L90.06,114.86L90.44,108.57L91.58,118.02L92.33,113.29L92.71,114.75L93.09,112.78L93.47,111.11L93.85,113.96L94.23,113.54L95.36,115.09L95.74,115.11L96.12,112.29L96.5,116.9L97.25,113.12L97.63,114.37L98.01,108.69L98.39,120.96L99.15,114.71L99.52,113.22L101.42,117.93L102.17,116.15L102.55,107.17L104.06,114.66L104.44,114.27L105.2,114.45L105.58,116.13L105.96,112.96L106.33,115.16L106.71,112.58L107.09,113.06L107.47,116.26L108.61,113.04L108.98,115.6L109.74,116.82L110.12,113.92L111.63,118.57L112.01,110.41L112.39,111.22L112.77,123.95L113.52,116.79L115.04,119.99L115.42,117.57L115.8,109.99L116.93,121.07L117.69,118.13L118.07,114.74L118.44,116.22L118.82,119.72L119.2,110.82L119.58,115.43L120.34,115.16L120.71,116.28L121.09,115.11L121.47,114.7L122.61,116.38L123.74,114.2L125.26,121.35L125.63,118.49L126.01,118.08L127.53,114.29L127.9,113.85L128.66,116.9L129.42,113.99L129.8,115.8L130.18,116.23L130.55,117.84L131.69,111.7L132.07,114.21L133.2,116.87L133.58,115.1L133.96,115.21L134.34,113.45L135.47,116.1L136.23,115.34L136.61,114.49L136.99,115.35L137.37,115.91L138.12,113.92L138.5,116.5L139.26,119.35L139.64,113.07L141.15,119.23L141.53,115.79L142.66,119.03L143.04,116.45L144.56,113.8L145.31,119.01L146.07,113.6L147.2,119.11L147.58,119.75L147.96,115.03L148.34,117.7L148.72,116.3L149.1,116.16L149.47,110.99L149.85,116.53L150.61,115.63L150.99,112.89L151.37,117.68L151.74,115.33L152.12,116.79L152.88,119.61L153.64,116.21L154.02,117.73L154.39,117.52L154.77,113.48L155.91,114.4L156.29,116.51L156.66,117.97L157.04,116.09L158.18,115.46L158.56,117.24L159.31,114.89L159.69,115.02L160.45,115.11L160.83,115.85L161.21,113.93L161.58,119.33L162.34,118.94L162.72,116.38L163.1,121.45L164.23,126.82L164.61,121.2L165.75,112.91L166.12,117.87L166.5,108.68L166.88,120.48L167.64,109.83L168.02,115.13L168.4,117.69L168.77,115.94L170.29,115.14L170.67,112.85L171.04,118.78L173.31,114.18L174.07,122.54L174.83,115.47L175.59,115.76L175.96,114.9L176.34,117.75L177.86,115.37L178.23,116.02L178.99,118.61L179.37,115.94L180.88,113.75L181.26,118.64L181.64,112.66L182.02,117.43L182.4,116.17L182.78,112.02L183.15,116.95L183.91,117.22L184.29,114.66L184.67,115.25L185.05,117.66L185.8,112.95L186.94,114.99L187.32,119.96L188.07,113.97L188.45,117.01L188.83,116.21L189.59,119.02L189.96,108.9L190.34,117.7L191.48,114.16L191.86,114.49L192.24,113.63L192.61,119.8L192.99,114.35L193.37,118.01L193.75,118.92L194.13,113L195.26,116.64L195.64,109.57L196.02,118.31L196.4,114.98L196.78,114.01L197.15,116.69L197.91,114.92L199.05,114.39L200.56,114.97L201.32,116.93L201.7,115.86L202.07,115.03L202.45,118.74L202.83,115.56L203.21,117.63L203.59,112.5L203.97,113.44L204.34,116.89L204.72,119.68L205.1,117.11L205.48,118.53L205.86,118.29L206.62,116.04L206.99,118.16L208.13,116.65L208.89,117.02L209.26,112.68L209.64,116.19L210.02,114.76L210.4,115.52L211.16,118.12L212.67,115.12L213.05,114.2L213.43,117.39L214.18,116.47L214.56,112.91L214.94,118.32L215.32,115.8L216.08,116.32L216.83,117.74L217.97,115.92L219.48,117.74L221,118.27L221.37,116.09L221.75,119.63L222.51,119.2L222.89,113.05L223.27,110.09L223.64,119.13L224.78,110.54L225.16,115.63L225.54,116.31L225.91,113.89L226.29,113.97L226.67,118.79L227.43,118.6L227.81,115.4L228.19,116.61L228.94,115.88L229.7,120.62L230.08,115.14L230.46,112.18L230.83,118.96L231.97,111.56L232.35,113.29L233.1,116.09L233.48,113.7L233.86,114.09L234.24,118.36L234.62,113.58L235.37,116.74L235.75,114.52L236.51,116.11L236.89,113.52L237.27,114.5L237.65,114.85L238.02,109.52L239.16,117.48L239.54,118.85L239.92,117.51L240.29,116.08L241.05,118.36L242.19,116.74L242.56,123.48L242.94,113.69L243.32,113.51L243.7,117.26L244.08,115.78L245.21,117.17L245.59,113.06L246.35,116.04L246.73,112.44L247.11,115.68L247.48,116.65L249,112.24L249.38,115.76L250.13,121.56L252.4,114.95L253.16,111.66L253.54,116.2L253.92,113.45L254.3,116.18L254.67,119.52L255.43,113.71L255.81,113.01L256.19,119.35L257.32,114.31L258.08,114.55L258.46,116.21L258.84,115.38L259.22,115.36L259.97,110.77L260.35,113.38L260.73,116.17L261.11,109.1L262.24,120.42L262.62,119.41L263,116.37L263.38,117.23L263.76,115.97L264.51,116.61L265.65,112.91L266.03,119.31L266.78,116L268.3,116.66L268.68,115.38L269.43,111.97L269.81,117.57L271.32,115.25L272.08,118.09L272.46,119.8L272.84,117.42L273.59,114.47L273.97,115.24L274.35,117.29L275.87,113.58L276.24,115.79L276.62,117.28L277,117.07L277.38,113.92L278.14,110.95L279.27,115.18L279.65,122.91L280.03,119.78L280.78,118.91L281.92,116.17L282.3,111.86L284.19,119.08L284.57,115.26L285.7,119.89L286.08,116.98L286.84,112.7L287.22,117.16L288.35,115.58L288.73,119.1L289.49,113.72L289.87,120.41L290.62,115.59L291,117.99L291.38,121.02L291.76,110.46L292.14,110.93L292.52,115.51L293.65,116.52L294.03,113.33L294.41,117.41L294.79,108.19L295.16,115.26L295.54,113.09L295.92,113.69L296.3,112.8L297.44,116.28L298.19,116.36L298.57,114.67L299.33,119.13L300.08,112.17L300.46,119.9L300.84,113.24L301.22,116.64L301.6,115.52L302.35,116.61L302.73,117.79L304.25,116.55L305.38,115.87L305.76,118.47L306.52,117L306.9,117.73L307.65,119.35L308.41,114.62L309.17,112.51L309.54,118.7L309.92,115.89L310.3,118.67L310.68,116.21L311.06,118.81L312.19,114.7L312.57,116.69L314.09,113.4L314.84,113.25L315.98,116.33L316.36,113.55L316.73,115.61L317.49,114.21L317.87,114.31L318.63,118.21L319.76,111.69L320.52,118.21L321.65,114.75L322.03,122.61L323.17,112.14L323.92,120.13L324.3,113.52L324.68,116.94L325.44,114.8L325.82,114.11L326.19,117.87L328.47,114.14L329.22,117.54L329.6,119.5L330.74,117.93L331.49,113.91L331.87,115.88L332.25,117.63L333.38,124.69L333.76,115.18L334.52,118.91L334.9,114.19L335.66,118.94L336.03,116.01L336.41,116.57L336.79,119L337.93,112.86L338.68,117.51L339.44,117.63L339.82,112.04L340.95,117.05L341.33,116.6L342.09,116.2L342.85,114.93L343.22,116.63L343.6,112.81L344.36,116.9L344.74,121.54L345.49,117.71L347.01,113.23L347.39,118L348.14,119.87L348.52,116.7L349.28,115.49L350.79,115.85L351.55,114.55L351.93,117.21L352.31,112.71L352.68,116.53L353.06,114.1L353.44,112.5L353.82,117.13L355.33,117.5L355.71,114.43L356.09,112.64L356.47,117.52L356.85,110.59L357.6,117L357.98,115.99L358.36,117L359.12,115.76L359.5,119.51L360.25,115.39L361.01,115.32L361.39,116.86L361.77,110.66L362.9,114.05L363.28,114.48L363.66,118.1L364.04,115.12L364.41,119.15L364.79,115.35L365.17,116.86L365.93,114.99L366.31,118.57L367.44,116.55L367.82,116.47L369.33,119.26L370.47,116.91L370.85,113.65L371.98,116.88L373.12,117.01L373.5,118.52L373.88,116.13L374.25,116.24L374.63,113.11L375.39,114.41L376.15,112.14L376.52,119.99L376.9,115.6L377.66,115.25L378.79,119.62L379.17,118.29L379.93,115.64L380.31,114.08L380.69,115.31L381.07,109.49L383.71,118.19L384.09,111.17L384.47,111.74L384.85,115.79L386.74,121.29L387.12,115.35L387.88,112.64L388.26,117.77L389.01,116.54L389.39,110.76L390.15,111.57L391.66,117.6L392.04,113.74L392.42,114.29L392.8,116.68L393.17,117.61L394.69,113.03L395.44,113.14L395.82,114.81L396.58,114.35L396.96,117L398.09,116.56L398.47,117.56L398.85,118.78L399.61,115.8L400.36,119.01L400.74,115.64L401.12,115.3L401.88,112.74L402.26,119.03L403.01,113.94L403.39,116.67L403.77,113.23L404.53,117.04L404.91,115.47L405.28,113.32L406.04,118.05L406.42,117.31L407.55,117.68L409.07,114.31L409.45,118.63L409.82,111.35L410.58,116.44L411.34,121.37L411.72,116.6L412.85,116.22L413.23,117.8L413.61,116.67L415.5,114.21L416.26,117.09L417.01,116.26L417.39,110.39L417.77,118.34L418.91,120.52L419.29,116.77L419.66,113.43L420.04,120.01L421.56,113.15L422.31,116.55L422.69,114.09L423.45,117.73L425.72,112.12L426.1,117.66L427.23,115.12L427.61,116.94L427.99,113.29L428.37,117.2L428.75,116.27L429.12,116.87L429.5,111.94L429.88,115.71L430.26,115.22L431.02,115.43L431.39,117.12L432.15,114.21L432.53,115.73L433.29,113.47L433.67,114.92L434.42,113.74L435.18,117.28L435.56,115.68L435.94,116.74L436.31,114.37L437.07,116.8L437.45,119.06L437.83,116.46L438.58,116.8L438.96,110.82L439.72,116.29L440.1,111.94L440.48,115.57L440.85,115.48L441.23,111.92L441.99,117.55L443.5,114.53L444.26,118.96L445.02,113.23L445.77,116.13L446.53,111.15L448.04,115.8L448.8,116.44L449.94,114.96L450.32,116.72L451.83,112.03L452.21,117.15L452.59,117.93L452.96,115.87L453.34,117.13L454.48,109.18L454.86,115.02L455.99,118.08L456.37,112.91L456.75,116.63L457.51,116.1L457.88,114.8L459.02,117L459.78,117.75L460.53,113.4L461.67,118.61L462.05,117.77L462.42,115.76L462.8,117.74L463.56,115L464.7,112.6L465.07,120.07L466.21,118.96L466.59,121.02L467.34,113.75L468.48,120.28L469.99,113.59L470.37,115.2L470.75,116.33L471.13,115.07L471.51,114.07L471.89,117.41L472.64,119.52L473.02,110.8L473.78,115.17L474.53,112.31L475.67,115.44L476.8,114.38L477.18,117.09L477.94,116.39L478.32,117.89L478.7,114.11L479.07,120.36L479.45,118.39L479.83,114.88L480.97,118.73L481.35,116.6L482.48,113.94L482.86,116.06L483.24,109.24L483.62,116.83L483.99,113.37L484.37,114.56L485.13,115.87L486.26,115.23L486.64,110.89L487.4,115.45L488.16,112.91L488.54,119.26L488.91,117.55L489.29,117.17L490.05,118.3L490.43,112.54L492.32,115L492.7,114.13L493.45,120.05L493.83,113.95L494.21,117.02L494.59,116.29L495.73,116.69L496.1,111.19L496.48,114.81L496.86,118.59L497.24,116.35L497.62,117.17L498.75,117.07L499.13,113L499.51,115.96L499.89,115.82L500.27,115.06L500.64,115.4L501.02,116.77L501.4,119.77L501.78,111.76L502.54,115.29L502.92,121.54L503.29,117.03L504.43,116.31L505.19,115.8L506.32,117.03L507.46,115.15L507.83,115.53L508.59,115.19L508.97,115.07L509.73,113.07L510.11,113.04L510.48,118.15L511.62,114.6L512,115.95L512.38,110.76L512.75,117.38L513.13,117.58L513.51,116.65L514.65,117.99L515.4,119.75L515.78,113.12L516.16,117.4L516.54,114.93L516.92,114.37L517.3,116.41L517.67,109.62L519.19,120.13L519.94,110.04L520.32,113.74L520.7,114.46L521.84,113.51L522.21,116.14L522.59,118.54L524.11,120.65L525.24,114.79L526,118.93L527.13,111.82L527.51,115.62L528.27,118.61L528.65,109.53L529.4,116.5L529.78,111.5L530.54,111.99L530.92,116.3L531.3,121.83L531.67,115.86L532.43,119.18L532.81,115.13L533.57,119.07L534.7,114.09L535.46,113.99L535.84,118.98L536.22,118.22L536.97,109.19L538.11,116.81L539.24,119.3L540,115.05"/></g><g class="points"/><g class="text"/></g><g class="trace scatter traced1d1b8" style="stroke-miterlimit: 2; opacity: 1;"><g class="fills"/><g class="errorbars"/><g class="lines"><path class="js-line" style="vector-effect: none; fill: none; stroke: rgb(0, 150, 136); stroke-opacity: 1; stroke-width: 2px; opacity: 1;" d="M0,-184.91L1.89,-38.9L2.27,42.91L2.65,-78.28L3.03,28.49L3.41,87.93L3.78,115.42L4.16,17.41L4.54,41.09L4.92,0.09L5.68,117.6L6.05,96.83L6.43,157.54L7.57,187.59L7.95,195.18L10.22,209.08L10.6,209.44L10.97,207.84L11.35,214.24L12.11,202.13L12.49,213.69L13.24,214.88L13.62,212.6L14.38,216.57L14.76,215.59L15.14,213.39L15.52,216.22L15.89,218.39L16.27,218.05L16.65,203.1L17.03,150.61L17.41,203.55L18.92,215.06L19.3,215.45L20.81,218.1L21.19,215.54L21.57,219.52L21.95,216.86L22.33,218.84L23.08,200.43L23.46,217.9L24.22,218.57L24.6,220.26L25.73,222.38L26.11,221.9L27.25,221.78L27.62,223.14L28,223.58L28.38,222.38L28.76,221.16L29.14,222.34L29.52,224.37L29.89,220.05L30.27,222.27L30.65,223.76L31.03,222.91L31.41,223.77L31.79,223.25L32.54,224.14L32.92,223.62L33.3,222.82L33.68,223.76L34.06,223.59L34.44,223.25L35.19,224.5L35.57,222.78L35.95,224.96L36.33,223.7L36.71,224.73L37.46,194.05L37.84,221.54L39.36,224.51L39.73,223.33L40.87,224.81L41.25,225.27L42,226.47L42.38,225.78L42.76,225.1L43.14,226.88L43.52,224.19L44.27,225.42L44.65,225.14L45.41,224.74L45.79,226.17L46.17,225.85L46.55,224.49L47.68,226.51L48.06,226.87L48.44,225.62L48.82,227.1L49.95,226.7L50.33,226.97L51.09,227.95L51.46,228.8L51.84,229L52.22,227.82L53.74,230.38L54.11,230.18L55.25,230.39L55.63,230.42L56.01,230.75L56.38,230.02L57.14,230.52L57.52,229.58L58.28,231.57L58.65,230.87L59.03,231.2L59.41,230.36L59.79,230.71L60.17,231.18L61.3,230.58L61.68,231.59L62.06,230.41L62.44,231.24L62.82,231.16L63.57,230.67L63.95,230.34L65.09,232.05L65.47,196.71L66.6,228.72L66.98,229.42L68.11,231.2L68.49,230.79L69.25,232.62L69.63,232.44L70.01,232.24L71.14,232.78L71.52,232.4L71.9,232.33L72.28,233.04L73.41,232.32L73.79,233.24L74.17,231.6L74.55,232.97L74.93,232.65L76.06,233.28L76.44,233.1L76.82,232.61L77.2,233.4L80.22,233.49L80.6,233.22L81.36,232.92L81.74,233.46L82.12,233.83L82.49,233.42L82.87,233.09L83.63,233.25L84.01,233.2L85.14,233.79L85.52,232.94L87.04,233.52L87.41,232.87L88.55,233.23L88.93,232.88L89.31,233.93L89.68,233.62L90.06,233.77L90.82,234.07L91.2,233.51L91.58,234.22L91.96,233.91L92.33,233.66L92.71,234L93.09,233.53L93.47,233.62L97.63,233.94L98.01,233.19L99.15,234.38L99.52,233.9L99.9,233.48L100.28,234.39L101.42,234.03L101.79,234.41L103.31,234.66L103.69,234.03L105.96,234.44L106.33,233.99L106.71,234.68L107.09,234.37L107.47,234.45L111.25,234.12L111.63,233.66L112.77,234.2L113.15,234.27L113.52,234.69L113.9,234.2L114.28,234.21L116.55,234.21L116.93,233.36L118.44,235.1L118.82,234.65L119.2,234.17L119.58,234.48L119.96,234.74L121.09,234.39L121.47,234.54L122.61,234.4L122.99,234.75L124.12,234.4L124.5,234.6L126.39,234.62L126.77,234.43L128.66,234.79L129.04,234.13L130.55,234.79L130.93,234.62L132.45,234.85L132.82,234.83L134.34,234.7L134.72,234.65L141.91,234.59L142.28,234.21L143.04,235.18L143.42,234.28L144.18,234.77L144.56,234.47L146.07,234.99L146.45,234.69L147.96,234.96L148.34,234.51L149.1,235.04L149.47,234.84L150.61,234.91L150.99,235.01L152.88,234.74L153.26,234.94L154.77,234.47L155.15,234.98L156.29,234.8L156.66,234.99L157.8,234.55L158.18,234.88L161.58,234.93L161.96,235.21L163.85,234.8L164.23,235.13L167.26,234.8L167.64,234.24L168.77,234.92L169.15,235.01L171.42,234.71L171.8,234.83L173.31,235.24L173.69,234.99L174.83,235.07L175.21,235.14L175.96,234.41L176.34,234.73L176.72,235.09L178.23,234.86L178.61,234.95L182.02,234.53L182.4,235.03L183.53,234.84L183.91,234.31L185.05,234.8L185.42,234.64L185.8,234.2L186.18,234.92L186.94,234.98L187.32,235.46L188.45,234.71L188.83,234.81L190.72,234.95L191.1,234.51L193.75,234.96L194.13,234.66L194.88,234.85L195.26,234.73L196.78,234.57L197.15,234.77L197.53,235.22L197.91,234.71L198.29,234.88L199.43,234.91L199.8,234.96L202.45,234.87L202.83,234.52L203.97,234.94L204.34,234.91L206.99,234.85L207.37,234.38L208.13,234.95L208.51,234.44L209.64,235.29L210.02,234.84L211.53,235.08L211.91,235.17L213.43,234.67L213.81,235.12L215.32,234.9L215.7,235.01L216.83,234.76L217.21,235.15L219.48,234.58L219.86,235L222.13,234.98L222.51,234.84L222.89,234.28L223.27,234.9L223.64,234.71L225.16,234.82L225.54,235.01L227.05,234.67L227.43,234.97L229.7,234.89L230.08,234.87L230.83,234.67L231.21,234.9L231.97,234.94L232.35,234.4L232.73,235.28L233.1,234.88L233.48,234.7L236.89,234.73L237.27,234.63L249,234.7L249.38,235.26L251.27,234.85L251.65,235.26L252.4,234.48L252.78,234.74L255.05,234.77L255.43,234.75L257.32,235.03L257.7,235.18L259.22,234.65L259.59,235.12L260.73,234.74L261.11,234.89L261.49,234.2L261.86,234.68L262.24,234.51L263.76,235.03L264.13,234.69L269.43,234.69L269.81,234.52L270.95,235.24L271.32,234.98L274.73,234.7L275.11,235.05L277,234.88L277.38,234.5L278.51,234.88L278.89,234.74L279.27,235.14L279.65,234.63L280.03,234.67L285.33,234.87L285.7,234.54L287.22,234.68L287.6,234.04L287.97,235.02L288.35,234.8L288.73,234.82L291.76,234.83L292.14,235.05L292.89,234.66L293.27,234.61L295.16,234.99L295.54,234.76L304.25,234.8L304.63,234.28L306.52,235.05L306.9,234.69L310.3,235.06L310.68,234.9L311.81,234.9L312.19,234.87L321.28,234.46L321.65,235.14L322.03,234.33L322.41,235.25L322.79,234.88L323.92,234.87L324.3,234.79L326.57,234.77L326.95,234.95L328.47,234.86L328.84,234.88L329.22,235.35L329.6,234.72L329.98,235.04L330.74,235.08L331.11,234.08L332.25,235.09L332.63,234.69L334.14,235.15L334.52,234.89L336.03,234.9L336.41,234.77L339.06,234.9L339.44,234.68L341.71,234.77L342.09,234.65L343.98,234.93L344.36,234.71L344.74,235.19L345.12,234.75L345.49,234.87L351.55,235.43L351.93,234.69L354.95,234.98L355.33,234.66L356.85,235.11L357.22,234.32L358.74,234.87L359.12,234.53L359.5,235.18L359.87,234.91L360.25,234.72L362.14,234.82L362.52,234.49L363.28,235.42L363.66,234.53L365.93,235.06L366.31,234.92L371.23,234.59L371.6,235.12L372.74,234.82L373.12,234.75L375.39,234.64L375.77,234.44L376.52,234.79"/></g><g class="points"/><g class="text"/></g></g></g><g class="overplot"/><path class="xlines-above crisp" style="fill: none; stroke-width: 1px; stroke: rgb(68, 68, 68); stroke-opacity: 1;" d="M79,370.5H620"/><path class="ylines-above crisp" style="fill: none; stroke-width: 1px; stroke: rgb(68, 68, 68); stroke-opacity: 1;" d="M79.5,100V370"/><g class="overlines-above"/><g class="xaxislayer-above"><path class="xtick ticks crisp" style="stroke: rgb(68, 68, 68); stroke-opacity: 1; stroke-width: 1px;" d="M0,371v5" transform="translate(80,0)"/><path class="xtick ticks crisp" style="stroke: rgb(68, 68, 68); stroke-opacity: 1; stroke-width: 1px;" d="M0,371v5" transform="translate(155.68,0)"/><path class="xtick ticks crisp" style="stroke: rgb(68, 68, 68); stroke-opacity: 1; stroke-width: 1px;" d="M0,371v5" transform="translate(231.37,0)"/><path class="xtick ticks crisp" style="stroke: rgb(68, 68, 68); stroke-opacity: 1; stroke-width: 1px;" d="M0,371v5" transform="translate(307.05,0)"/><path class="xtick ticks crisp" style="stroke: rgb(68, 68, 68); stroke-opacity: 1; stroke-width: 1px;" d="M0,371v5" transform="translate(382.73,0)"/><path class="xtick ticks crisp" style="stroke: rgb(68, 68, 68); stroke-opacity: 1; stroke-width: 1px;" d="M0,371v5" transform="translate(458.42,0)"/><path class="xtick ticks crisp" style="stroke: rgb(68, 68, 68); stroke-opacity: 1; stroke-width: 1px;" d="M0,371v5" transform="translate(534.1,0)"/><path class="xtick ticks crisp" style="stroke: rgb(68, 68, 68); stroke-opacity: 1; stroke-width: 1px;" d="M0,371v5" transform="translate(609.78,0)"/><g class="xtick"><text text-anchor="middle" x="0" y="390.4" style="font-family: TOBESTRIPPEDOpen SansTOBESTRIPPED, verdana, arial, sans-serif; font-size: 12px; fill: rgb(68, 68, 68); fill-opacity: 1; white-space: pre; opacity: 1;" transform="translate(80,0)">0</text></g><g class="xtick"><text text-anchor="middle" x="0" y="390.4" style="font-family: TOBESTRIPPEDOpen SansTOBESTRIPPED, verdana, arial, sans-serif; font-size: 12px; fill: rgb(68, 68, 68); fill-opacity: 1; white-space: pre; opacity: 1;" transform="translate(155.68,0)">200</text></g><g class="xtick"><text text-anchor="middle" x="0" y="390.4" style="font-family: TOBESTRIPPEDOpen SansTOBESTRIPPED, verdana, arial, sans-serif; font-size: 12px; fill: rgb(68, 68, 68); fill-opacity: 1; white-space: pre; opacity: 1;" transform="translate(231.37,0)">400</text></g><g class="xtick"><text text-anchor="middle" x="0" y="390.4" style="font-family: TOBESTRIPPEDOpen SansTOBESTRIPPED, verdana, arial, sans-serif; font-size: 12px; fill: rgb(68, 68, 68); fill-opacity: 1; white-space: pre; opacity: 1;" transform="translate(307.05,0)">600</text></g><g class="xtick"><text text-anchor="middle" x="0" y="390.4" style="font-family: TOBESTRIPPEDOpen SansTOBESTRIPPED, verdana, arial, sans-serif; font-size: 12px; fill: rgb(68, 68, 68); fill-opacity: 1; white-space: pre; opacity: 1;" transform="translate(382.73,0)">800</text></g><g class="xtick"><text text-anchor="middle" x="0" y="390.4" style="font-family: TOBESTRIPPEDOpen SansTOBESTRIPPED, verdana, arial, sans-serif; font-size: 12px; fill: rgb(68, 68, 68); fill-opacity: 1; white-space: pre; opacity: 1;" transform="translate(458.42,0)">1000</text></g><g class="xtick"><text text-anchor="middle" x="0" y="390.4" style="font-family: TOBESTRIPPEDOpen SansTOBESTRIPPED, verdana, arial, sans-serif; font-size: 12px; fill: rgb(68, 68, 68); fill-opacity: 1; white-space: pre; opacity: 1;" transform="translate(534.1,0)">1200</text></g><g class="xtick"><text text-anchor="middle" x="0" y="390.4" style="font-family: TOBESTRIPPEDOpen SansTOBESTRIPPED, verdana, arial, sans-serif; font-size: 12px; fill: rgb(68, 68, 68); fill-opacity: 1; white-space: pre; opacity: 1;" transform="translate(609.78,0)">1400</text></g></g><g class="yaxislayer-above"><path class="ytick ticks crisp" style="stroke: rgb(68, 68, 68); stroke-opacity: 1; stroke-width: 1px;" d="M79,0h-5" transform="translate(0,309.96000000000004)"/><path class="ytick ticks crisp" style="stroke: rgb(68, 68, 68); stroke-opacity: 1; stroke-width: 1px;" d="M79,0h-5" transform="translate(0,247.01)"/><path class="ytick ticks crisp" style="stroke: rgb(68, 68, 68); stroke-opacity: 1; stroke-width: 1px;" d="M79,0h-5" transform="translate(0,184.05)"/><path class="ytick ticks crisp" style="stroke: rgb(68, 68, 68); stroke-opacity: 1; stroke-width: 1px;" d="M79,0h-5" transform="translate(0,121.09)"/><g class="ytick"><text text-anchor="end" x="71.6" y="4.199999999999999" style="font-family: TOBESTRIPPEDOpen SansTOBESTRIPPED, verdana, arial, sans-serif; font-size: 12px; fill: rgb(68, 68, 68); fill-opacity: 1; white-space: pre; opacity: 1;" transform="translate(0,309.96000000000004)">0.05</text></g><g class="ytick"><text text-anchor="end" x="71.6" y="4.199999999999999" style="font-family: TOBESTRIPPEDOpen SansTOBESTRIPPED, verdana, arial, sans-serif; font-size: 12px; fill: rgb(68, 68, 68); fill-opacity: 1; white-space: pre; opacity: 1;" transform="translate(0,247.01)">0.1</text></g><g class="ytick"><text text-anchor="end" x="71.6" y="4.199999999999999" style="font-family: TOBESTRIPPEDOpen SansTOBESTRIPPED, verdana, arial, sans-serif; font-size: 12px; fill: rgb(68, 68, 68); fill-opacity: 1; white-space: pre; opacity: 1;" transform="translate(0,184.05)">0.15</text></g><g class="ytick"><text text-anchor="end" x="71.6" y="4.199999999999999" style="font-family: TOBESTRIPPEDOpen SansTOBESTRIPPED, verdana, arial, sans-serif; font-size: 12px; fill: rgb(68, 68, 68); fill-opacity: 1; white-space: pre; opacity: 1;" transform="translate(0,121.09)">0.2</text></g></g><g class="overaxes-above"/></g></g><g class="polarlayer"/><g class="smithlayer"/><g class="ternarylayer"/><g class="geolayer"/><g class="funnelarealayer"/><g class="pielayer"/><g class="iciclelayer"/><g class="treemaplayer"/><g class="sunburstlayer"/><g class="glimages"/><defs id="topdefs-145afe"><g class="clips"/><clipPath id="legend145afe"><rect width="96" height="67" x="0" y="0"/></clipPath></defs><g class="layer-above"><g class="imagelayer"/><g class="shapelayer"/></g><g class="infolayer"><g class="legend" pointer-events="all" transform="translate(479.70756302521005,110.00000000000001)"><rect class="bg" shape-rendering="crispEdges" style="stroke: rgb(68, 68, 68); stroke-opacity: 1; fill: rgb(255, 255, 255); fill-opacity: 1; stroke-width: 0px;" width="96" height="67" x="0" y="0"/><g class="scrollbox" transform="" clip-path="url(#legend145afe)"><g class="groups"><g class="traces" style="opacity: 1;" transform="translate(0,14.5)"><text class="legendtext" text-anchor="start" style="font-family: TOBESTRIPPEDOpen SansTOBESTRIPPED, verdana, arial, sans-serif; font-size: 12px; fill: rgb(68, 68, 68); fill-opacity: 1; white-space: pre;" x="40" y="4.680000000000001">LSTM32</text><g class="layers" style="opacity: 1;"><g class="legendfill"/><g class="legendlines"><path class="js-line" d="M5,0h30" style="fill: none; stroke: rgb(156, 39, 176); stroke-opacity: 1; stroke-width: 2px;"/></g><g class="legendsymbols"><g class="legendpoints"/></g></g><rect class="legendtoggle" style="fill: rgb(0, 0, 0); fill-opacity: 0;" x="0" y="-9.5" width="90.06666564941406" height="19"/></g><g class="traces" style="opacity: 1;" transform="translate(0,33.5)"><text class="legendtext" text-anchor="start" style="font-family: TOBESTRIPPEDOpen SansTOBESTRIPPED, verdana, arial, sans-serif; font-size: 12px; fill: rgb(68, 68, 68); fill-opacity: 1; white-space: pre;" x="40" y="4.680000000000001">Conv1D</text><g class="layers" style="opacity: 1;"><g class="legendfill"/><g class="legendlines"><path class="js-line" d="M5,0h30" style="fill: none; stroke: rgb(33, 150, 243); stroke-opacity: 1; stroke-width: 2px;"/></g><g class="legendsymbols"><g class="legendpoints"/></g></g><rect class="legendtoggle" style="fill: rgb(0, 0, 0); fill-opacity: 0;" x="0" y="-9.5" width="90.06666564941406" height="19"/></g><g class="traces" style="opacity: 1;" transform="translate(0,52.5)"><text class="legendtext" text-anchor="start" style="font-family: TOBESTRIPPEDOpen SansTOBESTRIPPED, verdana, arial, sans-serif; font-size: 12px; fill: rgb(68, 68, 68); fill-opacity: 1; white-space: pre;" x="40" y="4.680000000000001">LSTM16</text><g class="layers" style="opacity: 1;"><g class="legendfill"/><g class="legendlines"><path class="js-line" d="M5,0h30" style="fill: none; stroke: rgb(0, 150, 136); stroke-opacity: 1; stroke-width: 2px;"/></g><g class="legendsymbols"><g class="legendpoints"/></g></g><rect class="legendtoggle" style="fill: rgb(0, 0, 0); fill-opacity: 0;" x="0" y="-9.5" width="90.06666564941406" height="19"/></g></g></g><rect class="scrollbar" rx="20" ry="3" width="0" height="0" style="fill: rgb(128, 139, 164); fill-opacity: 1;" x="0" y="0"/></g><g class="g-gtitle"><text class="gtitle" style="font-family: TOBESTRIPPEDOpen SansTOBESTRIPPED, verdana, arial, sans-serif; font-size: 17px; fill: rgb(68, 68, 68); opacity: 1; font-weight: normal; white-space: pre;" x="350" y="50" text-anchor="middle" dy="0em">Model comparison: LPF</text></g><g class="g-xtitle"><text class="xtitle" style="font-family: TOBESTRIPPEDOpen SansTOBESTRIPPED, verdana, arial, sans-serif; font-size: 14px; fill: rgb(68, 68, 68); opacity: 1; font-weight: normal; white-space: pre;" x="350" y="422" text-anchor="middle">Epochs</text></g><g class="g-ytitle" transform="translate(-4.2666015625,0)"><text class="ytitle" transform="rotate(-90,42,235)" style="font-family: TOBESTRIPPEDOpen SansTOBESTRIPPED, verdana, arial, sans-serif; font-size: 14px; fill: rgb(68, 68, 68); opacity: 1; font-weight: normal; white-space: pre;" x="42" y="235" text-anchor="middle">Training loss</text></g></g></svg>