<svg class="main-svg" xmlns="http://www.w3.org/2000/svg" xmlns:xlink="http://www.w3.org/1999/xlink" width="700" height="450" style="" viewBox="0 0 700 450"><rect x="0" y="0" width="700" height="450" style="fill: rgb(255, 255, 255); fill-opacity: 1;"/><defs id="defs-09d7c9"><g class="clips"><clipPath id="clip09d7c9xyplot" class="plotclip"><rect width="540" height="270"/></clipPath><clipPath class="axesclip" id="clip09d7c9x"><rect x="80" y="0" width="540" height="450"/></clipPath><clipPath class="axesclip" id="clip09d7c9y"><rect x="0" y="100" width="700" height="270"/></clipPath><clipPath class="axesclip" id="clip09d7c9xy"><rect x="80" y="100" width="540" height="270"/></clipPath></g><g class="gradients"/><g class="patterns"/></defs><g class="bglayer"/><g class="layer-below"><g class="imagelayer"/><g class="shapelayer"/></g><g class="cartesianlayer"><g class="subplot xy"><g class="layer-subplot"><g class="shapelayer"/><g class="imagelayer"/></g><g class="minor-gridlayer"><g class="x"/><g class="y"/></g><g class="gridlayer"><g class="x"><path class="xgrid crisp" transform="translate(197.14,0)" d="M0,100v270" style="stroke: rgb(238, 238, 238); stroke-opacity: 1; stroke-width: 1px;"/><path class="xgrid crisp" transform="translate(314.27,0)" d="M0,100v270" style="stroke: rgb(238, 238, 238); stroke-opacity: 1; stroke-width: 1px;"/><path class="xgrid crisp" transform="translate(431.41,0)" d="M0,100v270" style="stroke: rgb(238, 238, 238); stroke-opacity: 1; stroke-width: 1px;"/><path class="xgrid crisp" transform="translate(548.55,0)" d="M0,100v270" style="stroke: rgb(238, 238, 238); stroke-opacity: 1; stroke-width: 1px;"/></g><g class="y"><path class="ygrid crisp" transform="translate(0,355)" d="M80,0h540" style="stroke: rgb(238, 238, 238); stroke-opacity: 1; stroke-width: 1px;"/><path class="ygrid crisp" transform="translate(0,310.86)" d="M80,0h540" style="stroke: rgb(238, 238, 238); stroke-opacity: 1; stroke-width: 1px;"/><path class="ygrid crisp" transform="translate(0,266.72)" d="M80,0h540" style="stroke: rgb(238, 238, 238); stroke-opacity: 1; stroke-width: 1px;"/><path class="ygrid crisp" transform="translate(0,222.57999999999998)" d="M80,0h540" style="stroke: rgb(238, 238, 238); stroke-opacity: 1; stroke-width: 1px;"/><path class="ygrid crisp" transform="translate(0,178.44)" d="M80,0h540" style="stroke: rgb(238, 238, 238); stroke-opacity: 1; stroke-width: 1px;"/><path class="ygrid crisp" transform="translate(0,134.3)" d="M80,0h540" style="stroke: rgb(238, 238, 238); stroke-opacity: 1; stroke-width: 1px;"/></g></g><g class="zerolinelayer"/><path class="xlines-below"/><path class="ylines-below"/><g class="overlines-below"/><g class="xaxislayer-below"/><g class="yaxislayer-below"/><g class="overaxes-below"/><g class="plot" transform="translate(80,100)" clip-path="url(#clip09d7c9xyplot)"><g class="scatterlayer mlayer"><g class="trace scatter trace4b861d" style="stroke-miterlimit: 2; opacity: 1;"><g class="fills"/><g class="errorbars"/><g class="lines"><path class="js-line" style="vector-effect: none; fill: none; stroke: rgb(156, 39, 176); stroke-opacity: 1; stroke-width: 2px; opacity: 1;" d="M0,215.81L1.17,227.13L1.76,226.27L2.93,227.18L3.51,227.79L4.1,227.42L4.69,-3203.8L5.86,226.68L6.44,226.08L7.03,227.21L7.61,226.09L8.2,227.64L8.79,213.86L9.37,214.49L9.96,227.33L11.13,228.54L11.71,228.38L12.3,55.28L12.89,204.83L14.06,227.88L14.64,228.61L15.23,229.21L15.81,228.44L16.98,228.64L17.57,227.77L18.74,228.23L19.33,226.73L19.91,226.98L20.5,229.04L21.67,228.67L22.26,229.01L23.43,227.11L24.01,225.02L24.6,-600.94L25.18,165.23L27.53,222.4L28.11,225.38L29.28,228.3L29.87,227.88L32.21,229.22L32.8,229.16L33.38,227.82L33.97,229.31L34.56,224.69L35.14,228.14L35.73,229.35L36.31,229.03L36.9,229.41L38.07,228.81L38.66,228.68L39.24,228.42L39.83,229.13L40.41,227.78L41,229.21L41.58,228.8L42.17,229.44L43.34,228.44L43.93,229.42L45.1,229.25L45.68,229.64L46.27,227.44L46.85,230.22L48.03,228.29L48.61,229.3L50.37,228.93L50.95,227.01L51.54,229.89L52.13,228.53L52.71,229.35L53.3,225.01L54.47,229.33L55.05,223.94L55.64,227.58L56.23,223.44L56.81,229.32L57.4,228.6L57.98,229.43L60.33,229.16L60.91,219.6L61.5,229.4L62.08,228.83L62.67,229.17L67.94,229.88L68.52,228.71L70.87,229.82L71.45,229.11L72.04,229.14L72.62,227.9L73.21,229.54L73.8,229.11L74.38,229.64L76.72,224.98L77.31,229.72L79.65,229.75L80.24,228.75L80.82,229.64L81.41,229.1L82,225.59L82.58,228.79L83.17,224.41L83.75,229.5L84.34,223.54L84.92,228.36L85.51,229.15L86.1,228.31L86.68,223.85L87.27,227.43L88.44,229.78L89.02,229.12L90.78,230.02L91.37,228.84L93.12,229.4L93.71,228.99L96.64,229.23L97.22,229.69L98.39,229.51L98.98,222.37L99.57,229.17L100.15,228.51L100.74,229.16L101.32,229.68L101.91,228.77L103.67,229.55L104.25,228.93L104.84,228.22L105.42,229.33L106.01,228.92L106.59,229.73L108.35,229.59L108.94,227.54L110.11,229.07L110.69,217.87L111.28,227.86L111.87,226.85L112.45,229.55L113.04,229.07L113.62,225.62L114.79,229.3L115.38,229.48L115.97,229.17L116.55,224.21L117.14,222L117.72,229.59L118.89,228.63L119.48,229.46L120.07,228.9L120.65,225.06L121.24,215.37L121.82,229.5L123.58,229.31L124.16,228.93L125.92,229.34L126.51,223.27L127.68,228.97L128.26,229.83L129.44,229.02L130.02,229.24L130.61,229.65L131.19,229.11L131.78,228.63L132.36,229.87L134.12,229.25L134.71,219.46L135.88,229.38L136.46,229.36L137.05,224.74L137.64,225.14L138.22,228.98L138.81,229.94L139.39,224.4L139.98,229.37L140.56,229.28L141.15,226.26L142.32,229.37L142.91,229.31L143.49,229.2L144.08,229.92L144.66,229.48L145.25,229.99L145.84,222.69L146.42,229.83L147.59,228.66L148.18,229.78L149.35,229.01L149.93,227.18L150.52,229.85L151.11,228.98L152.28,229.23L152.86,228.44L153.45,229.56L154.03,229.22L154.62,229.57L155.21,229.7L155.79,228.78L156.96,229.5L157.55,228.98L158.13,229.98L158.72,223.97L159.89,229.37L160.48,229.14L161.65,229.74L162.23,228.17L162.82,226.72L163.41,229.08L164.58,229.06L165.16,229.55L165.75,228.97L166.33,216.55L167.51,229.24L168.09,229.43L168.68,226.54L169.26,229.35L171.02,228.68L171.61,229.52L172.19,228.19L172.78,229.28L173.95,229.69L174.53,228.94L176.88,229.88L177.46,229.54L178.63,228.41L179.22,224.45L179.8,229.72L180.39,227.77L181.56,229.36L182.15,229.24L182.73,229.52L183.32,226.6L184.49,229.45L185.08,228.82L186.25,229.42L186.83,226.56L187.42,229.53L188,229.35L188.59,228.29L189.18,229.86L189.76,229.26L190.93,228.88L191.52,210.91L192.69,229.59L193.28,227.95L194.45,229.75L195.03,229.06L195.62,229.74L196.2,228.94L196.79,229.75L197.38,229.26L197.96,229.64L198.55,228.38L199.13,227.71L199.72,229.73L200.3,227.9L200.89,218.02L202.06,228.71L202.65,224.84L203.23,230.1L203.82,229.02L204.4,229.56L205.57,229.14L206.16,228.99L208.5,229.04L209.09,217.96L209.67,226.2L210.26,226.15L210.85,229.56L211.43,229.44L212.02,224.9L212.6,229.16L213.19,228.96L213.77,229.43L214.36,228.45L214.95,229.31L216.12,227.09L216.7,229.52L217.29,229.62L217.87,226.78L219.05,229.46L219.63,223.17L220.8,229.29L221.39,226.78L222.56,230.01L223.15,228.79L223.73,229.82L224.32,228.65L224.9,230.06L225.49,216.15L226.66,229.84L227.25,228.97L227.83,224.96L228.42,229.25L229,227.07L229.59,229.67L230.17,226.19L230.76,228.96L231.34,229.75L231.93,223.56L232.52,228.95L233.1,227.03L234.27,229.71L234.86,229.39L235.44,229.46L236.03,226.51L236.62,229.46L237.2,228.94L237.79,228.44L238.37,229.84L238.96,228.83L239.54,228.9L240.13,224.38L240.72,229.87L241.3,229.36L241.89,227.8L243.06,229.75L243.64,229.33L244.23,229.59L244.82,228.24L245.4,229.73L245.99,229.14L246.57,229.55L247.16,228.44L248.92,229.89L249.5,229.45L251.84,228.76L252.43,229.28L253.6,229.16L254.19,219.09L255.36,229.56L255.94,229.78L256.53,206.9L257.11,229.4L258.29,229.53L258.87,229.31L259.46,229.31L260.04,228.36L260.63,204.71L261.21,229.35L262.39,228.97L262.97,227.47L263.56,219.13L264.14,228.93L265.31,229.93L265.9,227.38L266.49,229.17L267.07,228.4L269.41,229.33L270,225.86L270.59,229.7L271.17,229.19L271.76,229.22L275.27,229.71L275.86,229.05L276.44,223.42L277.03,228.87L278.2,229.32L278.79,229.01L279.37,229.81L279.96,229.26L282.3,229.37L282.89,228.92L284.64,229.4L285.23,226.92L285.81,226.17L286.4,229.28L291.08,229.24L291.67,228.96L292.26,229.24L292.84,228.66L294.01,230.01L294.6,229.83L296.36,229.2L296.94,226.84L297.53,229.79L298.11,228.99L298.7,229.7L299.87,229.34L300.46,230.24L302.21,229.26L302.8,226.3L303.38,229.19L303.97,226.2L304.56,229.5L305.14,228.68L305.73,228.22L306.31,227.23L306.9,228.71L307.48,229.1L308.07,227.9L309.83,229.3L310.41,229.12L311,229.47L311.58,228.67L312.75,228.75L313.34,225.38L313.93,229.75L314.51,229.3L315.1,228.09L315.68,227.87L316.27,228.6L316.85,229.56L317.44,229.01L318.03,226.3L318.61,229.73L319.78,229.89L320.37,228.33L320.95,217.1L321.54,227.8L322.13,229.41L322.71,229.11L323.3,228.74L325.64,229.38L326.23,228.32L326.81,228.56L327.4,229.72L329.15,228.95L329.74,229.8L330.33,225.6L330.91,229.69L332.67,229.41L333.25,229.77L335.01,229.09L335.6,227.61L336.18,226.11L336.77,229.41L337.35,229.25L337.94,223.2L338.52,229.41L339.11,229.28L339.7,224.52L340.28,229.29L340.87,226.09L341.45,230.16L342.04,228.58L342.62,228.95L343.21,228.06L343.8,229.16L344.38,228.82L344.97,229.23L345.55,229.94L346.14,226.9L346.72,229.69L347.31,227.84L347.9,213.68L348.48,228.55L349.07,229.8L349.65,228.07L351.41,229.35L352,228.3L353.75,229.3L354.34,228.38L355.51,229.22L356.1,229.15L356.68,228.41L357.27,229.34L357.85,227.69L358.44,190.3L359.61,228.91L360.2,225.15L360.78,229.82L361.37,228.24L361.95,226.7L362.54,229.27L365.47,229.05L366.05,229.47L366.64,228.66L367.22,229.48L367.81,229.67L368.39,229L369.57,228.83L370.15,229.73L370.74,229.02L371.32,229.72L371.91,228.39L372.49,229.15L373.08,229.4L373.67,228.03L374.84,228.74L375.42,229.13L378.35,229.73L378.94,227.44L380.11,228.98L380.69,225.95L381.28,230.05L381.87,228.72L383.04,229.63L383.62,229.35L384.21,228.4L384.79,229.76L385.97,229.35L386.55,225.55L387.72,229.58L388.31,228.96L389.48,228.79L390.07,229.58L390.65,222.34L391.24,229.83L392.41,229.67L392.99,228.27L393.58,230.04L394.16,229.26L396.51,228.2L397.09,229.62L397.68,229.29L398.26,230.2L398.85,228.14L399.44,230.04L402.36,229.23L402.95,229.73L404.12,229.11L404.71,229.14L405.88,229.93L406.46,229.06L407.64,229.15L408.22,228.74L409.39,228.58L409.98,228.62L410.56,228.11L411.15,229.16L411.74,229.81L412.32,223.86L413.49,229.69L414.08,229.78L415.84,229.34L416.42,227.25L417.01,229.65L417.59,228.82L418.76,229.93L419.35,229.56L419.93,229.21L420.52,227.96L421.11,230.07L421.69,228.73L424.62,229.54L425.21,224.89L426.38,228.79L426.96,227.92L428.13,228.9L428.72,229.2L429.31,229.36L429.89,227.85L431.06,229.37L431.65,228.99L432.23,227.21L432.82,228.91L434.58,230.04L435.16,229.26L436.33,229.36L436.92,228.75L438.68,229.92L439.26,228.72L441.02,229.25L441.61,227.93L443.36,229.84L443.95,229.66L444.53,229.41L445.12,228.31L446.29,229.09L446.88,228.86L448.05,229.18L448.63,229.82L449.8,229.22L450.39,229.24L452.15,229.5L452.73,229.44L453.32,222.11L453.9,228.57L454.49,229.75L455.08,221.24L456.25,229.07L456.83,228.62L457.42,227.03L458,228.87L459.18,229.57L459.76,228.91L460.35,229.63L460.93,225.87L462.1,229.02L462.69,229.26L465.03,229.87L465.62,229.26L467.38,228.95L467.96,224.64L468.55,229.69L469.13,229.09L469.72,229.53L470.3,228.99L470.89,230.36L471.48,225.47L472.06,229.76L472.65,229.13L473.23,229.65L475.57,229.71L476.16,228.57L476.75,225.48L477.33,229.66L477.92,225.25L478.5,228.83L479.67,229.69L480.26,229.21L480.85,228.97L481.43,229.92L482.02,229.52L482.6,226.11L483.19,229.25L483.77,228.99L484.36,228.88L486.7,229.38L487.29,229.35L488.46,226.28L489.05,228.9L489.63,221.95L490.22,229.62L490.8,228.71L491.39,229.18L491.97,226.93L492.56,219.28L493.73,229.59L494.32,229.19L495.49,226.06L496.07,229.36L500.17,229.35L500.76,230.09L501.34,229.38L501.93,224.3L503.69,229.48L504.27,229.29L504.86,230.16L505.44,229.31L506.03,225.77L506.62,228.99L507.79,229.45L508.37,219.83L508.96,229.59L509.54,229.34L510.13,229.05L511.3,228.69L511.89,229.43L513.64,228.42L514.23,218.98L514.82,230L515.4,229.21L515.99,228.68L516.57,229.69L517.16,222.57L517.74,229.2L518.33,227.64L518.92,229.84L520.67,229.45L521.26,229.62L522.43,228.73L523.02,229.34L523.6,229.8L524.19,225.22L524.77,229.43L525.36,229.27L525.94,229.26L527.11,229.94L527.7,226.6L530.63,229.41L531.21,229.6L534.14,229.26L534.73,228.54L535.31,227.39L535.9,229.46L536.49,228.12L537.07,229.44L538.83,228.65L539.41,229.12L540,229.33"/></g><g class="points"/><g class="text"/></g><g class="trace scatter trace8922ae" style="stroke-miterlimit: 2; opacity: 1;"><g class="fills"/><g class="errorbars"/><g class="lines"><path class="js-line" style="vector-effect: none; fill: none; stroke: rgb(33, 150, 243); stroke-opacity: 1; stroke-width: 2px; opacity: 1;" d="M0,217.52L1.17,224.1L1.76,221.53L2.34,221.87L2.93,225.91L4.1,226.79L4.69,225.7L5.27,225.76L5.86,221.03L7.03,226.43L7.61,223.99L8.2,223.54L8.79,225.93L9.96,226.24L10.54,222.02L11.13,217.74L11.71,221.54L12.3,223.45L12.89,221.36L14.06,226.24L14.64,226.18L15.81,227.52L16.4,224.84L16.98,223.93L17.57,227.05L18.16,220.14L18.74,224.53L19.91,227.52L20.5,227.1L22.26,226.86L22.84,227.78L23.43,224.29L24.01,226.23L24.6,227.42L25.18,226.14L25.77,224.99L26.36,226.1L26.94,225.39L27.53,227.25L28.11,226.57L28.7,223.75L29.87,227.53L30.46,227.6L32.21,227.42L32.8,217.74L33.97,227.66L34.56,226.83L36.31,227.58L36.9,227.02L38.66,227.7L39.24,227.53L39.83,227.67L40.41,226.39L41,227.47L41.58,225.81L42.75,227.61L43.34,227.67L43.93,227.86L44.51,219.04L45.68,227.4L46.27,227.67L47.44,227.07L48.03,227.6L48.61,226.72L49.2,227.52L50.95,227.69L51.54,225.51L52.13,228.02L52.71,226.88L53.3,227.67L53.88,227.11L54.47,227.62L55.05,225.48L56.23,228L56.81,228.01L59.74,227.36L60.33,228.16L60.91,227.84L61.5,226.52L64.43,227.5L65.01,227.21L65.6,226.84L66.18,227.59L67.94,227.37L68.52,222.53L69.11,221.89L69.7,223.42L70.28,227.61L70.87,227.48L71.45,227.59L72.04,222.53L72.62,227.43L73.8,227.25L74.38,222.8L74.97,228.22L75.55,228.11L76.14,227.06L78.48,227.23L79.07,227.58L80.24,227.91L80.82,227.66L81.41,227.5L82,226.03L83.17,228.05L83.75,227.73L84.34,224.82L84.92,227.24L85.51,226.88L86.1,228.22L86.68,226.76L87.27,228.05L87.85,228.33L88.44,224.78L89.02,218.36L89.61,227.28L91.37,228.17L91.95,227.9L93.12,227.37L93.71,227.81L94.88,228.39L95.47,227.57L98.39,226.8L98.98,227.94L100.15,227.6L100.74,227.31L101.32,227.03L101.91,228.23L104.25,226.3L104.84,227.57L105.42,227.86L106.01,225.91L106.59,227.44L107.18,227.16L107.77,227.13L108.35,227.94L108.94,227.28L110.69,227.71L111.28,227.1L112.45,227.44L113.04,227.65L113.62,223.31L114.21,227.95L114.79,226.31L115.38,227.44L116.55,227.92L117.14,227.16L117.72,228.33L118.31,227.75L118.89,227.52L119.48,223.89L120.07,223.21L120.65,227.61L123.58,228.11L124.16,225.41L124.75,227.8L125.34,227.06L126.51,227.32L127.09,226.48L127.68,227.49L128.26,223.92L129.44,227.1L130.02,223.39L131.19,227.47L131.78,227.17L132.36,227.25L132.95,226.39L133.54,227.66L134.12,227.69L134.71,223.48L135.29,228.12L135.88,227.46L136.46,226.84L137.05,227.91L137.64,225.68L138.22,227.57L138.81,226.62L139.39,228.38L139.98,227.14L140.56,226.93L141.15,227.9L141.74,227.75L142.32,226.7L144.08,227.86L144.66,228.05L146.42,227.05L147.01,228.37L148.18,227.86L148.76,227.89L149.93,227.85L150.52,227.59L152.86,228.16L153.45,227.37L154.03,221.47L154.62,227.63L155.21,227.34L155.79,227.9L156.96,227.18L157.55,227.86L158.72,227.95L159.31,220.1L159.89,227.8L160.48,227.43L161.06,226.9L162.23,227.74L162.82,227.72L165.16,227.36L165.75,227.99L166.33,227.54L166.92,224.11L168.09,227.72L168.68,227.69L169.26,228.14L169.85,226.59L170.43,216.86L171.02,227.69L172.78,227.52L173.36,227.81L173.95,226.54L174.53,228.08L175.12,227.19L175.7,216.29L176.88,227.32L177.46,227.44L178.63,227.91L179.22,222.43L179.8,227.68L180.39,227.36L180.98,227.79L185.08,227.67L185.66,225.31L186.83,227.72L187.42,227.46L189.18,227.95L189.76,227.9L190.93,228.09L191.52,226.78L192.69,228.2L193.28,227.41L193.86,225.77L194.45,227.8L196.2,227.01L196.79,227.21L197.38,220.84L197.96,227.02L198.55,228.11L199.13,226.85L199.72,225.41L200.3,227.78L200.89,219.31L201.48,227.26L203.82,227.66L204.4,227.72L204.99,227.54L205.57,218.09L206.75,227.58L207.33,227.61L208.5,227.94L209.09,227.08L210.26,225.62L210.85,226.32L211.43,226.53L212.02,224.31L212.6,227.43L213.19,226.7L213.77,227.37L214.36,226.97L214.95,227.9L219.05,227.89L219.63,224.65L220.22,228.04L220.8,227.28L221.39,225.78L222.56,227.55L223.15,226.87L224.9,228.09L225.49,227.16L227.25,227.56L227.83,227.29L229,227.41L229.59,226.17L230.17,224.75L230.76,227.33L231.93,217.39L232.52,227.32L233.69,225.7L234.27,227.95L235.44,227.75L236.03,221.33L237.2,227.9L237.79,227.73L240.13,228.38L240.72,227.4L241.3,227.18L241.89,217.68L243.06,227.75L243.64,226.4L244.23,225.87L244.82,227.6L245.99,227.43L246.57,225.77L247.74,227.52L248.33,222.25L249.5,227.83L250.09,227.85L251.26,227.97L251.84,228.4L253.6,227.65L254.19,222.16L255.36,227.84L255.94,227.14L257.11,227.63L257.7,226.96L258.87,228.16L259.46,227.63L260.04,228.37L260.63,221L261.8,228.1L262.39,226.65L262.97,227.99L263.56,227.44L264.14,226.87L264.73,227.93L265.31,222.42L265.9,227.83L266.49,227.95L267.07,221.31L267.66,227.87L268.24,211.57L268.83,227.96L269.41,227.47L270,219.66L271.17,227.47L271.76,228.37L272.34,228.13L272.93,227.05L273.51,223.83L274.1,227.77L275.86,227.66L276.44,225.24L277.03,227.99L277.61,224.58L278.79,228.14L279.37,228.05L281.71,227.95L282.3,227.5L282.89,222.14L283.47,226.01L285.23,228.19L285.81,226.87L286.98,227.61L287.57,227.38L288.16,227.14L288.74,216.55L289.91,227.98L290.5,228.15L291.67,227.36L292.26,228.07L294.01,224.63L294.6,227.84L295.18,228.41L295.77,210.32L296.94,227.74L297.53,226.91L298.11,227.36L298.7,220.54L299.87,227.03L300.46,222.42L301.63,227.58L302.21,227.81L302.8,225.78L303.38,227.75L304.56,227.29L305.14,227.8L306.9,227.87L307.48,227.72L308.07,224.97L308.66,228.45L309.24,226.72L309.83,227.65L311,227.74L311.58,227.9L312.17,225.36L312.75,227.91L313.34,227.47L313.93,228.31L315.68,227.28L316.27,227.98L318.03,227.67L318.61,226.54L319.78,227.57L320.37,227.78L320.95,227.45L321.54,228.3L322.13,226.91L322.71,227.55L323.3,227.1L323.88,208.4L325.05,228.13L325.64,227.81L326.23,228.02L326.81,226.89L327.4,225.27L327.98,227.31L328.57,227.3L329.15,220.95L329.74,227.51L330.33,225.99L330.91,227.54L331.5,227.07L332.08,227.61L332.67,197.84L333.25,228.28L333.84,225.95L334.43,227.77L335.01,226.82L335.6,227.64L336.18,227.19"/></g><g class="points"/><g class="text"/></g></g></g><g class="overplot"/><path class="xlines-above crisp" style="fill: none; stroke-width: 1px; stroke: rgb(68, 68, 68); stroke-opacity: 1;" d="M79,370.5H620"/><path class="ylines-above crisp" style="fill: none; stroke-width: 1px; stroke: rgb(68, 68, 68); stroke-opacity: 1;" d="M79.5,100V370"/><g class="overlines-above"/><g class="xaxislayer-above"><path class="xtick ticks crisp" style="stroke: rgb(68, 68, 68); stroke-opacity: 1; stroke-width: 1px;" d="M0,371v5" transform="translate(80,0)"/><path class="xtick ticks crisp" style="stroke: rgb(68, 68, 68); stroke-opacity: 1; stroke-width: 1px;" d="M0,371v5" transform="translate(197.14,0)"/><path class="xtick ticks crisp" style="stroke: rgb(68, 68, 68); stroke-opacity: 1; stroke-width: 1px;" d="M0,371v5" transform="translate(314.27,0)"/><path class="xtick ticks crisp" style="stroke: rgb(68, 68, 68); stroke-opacity: 1; stroke-width: 1px;" d="M0,371v5" transform="translate(431.41,0)"/><path class="xtick ticks crisp" style="stroke: rgb(68, 68, 68); stroke-opacity: 1; stroke-width: 1px;" d="M0,371v5" transform="translate(548.55,0)"/><g class="xtick"><text text-anchor="middle" x="0" y="390.4" style="font-family: TOBESTRIPPEDOpen SansTOBESTRIPPED, verdana, arial, sans-serif; font-size: 12px; fill: rgb(68, 68, 68); fill-opacity: 1; white-space: pre; opacity: 1;" transform="translate(80,0)">0</text></g><g class="xtick"><text text-anchor="middle" x="0" y="390.4" style="font-family: TOBESTRIPPEDOpen SansTOBESTRIPPED, verdana, arial, sans-serif; font-size: 12px; fill: rgb(68, 68, 68); fill-opacity: 1; white-space: pre; opacity: 1;" transform="translate(197.14,0)">200</text></g><g class="xtick"><text text-anchor="middle" x="0" y="390.4" style="font-family: TOBESTRIPPEDOpen SansTOBESTRIPPED, verdana, arial, sans-serif; font-size: 12px; fill: rgb(68, 68, 68); fill-opacity: 1; white-space: pre; opacity: 1;" transform="translate(314.27,0)">400</text></g><g class="xtick"><text text-anchor="middle" x="0" y="390.4" style="font-family: TOBESTRIPPEDOpen SansTOBESTRIPPED, verdana, arial, sans-serif; font-size: 12px; fill: rgb(68, 68, 68); fill-opacity: 1; white-space: pre; opacity: 1;" transform="translate(431.41,0)">600</text></g><g class="xtick"><text text-anchor="middle" x="0" y="390.4" style="font-family: TOBESTRIPPEDOpen SansTOBESTRIPPED, verdana, arial, sans-serif; font-size: 12px; fill: rgb(68, 68, 68); fill-opacity: 1; white-space: pre; opacity: 1;" transform="translate(548.55,0)">800</text></g></g><g class="yaxislayer-above"><path class="ytick ticks crisp" style="stroke: rgb(68, 68, 68); stroke-opacity: 1; stroke-width: 1px;" d="M79,0h-5" transform="translate(0,355)"/><path class="ytick ticks crisp" style="stroke: rgb(68, 68, 68); stroke-opacity: 1; stroke-width: 1px;" d="M79,0h-5" transform="translate(0,310.86)"/><path class="ytick ticks crisp" style="stroke: rgb(68, 68, 68); stroke-opacity: 1; stroke-width: 1px;" d="M79,0h-5" transform="translate(0,266.72)"/><path class="ytick ticks crisp" style="stroke: rgb(68, 68, 68); stroke-opacity: 1; stroke-width: 1px;" d="M79,0h-5" transform="translate(0,222.57999999999998)"/><path class="ytick ticks crisp" style="stroke: rgb(68, 68, 68); stroke-opacity: 1; stroke-width: 1px;" d="M79,0h-5" transform="translate(0,178.44)"/><path class="ytick ticks crisp" style="stroke: rgb(68, 68, 68); stroke-opacity: 1; stroke-width: 1px;" d="M79,0h-5" transform="translate(0,134.3)"/><g class="ytick"><text text-anchor="end" x="71.6" y="4.199999999999999" style="font-family: TOBESTRIPPEDOpen SansTOBESTRIPPED, verdana, arial, sans-serif; font-size: 12px; fill: rgb(68, 68, 68); fill-opacity: 1; white-space: pre; opacity: 1;" transform="translate(0,355)">0.1</text></g><g class="ytick"><text text-anchor="end" x="71.6" y="4.199999999999999" style="font-family: TOBESTRIPPEDOpen SansTOBESTRIPPED, verdana, arial, sans-serif; font-size: 12px; fill: rgb(68, 68, 68); fill-opacity: 1; white-space: pre; opacity: 1;" transform="translate(0,310.86)">0.2</text></g><g class="ytick"><text text-anchor="end" x="71.6" y="4.199999999999999" style="font-family: TOBESTRIPPEDOpen SansTOBESTRIPPED, verdana, arial, sans-serif; font-size: 12px; fill: rgb(68, 68, 68); fill-opacity: 1; white-space: pre; opacity: 1;" transform="translate(0,266.72)">0.3</text></g><g class="ytick"><text text-anchor="end" x="71.6" y="4.199999999999999" style="font-family: TOBESTRIPPEDOpen SansTOBESTRIPPED, verdana, arial, sans-serif; font-size: 12px; fill: rgb(68, 68, 68); fill-opacity: 1; white-space: pre; opacity: 1;" transform="translate(0,222.57999999999998)">0.4</text></g><g class="ytick"><text text-anchor="end" x="71.6" y="4.199999999999999" style="font-family: TOBESTRIPPEDOpen SansTOBESTRIPPED, verdana, arial, sans-serif; font-size: 12px; fill: rgb(68, 68, 68); fill-opacity: 1; white-space: pre; opacity: 1;" transform="translate(0,178.44)">0.5</text></g><g class="ytick"><text text-anchor="end" x="71.6" y="4.199999999999999" style="font-family: TOBESTRIPPEDOpen SansTOBESTRIPPED, verdana, arial, sans-serif; font-size: 12px; fill: rgb(68, 68, 68); fill-opacity: 1; white-space: pre; opacity: 1;" transform="translate(0,134.3)">0.6</text></g></g><g class="overaxes-above"/></g></g><g class="polarlayer"/><g class="smithlayer"/><g class="ternarylayer"/><g class="geolayer"/><g class="funnelarealayer"/><g class="pielayer"/><g class="iciclelayer"/><g class="treemaplayer"/><g class="sunburstlayer"/><g class="glimages"/><defs id="topdefs-09d7c9"><g class="clips"/><clipPath id="legend09d7c9"><rect width="179" height="48" x="0" y="0"/></clipPath></defs><g class="layer-above"><g class="imagelayer"/><g class="shapelayer"/></g><g class="infolayer"><g class="legend" pointer-events="all" transform="translate(434.9818181818182,116)"><rect class="bg" shape-rendering="crispEdges" style="stroke: rgb(68, 68, 68); stroke-opacity: 1; fill: rgb(255, 255, 255); fill-opacity: 1; stroke-width: 0px;" width="179" height="48" x="0" y="0"/><g class="scrollbox" transform="" clip-path="url(#legend09d7c9)"><g class="groups"><g class="traces" style="opacity: 1;" transform="translate(0,14.5)"><text class="legendtext" text-anchor="start" style="font-family: TOBESTRIPPEDOpen SansTOBESTRIPPED, verdana, arial, sans-serif; font-size: 12px; fill: rgb(68, 68, 68); fill-opacity: 1; white-space: pre;" x="40" y="4.680000000000001">LSTM16 randomMany</text><g class="layers" style="opacity: 1;"><g class="legendfill"/><g class="legendlines"><path class="js-line" d="M5,0h30" style="fill: none; stroke: rgb(156, 39, 176); stroke-opacity: 1; stroke-width: 2px;"/></g><g class="legendsymbols"><g class="legendpoints"/></g></g><rect class="legendtoggle" style="fill: rgb(0, 0, 0); fill-opacity: 0;" x="0" y="-9.5" width="174" height="19"/></g><g class="traces" style="opacity: 1;" transform="translate(0,33.5)"><text class="legendtext" text-anchor="start" style="font-family: TOBESTRIPPEDOpen SansTOBESTRIPPED, verdana, arial, sans-serif; font-size: 12px; fill: rgb(68, 68, 68); fill-opacity: 1; white-space: pre;" x="40" y="4.680000000000001">LSTM32 randomMany</text><g class="layers" style="opacity: 1;"><g class="legendfill"/><g class="legendlines"><path class="js-line" d="M5,0h30" style="fill: none; stroke: rgb(33, 150, 243); stroke-opacity: 1; stroke-width: 2px;"/></g><g class="legendsymbols"><g class="legendpoints"/></g></g><rect class="legendtoggle" style="fill: rgb(0, 0, 0); fill-opacity: 0;" x="0" y="-9.5" width="174" height="19"/></g></g></g><rect class="scrollbar" rx="20" ry="3" width="0" height="0" style="fill: rgb(128, 139, 164); fill-opacity: 1;" x="0" y="0"/></g><g class="g-gtitle"><text class="gtitle" style="font-family: TOBESTRIPPEDOpen SansTOBESTRIPPED, verdana, arial, sans-serif; font-size: 17px; fill: rgb(68, 68, 68); opacity: 1; font-weight: normal; white-space: pre;" x="350" y="50" text-anchor="middle" dy="0em">Distortion randomMany models</text></g><g class="g-xtitle"><text class="xtitle" style="font-family: TOBESTRIPPEDOpen SansTOBESTRIPPED, verdana, arial, sans-serif; font-size: 14px; fill: rgb(68, 68, 68); opacity: 1; font-weight: normal; white-space: pre;" x="350" y="422" text-anchor="middle">Epochs</text></g><g class="g-ytitle"><text class="ytitle" transform="rotate(-90,42,235)" style="font-family: TOBESTRIPPEDOpen SansTOBESTRIPPED, verdana, arial, sans-serif; font-size: 14px; fill: rgb(68, 68, 68); opacity: 1; font-weight: normal; white-space: pre;" x="42" y="235" text-anchor="middle">Validation loss</text></g></g></svg>