<svg class="main-svg" xmlns="http://www.w3.org/2000/svg" xmlns:xlink="http://www.w3.org/1999/xlink" width="700" height="450" style="" viewBox="0 0 700 450"><rect x="0" y="0" width="700" height="450" style="fill: rgb(255, 255, 255); fill-opacity: 1;"/><defs id="defs-ea1254"><g class="clips"><clipPath id="clipea1254xyplot" class="plotclip"><rect width="540" height="270"/></clipPath><clipPath class="axesclip" id="clipea1254x"><rect x="80" y="0" width="540" height="450"/></clipPath><clipPath class="axesclip" id="clipea1254y"><rect x="0" y="100" width="700" height="270"/></clipPath><clipPath class="axesclip" id="clipea1254xy"><rect x="80" y="100" width="540" height="270"/></clipPath></g><g class="gradients"/><g class="patterns"/></defs><g class="bglayer"/><g class="layer-below"><g class="imagelayer"/><g class="shapelayer"/></g><g class="cartesianlayer"><g class="subplot xy"><g class="layer-subplot"><g class="shapelayer"/><g class="imagelayer"/></g><g class="minor-gridlayer"><g class="x"/><g class="y"/></g><g class="gridlayer"><g class="x"><path class="xgrid crisp" transform="translate(197.14,0)" d="M0,100v270" style="stroke: rgb(238, 238, 238); stroke-opacity: 1; stroke-width: 1px;"/><path class="xgrid crisp" transform="translate(314.27,0)" d="M0,100v270" style="stroke: rgb(238, 238, 238); stroke-opacity: 1; stroke-width: 1px;"/><path class="xgrid crisp" transform="translate(431.41,0)" d="M0,100v270" style="stroke: rgb(238, 238, 238); stroke-opacity: 1; stroke-width: 1px;"/><path class="xgrid crisp" transform="translate(548.55,0)" d="M0,100v270" style="stroke: rgb(238, 238, 238); stroke-opacity: 1; stroke-width: 1px;"/></g><g class="y"><path class="ygrid crisp" transform="translate(0,348.77)" d="M80,0h540" style="stroke: rgb(238, 238, 238); stroke-opacity: 1; stroke-width: 1px;"/><path class="ygrid crisp" transform="translate(0,288.99)" d="M80,0h540" style="stroke: rgb(238, 238, 238); stroke-opacity: 1; stroke-width: 1px;"/><path class="ygrid crisp" transform="translate(0,229.2)" d="M80,0h540" style="stroke: rgb(238, 238, 238); stroke-opacity: 1; stroke-width: 1px;"/><path class="ygrid crisp" transform="translate(0,169.42000000000002)" d="M80,0h540" style="stroke: rgb(238, 238, 238); stroke-opacity: 1; stroke-width: 1px;"/><path class="ygrid crisp" transform="translate(0,109.63)" d="M80,0h540" style="stroke: rgb(238, 238, 238); stroke-opacity: 1; stroke-width: 1px;"/></g></g><g class="zerolinelayer"/><path class="xlines-below"/><path class="ylines-below"/><g class="overlines-below"/><g class="xaxislayer-below"/><g class="yaxislayer-below"/><g class="overaxes-below"/><g class="plot" transform="translate(80,100)" clip-path="url(#clipea1254xyplot)"><g class="scatterlayer mlayer"><g class="trace scatter trace6e5226" style="stroke-miterlimit: 2; opacity: 1;"><g class="fills"/><g class="errorbars"/><g class="lines"><path class="js-line" style="vector-effect: none; fill: none; stroke: rgb(156, 39, 176); stroke-opacity: 1; stroke-width: 2px; opacity: 1;" d="M0,109.79L0.59,188.59L1.76,-121.34L2.34,86L2.93,140.31L3.51,101.16L4.1,192.97L4.69,-2322.18L5.86,176.99L6.44,120.09L7.03,202.8L7.61,173.23L8.2,205.17L8.79,-224.92L9.37,165L9.96,107.56L10.54,196.62L11.71,153.81L12.3,-168.44L13.47,202.07L14.06,186.57L14.64,208.14L15.23,199.8L15.81,168.57L16.4,197.09L16.98,147.91L17.57,197.45L18.16,-119.83L18.74,171.2L19.33,0.68L19.91,179.27L20.5,204.05L21.08,202.51L21.67,150.48L22.84,209.21L23.43,13.31L24.6,208.6L25.18,-133.74L25.77,5.11L26.94,173.81L27.53,182.05L28.7,206.5L29.28,203.27L30.46,206.07L31.04,202.61L31.63,209.95L32.21,206.94L33.38,184.57L33.97,209.83L34.56,192.19L35.14,194.86L35.73,213.26L36.31,213.64L36.9,209.48L37.48,206.86L38.07,209.74L38.66,197.89L39.24,207.68L39.83,209.61L40.41,204.55L41,211.49L41.58,209.52L42.17,211.86L42.75,202.7L43.34,205.66L43.93,211.37L44.51,209.54L45.1,202.87L45.68,212.12L46.27,209.4L46.85,215.07L47.44,203.15L48.03,212.91L48.61,205.07L49.2,208L49.78,210.79L50.37,204.7L50.95,211.59L51.54,201.54L52.13,213.34L52.71,211.68L53.3,202.87L53.88,212.88L54.47,209.4L55.05,210.98L55.64,199.71L56.23,202.04L56.81,213.01L57.4,209.59L57.98,216.13L59.15,205.42L59.74,208.03L60.33,211.49L60.91,208.12L62.08,201.93L62.67,213.14L63.25,213.4L63.84,212.33L64.43,212.42L65.01,201.56L66.18,210.3L66.77,208.58L67.35,200.51L67.94,211.48L69.11,207.56L69.7,212.11L70.28,208.99L70.87,212.41L71.45,214.51L72.04,211.68L72.62,212.74L73.21,210.34L73.8,209.55L74.38,215.29L74.97,208.19L75.55,210.51L76.72,213.14L77.31,209.01L77.9,205.49L78.48,209.29L79.07,206.44L79.65,210.93L80.24,206.2L80.82,212.54L81.41,202.89L82,212.31L82.58,207.48L83.17,208.09L83.75,208.53L84.34,213.24L84.92,206.6L85.51,208.16L86.1,207.42L86.68,201.97L87.27,202.35L87.85,212.7L88.44,213.6L89.02,210.54L90.78,212.81L91.37,209.15L91.95,213.03L92.54,207.85L93.12,213.03L93.71,205.01L94.88,212.35L95.47,207.4L96.05,213.97L96.64,199.08L97.81,211.91L98.39,211.11L98.98,215.15L99.57,214.68L100.15,213.99L101.32,207.85L101.91,213.67L102.49,210.97L103.08,212.36L104.25,213.57L104.84,208.49L106.01,212.53L106.59,204.7L107.18,207.32L107.77,214.36L109.52,209.68L110.11,215.24L110.69,208.93L111.28,212.52L111.87,211.21L112.45,212.07L113.04,211.82L113.62,201.1L114.21,209.44L114.79,207.06L115.38,206.58L115.97,206.84L116.55,210.71L117.14,210.46L117.72,213.32L118.31,213.44L118.89,210.91L119.48,212.74L120.07,206.05L120.65,208.71L121.24,206.22L122.41,203.29L122.99,212.62L124.16,210.41L124.75,214.16L125.92,207.17L126.51,211.86L127.09,211.47L127.68,205.6L128.85,211.4L129.44,212.3L130.02,214.84L130.61,207.4L131.19,212.34L131.78,205.71L132.36,202.46L132.95,210.26L133.54,211.45L134.12,204.43L135.29,210.6L135.88,205.43L137.05,213.94L137.64,211.47L138.22,209.17L138.81,216.16L139.39,204.31L139.98,208.85L141.15,213.39L141.74,205.74L142.32,209.83L142.91,209.31L143.49,206.22L144.66,212.51L145.25,204.36L146.42,209.74L147.01,209.33L147.59,205.13L148.76,210.08L149.35,211.27L150.52,209.15L151.11,209.24L152.28,211.37L152.86,209.53L153.45,212.52L154.03,212.28L154.62,208.51L155.79,209.38L156.38,213.76L156.96,215.35L157.55,208.57L158.72,212.66L159.31,210.22L159.89,214.01L160.48,210.38L161.65,210.71L162.23,211.27L162.82,212.35L163.41,210.47L163.99,209.69L164.58,210.23L165.16,212.73L165.75,209.94L166.33,208.51L166.92,211.65L167.51,208.71L168.09,209.74L168.68,204.44L169.26,207.69L169.85,199.79L170.43,206.45L171.02,214.71L171.61,211.66L172.19,217.01L172.78,210.21L173.36,211.9L173.95,208.31L174.53,207.41L175.12,210.66L176.29,206.42L176.88,200.86L178.05,213.58L178.63,206.74L179.22,207.97L179.8,201.12L180.98,214.85L181.56,208.98L182.15,213.3L182.73,211.83L183.32,200.12L183.9,215.03L184.49,208.34L185.08,210.04L185.66,192.47L186.25,210.97L186.83,205.82L187.42,211.88L189.18,205.64L189.76,207.41L190.35,209.57L190.93,209.26L191.52,208.87L192.69,198.71L193.28,207.76L193.86,202.1L194.45,209.18L195.62,204.6L196.2,204.66L198.55,213.44L199.13,210.61L199.72,213.78L200.3,203.79L200.89,203.09L201.48,206.4L202.06,211.34L202.65,210.04L203.23,213.49L203.82,211.74L204.4,215.39L204.99,215.93L205.57,205.8L206.16,214.07L206.75,213.49L207.33,201.53L208.5,213.76L209.09,212.22L209.67,209.14L210.26,210.22L210.85,206.7L211.43,208.35L212.02,208.16L212.6,206.15L214.95,213.84L215.53,212.9L216.12,207.11L216.7,216.51L217.29,198.75L217.87,208.43L218.46,211.71L219.05,202.26L219.63,213.12L220.22,204.27L220.8,211.6L221.39,208.86L221.97,213.62L222.56,204.52L223.73,211.8L224.32,207.24L224.9,210.47L225.49,209L226.66,211.58L227.25,209.05L227.83,207.1L228.42,212.05L229,210.97L229.59,203.44L230.17,212.6L230.76,210.22L231.34,212.33L231.93,210.47L232.52,210.82L233.1,209.62L233.69,215.14L234.27,209.89L234.86,205.69L235.44,210.02L236.03,209.43L236.62,203.43L237.2,208.18L237.79,203.72L238.37,211.08L238.96,207.26L241.3,214.74L241.89,210.21L242.47,208.62L243.06,210.62L243.64,204.78L244.23,205.44L244.82,209.36L245.4,208.77L245.99,212.54L246.57,212.48L247.16,217.61L247.74,196.01L248.33,208.71L248.92,215.56L249.5,205.16L250.67,215.47L251.26,212.32L252.43,209.64L253.02,213.44L254.19,209.76L254.77,212.42L255.36,209.67L255.94,214.57L257.11,206.42L257.7,212.08L258.87,208.07L259.46,203.54L260.63,212.36L261.21,204.55L261.8,216.3L262.39,214.46L262.97,211.59L264.14,204.87L264.73,211.28L265.31,206.85L265.9,209.55L266.49,211.5L267.07,209.29L268.83,217.1L269.41,209.54L270,208.48L270.59,213.41L271.17,205.68L271.76,214.17L272.93,207.5L273.51,212.62L274.1,205.29L274.69,210.64L275.27,207.39L275.86,212.45L276.44,211.25L277.03,206.26L277.61,211.23L278.2,209.14L278.79,206.41L279.37,206.75L279.96,210.57L281.13,212.95L281.71,206.77L282.3,209.6L282.89,204.29L283.47,214.06L284.06,209.41L284.64,210.56L285.23,209.18L285.81,209.89L286.4,202.8L286.98,211.97L287.57,209.43L288.16,213.9L288.74,210.2L289.33,210.31L289.91,212.84L291.08,204.75L291.67,210.38L292.26,212.79L292.84,211.68L294.6,204.94L295.18,206.27L295.77,200.47L296.36,212.43L296.94,209.13L297.53,210.95L298.7,208.43L299.28,209.13L299.87,209.41L300.46,202.87L301.04,212.53L301.63,210.29L302.21,201.1L302.8,211.54L303.38,201.61L304.56,212.8L305.14,204.2L305.73,209.63L306.31,207.44L306.9,211.03L307.48,203.81L308.66,211.81L309.24,212.45L309.83,201.32L310.41,211.38L311,204.6L311.58,210.74L312.75,208.12L313.34,211.59L313.93,212.84L314.51,210.33L315.1,207.45L315.68,211.23L316.27,202.27L316.85,209.75L317.44,206.76L318.03,213.13L319.2,211.16L319.78,213.11L320.37,202.93L320.95,203.07L321.54,212.49L323.3,206.98L323.88,212.88L325.05,205.27L325.64,213.7L327.4,206.25L327.98,213.34L328.57,207.2L329.15,212.77L329.74,207.31L330.33,212.18L330.91,213.06L331.5,208.88L332.08,208.21L332.67,203.8L333.25,211.81L333.84,209L335.01,206.02L335.6,211.59L336.18,210.95L336.77,212.79L337.94,211.08L338.52,210.67L339.11,210.34L339.7,208.51L340.28,211.71L340.87,206.38L341.45,203.41L342.04,207.79L342.62,213.23L343.21,204.67L343.8,213.03L344.38,210.35L345.55,194.98L346.14,208.48L346.72,208.53L347.31,213.81L347.9,209.05L348.48,214.8L349.65,201.24L350.24,206.9L350.82,203.16L351.41,209.67L352,203.92L352.58,208.28L353.17,211.05L353.75,205.84L354.34,211.49L354.92,209.07L356.1,215.62L356.68,209.64L357.27,214.41L357.85,212.4L358.44,213.9L359.02,203.08L360.2,211.96L360.78,206.92L361.95,206.08L362.54,215.47L363.12,203.23L363.71,206.52L364.3,205.63L364.88,207.51L365.47,213.81L366.05,207.85L366.64,213.02L367.22,209.87L367.81,210.56L368.39,213.62L368.98,206.92L369.57,210.25L370.15,204.94L370.74,208.06L371.32,206.59L371.91,209.42L372.49,204.7L373.08,213.99L373.67,206L374.25,211.55L374.84,204.27L375.42,207.18L377.18,208.13L377.77,210.04L378.35,212.13L378.94,209.56L380.69,211.11L381.28,210.5L382.45,211.04L383.04,208.23L383.62,211.86L384.21,206.52L384.79,212.39L385.38,200.95L385.97,201.44L386.55,213.01L387.14,208.13L387.72,212.51L388.31,214.34L388.89,207.08L389.48,205.28L390.07,211.57L391.24,212.51L391.82,207.75L392.41,209.55L392.99,208.53L393.58,204.91L394.16,207.65L394.75,207.92L395.34,210.82L395.92,210.28L396.51,212.01L397.09,206.46L397.68,208.47L398.85,210.62L399.44,207.14L400.02,204.66L400.61,212.64L401.19,213.08L401.78,215.27L402.36,211.52L402.95,214.51L403.54,210.24L404.12,212.55L405.29,209.44L405.88,209.94L406.46,214.37L407.05,203.02L408.22,212.87L408.81,209.49L409.39,210.47L409.98,213.05L411.15,208.56L411.74,212.78L412.91,209.7L413.49,212.83L414.08,210.98L414.66,213.91L415.25,208.65L415.84,213.45L416.42,207.45L417.01,212.54L417.59,207.83L418.18,211.56L418.76,212.91L419.35,201.1L419.93,201.11L420.52,209.91L421.11,205.61L421.69,214.92L422.86,209.82L423.45,211.53L424.03,213.96L424.62,211.41L425.21,203.25L425.79,209.98L426.38,206.88L426.96,213.19L427.55,198.61L428.13,211.61L428.72,214.79L429.31,212.82L430.48,200.3L431.06,198.19L431.65,212.06L432.23,209.85L432.82,209.65L433.41,203.21L433.99,213.77L434.58,215.6L435.16,208.58L435.75,215.91L436.33,209.76L436.92,212.92L437.51,211.37L439.26,210.01L439.85,207.45L441.02,209.53L441.61,212.78L442.19,211.59L442.78,200.64L443.95,214.78L444.53,201.84L445.7,212.41L446.29,214.32L446.88,209.13L447.46,210.24L448.05,208.15L448.63,211.73L449.22,207.5L449.8,212.5L450.39,209.94L450.98,208.16L451.56,212.76L452.15,205.7L452.73,213.46L453.32,214.46L453.9,207.21L454.49,205L455.08,209.72L455.66,206.22L456.25,209.08L457.42,215.19L458,206.65L458.59,204.72L459.18,206.87L459.76,212.35L460.35,207.07L460.93,213.26L461.52,207.18L462.1,212.54L462.69,210.43L463.28,206.29L463.86,211.47L465.03,214.44L465.62,207.31L466.2,207.32L466.79,211.17L467.38,212.8L467.96,210.83L468.55,214.17L469.13,213.72L469.72,209.51L470.3,206.42L470.89,214.82L472.65,207.79L473.23,214.83L474.99,206.59L475.57,210.95L476.75,207.04L477.33,212.88L477.92,212.83L478.5,207.74L479.09,208.61L479.67,206.65L480.26,207.06L480.85,206.23L482.02,209.51L482.6,192.67L483.77,212.06L484.36,207.88L484.95,212.8L485.53,202.76L486.12,213.66L486.7,210.86L487.29,205.62L488.46,210.72L489.05,205.49L489.63,211.87L490.22,207.24L491.39,212.19L491.97,209.86L492.56,210.62L493.15,206.14L493.73,207.98L494.32,207.49L494.9,213.52L495.49,204.04L496.07,211.01L497.25,210.43L497.83,206.87L498.42,213.28L499,207.83L499.59,203.15L500.17,209L501.34,213.43L501.93,203.87L502.52,214.96L503.1,210.23L503.69,214.84L504.27,205.46L504.86,211.05L505.44,208.19L506.03,206.35L506.62,212.76L507.2,203.61L507.79,211.01L508.37,205.27L508.96,209.09L509.54,211L510.13,207.93L510.72,212.52L511.3,205.48L511.89,215.59L512.47,208.02L513.06,213.95L513.64,204.36L514.23,209.82L514.82,208.74L515.4,210.65L515.99,203.82L516.57,213.97L518.33,206.14L518.92,210.33L520.09,203.34L520.67,206.44L521.84,208.5L522.43,207L523.02,214.46L523.6,210.89L524.19,212.08L524.77,208.24L525.36,208.36L525.94,204.47L526.53,204.67L527.11,212.64L527.7,207.61L528.29,211.74L528.87,209.41L529.46,212.59L530.04,212.36L530.63,210.67L531.21,210.96L531.8,207.64L532.39,209.1L532.97,212.76L533.56,207.47L534.14,208.95L534.73,204.49L536.49,212.33L537.07,210.63L537.66,200.05L538.24,207.67L538.83,212.01L539.41,211.07L540,211.04"/></g><g class="points"/><g class="text"/></g><g class="trace scatter trace6ce32f" style="stroke-miterlimit: 2; opacity: 1;"><g class="fills"/><g class="errorbars"/><g class="lines"><path class="js-line" style="vector-effect: none; fill: none; stroke: rgb(33, 150, 243); stroke-opacity: 1; stroke-width: 2px; opacity: 1;" d="M0,141.21L0.59,140.03L1.17,-454.15L2.93,204.12L3.51,173.68L4.1,166.46L4.69,199.97L5.27,212.54L5.86,-559.36L6.44,203.09L7.61,-241.25L8.2,38.48L8.79,208.13L9.37,107.8L9.96,176.85L10.54,-689.28L11.13,-201.1L11.71,102.97L12.3,-305.63L13.47,207.46L14.06,216.8L14.64,162.63L15.23,192.84L15.81,192.57L16.4,-27.84L16.98,229.9L17.57,218.33L18.16,-54.68L18.74,224.52L19.33,207.51L19.91,189.7L20.5,135.94L21.08,233.67L21.67,175.69L22.26,216.82L23.43,150.15L24.01,171.16L25.18,219.08L25.77,113.73L26.36,225.95L26.94,169.56L27.53,215.31L28.11,186.6L29.28,222.25L29.87,229.56L30.46,234.83L31.04,231.52L31.63,231.48L32.21,222.61L33.38,216.41L33.97,229.93L35.73,226.05L36.31,219.34L36.9,219.52L37.48,227.34L38.07,227.33L38.66,229.98L39.24,225.95L39.83,232.09L41,217.57L41.58,223.77L42.17,226.17L42.75,222.96L43.34,234.97L43.93,222.82L44.51,226.93L45.1,226.73L45.68,225.65L46.27,224.39L46.85,227.65L47.44,228.31L48.03,231.22L48.61,221.32L49.2,228.03L50.37,226.51L50.95,233.77L52.13,219.67L52.71,226.86L53.88,229.29L54.47,229.33L55.05,225.7L55.64,226.94L56.23,222.9L56.81,226.07L57.4,225.56L57.98,222.61L59.15,229.83L59.74,217.7L61.5,231.9L62.08,228.11L62.67,224.29L63.25,227.44L64.43,227.04L65.01,230.87L65.6,230.16L66.18,231.38L66.77,214.09L67.35,233.89L68.52,230.32L69.11,231.65L70.87,223.75L71.45,225.43L72.04,220.44L72.62,223.53L73.21,228.22L73.8,226.91L74.38,230.82L74.97,224.67L75.55,226.23L76.14,221.73L76.72,231.57L77.31,226.73L77.9,230.11L78.48,227.42L79.07,228.09L79.65,225.03L80.82,229.82L81.41,223.42L82,227.3L82.58,215.56L83.17,217.36L83.75,228.93L84.34,224.49L84.92,230.48L85.51,222.97L86.1,225.52L86.68,228.11L87.27,221.41L87.85,228.19L88.44,215.64L89.02,229.49L89.61,228.55L90.2,228.61L90.78,224.8L91.37,230.39L91.95,223.68L92.54,228.24L93.12,230.08L93.71,227.23L94.3,223.53L94.88,230.86L96.05,219.62L96.64,227L97.22,229.84L97.81,225.08L98.39,229.87L98.98,228.44L99.57,226.37L100.15,229.6L100.74,228.27L101.32,222.89L101.91,230.72L102.49,227.77L103.08,225.03L103.67,225.68L104.25,227.79L104.84,228.94L105.42,223.91L106.59,233.6L107.18,229.94L108.94,226.94L109.52,223.13L110.11,224.64L110.69,230.8L111.28,226.64L111.87,231.47L113.04,225.98L113.62,226.91L114.21,225.4L114.79,225.71L115.38,225.43L115.97,223.81L116.55,227.01L117.14,222.23L117.72,229L119.48,225.41L120.07,228.89L120.65,227.04L121.24,229.07L121.82,230.18L122.41,227.66L122.99,222.43L123.58,232.72L124.16,221.6L124.75,226.48L125.92,231.73L126.51,228.21L127.09,210.11L127.68,226.51L128.26,233.57L128.85,228.14L129.44,228.47L130.02,232.02L130.61,226.47L131.19,228.58L131.78,220.76L132.36,225.49L133.54,229.26L134.12,227.74L135.29,228.7L135.88,227.03L136.46,227.26L137.05,231.36L137.64,224.08L138.22,227.47L138.81,225.67L139.39,230.55L139.98,232.01L140.56,218.78L141.74,228.67L142.32,225.56L143.49,231.66L144.08,225.82L145.25,229.26L145.84,228.44L146.42,231.6L147.01,224.97L147.59,219.17L148.18,226.61L149.35,213.23L149.93,228.25L151.69,222.74L152.28,229.2L152.86,231.16L153.45,224.91L154.03,225.35L154.62,221.19L155.79,231.35L156.38,228.98L157.55,223.07L158.13,228.89L159.31,222.39L159.89,229.29L160.48,231.19L161.06,227.47L162.82,230.91L163.41,229.54L163.99,224.98L164.58,232.26L165.16,219.16L165.75,229.94L166.33,226.79L166.92,227.14L167.51,228.54L168.09,228.93L168.68,225.23L169.26,226.32L169.85,231.84L170.43,232.57L171.02,224.37L172.19,231.44L172.78,230L173.36,230.65L173.95,226.01L175.7,229.27L176.29,229.33L176.88,226.99L177.46,230.28L178.05,219.75L178.63,226.18L179.8,226.06L180.39,222.12L181.56,230.5L182.15,230.54L183.32,225.68L183.9,230.45L184.49,230.41L185.08,223.8L186.25,232.23L186.83,229.45L187.42,224.77L188,229.14L188.59,227.63L189.18,232.63L189.76,220.79L190.35,233.72L191.52,227.23L192.1,228.3L193.28,224.95L193.86,228.3L194.45,227.18L195.03,233.41L196.2,224.1L196.79,225.11L197.38,222.69L197.96,232.7L198.55,226.5L199.13,220.82L199.72,227.27L200.3,230.49L200.89,219.74L201.48,230.76L202.06,229.84L202.65,230.3L203.82,230.54L204.4,225.54L204.99,228.12L205.57,227.77L206.16,226.36L206.75,227.23L207.33,229.64L208.5,226.66L209.09,228.18L209.67,222.4L210.26,222.54L210.85,224.96L212.02,232.29L212.6,225.95L213.19,230.12L213.77,229.87L214.36,228.94L214.95,227.31L215.53,229.45L217.29,226.24L217.87,227.92L219.05,225.86L219.63,231.65L220.8,227.75L221.39,232.28L221.97,227.15L222.56,230.73L223.15,229.37L223.73,219.61L225.49,229.87L226.07,221.87L226.66,231.79L227.25,228.55L228.42,227.7L229,229.07L229.59,227.18L230.17,228.37L231.93,228.81L232.52,232.45L233.1,232.25L233.69,227.36L234.27,227.49L234.86,225.55L236.03,229.89L236.62,229.28L237.2,231.99L237.79,229.89L238.37,229.18L238.96,225.7L239.54,226.34L240.13,230.62L240.72,224.55L241.3,231.23L242.47,223.18L243.06,231.11L243.64,225.75L244.23,228.67L244.82,225.9L245.4,227.84L245.99,229.18L246.57,227.83L247.16,231.01L247.74,229.66L248.33,227.21L248.92,227.7L249.5,203.2L250.09,227.51L250.67,225.48L251.26,226.95L251.84,223.61L252.43,229.15L253.02,228.51L253.6,223.11L254.77,232.72L255.36,224.56L255.94,217.32L256.53,225.86L257.11,225.38L257.7,222.39L258.29,229.49L258.87,225.96L259.46,225.29L260.04,229.27L260.63,229.49L261.21,231.51L262.39,226.95L262.97,226.58L263.56,227.67L264.14,231.33L265.9,222.7L266.49,223.29L267.66,231.52L268.24,231.97L268.83,233.36L269.41,229.42L270,227.69L270.59,228.06L271.17,223.52L271.76,224.88L272.34,228.64L272.93,230.34L273.51,224.81L274.69,229.51L275.27,230.38L275.86,231.52L276.44,229.86L277.61,223.2L278.2,225.13L278.79,227.36L279.37,225.18L279.96,220.89L280.54,228.75L281.13,230.24L281.71,224.14L283.47,225.77L284.06,223.91L284.64,226.35L285.23,232.35L285.81,225.79L286.4,231.73L287.57,223.45L288.16,226.62L288.74,224.11L289.33,228.47L289.91,231.34L290.5,225.41L291.67,230.39L292.26,230.2L292.84,226.66L293.43,230.94L294.6,224.24L295.18,224.07L295.77,230.03L296.36,226.55L297.53,231.47L298.11,229.57L298.7,231.14L299.28,229.81L299.87,230.66L300.46,228.84L301.04,228.65L301.63,230.46L302.21,227.45L302.8,231.8L303.38,226.13L303.97,229.01L304.56,228.48L305.14,219.16L305.73,231.16L306.31,228.45L306.9,225.54L307.48,224.61L308.07,227.26L308.66,221.88L309.24,231.27L310.41,219.21L311,230.77L311.58,228.63L312.17,231.34L312.75,227.76L313.34,230.99L314.51,224.49L315.1,229.03L315.68,226.41L316.27,231.25L316.85,225.46L317.44,227.54L318.03,222.04L318.61,222.64L319.2,228.74L320.37,226.34L320.95,230.17L321.54,225.92L322.13,226.43L322.71,227.85L323.3,225.48L323.88,227.41L324.47,215.75L325.05,228.29L326.23,229.58L326.81,225.49L327.4,231.34L327.98,229.97L328.57,229.95L329.15,230.06L329.74,224.49L330.33,227.74L330.91,227.16L331.5,227.39L332.08,224.97L332.67,229.24L333.25,219.04L333.84,228.14L335.01,226.32L335.6,226.76L336.18,227.33"/></g><g class="points"/><g class="text"/></g></g></g><g class="overplot"/><path class="xlines-above crisp" style="fill: none; stroke-width: 1px; stroke: rgb(68, 68, 68); stroke-opacity: 1;" d="M79,370.5H620"/><path class="ylines-above crisp" style="fill: none; stroke-width: 1px; stroke: rgb(68, 68, 68); stroke-opacity: 1;" d="M79.5,100V370"/><g class="overlines-above"/><g class="xaxislayer-above"><path class="xtick ticks crisp" style="stroke: rgb(68, 68, 68); stroke-opacity: 1; stroke-width: 1px;" d="M0,371v5" transform="translate(80,0)"/><path class="xtick ticks crisp" style="stroke: rgb(68, 68, 68); stroke-opacity: 1; stroke-width: 1px;" d="M0,371v5" transform="translate(197.14,0)"/><path class="xtick ticks crisp" style="stroke: rgb(68, 68, 68); stroke-opacity: 1; stroke-width: 1px;" d="M0,371v5" transform="translate(314.27,0)"/><path class="xtick ticks crisp" style="stroke: rgb(68, 68, 68); stroke-opacity: 1; stroke-width: 1px;" d="M0,371v5" transform="translate(431.41,0)"/><path class="xtick ticks crisp" style="stroke: rgb(68, 68, 68); stroke-opacity: 1; stroke-width: 1px;" d="M0,371v5" transform="translate(548.55,0)"/><g class="xtick"><text text-anchor="middle" x="0" y="390.4" style="font-family: TOBESTRIPPEDOpen SansTOBESTRIPPED, verdana, arial, sans-serif; font-size: 12px; fill: rgb(68, 68, 68); fill-opacity: 1; white-space: pre; opacity: 1;" transform="translate(80,0)">0</text></g><g class="xtick"><text text-anchor="middle" x="0" y="390.4" style="font-family: TOBESTRIPPEDOpen SansTOBESTRIPPED, verdana, arial, sans-serif; font-size: 12px; fill: rgb(68, 68, 68); fill-opacity: 1; white-space: pre; opacity: 1;" transform="translate(197.14,0)">200</text></g><g class="xtick"><text text-anchor="middle" x="0" y="390.4" style="font-family: TOBESTRIPPEDOpen SansTOBESTRIPPED, verdana, arial, sans-serif; font-size: 12px; fill: rgb(68, 68, 68); fill-opacity: 1; white-space: pre; opacity: 1;" transform="translate(314.27,0)">400</text></g><g class="xtick"><text text-anchor="middle" x="0" y="390.4" style="font-family: TOBESTRIPPEDOpen SansTOBESTRIPPED, verdana, arial, sans-serif; font-size: 12px; fill: rgb(68, 68, 68); fill-opacity: 1; white-space: pre; opacity: 1;" transform="translate(431.41,0)">600</text></g><g class="xtick"><text text-anchor="middle" x="0" y="390.4" style="font-family: TOBESTRIPPEDOpen SansTOBESTRIPPED, verdana, arial, sans-serif; font-size: 12px; fill: rgb(68, 68, 68); fill-opacity: 1; white-space: pre; opacity: 1;" transform="translate(548.55,0)">800</text></g></g><g class="yaxislayer-above"><path class="ytick ticks crisp" style="stroke: rgb(68, 68, 68); stroke-opacity: 1; stroke-width: 1px;" d="M79,0h-5" transform="translate(0,348.77)"/><path class="ytick ticks crisp" style="stroke: rgb(68, 68, 68); stroke-opacity: 1; stroke-width: 1px;" d="M79,0h-5" transform="translate(0,288.99)"/><path class="ytick ticks crisp" style="stroke: rgb(68, 68, 68); stroke-opacity: 1; stroke-width: 1px;" d="M79,0h-5" transform="translate(0,229.2)"/><path class="ytick ticks crisp" style="stroke: rgb(68, 68, 68); stroke-opacity: 1; stroke-width: 1px;" d="M79,0h-5" transform="translate(0,169.42000000000002)"/><path class="ytick ticks crisp" style="stroke: rgb(68, 68, 68); stroke-opacity: 1; stroke-width: 1px;" d="M79,0h-5" transform="translate(0,109.63)"/><g class="ytick"><text text-anchor="end" x="71.6" y="4.199999999999999" style="font-family: TOBESTRIPPEDOpen SansTOBESTRIPPED, verdana, arial, sans-serif; font-size: 12px; fill: rgb(68, 68, 68); fill-opacity: 1; white-space: pre; opacity: 1;" transform="translate(0,348.77)">0.14</text></g><g class="ytick"><text text-anchor="end" x="71.6" y="4.199999999999999" style="font-family: TOBESTRIPPEDOpen SansTOBESTRIPPED, verdana, arial, sans-serif; font-size: 12px; fill: rgb(68, 68, 68); fill-opacity: 1; white-space: pre; opacity: 1;" transform="translate(0,288.99)">0.16</text></g><g class="ytick"><text text-anchor="end" x="71.6" y="4.199999999999999" style="font-family: TOBESTRIPPEDOpen SansTOBESTRIPPED, verdana, arial, sans-serif; font-size: 12px; fill: rgb(68, 68, 68); fill-opacity: 1; white-space: pre; opacity: 1;" transform="translate(0,229.2)">0.18</text></g><g class="ytick"><text text-anchor="end" x="71.6" y="4.199999999999999" style="font-family: TOBESTRIPPEDOpen SansTOBESTRIPPED, verdana, arial, sans-serif; font-size: 12px; fill: rgb(68, 68, 68); fill-opacity: 1; white-space: pre; opacity: 1;" transform="translate(0,169.42000000000002)">0.2</text></g><g class="ytick"><text text-anchor="end" x="71.6" y="4.199999999999999" style="font-family: TOBESTRIPPEDOpen SansTOBESTRIPPED, verdana, arial, sans-serif; font-size: 12px; fill: rgb(68, 68, 68); fill-opacity: 1; white-space: pre; opacity: 1;" transform="translate(0,109.63)">0.22</text></g></g><g class="overaxes-above"/></g></g><g class="polarlayer"/><g class="smithlayer"/><g class="ternarylayer"/><g class="geolayer"/><g class="funnelarealayer"/><g class="pielayer"/><g class="iciclelayer"/><g class="treemaplayer"/><g class="sunburstlayer"/><g class="glimages"/><defs id="topdefs-ea1254"><g class="clips"/><clipPath id="legendea1254"><rect width="214" height="48" x="0" y="0"/></clipPath></defs><g class="layer-above"><g class="imagelayer"/><g class="shapelayer"/></g><g class="infolayer"><g class="legend" pointer-events="all" transform="translate(392.6051948051948,100)"><rect class="bg" shape-rendering="crispEdges" style="stroke: rgb(68, 68, 68); stroke-opacity: 1; fill: rgb(255, 255, 255); fill-opacity: 1; stroke-width: 0px;" width="214" height="48" x="0" y="0"/><g class="scrollbox" transform="" clip-path="url(#legendea1254)"><g class="groups"><g class="traces" style="opacity: 1;" transform="translate(0,14.5)"><text class="legendtext" text-anchor="start" style="font-family: TOBESTRIPPEDOpen SansTOBESTRIPPED, verdana, arial, sans-serif; font-size: 12px; fill: rgb(68, 68, 68); fill-opacity: 1; white-space: pre;" x="40" y="4.680000000000001">DIST LSTM16 randomMany</text><g class="layers" style="opacity: 1;"><g class="legendfill"/><g class="legendlines"><path class="js-line" d="M5,0h30" style="fill: none; stroke: rgb(156, 39, 176); stroke-opacity: 1; stroke-width: 2px;"/></g><g class="legendsymbols"><g class="legendpoints"/></g></g><rect class="legendtoggle" style="fill: rgb(0, 0, 0); fill-opacity: 0;" x="0" y="-9.5" width="208.88333129882812" height="19"/></g><g class="traces" style="opacity: 1;" transform="translate(0,33.5)"><text class="legendtext" text-anchor="start" style="font-family: TOBESTRIPPEDOpen SansTOBESTRIPPED, verdana, arial, sans-serif; font-size: 12px; fill: rgb(68, 68, 68); fill-opacity: 1; white-space: pre;" x="40" y="4.680000000000001">DIST LSTM32 randomMany</text><g class="layers" style="opacity: 1;"><g class="legendfill"/><g class="legendlines"><path class="js-line" d="M5,0h30" style="fill: none; stroke: rgb(33, 150, 243); stroke-opacity: 1; stroke-width: 2px;"/></g><g class="legendsymbols"><g class="legendpoints"/></g></g><rect class="legendtoggle" style="fill: rgb(0, 0, 0); fill-opacity: 0;" x="0" y="-9.5" width="208.88333129882812" height="19"/></g></g></g><rect class="scrollbar" rx="20" ry="3" width="0" height="0" style="fill: rgb(128, 139, 164); fill-opacity: 1;" x="0" y="0"/></g><g class="g-gtitle"><text class="gtitle" style="font-family: TOBESTRIPPEDOpen SansTOBESTRIPPED, verdana, arial, sans-serif; font-size: 17px; fill: rgb(68, 68, 68); opacity: 1; font-weight: normal; white-space: pre;" x="350" y="50" text-anchor="middle" dy="0em">Distortion randomMany models</text></g><g class="g-xtitle"><text class="xtitle" style="font-family: TOBESTRIPPEDOpen SansTOBESTRIPPED, verdana, arial, sans-serif; font-size: 14px; fill: rgb(68, 68, 68); opacity: 1; font-weight: normal; white-space: pre;" x="350" y="422" text-anchor="middle">Epochs</text></g><g class="g-ytitle" transform="translate(-4.2666015625,0)"><text class="ytitle" transform="rotate(-90,42,235)" style="font-family: TOBESTRIPPEDOpen SansTOBESTRIPPED, verdana, arial, sans-serif; font-size: 14px; fill: rgb(68, 68, 68); opacity: 1; font-weight: normal; white-space: pre;" x="42" y="235" text-anchor="middle">Validation Loss</text></g></g></svg>